<?xml version="1.0" encoding="utf-8"?>
<!-- Generator: Adobe Illustrator 23.0.0, SVG Export Plug-In . SVG Version: 6.00 Build 0)  -->
<svg version="1.1" id="Layer_1" xmlns="http://www.w3.org/2000/svg" xmlns:xlink="http://www.w3.org/1999/xlink" x="0px" y="0px"
	 viewBox="0 0 269.3 95.8" style="enable-background:new 0 0 269.3 95.8;" xml:space="preserve">
<style type="text/css">
	.st0{fill:#FFFFFF;}
</style>
<title>Cushman &amp;amp; Wakefield Marketing White</title>
<path class="st0" d="M118.1,59.1c-4,0-6.4-2.2-6.4-6.6V44h3.2v8.4c0,2.4,1.2,3.7,3.2,3.7s3.2-1.2,3.2-3.6V44h3.3v8.4
	C124.6,56.9,122.1,59.1,118.1,59.1"/>
<path class="st0" d="M134.5,59.1c-2.3,0-4.6-0.9-6.3-2.4l1.9-2.3c1.2,1.1,2.8,1.8,4.4,1.8c1.3,0,2.2-0.5,2.2-1.4v0
	c0-0.8-0.5-1.3-3-1.9c-3-0.8-4.9-1.7-4.9-4.6v0c0-2.7,2.2-4.5,5.2-4.5c2,0,4,0.6,5.5,1.9l-1.7,2.5c-1.1-0.9-2.5-1.4-3.9-1.5
	c-1.3,0-1.9,0.6-1.9,1.3v0c0,1,0.6,1.4,3.2,2c3,0.8,4.7,1.9,4.7,4.5v0C140,57.5,137.7,59.1,134.5,59.1"/>
<polygon class="st0" points="153.7,58.9 153.7,52.9 147.7,52.9 147.7,58.9 144.4,58.9 144.4,44 147.7,44 147.7,49.9 153.7,49.9 
	153.7,44 157,44 157,58.9 "/>
<polygon class="st0" points="210.5,58.9 203.5,49.6 203.5,58.9 200.3,58.9 200.3,44 203.3,44 210.3,53.5 210.3,44 213.5,44 
	213.5,58.9 "/>
<polygon class="st0" points="146.5,79.2 141.9,72.8 140.2,74.6 140.2,79.2 136.9,79.2 136.9,64.3 140.2,64.3 140.2,70.8 146.2,64.3 
	150.2,64.3 144.1,70.6 150.4,79.2 "/>
<polygon class="st0" points="154.1,79.2 154.1,64.3 165.2,64.3 165.2,67.2 157.3,67.2 157.3,70.2 164.3,70.2 164.3,73.1 157.3,73.1 
	157.3,76.3 165.3,76.3 165.3,79.2 "/>
<rect x="185.7" y="64.3" class="st0" width="3.3" height="14.9"/>
<polygon class="st0" points="193.8,79.1 193.8,64.3 205,64.3 205,67.2 197.1,67.2 197.1,70.2 204,70.2 204,73.1 197.1,73.1 
	197.1,76.2 205.1,76.2 205.1,79.1 "/>
<polygon class="st0" points="210,79.2 210,64.3 213.2,64.3 213.2,76.2 220.6,76.2 220.6,79.2 "/>
<path class="st0" d="M230.4,79.2h-5.8V64.3h5.8c4.7,0,7.9,3.2,7.9,7.4l0,0C238.3,75.9,235.1,79.1,230.4,79.2 M234.9,71.7
	c0.1-2.4-1.7-4.4-4-4.5c-0.1,0-0.3,0-0.4,0h-2.5v9h2.5c2.3,0.1,4.3-1.6,4.5-4C234.9,72.1,234.9,71.9,234.9,71.7L234.9,71.7z"/>
<path class="st0" d="M102,56.1c-2.5,0.1-4.5-1.9-4.6-4.4c0-0.1,0-0.2,0-0.2v0c-0.1-2.5,1.7-4.6,4.2-4.7c0.1,0,0.1,0,0.2,0
	c1.4,0,2.7,0.5,3.7,1.6l2.1-2.5c-1.5-1.5-3.6-2.3-5.7-2.2c-4.2-0.1-7.7,3.3-7.8,7.6c0,0.1,0,0.2,0,0.3v0c0.1,4.2,3.5,7.6,7.7,7.5
	c0.1,0,0.2,0,0.3,0c2.2,0,4.4-1,5.8-2.7l-2.2-2.2C104.7,55.4,103.4,56.1,102,56.1"/>
<polygon class="st0" points="173.6,44 177.1,44 177.1,58.9 174,58.9 174,49.2 169.8,55.6 169.7,55.6 165.5,49.2 165.5,58.9 
	162.4,58.9 162.4,44 165.9,44 169.8,50.3 "/>
<path class="st0" d="M187.1,44l-6.3,14.9h3.3l1.4-3.3h6.3l1.4,3.3h3.4L190.3,44L187.1,44z M186.7,52.7l2-4.8l2,4.8H186.7z"/>
<path class="st0" d="M123.8,64.3l-6.3,14.9h3.3l1.4-3.3h6.3l1.4,3.3h3.4l-6.3-14.9L123.8,64.3z M123.3,72.9l2-4.8l2,4.8H123.3z"/>
<polygon class="st0" points="173.2,67.3 173.2,70.4 180.2,70.4 180.2,73.4 173.2,73.4 173.2,79.2 169.9,79.2 169.9,64.3 181.3,64.3 
	181.3,67.3 "/>
<polygon class="st0" points="113.9,64.3 110.5,74.7 107,64.3 103.9,64.3 100.4,74.7 97,64.3 93.5,64.3 98.8,79.2 102.1,79.2 
	105.5,69 108.8,79.2 112.1,79.2 117.4,64.3 "/>
<path class="st0" d="M234.4,55.2l1.7-1.9l-2-2.2l-1.5,1.8l-1.8-2.2c1.2-0.7,2-2,1.9-3.4c-0.1-2-1.8-3.6-3.8-3.5
	c-2,0-3.6,1.5-3.6,3.5c0,0.1,0,0.2,0,0.2c0.1,1,0.6,2,1.3,2.7c-1.8,0.7-2.9,2.4-3,4.4c0.2,2.6,2.3,4.6,4.9,4.6
	c1.6-0.1,3-0.7,4.1-1.9l1.3,1.6h3.8L234.4,55.2z M230.7,55.1c-0.5,0.8-1.4,1.3-2.3,1.4c-1.1,0-2-0.9-2-2c0-0.7,0.5-1.6,2-2.3
	L230.7,55.1z M228.9,48.9c-0.4-0.4-0.8-0.8-1-1.4c-0.1-0.6,0.3-1.1,0.9-1.2c0.6-0.1,1.1,0.3,1.2,0.9c0,0.1,0,0.2,0,0.2
	C230,48.1,229.3,48.7,228.9,48.9"/>
<polygon class="st0" points="54.7,34 54.7,79.2 68,79.2 68,44 "/>
<polygon class="st0" points="49.4,38 49.4,79.2 52.1,79.2 52.1,35.9 "/>
<polygon class="st0" points="44.1,79.2 46.8,79.2 46.8,39.9 44.1,42 "/>
<polygon class="st0" points="38.8,79.2 41.6,79.2 41.6,43.9 38.8,46 "/>
<polygon class="st0" points="70.5,54.3 70.5,79.2 83.8,79.2 83.8,64.3 "/>
<polygon class="st0" points="33.6,58.2 33.6,79.2 36.3,79.2 36.3,56.1 "/>
<polygon class="st0" points="28.3,79.2 31,79.2 31,60.1 28.3,62.2 "/>
<polygon class="st0" points="23,79.2 25.7,79.2 25.7,64.1 23,66.2 "/>
<path class="st0" d="M25.3,5.4h1.4v10.2h-1.5V7.6L22,11.6h-0.3l-3.2-3.9v7.9h-1.5V5.4h1.4l3.4,4.2L25.3,5.4z"/>
<path class="st0" d="M33.2,11.5v2.8c0,0.2,0.1,0.3,0.2,0.3c0.3-0.1,0.5-0.2,0.7-0.4v0.8c-0.2,0.2-0.5,0.3-0.7,0.4
	c-0.2,0.1-0.4,0.1-0.6,0.1c-0.6,0-0.9-0.2-1-0.7c-0.5,0.4-1.1,0.7-1.8,0.7c-0.4,0-0.9-0.2-1.2-0.5c-0.3-0.3-0.5-0.7-0.5-1.2
	c0-0.4,0.2-0.8,0.5-1.1c0.4-0.4,0.8-0.7,1.3-0.8l1.7-0.6v-0.4C32,10.5,31.5,10,31,9.9c-0.1,0-0.2,0-0.3,0c-0.8,0.1-1.6,0.5-2.1,1.1
	V9.6c0.6-0.6,1.4-1,2.2-0.9c0.6,0,1.3,0.2,1.7,0.6c0.2,0.1,0.3,0.3,0.4,0.5c0.1,0.2,0.2,0.4,0.2,0.6C33.2,10.7,33.2,11.1,33.2,11.5z
	 M31.9,14.2v-2L31,12.5c-0.3,0.1-0.7,0.3-1,0.5c-0.2,0.2-0.3,0.4-0.3,0.7c0,0.3,0.1,0.5,0.3,0.7c0.2,0.2,0.4,0.3,0.7,0.3
	C31.1,14.7,31.6,14.5,31.9,14.2z"/>
<path class="st0" d="M37.1,8.8v1.5l0.1-0.1c0.6-1,1.3-1.6,1.9-1.6c0.6,0,1.2,0.3,1.6,0.8L40,10.6c-0.3-0.4-0.8-0.6-1.3-0.7
	c-0.4,0-0.9,0.2-1.1,0.6c-0.3,0.4-0.5,0.9-0.5,1.5v3.5h-1.3V8.8H37.1z"/>
<path class="st0" d="M41.9,5.4h1.3v10.2h-1.3V5.4z M46.3,8.8h1.6L45,12.2l3.4,3.4h-1.8l-3.3-3.4L46.3,8.8z"/>
<path class="st0" d="M54.7,12.3H50c0,0.6,0.2,1.1,0.6,1.5c0.4,0.4,1,0.6,1.5,0.6c0.9,0,1.7-0.3,2.4-0.8v1.3
	c-0.4,0.3-0.8,0.5-1.2,0.6c-0.5,0.1-0.9,0.2-1.4,0.2c-0.6,0-1.3-0.1-1.8-0.5c-0.5-0.3-0.8-0.7-1.1-1.2c-0.3-0.6-0.4-1.2-0.4-1.8
	c-0.1-0.9,0.2-1.8,0.8-2.5c0.6-0.6,1.4-1,2.3-1c0.8,0,1.6,0.3,2.1,0.9c0.6,0.7,0.9,1.6,0.8,2.5L54.7,12.3z M50,11.5h3.4
	c0-0.5-0.2-0.9-0.5-1.2c-0.3-0.3-0.7-0.5-1.1-0.4c-0.4,0-0.9,0.1-1.2,0.4C50.3,10.6,50,11,50,11.5L50,11.5z"/>
<path class="st0" d="M55.5,9.9L58,7.4v1.4h2.1V10H58v3.3c0,0.8,0.3,1.1,1,1.1c0.5,0,1.1-0.2,1.5-0.5v1.2c-0.5,0.3-1.1,0.4-1.7,0.4
	c-0.6,0-1.1-0.2-1.5-0.5c-0.1-0.1-0.2-0.2-0.3-0.4c-0.1-0.2-0.2-0.3-0.2-0.5c-0.1-0.4-0.1-0.8-0.1-1.2v-3h-1.2V9.9z"/>
<path class="st0" d="M62.4,6c0.2,0,0.4,0.1,0.6,0.2c0.2,0.1,0.2,0.3,0.2,0.6c0,0.2-0.1,0.4-0.2,0.6c-0.2,0.1-0.4,0.2-0.6,0.2
	c-0.2,0-0.4-0.1-0.5-0.2c-0.3-0.3-0.3-0.8,0-1.1c0,0,0,0,0,0C62,6.1,62.2,6,62.4,6z M61.8,8.8h1.3v6.7h-1.3V8.8z"/>
<path class="st0" d="M66.7,8.8v0.8c0.5-0.6,1.2-1,2-1c0.4,0,0.8,0.1,1.2,0.3c0.4,0.2,0.6,0.5,0.8,0.9c0.2,0.6,0.3,1.2,0.3,1.8v3.8
	h-1.3v-3.8c0-0.5-0.1-1-0.3-1.4c-0.3-0.3-0.7-0.5-1.1-0.4c-0.7,0-1.3,0.4-1.6,0.9v4.8h-1.4V8.8H66.7z"/>
<path class="st0" d="M72.8,11.2c0-0.7,0.3-1.3,0.8-1.7C74.3,9,75,8.8,75.8,8.9h2.8v1h-1.4c0.2,0.2,0.4,0.5,0.5,0.7
	c0.1,0.2,0.2,0.5,0.1,0.7c0,0.4-0.1,0.7-0.3,1c-0.2,0.3-0.4,0.6-0.8,0.8c-0.5,0.2-1,0.4-1.5,0.4c-0.5,0.1-0.8,0.2-0.8,0.5
	c0,0.2,0.1,0.3,0.3,0.4c0.3,0.1,0.7,0.2,1,0.3c0.5,0.1,1.1,0.2,1.6,0.4c0.2,0.1,0.5,0.3,0.6,0.4c0.3,0.3,0.5,0.8,0.4,1.2
	c0,0.6-0.3,1.2-0.8,1.5C77,18.8,76.2,19,75.4,19c-0.8,0-1.6-0.2-2.3-0.6c-0.5-0.3-0.8-0.9-0.8-1.5c0-0.9,0.6-1.5,1.7-1.8
	c-0.4-0.3-0.7-0.6-0.7-0.8c0-0.2,0.1-0.4,0.3-0.6c0.2-0.2,0.5-0.3,0.8-0.4C73.4,13,72.8,12.1,72.8,11.2z M75,15.9
	c-0.4,0-0.8,0.1-1.1,0.3c-0.3,0.1-0.4,0.4-0.4,0.7c0,0.7,0.6,1,1.9,1c0.5,0,0.9-0.1,1.4-0.3c0.3-0.1,0.5-0.4,0.5-0.7
	c0-0.3-0.2-0.6-0.6-0.8C76.1,15.9,75.6,15.8,75,15.9z M75.3,10c-0.3,0-0.7,0.1-0.9,0.4c-0.2,0.2-0.4,0.5-0.4,0.9
	c0,0.3,0.1,0.6,0.4,0.8c0.3,0.2,0.6,0.3,0.9,0.3c0.3,0,0.7-0.1,0.9-0.3c0.2-0.2,0.4-0.5,0.4-0.8c0-0.3-0.1-0.7-0.4-0.9
	C76,10.1,75.7,10,75.3,10L75.3,10z"/>
<path class="st0" d="M90.8,15.6l-1.2-1.4c-0.1,0.1-0.3,0.2-0.5,0.4l0,0c-0.4,0.3-0.8,0.6-1.3,0.7c-0.5,0.2-0.9,0.3-1.4,0.3
	c-0.7,0-1.3-0.2-1.8-0.7c-0.5-0.4-0.7-1-0.7-1.7c0-0.5,0.1-0.9,0.4-1.3c0.3-0.5,0.7-0.9,1.2-1.2l0,0c0.3-0.2,0.5-0.4,0.8-0.5
	c-0.7-0.6-1.1-1.5-1.1-2.4c0-0.6,0.2-1.2,0.7-1.7c1.1-0.9,2.6-0.9,3.7,0c0.5,0.4,0.7,1,0.7,1.7c0,0.9-0.6,1.8-1.8,2.6l-0.1,0.1
	l1.4,1.7c0.4-0.5,0.8-1.1,1.1-1.7h1.5c-0.4,1-1,1.9-1.7,2.7l2.1,2.4L90.8,15.6z M88.4,13.4l0.3-0.3l-1.7-1.9l-0.6,0.5
	c-0.8,0.5-1.1,1-1.1,1.6c0,0.3,0.1,0.6,0.4,0.7c0.3,0.2,0.6,0.3,0.9,0.3c0.3,0,0.6-0.1,0.9-0.2C87.9,13.9,88.2,13.7,88.4,13.4z
	 M87.5,9.5L88,9.1c0.5-0.3,0.8-0.7,0.8-1.3c0-0.3-0.1-0.6-0.3-0.7c-0.2-0.2-0.5-0.3-0.8-0.3c-0.3,0-0.6,0.1-0.8,0.3
	c-0.2,0.2-0.3,0.4-0.3,0.7c0,0.3,0.1,0.6,0.2,0.8C86.9,8.9,87.2,9.2,87.5,9.5L87.5,9.5z"/>
<path class="st0" d="M98.6,15.6V5.3h3.2c0.9,0,1.7,0.3,2.3,0.8c0.6,0.5,0.9,1.3,0.8,2.1c0,0.6-0.1,1.1-0.4,1.6
	c-0.3,0.5-0.7,0.8-1.2,1c-0.7,0.2-1.5,0.3-2.2,0.3h-1.1v4.4L98.6,15.6z M101.6,6.6h-1.5v3.2h1.7c0.5,0,1-0.1,1.4-0.4
	c0.3-0.3,0.5-0.8,0.5-1.2C103.6,7.2,102.9,6.6,101.6,6.6z"/>
<path class="st0" d="M107.9,8.8v1.5l0.1-0.1c0.6-1,1.3-1.6,1.9-1.6c0.6,0,1.2,0.3,1.6,0.8l-0.7,1.2c-0.3-0.4-0.8-0.6-1.3-0.7
	c-0.4,0-0.9,0.2-1.1,0.6c-0.3,0.4-0.5,0.9-0.5,1.5v3.5h-1.3V8.8H107.9z"/>
<path class="st0" d="M115.6,8.8c0.9,0,1.9,0.3,2.5,1c0.7,0.7,1,1.6,1,2.5c0,0.9-0.4,1.8-1,2.4c-0.7,0.6-1.6,1-2.6,1
	c-0.9,0-1.8-0.3-2.5-1c-1.4-1.3-1.4-3.5,0-4.9c0,0,0,0,0,0C113.7,9.1,114.6,8.8,115.6,8.8z M115.5,10c-0.6,0-1.2,0.2-1.6,0.6
	c-0.4,0.4-0.6,1-0.6,1.6c0,0.6,0.2,1.2,0.6,1.6c0.4,0.4,1,0.6,1.6,0.6c0.6,0,1.2-0.2,1.6-0.6c0.4-0.4,0.6-1,0.6-1.6
	c0-0.6-0.2-1.2-0.6-1.6C116.7,10.3,116.1,10,115.5,10z"/>
<path class="st0" d="M120.8,19V8.8h2.3c1-0.1,2,0.3,2.8,0.9c0.7,0.6,1,1.6,1,2.5c0,0.9-0.3,1.8-0.9,2.5c-0.6,0.6-1.5,1-2.4,1
	c-0.5,0-1-0.1-1.4-0.3V19L120.8,19z M123.1,10h-0.9v4.2c0.4,0.2,0.8,0.3,1.3,0.3c0.6,0,1.1-0.2,1.5-0.7c0.4-0.5,0.6-1.1,0.6-1.7
	c0-0.4-0.1-0.8-0.3-1.2c-0.2-0.3-0.4-0.6-0.8-0.7C124.1,10.1,123.6,10,123.1,10z"/>
<path class="st0" d="M134.4,12.3h-4.7c0,0.6,0.2,1.1,0.6,1.5c0.4,0.4,1,0.6,1.5,0.6c0.9,0,1.7-0.3,2.4-0.8v1.3
	c-0.4,0.3-0.8,0.5-1.2,0.6c-0.5,0.1-0.9,0.2-1.4,0.2c-0.6,0-1.3-0.1-1.8-0.5c-0.5-0.3-0.8-0.7-1.1-1.2c-0.3-0.6-0.4-1.2-0.4-1.8
	c-0.1-0.9,0.2-1.8,0.8-2.5c0.6-0.6,1.4-1,2.3-1c0.8,0,1.6,0.3,2.1,0.9c0.6,0.7,0.9,1.6,0.8,2.5V12.3z M129.7,11.5h3.4
	c0-0.5-0.2-0.9-0.5-1.2c-0.3-0.3-0.7-0.5-1.1-0.4c-0.4,0-0.9,0.1-1.2,0.4C130,10.6,129.8,11,129.7,11.5L129.7,11.5z"/>
<path class="st0" d="M137.6,8.8v1.5l0.1-0.1c0.6-1,1.3-1.6,1.9-1.6c0.6,0,1.2,0.3,1.6,0.8l-0.7,1.2c-0.3-0.4-0.8-0.6-1.3-0.7
	c-0.4,0-0.9,0.2-1.1,0.6c-0.3,0.4-0.5,0.9-0.5,1.5v3.5h-1.3V8.8H137.6z"/>
<path class="st0" d="M141.8,9.9l2.5-2.5v1.4h2.1V10h-2.1v3.3c0,0.8,0.3,1.1,1,1.1c0.5,0,1.1-0.2,1.5-0.5v1.2
	c-0.5,0.3-1.1,0.4-1.7,0.4c-0.6,0-1.1-0.2-1.5-0.5c-0.1-0.1-0.2-0.2-0.3-0.4c-0.1-0.2-0.2-0.3-0.2-0.5c-0.1-0.4-0.1-0.8-0.1-1.2v-3
	h-1.2L141.8,9.9z"/>
<path class="st0" d="M152.2,8.8h1.5L148.9,19h-1.5l2.3-4.9l-2.6-5.3h1.5l1.8,3.8L152.2,8.8z"/>
<path class="st0" d="M167.7,5.4h1.4v10.2h-1.5V7.6l-3.1,3.9h-0.3L161,7.6v7.9h-1.5V5.4h1.4l3.4,4.2L167.7,5.4z"/>
<path class="st0" d="M175.6,11.5v2.8c0,0.2,0.1,0.3,0.2,0.3c0.3,0,0.5-0.2,0.8-0.4v0.8c-0.2,0.2-0.5,0.3-0.7,0.4
	c-0.2,0.1-0.4,0.1-0.6,0.1c-0.6,0-0.9-0.2-1-0.7c-0.5,0.4-1.1,0.7-1.8,0.7c-0.4,0-0.9-0.2-1.2-0.5c-0.3-0.3-0.5-0.7-0.5-1.2
	c0-0.4,0.2-0.8,0.5-1.1c0.4-0.4,0.8-0.7,1.3-0.8l1.7-0.6v-0.4c0.1-0.6-0.4-1.1-1-1.2c-0.1,0-0.2,0-0.2,0c-0.8,0.1-1.6,0.5-2.1,1.1
	V9.6c0.6-0.6,1.4-1,2.2-0.9c0.6,0,1.3,0.2,1.7,0.6c0.3,0.3,0.5,0.7,0.6,1.1C175.6,10.7,175.7,11.1,175.6,11.5z M174.3,14.2v-2
	l-0.9,0.3c-0.4,0.1-0.7,0.3-1,0.5c-0.4,0.4-0.4,1,0,1.4c0.2,0.2,0.4,0.3,0.7,0.3C173.6,14.7,174,14.5,174.3,14.2z"/>
<path class="st0" d="M179.5,8.8v0.8c0.5-0.6,1.2-0.9,2-1c0.4,0,0.8,0.1,1.2,0.3c0.4,0.2,0.6,0.5,0.8,0.9c0.2,0.6,0.3,1.2,0.3,1.8
	v3.8h-1.3v-3.9c0-0.5-0.1-1-0.3-1.5c-0.3-0.3-0.7-0.5-1.1-0.4c-0.7,0-1.3,0.4-1.6,0.9v4.8h-1.3V8.8H179.5z"/>
<path class="st0" d="M190.1,11.5v2.8c0,0.2,0.1,0.3,0.2,0.3c0.3-0.1,0.5-0.2,0.7-0.4v0.8c-0.2,0.2-0.5,0.3-0.7,0.4
	c-0.2,0.1-0.4,0.1-0.6,0.1c-0.6,0-0.9-0.2-1-0.7c-0.5,0.4-1.1,0.7-1.8,0.7c-0.4,0-0.9-0.2-1.2-0.5c-0.3-0.3-0.5-0.7-0.5-1.2
	c0-0.4,0.2-0.8,0.5-1.1c0.4-0.4,0.8-0.7,1.3-0.8l1.7-0.6v-0.4c0.1-0.6-0.3-1.1-0.9-1.2c-0.1,0-0.2,0-0.3,0c-0.8,0.1-1.6,0.5-2.1,1.1
	V9.6c0.6-0.6,1.4-1,2.2-0.9c0.6,0,1.3,0.2,1.7,0.6c0.2,0.1,0.3,0.3,0.4,0.5c0.1,0.2,0.2,0.4,0.2,0.6
	C190.1,10.7,190.2,11.1,190.1,11.5z M188.8,14.2v-2l-0.9,0.3c-0.3,0.1-0.7,0.3-1,0.5c-0.2,0.2-0.3,0.4-0.3,0.7
	c0,0.3,0.1,0.5,0.3,0.7c0.2,0.2,0.4,0.3,0.7,0.3C188.1,14.7,188.5,14.5,188.8,14.2z"/>
<path class="st0" d="M192.3,11.2c0-0.6,0.3-1.3,0.8-1.7c0.6-0.4,1.4-0.7,2.1-0.6h2.8v1h-1.4c0.2,0.2,0.4,0.5,0.5,0.7
	c0.1,0.2,0.2,0.5,0.1,0.7c0,0.4-0.1,0.7-0.3,1c-0.2,0.3-0.4,0.6-0.8,0.8c-0.5,0.2-1,0.4-1.5,0.4c-0.5,0.1-0.8,0.2-0.8,0.5
	c0,0.2,0.1,0.3,0.3,0.4c0.3,0.1,0.7,0.2,1,0.3c0.5,0.1,1.1,0.2,1.6,0.4c0.2,0.1,0.5,0.3,0.6,0.4c0.3,0.3,0.5,0.8,0.5,1.2
	c0,0.6-0.3,1.2-0.8,1.5c-0.7,0.4-1.5,0.6-2.3,0.6c-0.8,0-1.6-0.2-2.3-0.6c-0.5-0.3-0.8-0.9-0.8-1.5c0-0.9,0.6-1.5,1.7-1.8
	c-0.4-0.3-0.7-0.6-0.7-0.8c0-0.2,0.1-0.4,0.3-0.6c0.2-0.2,0.5-0.3,0.8-0.4C192.9,13,192.3,12.1,192.3,11.2z M194.5,15.9
	c-0.4,0-0.8,0.1-1.1,0.3c-0.3,0.1-0.4,0.4-0.4,0.7c0,0.7,0.6,1,1.9,1c0.5,0,0.9-0.1,1.4-0.3c0.3-0.1,0.5-0.4,0.5-0.7
	c0-0.3-0.2-0.6-0.6-0.8C195.6,15.9,195,15.8,194.5,15.9z M194.8,10c-0.3,0-0.7,0.1-0.9,0.4c-0.2,0.2-0.4,0.5-0.4,0.9
	c0,0.3,0.1,0.6,0.4,0.8c0.3,0.2,0.6,0.3,0.9,0.3c0.3,0,0.7-0.1,0.9-0.3c0.5-0.5,0.5-1.2,0-1.7c0,0,0,0,0,0
	C195.5,10.1,195.1,10,194.8,10L194.8,10z"/>
<path class="st0" d="M205.1,12.3h-4.7c0,0.6,0.2,1.1,0.6,1.5c0.4,0.4,1,0.6,1.5,0.6c0.9,0,1.7-0.3,2.4-0.8v1.3
	c-0.4,0.3-0.8,0.5-1.2,0.6c-0.5,0.1-0.9,0.2-1.4,0.2c-0.6,0-1.3-0.1-1.8-0.5c-0.5-0.3-0.8-0.7-1.1-1.2c-0.3-0.6-0.4-1.2-0.4-1.8
	c-0.1-0.9,0.2-1.8,0.8-2.5c0.6-0.6,1.4-1,2.3-1c0.8,0,1.6,0.3,2.1,0.9c0.6,0.7,0.9,1.6,0.8,2.5L205.1,12.3z M200.4,11.5h3.4
	c0-0.5-0.2-0.9-0.5-1.2c-0.3-0.3-0.7-0.5-1.1-0.4c-0.4,0-0.9,0.1-1.2,0.4C200.6,10.6,200.4,11,200.4,11.5L200.4,11.5z"/>
<path class="st0" d="M212.3,10.7v4.9H211v-3.7c0-0.5-0.1-1.1-0.3-1.6c-0.3-0.3-0.6-0.5-1-0.4c-0.3,0-0.5,0.1-0.8,0.2
	c-0.3,0.2-0.6,0.4-0.8,0.7v4.9h-1.3V8.8h1.3v0.9c0.5-0.6,1.2-1,2-1c0.8,0,1.6,0.5,2,1.2c0.5-0.7,1.3-1.2,2.2-1.2
	c0.6,0,1.2,0.3,1.6,0.7c0.5,0.6,0.7,1.4,0.6,2.2v4h-1.3v-4c0-0.5-0.1-0.9-0.3-1.3c-0.2-0.3-0.6-0.5-1-0.4
	C213.2,9.9,212.7,10.2,212.3,10.7z"/>
<path class="st0" d="M224.4,12.3h-4.7c0,0.6,0.2,1.1,0.6,1.5c0.4,0.4,1,0.6,1.5,0.6c0.9,0,1.7-0.3,2.4-0.8v1.3
	c-0.4,0.3-0.8,0.5-1.2,0.6c-0.5,0.1-0.9,0.2-1.4,0.2c-0.6,0-1.3-0.1-1.8-0.5c-0.5-0.3-0.8-0.7-1.1-1.2c-0.3-0.6-0.4-1.2-0.4-1.8
	c-0.1-0.9,0.2-1.8,0.8-2.5c0.6-0.6,1.4-1,2.3-1c0.8,0,1.6,0.3,2.1,0.9c0.6,0.7,0.9,1.6,0.8,2.5V12.3z M219.7,11.5h3.4
	c0-0.5-0.2-0.9-0.5-1.2c-0.3-0.3-0.7-0.5-1.1-0.4c-0.4,0-0.9,0.1-1.2,0.4C220,10.6,219.8,11,219.7,11.5L219.7,11.5z"/>
<path class="st0" d="M227.5,8.8v0.8c0.5-0.6,1.2-1,2-1c0.4,0,0.8,0.1,1.2,0.3c0.4,0.2,0.6,0.5,0.8,0.9c0.2,0.6,0.3,1.2,0.3,1.8v3.8
	h-1.4v-3.8c0-0.5-0.1-1-0.3-1.5c-0.3-0.3-0.7-0.5-1.1-0.4c-0.7,0-1.3,0.4-1.6,0.9v4.8h-1.4V8.8H227.5z"/>
<path class="st0" d="M233,9.9l2.5-2.5v1.4h2.1V10h-2.1v3.3c0,0.8,0.3,1.1,1,1.1c0.5,0,1.1-0.2,1.5-0.5v1.2c-0.5,0.3-1.1,0.4-1.7,0.4
	c-0.6,0-1.1-0.2-1.5-0.5c-0.1-0.1-0.2-0.2-0.3-0.4c-0.1-0.2-0.2-0.3-0.2-0.5c-0.1-0.4-0.1-0.8-0.1-1.2v-3H233V9.9z"/>
</svg>
