<svg xmlns="http://www.w3.org/2000/svg" viewBox="0 0 398.7 194.5"><title>fji_footer</title><path d="M359.1,3.3v8.9h-2.7V3.3h-1.6v8.9h-6.7V3.3h-1.6v8.9H345V3.3h-1.6v8.9h-1V25h-3v1.6h0v6.6h-4.9V30.4h-1.6v2.8h-2.4V30.4h-1.7v2.8h-2.7v7.5h-.7v.5h0v17h-2.3v-4h-1.6v4h-2.6v-4h-1.5v86.9h-3.1V137h-1.6v4.1h-5.9V137h-1.7v4.1h-9.5V137H294v4.1h-5.9V137h-1.6v4.1h-3.1v-87h-1.6v4h-2.5v-4h-1.6v4h-2.3v-17h0v-.5h-.8V33.1H272V30.3h-1.6v2.8h-2.5V30.3h-1.6v2.8h-4.9V24.9h-3V13.7h0V12.2h-1V3.3h-1.6v8.9h-1.5V3.3h-1.7v8.9H246V3.3h-1.6v8.9h-2.7V3.3H240V154.5H361V3.3Zm-2.7,23.2h2.7v6.6h-2.7Zm-1.6,6.6h-6.6V26.5h6.6Zm4.3-19.4V24.9h-2.7V13.7Zm-4.3,0V24.9h-6.6V13.7Zm-10.7,0h2.4V24.9h-2.4Zm-3,12.8h5.4v6.6h-5.4Zm1.3,8.2v2.1h-7.9V34.7Zm-9.5,7.6v6.9h-2.4V42.3Zm-2.5-1.7V38.4h2.4v2.2Zm0,10.2h2.4v7.3h-2.4Zm0,8.9h2.4v6.2h-2.4Zm0,7.8h2.4v6.9h-2.4Zm0,8.6h2.4v6.3h-2.4Zm0,7.9h2.4v6.1h-2.4Zm0,7.7h2.4v6.4h-2.4Zm0,8h2.4v6.5h-2.4Zm0,8.2h2.4v6.3h-2.4Zm0,7.9h2.4v6.4h-2.4Zm4,0h8v6.4h-7.9Zm0-1.6v-6.3h8v6.3Zm0-8V99.7h8v6.5Zm0-8.1V91.6h8v6.5Zm0-8V84h8v6.1Zm0-7.7V76.1h8v6.3Zm0-8V67.5h8v6.9Zm0-8.5V59.8h8v6.1Zm0-7.8V50.8h8v7.3Zm0-8.9V42.3h8v6.9h-8Zm-4,74.7h2.4v6.2h-2.4Zm4.1,0h7.9v6.2h-7.9Zm9.6,0h2.4v6.2h-2.4Zm0-1.7v-6.4h2.4v6.4Zm0-8v-6.3h2.4v6.3Zm0-8V99.7h2.4v6.5Zm0-8.1V91.6h2.4v6.5Zm0-8V84h2.4v6.1Zm0-7.7V76.1h2.4v6.3Zm0-8V67.5h2.4v6.9Zm0-8.6v-6h2.4v6.1Zm0-7.7V50.8h2.4v7.3Zm0-8.9V42.3h2.4v6.9Zm0-8.6V38.4h2.4v2.2Zm-1.7,0h-7.9V38.4h7.9Zm-9.5-5.9v2.1h-2.4V34.7Zm-4.1,0v2.1h-1V34.7Zm-1,3.7h1v2.2h-1Zm-2.3,21.4v2.8h-2.4V59.8Zm-4,0v2.8H319V59.8Zm-2.4,4.4h2.5V141h-2.5Zm2.5,84.3H319v-5.8h2.5Zm-4.1-5.8v5.8h-3.1v-5.8Zm-4.7,0v5.8h-5.9v-5.8Zm-11.5,0h3.9v5.8h-9.5v-5.8Zm-7.2,0v5.8h-5.9v-5.8Zm-7.5,0v5.8h-3.2v-5.8Zm-4.8-82.9v2.8h-2.5V59.8Zm-4.1,0v2.8h-2.3V59.8ZM272,40.6V38.4h1.1v2.2Zm-15.2-2.2v2.2h-2.4V38.4Zm13.6,83.8H268v-6.4h2.4Zm-4-54.7v6.9h-8.1V67.5Zm-8-1.6V59.8h8v6.1Zm8,10.2v6.3h-8.1V76.1Zm0,7.9v6.1h-8.1V84Zm0,7.7v6.5h-8.1V91.7Zm0,8v6.5h-8.1V99.7Zm0,8.2v6.3h-8.1v-6.3Zm0,7.9v6.4h-8.1v-6.4Zm4-1.6H268v-6.3h2.4Zm0-8H268V99.7h2.4Zm0-8.1H268V91.6h2.4Zm0-8H268V84h2.4Zm0-7.7H268V76.1h2.4Zm0-7.9H268v-7h2.4Zm0-8.6H268V59.8h2.4Zm0-7.8H268V50.8h2.4Zm-4,0h-8.1V50.8h8Zm-8-8.9V42.3h8v6.9h-8Zm0-8.6V38.5h8v2.1Zm-1.6,1.7v6.9h-2.4V42.3Zm0,8.5v7.3h-2.4V50.8Zm0,8.9v6.2h-2.4V59.8Zm0,7.8v6.9h-2.4V67.5Zm0,8.6v6.3h-2.4V76.1Zm0,7.9v6.1h-2.4V84Zm0,7.7v6.4h-2.4V91.7Zm0,8v6.5h-2.4V99.7Zm0,8.2v6.3h-2.4v-6.3Zm0,7.9v6.4h-2.4v-6.4Zm0,8.1v6.3h-2.4v-6.3Zm1.6,0h8v6.3h-8.1Zm9.6,0h2.4v6.3H268Zm2.4-74.7H268V42.3h2.4ZM268,40.6V38.5h2.4v2.1Zm5.1-5.9v2.1H272V34.7Zm-2.7,0v2.1H268V34.7Zm-4.1,2.1h-8V34.7h8Zm-6.5-3.7h-5.5V26.5h5.4Zm-18.1-6.6h2.7v6.6h-2.7V26.5Zm4.3,0h6.7v6.6H246Zm10.8-12.7V24.9h-2.4V13.7Zm-4.1,0V24.9H246V13.7Zm-8.3,0V24.9h-2.7V13.7Zm-2.7,139.1V34.7h2.7V152.9Zm4.3,0V34.7h10.7v2.1h-4v3.7h-4v1.6h0V152.9Zm4.4,0V42.3h2.3v6.9h0v1.6h0v7.4h0v1.6h0v6.1h0v1.6h0v7h0v1.6h0v6.3h0V84h0v6.1h0v1.6h0v6.5h0v1.6h0v6.5h0v1.6h0v6.4h0v1.6h0v6.5h0V124h0v6.2h0v1.7h0v21.2h-2.3Zm3.9,0V131.6h2.5v21.3Zm4,0V131.6h8v21.3Zm9.6,0V131.6h2.5v21.3Zm4.1,0V42.3h1.8V152.9Zm3.4,0V64.2h2.3v88.7Zm3.9,0V64.2h2.5V141h-1.4v1.7h1.5v5.8h-1.5v1.6h1.5V153h-2.6Zm4.1,0v-2.8h3.1v2.8Zm4.7,0v-2.8H294v2.8Zm13.1,0h-5.6v-2.8h9.6v2.8Zm5.6,0v-2.8h5.9v2.8Zm7.5,0v-2.8h3.1v2.8Zm4.7,0v-2.8h2.6v2.8Zm4.1,0V64.2h2.3v88.7Zm4,0V42.3h1.8V152.9Zm3.3,0V131.6h2.5v21.3Zm4.1,0V131.6h8v21.3Zm9.6,0V131.6h2.4v21.3Zm4,0V131.6h0V130h0v-6.3h0v-1.6h0v-6.4h0v-1.5h0v-6.5h0v-1.6h0V99.6h0V98h0V91.5h0V89.9h0V83.8h0V82.4h0V76.1h0V74.4h0V67.5h0V65.9h0V59.8h0V58.1h0V50.8h0V49.2h0V42.3h2.4V152.9Zm4,0V42.3h0V40.6h-4V36.9h-4V34.8h10.6V152.9Zm4.3,0V34.7h2.7V152.9Z" transform="translate(-101 -3.3)" style="fill:#fff"/><path d="M163,171.1a2.4,2.4,0,0,0-.2.8c0,.3.2.4,1.1.4h.4v.8H159v-.8h.1c.9,0,1.1-.1,1.2-.7l.2-.5,1.6-6c0-.3.1-.5.1-.8s-.1-.4-1.1-.4h-.1v-.8h4.3a5.3,5.3,0,0,1,3,.7,2,2,0,0,1,1,2,2.5,2.5,0,0,1-1.6,2.5,7,7,0,0,1-3.2.5h-1.1Zm1.5-3a3.4,3.4,0,0,0,1.7-.5,3.1,3.1,0,0,0,.9-2.2,1.3,1.3,0,0,0-1.1-1.5h-.4c-.6,0-.7.1-.9.7l-.9,3.5Z" transform="translate(-101 -3.3)" style="fill:#fff"/><path d="M179.9,167h-.7v-.8c0-1.4-.6-2.2-1.6-2.2s-.4,0-.6.6l-1.7,6.5a2.9,2.9,0,0,0-.2.9c0,.3.2.4,1.1.4h.3v.7H171v-.7h.4a1.9,1.9,0,0,0,1-.2c0-.2.1-.1.3-1l1.8-6.7v-.3l-.4-.2c-1.2,0-2,.9-3,3.1l-.7-.2,1-3.6h8.9Z" transform="translate(-101 -3.3)" style="fill:#fff"/><path d="M181.8,172.1a1.2,1.2,0,0,1-2.4,0,1.2,1.2,0,0,1,1.2-1.2h0A1.2,1.2,0,0,1,181.8,172.1Z" transform="translate(-101 -3.3)" style="fill:#fff"/><path d="M197.3,166.5h-.7a4.7,4.7,0,0,0-.3-1.7,1.8,1.8,0,0,0-1.9-.9h-.5c-.5,0-.7.1-.8.6l-.8,3h.3a2.1,2.1,0,0,0,2.2-1.6h.8l-1.3,4.6h-.7c0-.3.1-.6.1-.9a1.2,1.2,0,0,0-1.3-1.3h-.3l-.8,2.8c-.1.3-.1.5-.2.8s.2.4,1.1.4h.4v.7h-5.2v-.7h0c1,0,1.2-.1,1.3-.7l.2-.5,1.6-6c.1-.3.1-.5.2-.8s-.2-.4-1.1-.4h-.3v-.8h8.4Z" transform="translate(-101 -3.3)" style="fill:#fff"/><path d="M197.4,173.1v-.8h.1c.6,0,.9,0,1-.2s.1-.1.4-1l1.6-5.9c.1-.3.1-.6.2-.9s-.2-.4-1.1-.4h-.3v-.7h5.1v.7h-.1a1.6,1.6,0,0,0-1,.2,3.9,3.9,0,0,0-.4,1l-1.6,6a2.2,2.2,0,0,0-.1.8c0,.3.1.4,1,.4h.3v.8Z" transform="translate(-101 -3.3)" style="fill:#fff"/><path d="M207.9,171.1a2.4,2.4,0,0,0-.2.8c0,.3.2.4,1.1.4h.3v.8h-5.1v-.8h.1c.5,0,.9,0,1-.2s.1-.1.3-1l1.6-5.9a2.9,2.9,0,0,0,.2-.9c0-.3-.2-.4-1.1-.4h-.2v-.7h4.7a7,7,0,0,1,2.9.4,2.1,2.1,0,0,1,1.1,1.9c0,1.5-1.3,2.5-3.9,2.7a2.7,2.7,0,0,1,1.4.7,2.6,2.6,0,0,1,.5,1.7v.4c0,.9,0,.9.1,1h.2c.3,0,.6-.2.8-.7l.2-.6.6.3c-.5,1.4-1.2,2.1-2.4,2.1a1.9,1.9,0,0,1-2-1.7v-.2a5.3,5.3,0,0,1,.1-1.2c0-.3.1-.5.1-.8s-.5-1.1-1.4-1.1h-.5Zm1.4-3.6c1.2,0,1.6-.1,2-.4a2.3,2.3,0,0,0,.9-1.9c0-.8-.5-1.3-1.5-1.3h-.3c-.5,0-.6.1-.8.5l-.8,3.1Z" transform="translate(-101 -3.3)" style="fill:#fff"/><path d="M224.3,166.9l-.7-.2a5.1,5.1,0,0,0-.3-1.7,2.8,2.8,0,0,0-2.3-1.3c-1.2,0-2,.6-2,1.5a1.4,1.4,0,0,0,.5,1l1.1.5,2.3,1a2.8,2.8,0,0,1,1.3,2.3c0,1.9-1.7,3.3-4,3.3a4.6,4.6,0,0,1-3-1.1l-.8.9h-.6l.7-3.9h.7v.2a2.8,2.8,0,0,0,2.5,3h.4c1.3,0,2.2-.6,2.2-1.5s-.5-1.2-2.4-1.9a4.2,4.2,0,0,1-2-1,2.1,2.1,0,0,1-.7-1.8,3.3,3.3,0,0,1,3.5-3.3h.1a3.4,3.4,0,0,1,2.7,1l.8-.8h.6Z" transform="translate(-101 -3.3)" style="fill:#fff"/><path d="M235.2,167h-.7v-.8c0-1.4-.6-2.2-1.6-2.2s-.5,0-.6.6l-1.8,6.5a2.9,2.9,0,0,0-.2.9c0,.3.2.4,1.1.4h.4v.7h-5.5v-.7h.4a1.6,1.6,0,0,0,1-.2,3.9,3.9,0,0,0,.4-1l1.7-6.7a.4.4,0,0,0,.1-.3c0-.1-.1-.2-.4-.2s-2,.9-3,3.1l-.7-.2,1-3.6h8.9Z" transform="translate(-101 -3.3)" style="fill:#fff"/><path d="M244.7,163.1h5.1v.8h0a1.5,1.5,0,0,0-1.1.2c-.1.1-.1.1-.3,1l-1.2,4.2a6.3,6.3,0,0,1-.7,2.2,3.2,3.2,0,0,1-3.3,1.7c-2.1,0-3.2-.9-3.2-2.5a1.9,1.9,0,0,1,1.7-2.2h.1a1.4,1.4,0,0,1,1.5,1.2h0a1.2,1.2,0,0,1-1.2,1.3h0a.7.7,0,0,1-.6-.2h-.3c-.1,0-.3.1-.3.4a1.4,1.4,0,0,0,1.5,1.2h0a2.1,2.1,0,0,0,1.7-1,6.8,6.8,0,0,0,.7-2l1.1-4.3a2.9,2.9,0,0,0,.2-.9c0-.3-.2-.4-1-.4h-.5Z" transform="translate(-101 -3.3)" style="fill:#fff"/><path d="M257.3,171.5c.1.6.4.8,1.2.8h.2v.8h-5.1v-.8h1.1l.2-.3v-.5l-.3-1.4h-3.2l-.6,1.1a1.4,1.4,0,0,0-.2.6c0,.4.3.6,1.1.6h.2v.7h-3.9v-.7h0a2.5,2.5,0,0,0,1.9-1.4l4.7-7.9h.9Zm-3.5-5.5-1.9,3.3h2.5Z" transform="translate(-101 -3.3)" style="fill:#fff"/><path d="M267.3,164.8c.3-.3.4-.4.4-.6s-.2-.3-.5-.3h-.5v-.8h4.1v.8a3.2,3.2,0,0,0-2.4,1.1l-2.2,2.1,2,4.2c.4,1,.5,1,1.5,1h.2v.7h-5.2v-.7h.4c.7,0,.8-.1.8-.3s0-.1-.1-.5l-1.4-2.9-1.2,1.1-.3,1.3a2.9,2.9,0,0,0-.2.9c0,.3.2.4,1.1.4h.1v.7h-4.9v-.7h.1l1-.2c.1-.1.1-.1.3-1.1l1.6-5.9a2.9,2.9,0,0,0,.2-.9c0-.3-.2-.3-1.1-.3h-.2v-.8h5.1v.8h-.2c-.5,0-.9,0-1,.2a6.2,6.2,0,0,0-.3,1l-.9,3Z" transform="translate(-101 -3.3)" style="fill:#fff"/><path d="M278.9,171.5c.2.6.4.8,1.2.8h.2v.8h-5.2v-.8h1.1l.3-.3a.9.9,0,0,0-.1-.5l-.2-1.4h-3.2l-.7,1.1a1.3,1.3,0,0,0-.1.6c0,.4.3.6,1.1.6h.1v.7h-3.9v-.7h.1a2.4,2.4,0,0,0,1.8-1.4l4.8-7.9h.8Zm-3.5-5.5-1.9,3.3h2.6Z" transform="translate(-101 -3.3)" style="fill:#fff"/><path d="M284.5,171.1c-.1.3-.1.5-.2.8s.2.4,1.1.4h.4v.8h-5.2v-.8h.1c.6,0,.9,0,1-.2s.1-.1.4-1l1.5-5.9a2.9,2.9,0,0,0,.2-.9c0-.3-.2-.4-1-.4h-.3v-.7h4.7a7,7,0,0,1,2.9.4,2,2,0,0,1,1.1,1.9c0,1.5-1.3,2.5-3.9,2.7a2.7,2.7,0,0,1,1.4.7,2.2,2.2,0,0,1,.5,1.7v.4c0,.9,0,.9.1,1h.3c.2,0,.5-.2.7-.7s.1-.2.2-.6l.6.3a2.4,2.4,0,0,1-2.4,2.1,1.9,1.9,0,0,1-2-1.7v-.2a5.3,5.3,0,0,1,.1-1.2,2.2,2.2,0,0,0,.1-.8c0-.7-.5-1.1-1.4-1.1h-.4Zm1.4-3.6c1.3,0,1.6-.1,2-.4a2.3,2.3,0,0,0,.9-1.9c0-.8-.5-1.3-1.5-1.3H287c-.5,0-.6.1-.7.5l-.9,3.1Z" transform="translate(-101 -3.3)" style="fill:#fff"/><path d="M302,167h-.7v-.8c0-1.4-.6-2.2-1.6-2.2s-.5,0-.6.6l-1.8,6.5c-.1.3-.1.6-.2.9s.2.4,1.1.4h.4v.7H293v-.7h.4a1.6,1.6,0,0,0,1-.2,3.9,3.9,0,0,0,.4-1l1.7-6.7a.4.4,0,0,0,.1-.3c0-.1-.1-.2-.4-.2s-2,.9-2.9,3.1l-.7-.2,1-3.6h8.8Z" transform="translate(-101 -3.3)" style="fill:#fff"/><path d="M310.1,171.5c.1.6.4.8,1.2.8h.2v.8h-5.1v-.8h1.1l.3-.3a.9.9,0,0,1-.1-.5l-.3-1.4h-3.2l-.6,1.1a1.4,1.4,0,0,0-.2.6c0,.4.4.6,1.1.6h.2v.7h-3.9v-.7h.1a2.5,2.5,0,0,0,1.8-1.4l4.8-7.9h.8Zm-3.5-5.5-1.9,3.3h2.5Z" transform="translate(-101 -3.3)" style="fill:#fff"/><path d="M316.1,173.1v-.8h.2c.5,0,.8,0,1-.2s.1-.1.3-1l1.6-5.9a2.9,2.9,0,0,0,.2-.9c0-.3-.2-.4-1.1-.4H318v-.7h5.1v.7H323l-1,.2a3.9,3.9,0,0,0-.4,1l-1.6,6c-.1.3-.1.5-.2.8s.2.4,1.1.4h.3v.8Z" transform="translate(-101 -3.3)" style="fill:#fff"/><path d="M331.6,170.1l1.1-4,.3-1.5c0-.5-.5-.7-1.3-.7v-.8h3.8v.8a1.4,1.4,0,0,0-1.1.3c-.4.4-.4.4-.8,1.9l-1.9,7.1h-1.1l-4.1-7.7-1.2,4.5a4,4,0,0,0-.3,1.5c0,.5.4.8,1.2.8h.1v.7h-3.9v-.7a1.5,1.5,0,0,0,1.1-.4c.4-.3.5-.4.9-1.9l1.5-5.7a.7.7,0,0,0-.8-.4h-.8v-.8h3.5Z" transform="translate(-101 -3.3)" style="fill:#fff"/><path d="M345,167h-.7v-.8c0-1.4-.6-2.2-1.6-2.2s-.5,0-.6.6l-1.8,6.5c-.1.3-.1.6-.2.9s.2.4,1.1.4h.4v.7h-5.4v-.7h.4a1.9,1.9,0,0,0,1-.2c.1-.2.1-.1.3-1l1.8-6.7a.4.4,0,0,0,.1-.3l-.4-.2c-1.2,0-2,.9-3,3.1l-.6-.2,1-3.6h8.8Z" transform="translate(-101 -3.3)" style="fill:#fff"/><path d="M354.9,166.5h-.7a2.5,2.5,0,0,0-.3-1.7,1.8,1.8,0,0,0-1.9-.9h-.5c-.5,0-.7.1-.8.6l-.8,3h.2a2.1,2.1,0,0,0,2.3-1.6h.7l-1.2,4.6h-.7c0-.3.1-.6.1-.9a1.2,1.2,0,0,0-1-1.3h-.6l-.9,3.2c0,.2-.1.3-.1.5s.2.3.8.3h.5a3.6,3.6,0,0,0,2.7-1.2,4.8,4.8,0,0,0,1.2-1.6h.8l-.9,3.4h-8.9v-.7h.1c.9,0,1.1-.1,1.3-.7v-.5l1.6-6a2.4,2.4,0,0,0,.2-.8c0-.3-.2-.4-1.1-.4h-.3l.2-.8h8.4Z" transform="translate(-101 -3.3)" style="fill:#fff"/><path d="M359.5,171.1a2.4,2.4,0,0,0-.2.8c0,.3.2.4,1.1.4h.3v.8h-5.1v-.8h.1c.5,0,.9,0,1-.2s.1-.1.3-1l1.6-5.9a2.9,2.9,0,0,0,.2-.9c0-.3-.2-.4-1.1-.4h-.2v-.7h4.7a7,7,0,0,1,2.9.4,2.1,2.1,0,0,1,1.1,1.9c0,1.5-1.3,2.5-3.9,2.7a2.7,2.7,0,0,1,1.4.7,2.6,2.6,0,0,1,.5,1.7v.4c0,.9,0,.9.1,1h.2c.3,0,.6-.2.8-.7l.2-.6.6.3c-.5,1.4-1.2,2.1-2.4,2.1a1.9,1.9,0,0,1-2-1.7v-.2a4.9,4.9,0,0,1,.1-1.2c0-.3.1-.5.1-.8s-.5-1.1-1.4-1.1h-.4Zm1.4-3.6c1.2,0,1.6-.1,2-.4a2.3,2.3,0,0,0,.9-1.9c0-.8-.5-1.3-1.5-1.3H362c-.5,0-.6.1-.7.5l-.9,3.1Z" transform="translate(-101 -3.3)" style="fill:#fff"/><path d="M375.9,170.1l1-4a4,4,0,0,0,.3-1.5c0-.5-.4-.7-1.2-.7v-.8h3.8v.8a1.4,1.4,0,0,0-1.1.3c-.4.4-.4.4-.9,1.9l-1.9,7.1h-1.1l-4-7.7-1.2,4.5a4,4,0,0,0-.3,1.5c0,.5.4.8,1.2.8h.2v.7h-3.9v-.7a1.7,1.7,0,0,0,1.1-.4c.4-.3.4-.4.8-1.9l1.5-5.7a.6.6,0,0,0-.8-.4h-.7v-.8h3.4Z" transform="translate(-101 -3.3)" style="fill:#fff"/><path d="M387.4,171.5c.2.6.4.8,1.2.8h.2v.8h-5.1v-.8h1.1l.3-.3c0-.2-.1-.3-.1-.5l-.3-1.4h-3.1l-.7,1.1c-.1.2-.1.4-.2.6s.4.6,1.2.6h.1v.7H378v-.7h.1a2.4,2.4,0,0,0,1.8-1.4l4.8-7.9h.8Zm-3.5-5.5-1.9,3.3h2.6Z" transform="translate(-101 -3.3)" style="fill:#fff"/><path d="M399.3,167h-.8v-.8c0-1.4-.5-2.2-1.6-2.2s-.4,0-.6.6l-1.7,6.5a2.9,2.9,0,0,0-.2.9c0,.3.2.4,1.1.4h.3v.7h-5.4v-.7h.4a1.9,1.9,0,0,0,1-.2c0-.2.1-.1.3-1l1.8-6.7v-.3c0-.1-.1-.2-.3-.2s-2,.9-3,3.1l-.7-.2,1-3.6h8.9Z" transform="translate(-101 -3.3)" style="fill:#fff"/><path d="M399.2,173.1v-.8h.1c.5,0,.9,0,1-.2s.1-.1.3-1l1.6-5.9a2.9,2.9,0,0,0,.2-.9c0-.3-.2-.4-1.1-.4h-.3v-.7h5.2v.7h-.1a2.3,2.3,0,0,0-1.1.2c-.1.2-.1.1-.3,1l-1.6,6a2.4,2.4,0,0,0-.2.8c0,.3.2.4,1.1.4h.3l-.2.8Z" transform="translate(-101 -3.3)" style="fill:#fff"/><path d="M416,164.2a4.1,4.1,0,0,1,1.1,2.8,6.4,6.4,0,0,1-6.2,6.3,4,4,0,0,1-4.2-3.7v-.5a6.1,6.1,0,0,1,1.9-4.4,6.4,6.4,0,0,1,4.3-1.8A4.4,4.4,0,0,1,416,164.2Zm-5.7,1.6a10.4,10.4,0,0,0-1.1,4.6c0,1.3.6,2.1,1.7,2.1s1.9-.7,2.6-2.1a10,10,0,0,0,1.1-4.5,2.8,2.8,0,0,0-.4-1.5,1.7,1.7,0,0,0-1.3-.7c-1,0-1.9.7-2.6,2.1Z" transform="translate(-101 -3.3)" style="fill:#fff"/><path d="M426.5,170.1l1.1-4a4,4,0,0,0,.3-1.5c0-.5-.4-.7-1.2-.7v-.8h3.8v.8c-.4-.1-.7.1-1.1.3s-.4.4-.8,1.9l-1.9,7.1h-1.1l-4.1-7.7-1.2,4.5-.3,1.5c0,.5.4.8,1.2.8h.2v.7h-3.9v-.7a1.5,1.5,0,0,0,1.1-.4c.4-.3.4-.4.8-1.9l1.5-5.7a.6.6,0,0,0-.8-.4h-.7v-.8h3.4Z" transform="translate(-101 -3.3)" style="fill:#fff"/><path d="M438.1,171.5c.1.6.4.8,1.2.8h.2v.8h-5.1v-.8h1.1l.2-.3v-.5l-.3-1.4h-3.2l-.6,1.1a1.4,1.4,0,0,0-.2.6c0,.4.3.6,1.1.6h.2v.7h-3.9v-.7h.1a3,3,0,0,0,1.9-1.4l4.7-8h.9Zm-3.5-5.5-1.9,3.3h2.5Z" transform="translate(-101 -3.3)" style="fill:#fff"/><path d="M449.4,169.6l-.9,3.5h-8.8v-.8h0a1.4,1.4,0,0,0,1.1-.2c.1-.1.1-.1.3-1l1.6-5.9a2.9,2.9,0,0,0,.2-.9c0-.3-.2-.4-1.1-.4h-.2v-.7H447v.7h-.2c-.6,0-1,.1-1,.2s-.2.1-.4,1l-1.6,6a2.9,2.9,0,0,0-.2.9c0,.2.2.3.7.3h.5a3.6,3.6,0,0,0,2.8-1.2,5.2,5.2,0,0,0,1.2-1.7Z" transform="translate(-101 -3.3)" style="fill:#fff"/><path d="M103.9,194a5.3,5.3,0,0,1-2.1-2.1,5.5,5.5,0,0,1,0-5.8,5.3,5.3,0,0,1,2.1-2.1,5.7,5.7,0,0,1,3.1-.7,6.3,6.3,0,0,1,3,.7,5.3,5.3,0,0,1,2.1,2.1,5.5,5.5,0,0,1,0,5.8A5.3,5.3,0,0,1,110,194a6.4,6.4,0,0,1-3,.8A6.8,6.8,0,0,1,103.9,194Zm5.3-1.2a3.9,3.9,0,0,0,1.5-1.6,4.3,4.3,0,0,0,0-4.4,3.6,3.6,0,0,0-1.5-1.5,4.3,4.3,0,0,0-2.2-.6,5.4,5.4,0,0,0-2.2.5,4.1,4.1,0,0,0-1.6,1.6,4.3,4.3,0,0,0,0,4.4,3.9,3.9,0,0,0,1.6,1.5,4.3,4.3,0,0,0,4.4,0Z" transform="translate(-101 -3.3)" style="fill:#fff"/><path d="M128,186.1l-3.2,8.5h-1.4l-2.5-6.4-2.5,6.4H117l-3.1-8.5h1.4l2.5,6.8,2.5-6.8h1.3l2.5,6.8,2.6-6.8Z" transform="translate(-101 -3.3)" style="fill:#fff"/><path d="M136.7,187a3.5,3.5,0,0,1,1,2.8v4.8h-1.6v-4.7a2.1,2.1,0,0,0-.6-1.8,2.1,2.1,0,0,0-1.7-.7,3.2,3.2,0,0,0-2,.8,3,3,0,0,0-.7,2.1v4.3h-1.5v-8.5h1.5v1.3a2.9,2.9,0,0,1,1.2-1,5.7,5.7,0,0,1,1.8-.3A3.5,3.5,0,0,1,136.7,187Z" transform="translate(-101 -3.3)" style="fill:#fff"/><path d="M148.2,190.9h-6.9a2.8,2.8,0,0,0,3.1,2.4,2.9,2.9,0,0,0,2.5-1l.8,1a2.8,2.8,0,0,1-1.4,1,4.3,4.3,0,0,1-1.9.4,5,5,0,0,1-2.4-.6,3.3,3.3,0,0,1-1.6-1.5,4.6,4.6,0,0,1-.6-2.2,4.6,4.6,0,0,1,.6-2.3,4.3,4.3,0,0,1,1.5-1.5,4.7,4.7,0,0,1,4.3,0,3.6,3.6,0,0,1,1.5,1.5,4.6,4.6,0,0,1,.6,2.3A1.1,1.1,0,0,1,148.2,190.9Zm-6-2.9a2.5,2.5,0,0,0-.8,1.8h5.4a3.1,3.1,0,0,0-.9-1.8A2.9,2.9,0,0,0,142.2,188Z" transform="translate(-101 -3.3)" style="fill:#fff"/><path d="M153.1,186.4a4.1,4.1,0,0,1,1.9-.4v1.5h-.3a2.4,2.4,0,0,0-2,.7,3,3,0,0,0-.8,2.2v4.2h-1.5v-8.5h1.5v1.4A2.5,2.5,0,0,1,153.1,186.4Z" transform="translate(-101 -3.3)" style="fill:#fff"/><path d="M162.8,194.1a3.9,3.9,0,0,1-1.6-1.5,4.5,4.5,0,0,1,0-4.5,3.9,3.9,0,0,1,1.6-1.5,5.1,5.1,0,0,1,4.5,0,3.9,3.9,0,0,1,1.6,1.5,5.1,5.1,0,0,1,0,4.5,3.9,3.9,0,0,1-1.6,1.5A4.5,4.5,0,0,1,162.8,194.1Zm3.7-1.1a2.2,2.2,0,0,0,1-1.1,2.6,2.6,0,0,0,.4-1.5,2.9,2.9,0,0,0-.4-1.6,3.2,3.2,0,0,0-1-1,3.7,3.7,0,0,0-1.5-.3,2.5,2.5,0,0,0-2.4,1.3,2.9,2.9,0,0,0-.4,1.6,2.6,2.6,0,0,0,.4,1.5,2.1,2.1,0,0,0,1,1.1,2.3,2.3,0,0,0,1.4.4A2.6,2.6,0,0,0,166.5,193Z" transform="translate(-101 -3.3)" style="fill:#fff"/><path d="M173.3,185.4v.7h2.5v1.3h-2.4v7.2h-1.6v-7.2h-1.4v-1.3h1.4v-.7a2.8,2.8,0,0,1,.8-2,2.6,2.6,0,0,1,2-.8l1,.2a1.1,1.1,0,0,1,.8.3l-.5,1.2a1.6,1.6,0,0,0-1.2-.4C173.8,183.9,173.3,184.4,173.3,185.4Z" transform="translate(-101 -3.3)" style="fill:#fff"/><path d="M186.4,194.1a2,2,0,0,1-.8.4l-1,.2a2.9,2.9,0,0,1-2-.7,2.5,2.5,0,0,1-.7-2v-4.7h-1.5v-1.2h1.5v-1.9h1.5v1.9h2.5v1.2h-2.5V192a1.5,1.5,0,0,0,.4,1.1,1.1,1.1,0,0,0,1,.3,1.9,1.9,0,0,0,1.2-.4Z" transform="translate(-101 -3.3)" style="fill:#fff"/><path d="M195.4,187a3.5,3.5,0,0,1,1,2.8v4.8h-1.6v-4.7a2.4,2.4,0,0,0-.5-1.8,2.3,2.3,0,0,0-1.7-.7,2.8,2.8,0,0,0-2,.8,2.6,2.6,0,0,0-.8,2.1v4.3h-1.5V182.7h1.6v4.6a2.7,2.7,0,0,1,1.2-.9,3.9,3.9,0,0,1,1.8-.4A3.5,3.5,0,0,1,195.4,187Z" transform="translate(-101 -3.3)" style="fill:#fff"/><path d="M207,190.9h-6.9a2.4,2.4,0,0,0,1,1.8,3.1,3.1,0,0,0,2.1.6,2.8,2.8,0,0,0,2.4-1l.9,1a3.1,3.1,0,0,1-1.5,1,4.1,4.1,0,0,1-1.9.4,5.3,5.3,0,0,1-2.4-.6,3.8,3.8,0,0,1-1.6-1.5,4.6,4.6,0,0,1-.6-2.2,4.6,4.6,0,0,1,.6-2.3,4.3,4.3,0,0,1,1.5-1.5,4.9,4.9,0,0,1,4.4,0,5.4,5.4,0,0,1,1.5,1.5,5.9,5.9,0,0,1,.5,2.3Zm-6-2.9a3.1,3.1,0,0,0-.9,1.8h5.5a3.1,3.1,0,0,0-.9-1.8A2.9,2.9,0,0,0,201,188Z" transform="translate(-101 -3.3)" style="fill:#fff"/><path d="M213.7,183.4h1.6v11.2h-1.6Z" transform="translate(-101 -3.3)" style="fill:#fff"/><path d="M225.6,187a3.5,3.5,0,0,1,1,2.8v4.8H225v-4.7a3,3,0,0,0-.6-1.8,2.2,2.2,0,0,0-1.7-.7,3,3,0,0,0-2,.8,2.6,2.6,0,0,0-.7,2.1v4.3h-1.5v-8.5H220v1.3a3.2,3.2,0,0,1,1.3-1,4.8,4.8,0,0,1,1.8-.3A3.4,3.4,0,0,1,225.6,187Z" transform="translate(-101 -3.3)" style="fill:#fff"/><path d="M237.5,182.7v11.9H236v-1.4a2.8,2.8,0,0,1-1.3,1.1,3.3,3.3,0,0,1-1.7.4,4,4,0,0,1-2.2-.6,3.3,3.3,0,0,1-1.6-1.5,5.1,5.1,0,0,1,0-4.5,3.9,3.9,0,0,1,1.6-1.5,4.3,4.3,0,0,1,2.2-.6,4.7,4.7,0,0,1,1.7.3l1.3,1v-4.6ZM234.6,193a2.2,2.2,0,0,0,1-1.1,2.6,2.6,0,0,0,.4-1.5,2.9,2.9,0,0,0-.4-1.6,3.2,3.2,0,0,0-1-1,3,3,0,0,0-2.9,0,3.2,3.2,0,0,0-1,1,2.9,2.9,0,0,0-.4,1.6,2.6,2.6,0,0,0,.4,1.5,2.7,2.7,0,0,0,1,1.1A3,3,0,0,0,234.6,193Z" transform="translate(-101 -3.3)" style="fill:#fff"/><path d="M241.8,194.1a3.6,3.6,0,0,1-1.5-1.5,4.5,4.5,0,0,1,0-4.5,3.6,3.6,0,0,1,1.5-1.5,5.3,5.3,0,0,1,4.6,0,3.6,3.6,0,0,1,1.5,1.5,4.5,4.5,0,0,1,0,4.5,3.6,3.6,0,0,1-1.5,1.5A4.7,4.7,0,0,1,241.8,194.1Zm3.8-1.1a5.2,5.2,0,0,0,1-1.1,2.9,2.9,0,0,0,.3-1.6,2.7,2.7,0,0,0-.3-1.5,3.2,3.2,0,0,0-1-1,3,3,0,0,0-3,0,3.2,3.2,0,0,0-1,1,4,4,0,0,0-.3,1.5,4.1,4.1,0,0,0,.3,1.6,5.2,5.2,0,0,0,1,1.1l1.5.3a2.7,2.7,0,0,0,1.5-.3Z" transform="translate(-101 -3.3)" style="fill:#fff"/><path d="M257.8,187a3.9,3.9,0,0,1,1,2.8v4.8h-1.6v-4.7a2.1,2.1,0,0,0-.6-1.8,2.1,2.1,0,0,0-1.7-.7,3.2,3.2,0,0,0-2,.8,3,3,0,0,0-.7,2.1v4.3h-1.5v-8.5h1.5v1.3a2.9,2.9,0,0,1,1.2-1,5.7,5.7,0,0,1,1.8-.3A3.5,3.5,0,0,1,257.8,187Z" transform="translate(-101 -3.3)" style="fill:#fff"/><path d="M269.3,190.9h-6.9a3.2,3.2,0,0,0,1,1.8,3.1,3.1,0,0,0,2.1.6,2.8,2.8,0,0,0,2.4-1l.9,1a3.3,3.3,0,0,1-1.4,1,4.3,4.3,0,0,1-1.9.4,4.8,4.8,0,0,1-2.4-.6,2.9,2.9,0,0,1-1.6-1.5,4.5,4.5,0,0,1,0-4.5,3.6,3.6,0,0,1,1.5-1.5,4,4,0,0,1,2.2-.6,3.9,3.9,0,0,1,2.1.6,3.6,3.6,0,0,1,1.5,1.5,4.6,4.6,0,0,1,.6,2.3A.7.7,0,0,0,269.3,190.9Zm-6-2.9a3.1,3.1,0,0,0-.9,1.8h5.5a3.1,3.1,0,0,0-.9-1.8A2.9,2.9,0,0,0,263.3,188Z" transform="translate(-101 -3.3)" style="fill:#fff"/><path d="M271.9,194.4a5.1,5.1,0,0,1-1.5-.7l.7-1.2a3.8,3.8,0,0,0,1.3.6,5.1,5.1,0,0,0,1.7.3c1.3,0,2-.4,2-1.2a.7.7,0,0,0-.3-.6,1.1,1.1,0,0,0-.7-.3l-1.2-.3-1.6-.3a3,3,0,0,1-1.1-.7,1.9,1.9,0,0,1-.5-1.4,2.3,2.3,0,0,1,1-1.9,4.8,4.8,0,0,1,2.6-.7l1.7.2a4.2,4.2,0,0,1,1.4.6l-.7,1.2a5.1,5.1,0,0,0-2.4-.7,2.4,2.4,0,0,0-1.5.4.9.9,0,0,0-.5.8.6.6,0,0,0,.2.7,1.9,1.9,0,0,0,.8.3l1.1.3,1.7.3a4.1,4.1,0,0,1,1.1.7,1.8,1.8,0,0,1,.4,1.4,2,2,0,0,1-1,1.8,4.8,4.8,0,0,1-2.6.7Z" transform="translate(-101 -3.3)" style="fill:#fff"/><path d="M279.6,184.2a1.1,1.1,0,0,1-.3-.7.9.9,0,0,1,.3-.7,1.1,1.1,0,0,1,.7-.3,1.1,1.1,0,0,1,.8.3.7.7,0,0,1,.3.6,1.1,1.1,0,0,1-1.1,1.1A.9.9,0,0,1,279.6,184.2Zm0,1.9h1.5v8.5h-1.5Z" transform="translate(-101 -3.3)" style="fill:#fff"/><path d="M289.9,186.9a3.5,3.5,0,0,1,.9,2.6v5.1h-1.5v-1.1a2,2,0,0,1-1.1.9,4.5,4.5,0,0,1-1.6.3,3.9,3.9,0,0,1-2.3-.7,2.3,2.3,0,0,1,0-3.6,3.7,3.7,0,0,1,2.5-.7h2.5v-.3a2,2,0,0,0-.6-1.5,2.2,2.2,0,0,0-1.7-.5,3.9,3.9,0,0,0-1.5.2,3.7,3.7,0,0,0-1.2.7l-.6-1.2a4.4,4.4,0,0,1,1.5-.8,6.9,6.9,0,0,1,2-.3A4.6,4.6,0,0,1,289.9,186.9Zm-1.6,6.2a1.8,1.8,0,0,0,1-1.1v-1.2h-2.4c-1.3,0-2,.5-2,1.3a1.2,1.2,0,0,0,.5,1,2.3,2.3,0,0,0,1.4.4A2.6,2.6,0,0,0,288.3,193.1Z" transform="translate(-101 -3.3)" style="fill:#fff"/><path d="M299.1,194.3a4,4,0,0,1-1.8-1l.6-1.2a4.2,4.2,0,0,0,1.6.9,6.5,6.5,0,0,0,2,.4,4.1,4.1,0,0,0,2.1-.5,1.7,1.7,0,0,0,.7-1.3,1.5,1.5,0,0,0-.4-.9l-.9-.5-1.6-.5a7.6,7.6,0,0,1-2-.6,3,3,0,0,1-1.3-.9,2.7,2.7,0,0,1-.6-1.7,2.8,2.8,0,0,1,.5-1.6,2.4,2.4,0,0,1,1.4-1.2,5.1,5.1,0,0,1,2.4-.4l2,.2a4.8,4.8,0,0,1,1.6.8l-.5,1.2a3.9,3.9,0,0,0-1.5-.6,4.1,4.1,0,0,0-1.6-.3,4.6,4.6,0,0,0-2,.5,1.6,1.6,0,0,0-.6,1.3.8.8,0,0,0,.4.9,1.7,1.7,0,0,0,1,.6l1.5.4,2,.6a4.1,4.1,0,0,1,1.3,1,2.3,2.3,0,0,1,.6,1.6,3.4,3.4,0,0,1-.5,1.7,3.3,3.3,0,0,1-1.5,1.1,4.9,4.9,0,0,1-2.4.4A7.3,7.3,0,0,1,299.1,194.3Z" transform="translate(-101 -3.3)" style="fill:#fff"/><path d="M312.8,194.1a2,2,0,0,1-.8.4l-1,.2a2.7,2.7,0,0,1-2-.7,2.5,2.5,0,0,1-.7-2v-4.7h-1.5v-1.2h1.5v-1.9h1.5v1.9h2.4v1.2h-2.4V192a2,2,0,0,0,.3,1.1,1.3,1.3,0,0,0,1,.3,1.6,1.6,0,0,0,1.2-.4Z" transform="translate(-101 -3.3)" style="fill:#fff"/><path d="M315.8,194.1a3.9,3.9,0,0,1-1.6-1.5,5.1,5.1,0,0,1,0-4.5,3.9,3.9,0,0,1,1.6-1.5,5.1,5.1,0,0,1,4.5,0,3.9,3.9,0,0,1,1.6,1.5,5.1,5.1,0,0,1,0,4.5,3.9,3.9,0,0,1-1.6,1.5A4.5,4.5,0,0,1,315.8,194.1Zm3.7-1.1a3.5,3.5,0,0,0,1-1.1,2.9,2.9,0,0,0,.4-1.6,2.8,2.8,0,0,0-.4-1.5,2.4,2.4,0,0,0-1-1,3,3,0,0,0-2.9,0,2.4,2.4,0,0,0-1,1,2.8,2.8,0,0,0-.4,1.5,2.9,2.9,0,0,0,.4,1.6,3.5,3.5,0,0,0,1,1.1A3,3,0,0,0,319.5,193Z" transform="translate(-101 -3.3)" style="fill:#fff"/><path d="M326,194.1a3.9,3.9,0,0,1-1.6-1.5,5.1,5.1,0,0,1,0-4.5,3.9,3.9,0,0,1,1.6-1.5,4.6,4.6,0,0,1,2.3-.6,4.6,4.6,0,0,1,2,.5,3.5,3.5,0,0,1,1.4,1.3l-1.1.8a2.8,2.8,0,0,0-1-.9,3.5,3.5,0,0,0-1.4-.3l-1.5.3-1,1a4.4,4.4,0,0,0,0,3.2,3.2,3.2,0,0,0,1,1,2.8,2.8,0,0,0,1.5.4,3.5,3.5,0,0,0,1.4-.3,2.8,2.8,0,0,0,1-.9l1.1.7a3.2,3.2,0,0,1-1.4,1.4,4.5,4.5,0,0,1-2,.4A3.7,3.7,0,0,1,326,194.1Z" transform="translate(-101 -3.3)" style="fill:#fff"/><path d="M337,190.6l-1.8,1.7v2.3h-1.5V182.7h1.5v7.6l4.7-4.2h1.8l-3.6,3.5,4,5h-1.9Z" transform="translate(-101 -3.3)" style="fill:#fff"/><path d="M356.3,193.2v1.4h-8.1V183.4h7.9v1.4h-6.3v3.4h5.6v1.4h-5.6v3.6Z" transform="translate(-101 -3.3)" style="fill:#fff"/><path d="M363.9,194.6l-2.4-3.3-2.5,3.3h-1.7l3.3-4.3-3.1-4.2h1.7l2.3,3,2.3-3h1.7l-3.2,4.2,3.4,4.3Z" transform="translate(-101 -3.3)" style="fill:#fff"/><path d="M368.5,194.1a3.9,3.9,0,0,1-1.6-1.5,4.5,4.5,0,0,1,0-4.5,3.9,3.9,0,0,1,1.6-1.5,4.6,4.6,0,0,1,2.3-.6,5.4,5.4,0,0,1,2.1.5,3.5,3.5,0,0,1,1.4,1.3l-1.2.8a2.2,2.2,0,0,0-1-.9,2.8,2.8,0,0,0-1.3-.3l-1.5.3a3.2,3.2,0,0,0-1,4.2,2.4,2.4,0,0,0,1,1,2.8,2.8,0,0,0,1.5.4,2.8,2.8,0,0,0,1.3-.3,2.2,2.2,0,0,0,1-.9l1.2.7a3.2,3.2,0,0,1-1.4,1.4,5.2,5.2,0,0,1-2.1.4A3.7,3.7,0,0,1,368.5,194.1Z" transform="translate(-101 -3.3)" style="fill:#fff"/><path d="M383.3,187a3.5,3.5,0,0,1,1,2.8v4.8h-1.5v-4.7a3,3,0,0,0-.6-1.8,2.3,2.3,0,0,0-1.7-.7,2.8,2.8,0,0,0-2,.8,2.6,2.6,0,0,0-.8,2.1v4.3h-1.5V182.7h1.5v4.6a3.8,3.8,0,0,1,1.3-.9,3.3,3.3,0,0,1,1.7-.4A3.5,3.5,0,0,1,383.3,187Z" transform="translate(-101 -3.3)" style="fill:#fff"/><path d="M392.9,186.9a3.5,3.5,0,0,1,1,2.6v5.1h-1.5v-1.1a2.4,2.4,0,0,1-1.1.9,4.7,4.7,0,0,1-1.7.3,3.9,3.9,0,0,1-2.3-.7,2.4,2.4,0,0,1-.2-3.4l.2-.2a4.1,4.1,0,0,1,2.6-.7h2.5v-.3a2,2,0,0,0-.6-1.5,2.2,2.2,0,0,0-1.7-.5,3.9,3.9,0,0,0-1.5.2,3.7,3.7,0,0,0-1.2.7l-.6-1.2a4.4,4.4,0,0,1,1.5-.8,6.9,6.9,0,0,1,2-.3A4.1,4.1,0,0,1,392.9,186.9Zm-1.5,6.2a2.4,2.4,0,0,0,.9-1.1v-1.2H390c-1.3,0-2,.5-2,1.3a1.2,1.2,0,0,0,.5,1,2.3,2.3,0,0,0,1.4.4A2.8,2.8,0,0,0,391.4,193.1Z" transform="translate(-101 -3.3)" style="fill:#fff"/><path d="M403.9,187a4.3,4.3,0,0,1,1,2.8v4.8h-1.6v-4.7a2.5,2.5,0,0,0-.6-1.8,2.1,2.1,0,0,0-1.7-.7,3.2,3.2,0,0,0-2,.8,2.6,2.6,0,0,0-.7,2.1v4.3h-1.5v-8.5h1.4v1.3a4.1,4.1,0,0,1,1.3-1,5.7,5.7,0,0,1,1.8-.3A3.6,3.6,0,0,1,403.9,187Z" transform="translate(-101 -3.3)" style="fill:#fff"/><path d="M415.9,186.1v7.3a4.4,4.4,0,0,1-1.1,3.3,4.6,4.6,0,0,1-3.3,1.1,8.5,8.5,0,0,1-2.3-.3,4,4,0,0,1-1.8-1l.7-1.2,1.5.9,1.8.2a2.5,2.5,0,0,0,2.9-2.8v-.7a2.6,2.6,0,0,1-1.3,1,5.3,5.3,0,0,1-1.7.4,4.3,4.3,0,0,1-2.2-.6,3.6,3.6,0,0,1-1.6-1.4,4.7,4.7,0,0,1,0-4.3,3.6,3.6,0,0,1,1.6-1.4,4.3,4.3,0,0,1,2.2-.6,4.7,4.7,0,0,1,1.7.4,2.4,2.4,0,0,1,1.4,1v-1.3Zm-3,6.4a1.7,1.7,0,0,0,1-1,2.3,2.3,0,0,0,.4-1.4,2.2,2.2,0,0,0-.8-2,3.2,3.2,0,0,0-4.2,0,2.2,2.2,0,0,0-.8,2,3.2,3.2,0,0,0,.3,1.4,2.4,2.4,0,0,0,1,1,2.9,2.9,0,0,0,1.6.4,2.6,2.6,0,0,0,1.5-.4Z" transform="translate(-101 -3.3)" style="fill:#fff"/><path d="M426.5,190.9h-6.9a2.7,2.7,0,0,0,1,1.8,3.1,3.1,0,0,0,2.1.6,2.8,2.8,0,0,0,2.4-1l.9,1a3.1,3.1,0,0,1-1.5,1,4.1,4.1,0,0,1-1.9.4,4.6,4.6,0,0,1-2.3-.6,3.5,3.5,0,0,1-1.7-1.5,5.9,5.9,0,0,1-.5-2.2,5.9,5.9,0,0,1,.5-2.3,5.4,5.4,0,0,1,1.5-1.5,4.9,4.9,0,0,1,4.4,0,5.4,5.4,0,0,1,1.5,1.5,4.6,4.6,0,0,1,.5,2.3Zm-6-2.9a3.1,3.1,0,0,0-.9,1.8H425a3.1,3.1,0,0,0-.9-1.8,2.9,2.9,0,0,0-3.7,0Z" transform="translate(-101 -3.3)" style="fill:#fff"/><path d="M442.3,189.8a2.9,2.9,0,0,1-.5,4,5.3,5.3,0,0,1-3.2.8h-5.4V183.4h5a4.4,4.4,0,0,1,3,.8,2.3,2.3,0,0,1,1,2.1,2.1,2.1,0,0,1-.4,1.5,2.2,2.2,0,0,1-1.1,1A2.5,2.5,0,0,1,442.3,189.8Zm-7.5-5.1v3.6h3.3a3,3,0,0,0,1.9-.5,1.5,1.5,0,0,0,.3-2.3c0-.2-.2-.3-.3-.4a3,3,0,0,0-1.9-.4Zm5.8,8.1a1.7,1.7,0,0,0,.7-1.4c0-1.2-.9-1.8-2.8-1.8h-3.6v3.7h3.6A3.8,3.8,0,0,0,440.6,192.8Z" transform="translate(-101 -3.3)" style="fill:#fff"/><path d="M453.1,186.1v8.5h-1.5v-1.3a2.9,2.9,0,0,1-1.2,1,3.2,3.2,0,0,1-1.6.4,3.8,3.8,0,0,1-2.7-1,3.4,3.4,0,0,1-1-2.7v-4.9h1.5v4.7a3.3,3.3,0,0,0,.6,1.9,2.7,2.7,0,0,0,1.7.6,2.6,2.6,0,0,0,1.9-.7,2.8,2.8,0,0,0,.7-2.1v-4.4Z" transform="translate(-101 -3.3)" style="fill:#fff"/><path d="M456.1,184.2a1.1,1.1,0,0,1-.3-.7.9.9,0,0,1,1-1,.9.9,0,0,1,.7.3.7.7,0,0,1,.3.6.9.9,0,0,1-1,1A.7.7,0,0,1,456.1,184.2Zm0,1.9h1.5v8.5h-1.5Z" transform="translate(-101 -3.3)" style="fill:#fff"/><path d="M460.6,182.7h1.5v11.9h-1.5Z" transform="translate(-101 -3.3)" style="fill:#fff"/><path d="M473.1,182.7v11.9h-1.5v-1.4a2.8,2.8,0,0,1-1.3,1.1,3.3,3.3,0,0,1-1.7.4,4.3,4.3,0,0,1-2.2-.6,2.8,2.8,0,0,1-1.5-1.5,4.5,4.5,0,0,1,0-4.5,3.1,3.1,0,0,1,1.5-1.5,4.3,4.3,0,0,1,2.2-.6,3.3,3.3,0,0,1,1.7.4,3.1,3.1,0,0,1,1.3,1v-4.7ZM470.2,193a3.6,3.6,0,0,0,1-1.1,3.7,3.7,0,0,0,.3-1.5,2.9,2.9,0,0,0-.3-1.6,4.7,4.7,0,0,0-1-1,3,3,0,0,0-2.9,0,2.4,2.4,0,0,0-1,1,2.9,2.9,0,0,0-.4,1.6,2.6,2.6,0,0,0,.4,1.5,2.1,2.1,0,0,0,1,1.1A3,3,0,0,0,470.2,193Z" transform="translate(-101 -3.3)" style="fill:#fff"/><path d="M476.1,184.2a1.1,1.1,0,0,1-.3-.7.9.9,0,0,1,1-1,.9.9,0,0,1,.7.3.7.7,0,0,1,.3.6.9.9,0,0,1-1,1A.6.6,0,0,1,476.1,184.2Zm0,1.9h1.5v8.5h-1.5Z" transform="translate(-101 -3.3)" style="fill:#fff"/><path d="M487.7,187a3.8,3.8,0,0,1,.9,2.8v4.8h-1.5v-4.7a2.8,2.8,0,0,0-.6-1.8,2.3,2.3,0,0,0-1.7-.7,3,3,0,0,0-2,.8,2.6,2.6,0,0,0-.7,2.1v4.3h-1.6v-8.5H482v1.3a3.2,3.2,0,0,1,1.3-1,4.7,4.7,0,0,1,1.7-.3A3.3,3.3,0,0,1,487.7,187Z" transform="translate(-101 -3.3)" style="fill:#fff"/><path d="M499.7,186.1v7.3a4.4,4.4,0,0,1-1.1,3.3,4.6,4.6,0,0,1-3.3,1.1,8.5,8.5,0,0,1-2.3-.3,4,4,0,0,1-1.8-1l.8-1.2a4.2,4.2,0,0,0,1.4.9l1.8.2a2.5,2.5,0,0,0,2.9-2.8v-.7a2.6,2.6,0,0,1-1.3,1,4.7,4.7,0,0,1-1.7.4,4.3,4.3,0,0,1-2.2-.6,3.6,3.6,0,0,1-1.6-1.4,4.7,4.7,0,0,1,0-4.3,3.6,3.6,0,0,1,1.6-1.4,4.3,4.3,0,0,1,2.2-.6,5.8,5.8,0,0,1,1.8.4,2.6,2.6,0,0,1,1.3,1v-1.3Zm-2.9,6.4a2.4,2.4,0,0,0,1-1,3.2,3.2,0,0,0,.3-1.4,2.2,2.2,0,0,0-.8-2,3.3,3.3,0,0,0-4.2,0,2.8,2.8,0,0,0-.8,2,2.3,2.3,0,0,0,.4,1.4,1.7,1.7,0,0,0,1,1,2.4,2.4,0,0,0,1.5.4A3.2,3.2,0,0,0,496.8,192.5Z" transform="translate(-101 -3.3)" style="fill:#fff"/></svg>