<?xml version="1.0" encoding="utf-8"?>
<!-- Generator: Adobe Illustrator 23.0.0, SVG Export Plug-In . SVG Version: 6.00 Build 0)  -->
<svg version="1.1" id="Layer_1" xmlns="http://www.w3.org/2000/svg" xmlns:xlink="http://www.w3.org/1999/xlink" x="0px" y="0px"
	 viewBox="0 0 398.7 187.8" style="enable-background:new 0 0 398.7 187.8;" xml:space="preserve">
<style type="text/css">
	.st0{fill:#FFFFFF;}
</style>
<title>Logo Bawah_white</title>
<g id="Group_1083">
	<path id="Logo_FJI_OK_08082019" class="st0" d="M258.1-2.7v8.9h-2.8v-8.9h-1.6v8.9h-6.6v-8.9h-1.6v8.9H244v-8.9h-1.6v8.9h-1V19h-3
		v1.6l0,0v6.6h-4.9v-2.8h-1.6v2.8h-2.4v-2.8h-1.6v2.8h-2.7v7.5h-0.8v0.5l0,0v17h-2.3v-4h-1.6v4h-2.5v-4h-1.5v86.9h-3.1V131h-1.6v4.1
		h-5.9V131h-1.6v4.1h-9.5V131H193v4.1h-5.9V131h-1.6v4.1h-3.1v-87h-1.6v4h-2.5v-4h-1.6v4h-2.3v-17l0,0v-0.5h-0.7v-7.5H171v-2.8h-1.7
		v2.8h-2.4v-2.8h-1.6v2.8h-5v-8.2h-2.9V7.7l0,0V6.2h-1v-8.9h-1.6v8.9h-1.5v-8.9h-1.6v8.9H145v-8.9h-1.6v8.9h-2.7v-8.9H139v151.2h121
		V-2.7H258.1z M255.4,20.5h2.8v6.6h-2.8V20.5z M253.8,27.1h-6.6v-6.6h6.6V27.1z M258.1,7.7v11.2h-2.8V7.7H258.1z M253.8,7.7v11.2
		h-6.6V7.7H253.8z M243.1,7.7h2.4v11.2h-2.4V7.7z M240.1,20.5h5.4v6.6h-5.4V20.5z M241.4,28.7v2.1h-8v-2.1H241.4z M231.9,36.3v7
		h-2.4v-7H231.9z M229.4,34.6v-2.2h2.4v2.2H229.4z M229.4,44.8h2.4v7.3h-2.4V44.8z M229.4,53.7h2.4v6.1h-2.4V53.7z M229.4,61.5h2.4
		v6.9h-2.4V61.5z M229.4,70.1h2.4v6.3h-2.4V70.1z M229.4,78h2.4v6.1h-2.4V78z M229.4,85.7h2.4v6.5h-2.4V85.7z M229.4,93.7h2.4v6.5
		h-2.4V93.7z M229.4,101.9h2.4v6.3h-2.4V101.9z M229.4,109.8h2.4v6.5h-2.4V109.8z M233.4,109.8h8v6.5h-8L233.4,109.8z M233.4,108.2
		v-6.3h8v6.3L233.4,108.2z M233.4,100.2v-6.5h8v6.5L233.4,100.2z M233.4,92.1v-6.5h8v6.5L233.4,92.1z M233.4,84.1V78h8v6.1
		L233.4,84.1z M233.4,76.4v-6.3h8v6.3L233.4,76.4z M233.4,68.4v-7h8v6.9L233.4,68.4z M233.4,59.9v-6.1h8v6.1L233.4,59.9z
		 M233.4,52.1v-7.3h8v7.3H233.4z M233.4,43.2v-6.9h8v7L233.4,43.2L233.4,43.2z M229.4,117.9h2.4v6.3h-2.4V117.9z M233.5,117.9h8v6.3
		h-8V117.9z M243.1,117.9h2.4v6.3h-2.4V117.9z M243.1,116.2v-6.5h2.4v6.5H243.1z M243.1,108.2v-6.3h2.4v6.3L243.1,108.2z
		 M243.1,100.2v-6.5h2.4v6.5H243.1z M243.1,92.1v-6.5h2.4v6.5H243.1z M243.1,84.1V78h2.4v6.1L243.1,84.1z M243.1,76.4v-6.3h2.4v6.3
		L243.1,76.4z M243.1,68.4v-7h2.4v6.9L243.1,68.4z M243.1,59.8v-6.1h2.4v6.1L243.1,59.8z M243.1,52.1v-7.3h2.4v7.3H243.1z
		 M243.1,43.2v-6.9h2.4v7L243.1,43.2L243.1,43.2z M243.1,34.6v-2.2h2.4v2.2L243.1,34.6z M241.4,34.6h-8v-2.2h8V34.6z M231.9,28.7
		v2.1h-2.4v-2.1H231.9z M227.8,28.7v2.1h-1v-2.1H227.8z M226.8,32.4h1v2.2h-1V32.4z M224.5,53.8v2.9h-2.3v-2.9H224.5z M220.5,53.8
		v2.9H218v-2.9H220.5z M218.1,58.2h2.5V135h-2.5V58.2z M220.6,142.5H218v-5.8h2.5L220.6,142.5z M216.5,136.7v5.8h-3.1v-5.8H216.5z
		 M211.8,136.7v5.8h-5.9v-5.8H211.8z M200.3,136.7h4v5.8h-9.5v-5.8H200.3z M193.1,136.7v5.8h-5.9v-5.8H193.1z M185.6,136.7v5.8h-3.1
		v-5.8H185.6z M180.8,53.8v2.8h-2.5v-2.8H180.8z M176.7,53.8v2.8h-2.3v-2.8H176.7z M171,34.6v-2.2h1v2.2H171z M155.8,32.4v2.2h-2.4
		v-2.2H155.8z M169.4,116.2H167v-6.5h2.4V116.2z M165.4,61.5v6.9h-8v-6.9L165.4,61.5z M157.4,59.9v-6.1h8v6.1L157.4,59.9z
		 M165.4,70.1v6.3h-8v-6.3L165.4,70.1z M165.4,78v6.1h-8V78L165.4,78z M165.4,85.7v6.5h-8v-6.5L165.4,85.7z M165.4,93.7v6.5h-8v-6.5
		L165.4,93.7z M165.4,101.9v6.3h-8v-6.3L165.4,101.9z M165.4,109.8v6.4h-8v-6.5L165.4,109.8z M169.4,108.2H167v-6.3h2.4V108.2z
		 M169.4,100.2H167v-6.5h2.4V100.2z M169.4,92.1H167v-6.5h2.4V92.1z M169.4,84.1H167V78h2.4V84.1z M169.4,76.4H167v-6.3h2.4V76.4z
		 M169.4,68.5H167v-7h2.4V68.5z M169.4,59.9H167v-6.1h2.4V59.9z M169.4,52.1H167v-7.3h2.4V52.1z M165.4,52.1h-8v-7.3h8L165.4,52.1z
		 M157.4,43.2v-6.9h8v7L157.4,43.2L157.4,43.2z M157.4,34.6v-2.2h8v2.2H157.4z M155.8,36.3v7h-2.4v-7L155.8,36.3z M155.8,44.8v7.3
		h-2.4v-7.3H155.8z M155.8,53.7v6.1h-2.4v-6.1L155.8,53.7z M155.8,61.5v6.9h-2.4v-6.9L155.8,61.5z M155.8,70.1v6.3h-2.4v-6.3
		L155.8,70.1z M155.8,78v6.1h-2.4V78L155.8,78z M155.8,85.7v6.5h-2.4v-6.5L155.8,85.7z M155.8,93.7v6.5h-2.4v-6.5L155.8,93.7z
		 M155.8,101.9v6.3h-2.4v-6.3L155.8,101.9z M155.8,109.8v6.4h-2.4v-6.5L155.8,109.8z M155.8,117.9v6.3h-2.4v-6.3H155.8z
		 M157.4,117.9h8v6.3h-8L157.4,117.9z M167,117.9h2.4v6.3H167V117.9z M169.4,43.2H167v-6.9h2.4V43.2z M167,34.6v-2.2h2.4v2.2H167z
		 M172.1,28.7v2.1h-1v-2.1L172.1,28.7z M169.4,28.7v2.1H167v-2.1L169.4,28.7z M165.3,30.8h-8v-2.1h8L165.3,30.8z M158.8,27.1h-5.5
		v-6.5h5.4L158.8,27.1z M140.7,20.5h2.7v6.6h-2.7V20.5L140.7,20.5z M145,20.5h6.6v6.6H145L145,20.5z M155.8,7.8v11.1h-2.4V7.7
		L155.8,7.8z M151.7,7.8v11.1H145V7.7L151.7,7.8z M143.4,7.8v11.1h-2.7V7.7L143.4,7.8z M140.7,146.9V28.7h2.7v118.2H140.7z
		 M145,146.9V28.7h10.7v2.1h-4v3.8h-3.9v1.6l0,0v110.7H145z M149.4,146.9V36.3h2.3v7l0,0v1.6l0,0v7.3l0,0v1.6l0,0v6.1l0,0v1.6l0,0v7
		l0,0v1.6l0,0v6.3l0,0V78l0,0v6.1l0,0v1.6l0,0v6.5l0,0v1.6l0,0v6.5l0,0v1.6l0,0v6.3l0,0v1.6l0,0v6.5l0,0v1.6l0,0v6.2l0,0v1.6l0,0
		v21.3h-2.3V146.9z M153.3,146.9v-21.2h2.5v21.2H153.3z M157.3,146.9v-21.2h8v21.2H157.3z M166.9,146.9v-21.2h2.4v21.2H166.9z
		 M171,146.9V36.3h1.8v110.6H171z M174.4,146.9V58.2h2.3v88.7H174.4z M178.3,146.9V58.2h2.5V135h-1.4v1.6h1.5v5.8h-1.5v1.6h1.5v2.8
		L178.3,146.9L178.3,146.9z M182.4,146.9v-2.8h3.1v2.8H182.4z M187.1,146.9v-2.8h5.9v2.8H187.1z M200.2,146.9h-5.6v-2.8h9.5v2.8
		H200.2z M205.8,146.9v-2.8h5.9v2.8H205.8z M213.3,146.9v-2.8h3.1v2.8H213.3z M218,146.9v-2.8h2.5v2.8H218z M222.1,146.9V58.2h2.3
		v88.7H222.1z M226.1,146.9V36.3h1.8v110.6H226.1z M229.4,146.9v-21.2h2.4v21.2H229.4z M233.5,146.9v-21.2h8v21.2H233.5z
		 M243.1,146.9v-21.2h2.4v21.2H243.1z M247.1,146.9v-21.2l0,0V124l0,0v-6.3l0,0v-1.6l0,0v-6.4l0,0v-1.6l0,0v-6.4l0,0v-1.6l0,0v-6.5
		l0,0V92l0,0v-6.5l0,0v-1.6l0,0v-6.1l0,0v-1.4l0,0v-6.3l0,0v-1.7l0,0v-6.9l0,0v-1.6l0,0v-6.1l0,0v-1.7l0,0v-7.3l0,0v-1.6l0,0v-6.9
		h2.4v110.6H247.1z M251.1,146.9V36.3l0,0v-1.6h-3.9v-3.8h-4v-2.1h10.7v118.1H251.1z M255.4,146.9V28.7h2.8v118.2H255.4z"/>
</g>
<g>
	<path class="st0" d="M62,165.1c-0.1,0.3-0.2,0.6-0.2,0.9c0,0.3,0.2,0.4,1.1,0.4h0.3l-0.1,0.7H58l0.1-0.7h0.1c0.9,0,1.1-0.1,1.3-0.7
		l0.2-0.6l1.6-5.9c0.1-0.3,0.2-0.6,0.2-0.9c0-0.3-0.2-0.4-1.1-0.4h-0.2l0.1-0.7h4.3c1.1-0.1,2.1,0.1,3.1,0.6c0.7,0.5,1,1.2,1,2
		c0,1.1-0.6,2.2-1.7,2.6c-1,0.4-2.1,0.5-3.2,0.5h-1.1L62,165.1z M63.5,162.1c0.6,0,1.2-0.1,1.7-0.5c0.6-0.6,0.9-1.4,0.9-2.2
		c0.1-0.7-0.4-1.3-1.1-1.4c-0.1,0-0.1,0-0.2,0h-0.2c-0.6,0-0.7,0.1-0.9,0.7l-0.9,3.4L63.5,162.1z"/>
	<path class="st0" d="M78.9,161l-0.7-0.1c0-0.3,0-0.6,0-0.8c0-1.4-0.6-2.3-1.6-2.3c-0.4,0-0.4,0-0.6,0.6l-1.8,6.6
		c-0.1,0.3-0.2,0.6-0.2,0.9c0,0.3,0.2,0.4,1.1,0.4h0.3l-0.1,0.7H70l0.1-0.7h0.4c0.6,0,0.9-0.1,1-0.2s0.1-0.1,0.4-1l1.8-6.6
		c0-0.1,0.1-0.2,0.1-0.3c0-0.1-0.1-0.2-0.4-0.2c-1.2,0-2,0.9-2.9,3.1l-0.7-0.2l1-3.7h8.9L78.9,161z"/>
	<path class="st0" d="M80.8,166.1c0,0.7-0.5,1.2-1.2,1.2c-0.7,0-1.2-0.5-1.2-1.2s0.5-1.2,1.2-1.2c0,0,0,0,0,0
		C80.2,164.9,80.8,165.4,80.8,166.1z"/>
	<path class="st0" d="M96.3,160.5h-0.7c0-0.6-0.1-1.2-0.3-1.7c-0.4-0.6-1.1-1-1.9-0.9h-0.5c-0.6,0-0.7,0.1-0.9,0.7l-0.8,3h0.3
		c1.1,0.1,2-0.6,2.3-1.7l0.7,0.1l-1.2,4.6l-0.7-0.1c0-0.3,0.1-0.6,0.1-0.8c0-0.9-0.4-1.3-1.3-1.3h-0.3l-0.7,2.8
		c-0.1,0.3-0.2,0.6-0.2,0.9c0,0.3,0.2,0.4,1.1,0.4h0.4l-0.1,0.7h-5.1l0.1-0.7l0,0c1,0,1.1-0.1,1.3-0.7l0.2-0.6l1.6-5.9
		c0.1-0.3,0.1-0.6,0.2-0.9c0-0.3-0.2-0.4-1.1-0.4h-0.3l0.1-0.7h8.4L96.3,160.5z"/>
	<path class="st0" d="M96.4,167.1l0.1-0.7h0.1c0.6,0,0.9-0.1,1-0.2s0.1-0.1,0.4-1l1.6-5.9c0.1-0.3,0.2-0.6,0.2-0.9
		c0-0.3-0.2-0.4-1.1-0.4h-0.3l0.1-0.7h5.1l-0.1,0.7h-0.1c-0.6,0-0.9,0.1-1,0.2s-0.1,0.1-0.4,1l-1.6,5.9c-0.1,0.3-0.2,0.6-0.2,0.9
		c0,0.3,0.2,0.4,1.1,0.4h0.3l-0.1,0.7H96.4z"/>
	<path class="st0" d="M106.9,165.1c-0.1,0.3-0.1,0.6-0.2,0.9c0,0.3,0.2,0.4,1.1,0.4h0.3l-0.1,0.7h-5.1l0.1-0.7h0.1
		c0.6,0,0.9-0.1,1-0.2s0.1-0.1,0.4-1l1.6-5.9c0.1-0.3,0.2-0.6,0.2-0.9c0-0.3-0.2-0.4-1.1-0.4h-0.3l0.1-0.7h4.8c1-0.1,2,0.1,2.9,0.4
		c0.7,0.3,1.1,1.1,1.1,1.9c0,1.6-1.3,2.5-3.9,2.7c0.5,0.1,1,0.4,1.4,0.8c0.4,0.5,0.6,1.1,0.5,1.7v0.4c0,0.9,0,0.9,0.1,1
		c0,0.1,0.1,0.1,0.2,0.1c0.3,0,0.6-0.3,0.7-0.7c0.1-0.1,0.1-0.2,0.2-0.6l0.6,0.3c-0.5,1.4-1.2,2.1-2.4,2.1c-1,0.1-1.9-0.7-2-1.7
		c0-0.1,0-0.1,0-0.2c0-0.3,0-0.7,0.1-1.2c0-0.3,0.1-0.5,0.1-0.8c0-0.8-0.4-1.1-1.4-1.1h-0.4L106.9,165.1z M108.3,161.5
		c1.2,0,1.6-0.1,2-0.4c0.6-0.4,0.9-1.1,0.9-1.9c0-0.9-0.5-1.4-1.5-1.4h-0.3c-0.5,0-0.6,0.1-0.7,0.5l-0.8,3.1H108.3z"/>
	<path class="st0" d="M123.3,160.9l-0.7-0.1c0-0.6-0.1-1.2-0.3-1.7c-0.4-0.9-1.3-1.4-2.3-1.4c-1.2,0-1.9,0.6-1.9,1.5
		c0,0.4,0.1,0.7,0.4,1c0.3,0.3,0.7,0.4,1.1,0.5c0.8,0.3,1.6,0.6,2.4,1c0.8,0.5,1.3,1.4,1.2,2.3c0,1.9-1.6,3.3-4,3.3
		c-1.1,0.1-2.2-0.3-3-1.1l-0.8,0.9h-0.6l0.7-3.9l0.7,0.1v0.2c-0.1,1.5,1,2.9,2.6,3c0.1,0,0.2,0,0.4,0c1.3,0,2.2-0.6,2.2-1.6
		s-0.5-1.2-2.3-1.8c-0.7-0.2-1.4-0.5-2-1c-0.5-0.5-0.8-1.2-0.8-1.9c0.1-1.9,1.6-3.4,3.5-3.3c0,0,0.1,0,0.1,0c1,0,2,0.3,2.7,1
		l0.7-0.7h0.6L123.3,160.9z"/>
	<path class="st0" d="M134.2,161l-0.7-0.1c0-0.3,0-0.6,0-0.8c0-1.4-0.6-2.3-1.6-2.3c-0.4,0-0.4,0-0.6,0.6l-1.8,6.6
		c-0.1,0.3-0.2,0.6-0.2,0.9c0,0.3,0.2,0.4,1.1,0.4h0.3l-0.1,0.7h-5.4l0.1-0.7h0.4c0.6,0,0.9-0.1,1-0.2s0.1-0.1,0.4-1l1.8-6.6
		c0-0.1,0-0.2,0.1-0.3c0-0.1-0.1-0.2-0.4-0.2c-1.2,0-2,0.9-3,3.1l-0.7-0.2l1-3.7h8.9L134.2,161z"/>
	<path class="st0" d="M143.7,157.1h5.2l-0.1,0.7h-0.1c-0.4-0.1-0.7,0-1.1,0.2c-0.1,0.1-0.1,0.1-0.4,1l-1.1,4.2
		c-0.1,0.8-0.4,1.5-0.7,2.2c-0.7,1.2-2,1.9-3.3,1.8c-2.1,0-3.2-0.9-3.2-2.5c-0.1-1.1,0.6-2,1.7-2.2c0,0,0.1,0,0.1,0
		c0.7-0.1,1.4,0.5,1.5,1.2c0,0,0,0.1,0,0.1c0,0.7-0.5,1.3-1.2,1.3c0,0,0,0,0,0c-0.2,0-0.4-0.1-0.6-0.2c-0.2-0.1-0.3-0.1-0.3-0.1
		s-0.3,0.1-0.3,0.4c0.1,0.8,0.7,1.3,1.5,1.3c0,0,0,0,0,0c0.7,0,1.3-0.4,1.6-1c0.4-0.6,0.6-1.3,0.7-2l1.2-4.4
		c0.1-0.3,0.2-0.6,0.2-0.9c0-0.3-0.2-0.4-1.1-0.4h-0.4L143.7,157.1z"/>
	<path class="st0" d="M156.3,165.5c0.1,0.6,0.4,0.8,1.2,0.8h0.2l-0.1,0.7h-5.1l0.1-0.7h0.2c0.3,0,0.6,0,0.9-0.1
		c0.1-0.1,0.2-0.2,0.2-0.3c0-0.1,0-0.3-0.1-0.4l-0.3-1.4h-3.2l-0.6,1.1c-0.1,0.2-0.2,0.4-0.2,0.6c0,0.4,0.3,0.6,1.1,0.6h0.2
		l-0.1,0.7h-3.9l0.1-0.7h0.1c0.8-0.1,1.5-0.7,1.8-1.4l4.8-7.9h0.9L156.3,165.5z M152.8,160l-1.9,3.3h2.6L152.8,160z"/>
	<path class="st0" d="M166.3,158.8c0.3-0.3,0.4-0.4,0.4-0.6s-0.2-0.4-0.6-0.4h-0.5l0.1-0.7h4.1l-0.1,0.7c-0.9,0-1.8,0.4-2.4,1.1
		l-2.2,2.1l2,4.2c0.4,1,0.5,1,1.5,1h0.2l-0.1,0.7h-5.2l0.1-0.7h0.4c0.6,0,0.8-0.1,0.8-0.3s0-0.1-0.1-0.4l-1.4-2.9l-1.1,1.1l-0.4,1.4
		c-0.1,0.3-0.2,0.6-0.2,0.9c0,0.3,0.2,0.4,1.1,0.4h0.1l-0.1,0.7h-4.9l0.1-0.7h0.1c0.3,0,0.7,0,1-0.2c0.1-0.1,0.1-0.1,0.4-1.1
		l1.6-5.9c0.1-0.3,0.2-0.6,0.2-0.9c0-0.3-0.2-0.4-1.1-0.4h-0.3l0.1-0.7h5.1l-0.1,0.7h-0.2c-0.6,0-0.9,0.1-1,0.2s-0.1,0.1-0.4,1
		l-0.8,3.1L166.3,158.8z"/>
	<path class="st0" d="M177.9,165.5c0.1,0.6,0.4,0.8,1.2,0.8h0.2l-0.1,0.7h-5.1l0.1-0.7h0.2c0.3,0,0.6,0,0.9-0.1
		c0.1-0.1,0.2-0.2,0.2-0.3c0-0.1,0-0.3-0.1-0.4l-0.3-1.4h-3.2l-0.6,1.1c-0.1,0.2-0.2,0.4-0.2,0.6c0,0.4,0.3,0.6,1.1,0.6h0.2
		l-0.1,0.7h-3.9l0.1-0.7h0.1c0.8-0.1,1.5-0.7,1.8-1.4l4.8-7.9h0.9L177.9,165.5z M174.4,160l-1.9,3.3h2.6L174.4,160z"/>
	<path class="st0" d="M183.5,165.1c-0.1,0.3-0.1,0.6-0.2,0.9c0,0.3,0.2,0.4,1.1,0.4h0.4l-0.1,0.7h-5.1l0.1-0.7h0.1
		c0.6,0,0.9-0.1,1-0.2s0.1-0.1,0.4-1l1.6-5.9c0.1-0.3,0.2-0.6,0.2-0.9c0-0.3-0.2-0.4-1.1-0.4h-0.3l0.1-0.7h4.8c1-0.1,2,0.1,2.9,0.4
		c0.7,0.3,1.1,1.1,1.1,1.9c0,1.6-1.3,2.5-3.9,2.7c0.5,0.1,1,0.4,1.4,0.8c0.4,0.5,0.6,1.1,0.5,1.7v0.4c0,0.9,0,0.9,0.1,1
		c0,0.1,0.1,0.1,0.2,0.1c0.3,0,0.6-0.3,0.7-0.7c0.1-0.1,0.1-0.2,0.2-0.6l0.6,0.3c-0.5,1.4-1.2,2.1-2.4,2.1c-1,0.1-1.9-0.7-2-1.7
		c0-0.1,0-0.1,0-0.2c0-0.3,0-0.7,0.1-1.2c0-0.3,0.1-0.5,0.1-0.8c0-0.8-0.4-1.1-1.4-1.1h-0.4L183.5,165.1z M184.9,161.5
		c1.2,0,1.6-0.1,2-0.4c0.6-0.4,0.9-1.1,0.9-1.9c0-0.9-0.5-1.4-1.5-1.4H186c-0.5,0-0.6,0.1-0.7,0.5l-0.8,3.1H184.9z"/>
	<path class="st0" d="M201,161l-0.7-0.1c0-0.3,0-0.6,0-0.8c0-1.4-0.6-2.3-1.6-2.3c-0.4,0-0.4,0-0.6,0.6l-1.8,6.6
		c-0.1,0.3-0.2,0.6-0.2,0.9c0,0.3,0.2,0.4,1.1,0.4h0.3l-0.1,0.7H192l0.1-0.7h0.4c0.6,0,0.9-0.1,1-0.2s0.1-0.1,0.4-1l1.8-6.6
		c0-0.1,0.1-0.2,0.1-0.3c0-0.1-0.1-0.2-0.4-0.2c-1.2,0-2,0.9-2.9,3.1l-0.7-0.2l1-3.7h8.9L201,161z"/>
	<path class="st0" d="M209.1,165.5c0.1,0.6,0.4,0.8,1.2,0.8h0.2l-0.1,0.7h-5.1l0.1-0.7h0.2c0.3,0,0.6,0,0.9-0.1
		c0.1-0.1,0.2-0.2,0.2-0.3c0-0.1,0-0.3-0.1-0.4l-0.3-1.4h-3.2l-0.6,1.1c-0.1,0.2-0.2,0.4-0.2,0.6c0,0.4,0.3,0.6,1.1,0.6h0.2
		l-0.1,0.7h-3.9l0.1-0.7h0.1c0.8-0.1,1.5-0.7,1.8-1.4l4.8-7.9h0.9L209.1,165.5z M205.6,160l-1.9,3.3h2.6L205.6,160z"/>
	<path class="st0" d="M215.1,167.1l0.1-0.7h0.1c0.6,0,0.9-0.1,1-0.2s0.1-0.1,0.4-1l1.6-5.9c0.1-0.3,0.2-0.6,0.2-0.9
		c0-0.3-0.2-0.4-1.1-0.4H217l0.1-0.7h5.1l-0.1,0.7H222c-0.6,0-0.9,0.1-1.1,0.2s-0.1,0.1-0.4,1l-1.6,5.9c-0.1,0.3-0.2,0.6-0.2,0.9
		c0,0.3,0.2,0.4,1.1,0.4h0.3l-0.1,0.7H215.1z"/>
	<path class="st0" d="M230.6,164.1l1.1-4c0.2-0.5,0.3-1,0.3-1.5c0-0.5-0.4-0.8-1.2-0.8l0.1-0.7h3.8l-0.1,0.7c-0.4,0-0.8,0.1-1.1,0.4
		c-0.4,0.4-0.4,0.4-0.8,1.9l-1.9,7.1h-1.1l-4.1-7.8l-1.2,4.6c-0.2,0.5-0.3,1-0.3,1.5c0,0.5,0.4,0.8,1.2,0.8h0.1l-0.1,0.7h-3.9
		l0.1-0.7c0.4,0,0.8-0.1,1.1-0.4c0.4-0.4,0.4-0.4,0.8-1.9l1.6-5.7c-0.1-0.3-0.5-0.5-0.8-0.4h-0.8l0.1-0.7h3.5L230.6,164.1z"/>
	<path class="st0" d="M244,161l-0.7-0.1c0-0.3,0-0.6,0-0.8c0-1.4-0.6-2.3-1.6-2.3c-0.4,0-0.4,0-0.6,0.6l-1.8,6.6
		c-0.1,0.3-0.2,0.6-0.2,0.9c0,0.3,0.2,0.4,1.1,0.4h0.3l-0.1,0.7h-5.4l0.1-0.7h0.4c0.6,0,0.9-0.1,1-0.2s0.1-0.1,0.4-1l1.8-6.6
		c0-0.1,0.1-0.2,0.1-0.3c0-0.1-0.1-0.2-0.4-0.2c-1.2,0-2,0.9-2.9,3.1l-0.7-0.2l1-3.7h8.9L244,161z"/>
	<path class="st0" d="M253.9,160.5h-0.7c0-0.6-0.1-1.2-0.3-1.7c-0.4-0.6-1.1-1-1.9-0.9h-0.5c-0.6,0-0.7,0.1-0.9,0.7l-0.8,3h0.3
		c1.1,0.1,2-0.6,2.3-1.7l0.7,0.1l-1.2,4.6l-0.7-0.1c0-0.3,0.1-0.6,0.1-0.9c0.1-0.6-0.3-1.2-1-1.3c-0.1,0-0.2,0-0.3,0h-0.3l-0.9,3.2
		c-0.1,0.1-0.1,0.3-0.1,0.4c0,0.3,0.2,0.4,0.7,0.4h0.5c1.1,0,2.1-0.4,2.8-1.2c0.5-0.5,0.9-1,1.2-1.6l0.7,0.1l-0.9,3.4h-8.8l0.1-0.7
		h0.1c0.9,0,1.1-0.1,1.3-0.7l0.1-0.6l1.6-5.9c0.1-0.3,0.1-0.6,0.2-0.9c0-0.3-0.2-0.4-1.1-0.4h-0.3l0.1-0.7h8.4L253.9,160.5z"/>
	<path class="st0" d="M258.5,165.1c-0.1,0.3-0.1,0.6-0.2,0.9c0,0.3,0.2,0.4,1.1,0.4h0.4l-0.1,0.7h-5.1l0.1-0.7h0.1
		c0.6,0,0.9-0.1,1-0.2s0.1-0.1,0.4-1l1.6-5.9c0.1-0.3,0.2-0.6,0.2-0.9c0-0.3-0.2-0.4-1.1-0.4h-0.3l0.1-0.7h4.8c1-0.1,2,0.1,2.9,0.4
		c0.7,0.3,1.1,1.1,1.1,1.9c0,1.6-1.3,2.5-3.9,2.7c0.5,0.1,1,0.4,1.4,0.8c0.4,0.5,0.6,1.1,0.5,1.7v0.4c0,0.9,0,0.9,0.1,1
		c0.1,0.1,0.1,0.1,0.3,0.1c0.2,0,0.5-0.3,0.7-0.7c0.1-0.1,0.1-0.2,0.2-0.6l0.6,0.3c-0.5,1.4-1.2,2.1-2.4,2.1c-1,0.1-1.9-0.7-2-1.7
		c0-0.1,0-0.1,0-0.2c0-0.4,0-0.8,0.1-1.2c0-0.3,0.1-0.5,0.1-0.8c0-0.8-0.5-1.1-1.4-1.1h-0.4L258.5,165.1z M259.9,161.5
		c1.2,0,1.6-0.1,2-0.4c0.6-0.4,0.9-1.1,0.9-1.9c0-0.9-0.5-1.4-1.5-1.4H261c-0.5,0-0.6,0.1-0.7,0.5l-0.8,3.1H259.9z"/>
	<path class="st0" d="M274.9,164.1l1.1-4c0.2-0.5,0.3-1,0.3-1.5c0-0.5-0.4-0.8-1.2-0.8l0.1-0.7h3.8l-0.1,0.7c-0.4,0-0.8,0.1-1.1,0.4
		c-0.4,0.4-0.4,0.4-0.8,1.9l-1.9,7.1h-1.1l-4-7.8l-1.2,4.6c-0.2,0.5-0.3,1-0.3,1.5c0,0.5,0.4,0.8,1.2,0.8h0.1l-0.1,0.7h-3.9l0.1-0.7
		c0.4,0,0.8-0.1,1.1-0.4c0.4-0.4,0.4-0.4,0.8-1.9l1.5-5.7c-0.1-0.3-0.5-0.5-0.8-0.4h-0.8l0.1-0.7h3.5L274.9,164.1z"/>
	<path class="st0" d="M286.4,165.5c0.1,0.6,0.4,0.8,1.2,0.8h0.2l-0.1,0.7h-5.1l0.1-0.7h0.2c0.3,0,0.6,0,0.9-0.1
		c0.1-0.1,0.2-0.2,0.2-0.3c0-0.1,0-0.3-0.1-0.4l-0.3-1.4h-3.2l-0.6,1.1c-0.1,0.2-0.2,0.4-0.2,0.6c0,0.4,0.3,0.6,1.1,0.6h0.1
		l-0.1,0.7H277l0.1-0.7h0.1c0.8-0.1,1.5-0.7,1.8-1.4l4.8-7.9h0.9L286.4,165.5z M282.9,160l-1.9,3.3h2.6L282.9,160z"/>
	<path class="st0" d="M298.3,161l-0.7-0.1c0-0.3,0-0.6,0-0.8c0-1.4-0.6-2.3-1.6-2.3c-0.4,0-0.4,0-0.6,0.6l-1.8,6.6
		c-0.1,0.3-0.2,0.6-0.2,0.9c0,0.3,0.2,0.4,1.1,0.4h0.3l-0.1,0.7h-5.4l0.1-0.7h0.4c0.6,0,0.9-0.1,1-0.2s0.1-0.1,0.4-1l1.8-6.6
		c0-0.1,0-0.2,0-0.3c0-0.1-0.1-0.2-0.4-0.2c-1.2,0-2,0.9-3,3.1l-0.7-0.2l1-3.7h8.9L298.3,161z"/>
	<path class="st0" d="M298.2,167.1l0.1-0.7h0.1c0.6,0,0.9-0.1,1-0.2s0.1-0.1,0.4-1l1.6-5.9c0.1-0.3,0.2-0.6,0.2-0.9
		c0-0.3-0.2-0.4-1.1-0.4h-0.3l0.1-0.7h5.1l-0.1,0.7h-0.1c-0.6,0-0.9,0.1-1,0.2s-0.1,0.1-0.4,1l-1.6,5.9c-0.1,0.3-0.2,0.6-0.2,0.9
		c0,0.3,0.2,0.4,1.1,0.4h0.3l-0.1,0.7H298.2z"/>
	<path class="st0" d="M315,158.2c0.7,0.7,1.1,1.8,1.1,2.8c0,3.4-2.8,6.2-6.2,6.3c-2.2,0.2-4-1.5-4.2-3.6c0-0.2,0-0.3,0-0.5
		c0-1.7,0.7-3.3,1.9-4.4c1.1-1.1,2.7-1.8,4.3-1.7C313.1,156.9,314.2,157.4,315,158.2z M309.3,159.8c-0.7,1.4-1.1,3-1.2,4.6
		c0,1.3,0.7,2.1,1.7,2.1s1.9-0.7,2.6-2.1c0.7-1.4,1.1-2.9,1.1-4.4c0-0.5-0.1-1.1-0.4-1.5c-0.3-0.4-0.8-0.7-1.4-0.7
		C310.9,157.7,310,158.4,309.3,159.8L309.3,159.8z"/>
	<path class="st0" d="M325.5,164.1l1.1-4c0.2-0.5,0.3-1,0.3-1.5c0-0.5-0.4-0.8-1.2-0.8l0.1-0.7h3.8l-0.1,0.7c-0.4,0-0.8,0.1-1.1,0.4
		c-0.4,0.4-0.4,0.4-0.8,1.9l-1.9,7.1h-1.1l-4-7.8l-1.2,4.6c-0.2,0.5-0.3,1-0.3,1.5c0,0.5,0.4,0.8,1.2,0.8h0.1l-0.1,0.7h-3.9l0.1-0.7
		c0.4,0,0.8-0.1,1.1-0.4c0.4-0.4,0.4-0.4,0.8-1.9l1.5-5.7c-0.1-0.3-0.5-0.5-0.8-0.4h-0.8l0.1-0.7h3.5L325.5,164.1z"/>
	<path class="st0" d="M337.1,165.5c0.1,0.6,0.4,0.8,1.2,0.8h0.2l-0.1,0.7h-5.1l0.1-0.7h0.2c0.3,0,0.6,0,0.9-0.1
		c0.1-0.1,0.2-0.2,0.2-0.3c0-0.1,0-0.3-0.1-0.4l-0.3-1.4h-3.2l-0.6,1.1c-0.1,0.2-0.2,0.4-0.2,0.6c0,0.4,0.3,0.6,1.1,0.6h0.2
		l-0.1,0.7h-3.9l0.1-0.7h0.1c0.8-0.1,1.5-0.7,1.8-1.4l4.8-7.9h0.9L337.1,165.5z M333.6,160l-1.9,3.3h2.6L333.6,160z"/>
	<path class="st0" d="M348.4,163.6l-0.9,3.5h-8.8l0.1-0.7h0.1c0.4,0,0.7,0,1-0.2c0.1-0.1,0.1-0.1,0.4-1l1.6-5.9
		c0.1-0.3,0.2-0.6,0.2-0.9c0-0.3-0.2-0.4-1.1-0.4h-0.3l0.1-0.7h5.2l-0.1,0.7h-0.2c-0.6,0-0.9,0.1-1,0.2s-0.1,0.1-0.4,1l-1.6,5.9
		c-0.1,0.3-0.2,0.6-0.2,0.9c0,0.3,0.2,0.4,0.7,0.4h0.5c1.1,0,2.1-0.4,2.8-1.2c0.5-0.5,0.9-1.1,1.2-1.7L348.4,163.6z"/>
</g>
<path class="st0" d="M2.9,187c-0.9-0.5-1.6-1.2-2.1-2.1c-1-1.8-1-4,0-5.9c0.5-0.9,1.2-1.6,2.1-2.1c1-0.5,2-0.8,3.1-0.7
	c1,0,2.1,0.2,3,0.7c0.9,0.5,1.6,1.2,2.1,2.1c1,1.8,1,4,0,5.9c-0.5,0.9-1.2,1.6-2.1,2.1c-0.9,0.5-2,0.8-3,0.8
	C4.9,187.8,3.9,187.5,2.9,187z M8.2,185.8c0.6-0.4,1.2-0.9,1.6-1.5c0.7-1.4,0.7-3,0-4.4c-0.4-0.6-0.9-1.2-1.6-1.6
	c-0.7-0.4-1.4-0.6-2.2-0.6c-0.8,0-1.5,0.2-2.2,0.6c-0.7,0.4-1.2,0.9-1.6,1.6c-0.8,1.4-0.8,3,0,4.4c0.4,0.6,0.9,1.2,1.6,1.5
	c0.7,0.4,1.5,0.6,2.2,0.6C6.8,186.3,7.5,186.1,8.2,185.8L8.2,185.8z"/>
<path class="st0" d="M27,179.1l-3.2,8.5h-1.5l-2.5-6.4l-2.5,6.4H16l-3.1-8.5h1.4l2.5,6.8l2.6-6.8h1.3l2.5,6.8l2.5-6.8H27z"/>
<path class="st0" d="M35.7,180c0.7,0.7,1.1,1.7,1,2.8v4.9h-1.6v-4.7c0-0.7-0.2-1.3-0.6-1.9c-0.5-0.4-1.1-0.7-1.7-0.6
	c-0.7,0-1.5,0.2-2,0.7c-0.5,0.6-0.8,1.3-0.7,2.1v4.4h-1.5v-8.5h1.5v1.3c0.3-0.4,0.8-0.8,1.3-1c0.6-0.2,1.2-0.4,1.8-0.4
	C34.1,179,35,179.4,35.7,180z"/>
<path class="st0" d="M47.2,183.9h-6.9c0.1,0.7,0.4,1.4,1,1.8c0.6,0.5,1.3,0.7,2.1,0.7c0.9,0,1.8-0.3,2.5-1l0.8,1
	c-0.4,0.4-0.9,0.8-1.4,1c-0.6,0.2-1.3,0.4-1.9,0.4c-0.8,0-1.7-0.2-2.4-0.6c-0.7-0.4-1.2-0.9-1.6-1.5c-0.4-0.7-0.6-1.5-0.6-2.2
	c0-0.8,0.2-1.5,0.5-2.2c0.4-0.6,0.9-1.2,1.5-1.5c1.4-0.7,3-0.7,4.3,0c0.6,0.4,1.1,0.9,1.5,1.5c0.4,0.7,0.5,1.5,0.5,2.3
	C47.3,183.5,47.3,183.7,47.2,183.9z M41.2,181c-0.5,0.5-0.8,1.1-0.9,1.8h5.4c-0.1-0.7-0.4-1.3-0.9-1.8
	C43.9,180.1,42.3,180.1,41.2,181z"/>
<path class="st0" d="M52.1,179.4c0.6-0.3,1.2-0.4,1.9-0.4v1.5h-0.3c-0.7-0.1-1.5,0.2-2,0.7c-0.5,0.6-0.8,1.3-0.7,2.1v4.2h-1.5v-8.5
	h1.5v1.4C51.2,180,51.6,179.6,52.1,179.4z"/>
<path class="st0" d="M61.8,187.1c-0.7-0.4-1.2-0.9-1.6-1.5c-0.7-1.4-0.7-3.1,0-4.5c0.4-0.7,0.9-1.2,1.6-1.5c1.4-0.7,3.1-0.7,4.5,0
	c0.7,0.4,1.2,0.9,1.6,1.5c0.8,1.4,0.8,3.1,0,4.5c-0.4,0.6-0.9,1.2-1.6,1.5C64.9,187.9,63.2,187.9,61.8,187.1z M65.5,186
	c0.4-0.2,0.8-0.6,1-1.1c0.3-0.5,0.4-1,0.4-1.6c0-0.5-0.1-1.1-0.4-1.6c-0.2-0.4-0.6-0.8-1-1c-0.4-0.3-1-0.4-1.5-0.4
	c-0.5,0-1,0.1-1.5,0.4c-0.4,0.2-0.8,0.6-1,1c-0.3,0.5-0.4,1-0.4,1.6c0,0.5,0.1,1.1,0.4,1.6c0.2,0.4,0.6,0.8,1,1.1
	c0.4,0.3,0.9,0.4,1.5,0.4C64.5,186.4,65.1,186.3,65.5,186z"/>
<path class="st0" d="M72.3,178.4v0.7h2.5v1.3h-2.4v7.2h-1.5v-7.2h-1.4v-1.3h1.4v-0.8c0-0.7,0.2-1.5,0.7-2c0.6-0.5,1.3-0.8,2.1-0.7
	c0.3,0,0.7,0,1,0.1c0.3,0.1,0.5,0.2,0.8,0.4l-0.5,1.2c-0.3-0.3-0.8-0.4-1.2-0.4C72.8,176.9,72.3,177.4,72.3,178.4z"/>
<path class="st0" d="M85.4,187.1c-0.2,0.2-0.5,0.4-0.8,0.4c-0.3,0.1-0.7,0.1-1,0.1c-0.7,0-1.4-0.2-2-0.7c-0.5-0.5-0.8-1.3-0.7-2
	v-4.7h-1.4v-1.3h1.4v-1.9h1.5v1.9h2.4v1.3h-2.4v4.7c0,0.4,0.1,0.8,0.3,1.1c0.3,0.3,0.6,0.4,1,0.4c0.4,0,0.9-0.1,1.2-0.4L85.4,187.1z
	"/>
<path class="st0" d="M94.4,180c0.7,0.7,1.1,1.7,1,2.8v4.9h-1.6v-4.7c0-0.7-0.2-1.3-0.6-1.9c-0.5-0.4-1.1-0.7-1.7-0.6
	c-0.7,0-1.5,0.2-2,0.7c-0.5,0.6-0.8,1.3-0.7,2.1v4.4h-1.5v-11.9h1.5v4.6c0.3-0.4,0.8-0.7,1.3-0.9c0.5-0.2,1.1-0.3,1.7-0.3
	C92.8,179,93.7,179.3,94.4,180z"/>
<path class="st0" d="M106,183.9h-6.9c0.1,0.7,0.4,1.4,1,1.8c0.6,0.5,1.3,0.7,2.1,0.7c0.9,0,1.8-0.3,2.4-1l0.8,1
	c-0.4,0.4-0.9,0.8-1.4,1c-0.6,0.2-1.3,0.4-1.9,0.4c-0.8,0-1.6-0.2-2.4-0.6c-0.7-0.4-1.2-0.9-1.6-1.5c-0.4-0.7-0.6-1.5-0.6-2.2
	c0-0.8,0.2-1.5,0.6-2.2c0.4-0.6,0.9-1.2,1.5-1.5c1.4-0.7,3-0.7,4.3,0c0.6,0.4,1.1,0.9,1.5,1.5c0.4,0.7,0.5,1.5,0.5,2.3
	C106,183.5,106,183.7,106,183.9z M100,181c-0.5,0.5-0.8,1.1-0.9,1.8h5.4c-0.1-0.7-0.4-1.3-0.9-1.8C102.6,180.1,101.1,180.1,100,181z
	"/>
<path class="st0" d="M112.7,176.4h1.6v11.2h-1.6V176.4z"/>
<path class="st0" d="M124.6,180c0.7,0.7,1.1,1.7,1,2.8v4.9H124v-4.7c0-0.7-0.2-1.3-0.6-1.9c-0.5-0.4-1.1-0.7-1.7-0.6
	c-0.7,0-1.5,0.2-2,0.7c-0.5,0.6-0.8,1.3-0.7,2.1v4.4h-1.5v-8.5h1.5v1.3c0.3-0.4,0.8-0.8,1.3-1c0.6-0.2,1.2-0.4,1.8-0.4
	C123,179,123.9,179.4,124.6,180z"/>
<path class="st0" d="M136.5,175.7v11.9H135v-1.4c-0.3,0.5-0.8,0.8-1.3,1.1c-0.5,0.3-1.1,0.4-1.7,0.4c-0.8,0-1.5-0.2-2.2-0.5
	c-0.6-0.4-1.2-0.9-1.5-1.5c-0.7-1.4-0.7-3.1,0-4.5c0.4-0.6,0.9-1.2,1.5-1.5c0.7-0.4,1.4-0.6,2.2-0.6c0.6,0,1.2,0.1,1.7,0.3
	c0.5,0.2,0.9,0.6,1.3,1v-4.7L136.5,175.7z M133.6,186c0.4-0.2,0.8-0.6,1-1.1c0.3-0.5,0.4-1,0.4-1.6c0-0.5-0.1-1.1-0.4-1.6
	c-0.2-0.4-0.6-0.8-1-1c-0.9-0.5-2-0.5-2.9,0c-0.4,0.2-0.8,0.6-1,1c-0.3,0.5-0.4,1-0.4,1.6c0,0.5,0.1,1.1,0.4,1.6
	c0.2,0.4,0.6,0.8,1,1.1C131.6,186.5,132.7,186.5,133.6,186z"/>
<path class="st0" d="M140.8,187.1c-0.7-0.4-1.2-0.9-1.6-1.5c-0.7-1.4-0.7-3.1,0-4.5c0.4-0.7,0.9-1.2,1.6-1.5c1.4-0.7,3.1-0.7,4.5,0
	c0.7,0.4,1.2,0.9,1.6,1.5c0.8,1.4,0.8,3.1,0,4.5c-0.4,0.6-0.9,1.2-1.6,1.5C143.9,187.9,142.3,187.9,140.8,187.1z M144.6,186
	c0.4-0.2,0.8-0.6,1-1.1c0.3-0.5,0.4-1,0.4-1.6c0-0.5-0.1-1.1-0.4-1.6c-0.2-0.4-0.6-0.8-1-1c-0.4-0.3-1-0.4-1.5-0.4
	c-0.5,0-1,0.1-1.5,0.4c-0.4,0.2-0.8,0.6-1,1c-0.3,0.5-0.4,1-0.4,1.6c0,0.5,0.1,1.1,0.4,1.6c0.2,0.4,0.6,0.8,1,1.1
	c0.4,0.3,0.9,0.4,1.5,0.4C143.6,186.4,144.1,186.2,144.6,186L144.6,186z"/>
<path class="st0" d="M156.8,180c0.7,0.7,1.1,1.7,1,2.8v4.9h-1.5v-4.7c0-0.7-0.2-1.3-0.6-1.9c-0.5-0.4-1.1-0.7-1.7-0.6
	c-0.7,0-1.5,0.2-2,0.7c-0.5,0.6-0.8,1.3-0.7,2.1v4.4h-1.5v-8.5h1.5v1.3c0.3-0.4,0.8-0.8,1.3-1c0.6-0.2,1.2-0.4,1.8-0.4
	C155.2,179,156.1,179.4,156.8,180z"/>
<path class="st0" d="M168.3,183.9h-6.9c0.1,0.7,0.4,1.4,1,1.8c0.6,0.5,1.3,0.7,2.1,0.7c0.9,0,1.8-0.3,2.4-1l0.9,1
	c-0.4,0.4-0.9,0.8-1.4,1c-0.6,0.2-1.3,0.4-1.9,0.4c-0.8,0-1.7-0.2-2.4-0.6c-0.7-0.4-1.2-0.9-1.6-1.5c-0.7-1.4-0.7-3.1,0-4.5
	c0.4-0.6,0.9-1.2,1.5-1.5c0.7-0.4,1.4-0.6,2.2-0.6c0.8,0,1.5,0.2,2.2,0.6c0.6,0.4,1.1,0.9,1.5,1.5c0.4,0.7,0.5,1.5,0.5,2.3
	C168.3,183.5,168.3,183.7,168.3,183.9z M162.3,181c-0.5,0.5-0.8,1.1-0.9,1.8h5.4c-0.1-0.7-0.4-1.3-0.9-1.8
	C164.9,180.1,163.4,180.1,162.3,181z"/>
<path class="st0" d="M170.9,187.4c-0.5-0.1-1.1-0.4-1.5-0.7l0.6-1.2c0.4,0.3,0.9,0.5,1.4,0.6c0.5,0.2,1.1,0.2,1.6,0.2
	c1.4,0,2-0.4,2-1.2c0-0.2-0.1-0.5-0.3-0.6c-0.2-0.2-0.4-0.3-0.7-0.3c-0.3-0.1-0.7-0.1-1.2-0.2c-0.6-0.1-1.1-0.2-1.7-0.4
	c-0.4-0.1-0.8-0.4-1.1-0.7c-0.3-0.4-0.5-0.9-0.5-1.4c0-0.7,0.4-1.4,1-1.9c0.8-0.5,1.7-0.7,2.6-0.7c0.6,0,1.1,0.1,1.7,0.2
	c0.5,0.1,1,0.3,1.4,0.6l-0.6,1.2c-0.7-0.5-1.6-0.7-2.4-0.7c-0.5,0-1,0.1-1.5,0.3c-0.3,0.2-0.5,0.5-0.5,0.9c0,0.2,0.1,0.5,0.3,0.6
	c0.2,0.2,0.5,0.3,0.7,0.4c0.3,0.1,0.7,0.2,1.2,0.3c0.6,0.1,1.1,0.2,1.7,0.4c0.4,0.1,0.8,0.4,1.1,0.7c0.3,0.4,0.5,0.9,0.4,1.3
	c0,0.7-0.4,1.4-1,1.8c-0.8,0.5-1.7,0.7-2.7,0.7C172.3,187.7,171.6,187.6,170.9,187.4z"/>
<path class="st0" d="M178.6,177.2c-0.2-0.2-0.3-0.4-0.3-0.7c0-0.3,0.1-0.5,0.3-0.7c0.2-0.2,0.5-0.3,0.7-0.3c0.3,0,0.5,0.1,0.8,0.3
	c0.2,0.2,0.3,0.4,0.3,0.7c0,0.6-0.5,1-1.1,1C179,177.5,178.8,177.4,178.6,177.2z M178.6,179.1h1.5v8.5h-1.5V179.1z"/>
<path class="st0" d="M188.9,179.9c0.7,0.7,1,1.6,0.9,2.6v5.1h-1.5v-1.1c-0.3,0.4-0.7,0.7-1.1,0.9c-0.5,0.2-1.1,0.3-1.7,0.3
	c-0.8,0-1.6-0.2-2.3-0.7c-0.6-0.4-0.9-1.1-0.9-1.8c0-0.7,0.3-1.4,0.8-1.8c0.8-0.5,1.7-0.8,2.6-0.7h2.4v-0.3c0-0.6-0.2-1.1-0.6-1.5
	c-0.5-0.4-1.1-0.6-1.7-0.5c-0.5,0-1,0.1-1.5,0.2c-0.4,0.1-0.9,0.4-1.2,0.7l-0.6-1.1c0.5-0.4,1-0.6,1.6-0.8c0.6-0.2,1.3-0.3,1.9-0.3
	C187.1,179,188.1,179.3,188.9,179.9z M187.3,186.1c0.4-0.3,0.8-0.6,0.9-1.1v-1.2h-2.4c-1.3,0-2,0.4-2,1.3c0,0.4,0.2,0.8,0.5,1
	c0.4,0.3,0.9,0.4,1.4,0.4C186.3,186.5,186.9,186.4,187.3,186.1z"/>
<path class="st0" d="M198.1,187.3c-0.7-0.2-1.3-0.5-1.9-1l0.6-1.3c0.5,0.4,1,0.7,1.6,0.9c0.6,0.2,1.3,0.4,2,0.4
	c0.7,0.1,1.4-0.1,2.1-0.5c0.4-0.3,0.7-0.7,0.7-1.3c0-0.4-0.1-0.7-0.4-0.9c-0.3-0.2-0.6-0.4-0.9-0.6c-0.4-0.1-0.9-0.3-1.6-0.4
	c-0.7-0.2-1.3-0.4-2-0.6c-0.5-0.2-1-0.5-1.3-0.9c-0.4-0.5-0.6-1.1-0.6-1.7c0-0.6,0.2-1.1,0.5-1.6c0.4-0.5,0.9-0.9,1.4-1.1
	c0.8-0.3,1.6-0.5,2.4-0.4c0.7,0,1.3,0.1,2,0.3c0.6,0.1,1.1,0.4,1.6,0.7l-0.5,1.3c-0.5-0.3-1-0.5-1.5-0.7c-0.5-0.1-1-0.2-1.6-0.2
	c-0.7,0-1.4,0.1-2,0.5c-0.4,0.3-0.7,0.8-0.7,1.3c0,0.4,0.1,0.7,0.4,0.9c0.3,0.3,0.6,0.5,1,0.6c0.5,0.2,1,0.3,1.5,0.4
	c0.7,0.2,1.3,0.4,2,0.6c0.5,0.2,1,0.5,1.3,0.9c0.4,0.5,0.6,1.1,0.6,1.7c0,0.6-0.2,1.1-0.5,1.6c-0.4,0.5-0.9,0.9-1.5,1.1
	c-0.8,0.3-1.6,0.5-2.4,0.4C199.8,187.7,198.9,187.6,198.1,187.3z"/>
<path class="st0" d="M211.8,187.1c-0.2,0.2-0.5,0.4-0.8,0.4c-0.3,0.1-0.7,0.1-1,0.1c-0.7,0.1-1.5-0.2-2-0.7c-0.5-0.5-0.8-1.3-0.7-2
	v-4.7h-1.4v-1.3h1.4v-1.9h1.5v1.9h2.4v1.3h-2.4v4.7c0,0.4,0.1,0.8,0.3,1.1c0.3,0.3,0.6,0.4,1,0.4c0.4,0,0.9-0.1,1.2-0.4L211.8,187.1
	z"/>
<path class="st0" d="M214.8,187.1c-0.7-0.4-1.2-0.9-1.6-1.5c-0.8-1.4-0.8-3.1,0-4.5c0.4-0.7,0.9-1.2,1.6-1.5c1.4-0.7,3.1-0.7,4.5,0
	c0.7,0.4,1.2,0.9,1.6,1.5c0.7,1.4,0.7,3.1,0,4.5c-0.4,0.6-0.9,1.2-1.6,1.5C217.9,187.9,216.2,187.9,214.8,187.1z M218.5,186
	c0.4-0.2,0.8-0.6,1-1.1c0.3-0.5,0.4-1,0.4-1.6c0-0.5-0.1-1.1-0.4-1.6c-0.2-0.4-0.6-0.8-1-1c-0.9-0.5-2-0.5-2.9,0
	c-0.4,0.2-0.8,0.6-1,1c-0.3,0.5-0.4,1-0.4,1.6c0,0.5,0.1,1.1,0.4,1.6c0.2,0.4,0.6,0.8,1,1.1C216.5,186.5,217.6,186.5,218.5,186z"/>
<path class="st0" d="M225,187.1c-0.7-0.4-1.2-0.9-1.6-1.5c-0.8-1.4-0.8-3.1,0-4.5c0.4-0.6,0.9-1.2,1.6-1.5c0.7-0.4,1.5-0.6,2.3-0.6
	c0.7,0,1.4,0.2,2,0.5c0.6,0.3,1.1,0.8,1.4,1.4l-1.2,0.8c-0.2-0.4-0.6-0.7-1-0.9c-0.4-0.2-0.9-0.3-1.3-0.3c-0.5,0-1,0.1-1.5,0.4
	c-0.4,0.2-0.8,0.6-1,1c-0.3,0.5-0.4,1-0.4,1.6c0,0.5,0.1,1.1,0.4,1.6c0.2,0.4,0.6,0.8,1,1.1c0.5,0.3,1,0.4,1.5,0.4
	c0.5,0,0.9-0.1,1.3-0.3c0.4-0.2,0.8-0.5,1-0.9l1.2,0.7c-0.3,0.6-0.8,1.1-1.4,1.4c-0.6,0.3-1.3,0.5-2,0.5
	C226.5,187.7,225.7,187.5,225,187.1z"/>
<path class="st0" d="M236,183.6l-1.8,1.6v2.3h-1.5v-11.9h1.5v7.6l4.6-4.2h1.9l-3.6,3.5l3.9,5h-1.9L236,183.6z"/>
<path class="st0" d="M255.3,186.2v1.4h-8.1v-11.2h7.9v1.4h-6.3v3.4h5.6v1.4h-5.6v3.6H255.3z"/>
<path class="st0" d="M262.9,187.6l-2.5-3.3l-2.5,3.3h-1.7l3.4-4.3l-3.2-4.1h1.7l2.3,3l2.3-3h1.7l-3.2,4.1l3.4,4.3H262.9z"/>
<path class="st0" d="M267.5,187.1c-0.7-0.4-1.2-0.9-1.6-1.5c-0.8-1.4-0.8-3.1,0-4.5c0.4-0.7,0.9-1.2,1.6-1.5
	c0.7-0.4,1.5-0.6,2.3-0.6c0.7,0,1.4,0.1,2.1,0.5c0.6,0.3,1.1,0.8,1.4,1.4l-1.2,0.8c-0.2-0.4-0.6-0.7-1-0.9c-0.4-0.2-0.9-0.3-1.3-0.3
	c-0.5,0-1,0.1-1.5,0.4c-0.4,0.2-0.8,0.6-1,1c-0.3,0.5-0.4,1-0.4,1.6c0,0.5,0.1,1.1,0.4,1.6c0.2,0.4,0.6,0.8,1,1.1
	c0.5,0.3,1,0.4,1.5,0.4c0.5,0,0.9-0.1,1.3-0.3c0.4-0.2,0.8-0.5,1-0.9l1.2,0.7c-0.3,0.6-0.8,1.1-1.4,1.4c-0.6,0.3-1.3,0.5-2.1,0.5
	C269,187.7,268.2,187.5,267.5,187.1z"/>
<path class="st0" d="M282.3,180c0.7,0.7,1.1,1.7,1,2.8v4.9h-1.5v-4.7c0-0.7-0.2-1.3-0.6-1.9c-0.5-0.4-1.1-0.7-1.7-0.6
	c-0.7,0-1.5,0.2-2,0.7c-0.5,0.6-0.8,1.3-0.7,2.1v4.4h-1.5v-11.9h1.5v4.6c0.3-0.4,0.8-0.7,1.3-0.9c0.6-0.2,1.1-0.3,1.7-0.3
	C280.7,179,281.6,179.3,282.3,180z"/>
<path class="st0" d="M291.9,179.9c0.7,0.7,1,1.6,0.9,2.6v5.1h-1.5v-1.1c-0.3,0.4-0.7,0.7-1.1,0.9c-0.5,0.2-1.1,0.3-1.7,0.3
	c-0.8,0-1.6-0.2-2.3-0.7c-1-0.9-1.1-2.4-0.3-3.4c0.1-0.1,0.2-0.2,0.3-0.3c0.8-0.5,1.7-0.8,2.6-0.7h2.4v-0.3c0-0.6-0.2-1.1-0.6-1.5
	c-0.5-0.4-1.1-0.6-1.7-0.5c-0.5,0-1,0.1-1.5,0.2c-0.4,0.1-0.9,0.4-1.2,0.7l-0.6-1.1c0.5-0.4,1-0.6,1.6-0.8c0.6-0.2,1.3-0.3,1.9-0.3
	C290.2,179,291.2,179.3,291.9,179.9z M290.4,186.1c0.4-0.3,0.7-0.6,0.9-1.1v-1.2H289c-1.3,0-2,0.4-2,1.3c0,0.4,0.2,0.8,0.5,1
	c0.4,0.3,0.9,0.4,1.4,0.4C289.4,186.5,289.9,186.4,290.4,186.1z"/>
<path class="st0" d="M302.9,180c0.7,0.7,1.1,1.7,1,2.8v4.9h-1.5v-4.7c0-0.7-0.2-1.3-0.6-1.9c-0.5-0.4-1.1-0.7-1.7-0.6
	c-0.7,0-1.5,0.2-2,0.7c-0.5,0.6-0.8,1.3-0.7,2.1v4.4h-1.5v-8.5h1.5v1.3c0.3-0.4,0.8-0.8,1.3-1c0.6-0.2,1.2-0.4,1.8-0.4
	C301.2,179,302.2,179.4,302.9,180z"/>
<path class="st0" d="M314.9,179.1v7.3c0.1,1.2-0.3,2.4-1.1,3.3c-0.9,0.8-2.1,1.2-3.3,1.1c-0.8,0-1.5-0.1-2.3-0.3
	c-0.6-0.2-1.3-0.5-1.8-0.9l0.7-1.2c0.4,0.4,0.9,0.6,1.5,0.8c0.6,0.2,1.2,0.3,1.8,0.3c0.8,0.1,1.6-0.2,2.2-0.7
	c0.5-0.6,0.8-1.4,0.7-2.1v-0.7c-0.4,0.4-0.8,0.8-1.3,1c-0.5,0.2-1.1,0.3-1.7,0.3c-0.8,0-1.5-0.2-2.2-0.5c-0.6-0.3-1.2-0.8-1.5-1.5
	c-0.7-1.3-0.7-2.9,0-4.3c0.4-0.6,0.9-1.1,1.5-1.4c0.7-0.3,1.4-0.5,2.2-0.5c0.6,0,1.2,0.1,1.8,0.4c0.5,0.2,1,0.6,1.4,1v-1.3
	L314.9,179.1z M311.9,185.5c0.4-0.2,0.8-0.6,1-1c0.3-0.4,0.4-0.9,0.4-1.4c0-0.8-0.3-1.5-0.8-2c-0.6-0.5-1.3-0.8-2.1-0.8
	c-0.8,0-1.5,0.2-2.1,0.8c-0.5,0.5-0.8,1.2-0.8,2c0,0.5,0.1,1,0.4,1.4c0.2,0.4,0.6,0.8,1,1c0.5,0.2,1,0.4,1.5,0.4
	C310.9,185.9,311.5,185.8,311.9,185.5L311.9,185.5z"/>
<path class="st0" d="M325.5,183.9h-6.9c0.1,0.7,0.4,1.4,1,1.8c0.6,0.5,1.3,0.7,2.1,0.7c0.9,0,1.8-0.3,2.5-1l0.9,1
	c-0.4,0.4-0.9,0.8-1.4,1c-0.6,0.2-1.3,0.4-1.9,0.4c-0.8,0-1.6-0.2-2.4-0.6c-0.7-0.4-1.2-0.9-1.6-1.5c-0.4-0.7-0.6-1.5-0.6-2.2
	c0-0.8,0.2-1.5,0.5-2.2c0.4-0.6,0.9-1.2,1.5-1.5c1.4-0.7,3-0.7,4.4,0c0.6,0.4,1.1,0.9,1.5,1.5c0.4,0.7,0.5,1.5,0.5,2.3
	C325.5,183.5,325.5,183.7,325.5,183.9z M319.5,181c-0.5,0.5-0.8,1.1-0.9,1.8h5.4c-0.1-0.7-0.4-1.3-0.9-1.8
	C322.1,180.1,320.5,180.1,319.5,181L319.5,181z"/>
<path class="st0" d="M341.3,182.8c0.4,0.5,0.6,1.2,0.6,1.8c0,0.9-0.4,1.7-1.1,2.2c-1,0.6-2.1,0.9-3.2,0.8h-5.4v-11.2h5
	c1.1-0.1,2.1,0.2,3,0.8c0.7,0.5,1,1.3,1,2.1c0,0.5-0.1,1.1-0.4,1.5c-0.3,0.4-0.6,0.8-1.1,1C340.4,181.9,340.9,182.3,341.3,182.8z
	 M333.8,177.7v3.6h3.3c0.7,0,1.3-0.1,1.9-0.5c0.7-0.6,0.9-1.6,0.3-2.4c-0.1-0.1-0.2-0.2-0.3-0.3c-0.6-0.3-1.2-0.5-1.9-0.5
	L333.8,177.7z M339.6,185.8c0.5-0.3,0.7-0.8,0.7-1.4c0-1.3-0.9-1.9-2.7-1.9h-3.7v3.7h3.7C338.2,186.3,339,186.2,339.6,185.8z"/>
<path class="st0" d="M352.1,179.1v8.5h-1.5v-1.3c-0.3,0.4-0.7,0.8-1.2,1c-0.5,0.2-1.1,0.4-1.6,0.4c-1,0.1-1.9-0.3-2.7-0.9
	c-0.7-0.7-1.1-1.7-1-2.8v-4.9h1.5v4.7c-0.1,0.7,0.2,1.3,0.6,1.9c0.4,0.4,1.1,0.7,1.7,0.6c0.7,0,1.4-0.2,1.9-0.7
	c0.5-0.6,0.8-1.3,0.7-2.1v-4.4L352.1,179.1z"/>
<path class="st0" d="M355.1,177.2c-0.2-0.2-0.3-0.4-0.3-0.7c0-0.6,0.4-1,1-1c0.3,0,0.5,0.1,0.7,0.3c0.2,0.2,0.3,0.4,0.3,0.7
	c0,0.6-0.4,1-1,1C355.6,177.5,355.3,177.4,355.1,177.2z M355.1,179.1h1.5v8.5h-1.5V179.1z"/>
<path class="st0" d="M359.6,175.7h1.5v11.9h-1.5V175.7z"/>
<path class="st0" d="M372.1,175.7v11.9h-1.5v-1.4c-0.3,0.5-0.8,0.8-1.3,1.1c-0.5,0.3-1.1,0.4-1.7,0.4c-0.8,0-1.5-0.2-2.2-0.5
	c-0.6-0.4-1.2-0.9-1.5-1.5c-0.7-1.4-0.7-3.1,0-4.5c0.4-0.6,0.9-1.2,1.5-1.5c0.7-0.4,1.4-0.6,2.2-0.5c0.6,0,1.2,0.1,1.7,0.3
	c0.5,0.2,0.9,0.6,1.3,1v-4.7L372.1,175.7z M369.2,186c0.4-0.3,0.8-0.6,1-1.1c0.2-0.5,0.4-1,0.4-1.6c0-0.5-0.1-1.1-0.4-1.6
	c-0.2-0.4-0.6-0.8-1-1c-0.9-0.5-2-0.5-2.9,0c-0.4,0.2-0.8,0.6-1,1c-0.3,0.5-0.4,1-0.4,1.6c0,0.5,0.1,1.1,0.4,1.6
	c0.2,0.4,0.6,0.8,1,1.1C367.2,186.5,368.3,186.5,369.2,186z"/>
<path class="st0" d="M375.1,177.2c-0.2-0.2-0.3-0.4-0.3-0.7c0-0.6,0.4-1,1-1c0.3,0,0.5,0.1,0.7,0.3c0.2,0.2,0.3,0.4,0.3,0.7
	c0,0.6-0.4,1-1,1C375.5,177.5,375.3,177.4,375.1,177.2z M375.1,179.1h1.5v8.5h-1.5V179.1z"/>
<path class="st0" d="M386.7,180c0.7,0.7,1,1.7,1,2.8v4.9h-1.5v-4.7c0.1-0.7-0.2-1.3-0.6-1.9c-0.4-0.4-1.1-0.7-1.7-0.6
	c-0.7,0-1.5,0.2-2,0.7c-0.5,0.6-0.8,1.3-0.7,2.1v4.4h-1.5v-8.5h1.5v1.3c0.3-0.4,0.8-0.8,1.3-1c0.6-0.2,1.2-0.4,1.8-0.4
	C385,179,386,179.3,386.7,180z"/>
<path class="st0" d="M398.7,179.1v7.3c0.1,1.2-0.3,2.4-1.1,3.3c-0.9,0.8-2.1,1.2-3.3,1.1c-0.8,0-1.5-0.1-2.3-0.3
	c-0.6-0.2-1.3-0.5-1.8-0.9l0.7-1.2c0.4,0.4,0.9,0.6,1.5,0.8c0.6,0.2,1.2,0.3,1.8,0.3c0.8,0.1,1.6-0.2,2.2-0.7
	c0.5-0.6,0.8-1.4,0.7-2.1v-0.7c-0.4,0.4-0.8,0.8-1.3,1c-0.5,0.2-1.1,0.3-1.7,0.3c-0.8,0-1.5-0.2-2.2-0.5c-0.6-0.3-1.2-0.8-1.5-1.5
	c-0.7-1.3-0.7-2.9,0-4.3c0.4-0.6,0.9-1.1,1.5-1.4c0.7-0.3,1.4-0.5,2.2-0.5c0.6,0,1.2,0.1,1.8,0.4c0.5,0.2,1,0.6,1.4,1v-1.3
	L398.7,179.1z M395.8,185.5c0.4-0.2,0.8-0.6,1-1c0.3-0.4,0.4-0.9,0.4-1.4c0-0.8-0.3-1.5-0.8-2c-1.2-1-3-1-4.2,0
	c-0.5,0.5-0.8,1.2-0.8,2c0,0.5,0.1,1,0.4,1.4c0.2,0.4,0.6,0.8,1,1c0.5,0.2,1,0.4,1.5,0.4C394.7,185.9,395.3,185.8,395.8,185.5z"/>
</svg>
