<svg xmlns="http://www.w3.org/2000/svg" viewBox="0 0 296.1 163.7"><title>footer_fji</title><path d="M193.8,19.3v6.6h-2.1V19.3h-1.2v6.6h-4.9V19.3h-1.2v6.6h-1.2V19.3H182v6.6h-.7v9.5h-2.2v1.2h0v4.9h-3.7V39.4h-1.2v2.1h-1.8V39.4h-1.2v2.1h-2v5.6h-.5v.3h0V60H167V57.1h-1.3V60h-1.8V57.1h-1.1v64.6h-2.4v-3.1h-1.2v3.1h-4.4v-3.1h-1.2v3.1h-7.1v-3.1h-1.1v3.1H141v-3.1h-1.2v3.1h-2.3V57h-1.2v3h-1.9V57h-1.2v3h-1.7V47.4h0V47H131V41.4h-2v-2h-1.2v2H126v-2h-1.2v2h-3.7V35.3h-2.2V27.1h0V25.9h-.7V19.3H117v6.6h-1.2V19.3h-1.2v6.6h-4.9V19.3h-1.2v6.6h-2V19.3h-1.2V131.6h89.8V19.3Zm-2.1,17.3h2.1v4.8h-2.1Zm-1.2,4.8h-4.9V36.6h4.9Zm3.3-14.3v8.2h-2.1V27.1Zm-3.3,0v8.2h-4.9V27.1Zm-7.9,0h1.8v8.2h-1.8Zm-2.3,9.5h4.1v4.8h-4.1Zm1,6v1.6h-5.9V42.6Zm-7.1,5.6v5.2h-1.8V48.2ZM172.4,47V45.4h1.8V47Zm0,7.6h1.8V60h-1.8Zm0,6.6h1.8v4.6h-1.8Zm0,5.8h1.8v5.1h-1.8Zm0,6.4h1.8v4.7h-1.8Zm0,5.8h1.8v4.6h-1.8Zm0,5.8h1.8v4.7h-1.8Zm0,5.9h1.8v4.8h-1.8Zm0,6.1h1.8v4.7h-1.8Zm0,5.8h1.8v4.8h-1.8Zm3,0h5.9v4.8h-5.9Zm0-1.1V97h5.9v4.6Zm0-5.9V90.9h5.9v4.9Zm0-6.1V84.9h5.9v4.8Zm0-6V79.2h5.9v4.6Zm0-5.6V73.4h5.9v4.7Zm0-6V67h5.9v5.1Zm0-6.3V61.2h5.9v4.6Zm0-5.8V54.6h5.9V60Zm0-6.6V48.2h5.9v5.2Zm-3,55.4h1.8v4.7h-1.8Zm3,0h5.9v4.7h-5.9Zm7.1,0h1.8v4.7h-1.8Zm0-1.2v-4.8h1.8v4.8Zm0-5.9V97h1.8v4.6Zm0-5.9V90.9h1.8v4.9Zm0-6.1V84.9h1.8v4.8Zm0-6V79.2h1.8v4.6Zm0-5.6V73.4h1.8v4.7Zm0-6V67h1.8v5.1Zm0-6.3V61.2h1.8v4.6Zm0-5.8V54.6h1.8V60Zm0-6.6V48.2h1.8v5.2Zm0-6.4V45.4h1.8V47Zm-1.2,0h-5.9V45.4h5.9Zm-7.1-4.4v1.6h-1.7V42.6Zm-3,0v1.6h-.7V42.6Zm-.7,2.8h.7V47h-.7Zm-1.8,15.8v2.2H167V61.2Zm-2.9,0v2.2h-1.9V61.2ZM164,64.5h1.9v57.1H164Zm1.8,62.7h-1.9v-4.4h1.9Zm-3-4.4v4.4h-2.3v-4.4Zm-3.5,0v4.4h-4.4v-4.4Zm-8.6,0h3v4.4h-7.1v-4.4Zm-5.3,0v4.4H141v-4.4Zm-5.5,0v4.4h-2.4v-4.4Zm-3.6-61.6v2.1h-1.9V61.2Zm-3,0v2.1h-1.7V61.2ZM129,47V45.4h.8V47Zm-11.3-1.6V47h-1.8V45.4Zm10.1,62.2H126v-4.8h1.8Zm-3-40.6v5.1h-5.9V67Zm-5.9-1.2V61.2h5.9v4.6Zm5.9,7.6v4.7h-5.9V73.4Zm0,5.8v4.6h-5.9V79.2Zm0,5.8v4.8h-5.9V84.9Zm0,5.9v4.9h-5.9V90.9Zm0,6.1v4.7h-5.9V97Zm0,5.9v4.7h-5.9v-4.8Zm3-1.2H126V97h1.8Zm0-5.9H126V90.9h1.8Zm0-6.1H126V84.9h1.8Zm0-5.9H126V79.2h1.8Zm0-5.7H126V73.4h1.8Zm0-5.9H126V67h1.8Zm0-6.4H126V61.2h1.8Zm0-5.8H126V54.6h1.8Zm-3,0h-5.9V54.6h5.9Zm-5.9-6.6V48.2h5.9v5.2Zm0-6.4V45.4h5.9V47Zm-1.2,1.2v5.2H116V48.2Zm0,6.4V60H116V54.6Zm0,6.6v4.6H116V61.2Zm0,5.8v5.1H116V67Zm0,6.4v4.7H116V73.4Zm0,5.8v4.6H116V79.2Zm0,5.8v4.7H116V84.9Zm0,5.9v4.8H116V90.9Zm0,6.1v4.7H116V97Zm0,5.9v4.7H116v-4.8Zm0,6v4.6H116v-4.6Zm1.2,0h5.9v4.6h-5.9Zm7.1,0h1.8v4.6H126Zm1.8-55.5H126V48.2h1.8ZM126,47V45.4h1.8V47Zm3.8-4.3v1.5H129V42.7Zm-2,0v1.5H126V42.7Zm-3,1.5h-5.9V42.7h5.9Zm-4.9-2.8h-4.1V36.6h4.1Zm-13.4-4.8h2v4.8h-2V36.6Zm3.2,0h4.9v4.8h-4.9Zm8-9.5v8.3h-1.8V27.1Zm-3,0v8.3h-5V27.1Zm-6.2,0v8.3h-2V27.1Zm-2,103.3V42.6h2v87.8Zm3.2,0V42.6h8v1.5h-3.1v2.8h-2.9v1.2h0v82.3Zm3.2,0V48.2h1.8v5.2h0v1.2h0v5.5h0v1.1h0v4.6h0V67h0v5.2h0v1.2h0V78h0v1.2h0v4.6h0V85h0v4.8h0V91h0v4.8h0V97h0v4.7h0v1.2h0v4.8h0V109h0v4.6h0v1.2h0v15.8h-1.8Zm3,0V114.6h1.8v15.8Zm3,0V114.6h5.9v15.8Zm7.1,0V114.6h1.8v15.8Zm3,0V48.2h1.3v82.2Zm2.5,0V64.5h1.7v65.9Zm2.9,0V64.5h1.9v57.1h-1v1.2h1v4.4h-1v1.2h1v2.1h-1.9Zm3.1,0v-2.1h2.3v2.1Zm3.5,0v-2.1h4.4v2.1Zm9.7,0h-4.1v-2.1h7.1v2.1Zm4.2,0v-2.1h4.3v2.1Zm5.6,0v-2.1h2.2v2.1Zm3.5,0v-2.1h1.8v2.1Zm3,0V64.5h1.7v65.9Zm2.9,0V48.2h1.4v82.2Zm2.5,0V114.6h1.8v15.8Zm3,0V114.6h6v15.8Zm7.2,0V114.6h1.8v15.8Zm3,0V114.6h0v-1.2h0v-4.7h0v-1.2h0v-4.7h0v-1.2h0V96.9h0V95.7h0V90.8h0V89.6h0V84.8h0V83.6h0V79.1h0v-1h0V73.4h0V72.1h0V67h0V65.8h0V61.2h0V60h0V54.6h0V53.4h0V48.2h1.7v82.2Zm2.9,0V48.2h0V47h-2.9V44.2h-3V42.7h7.9v87.7Zm3.2,0V42.6h2.1v87.8Z" transform="translate(-2 -19.3)" style="fill:#fff"/><path d="M48.1,154.9a1.4,1.4,0,0,0-.2.7c0,.2.2.2.8.2H49v.6H45.1v-.6h.1c.7,0,.8,0,.9-.5v-.4l1.2-4.4c.1-.2.1-.4.2-.6s-.2-.3-.9-.3h-.1V149h3.2a3.7,3.7,0,0,1,2.3.5,1.7,1.7,0,0,1,.7,1.5,2.1,2.1,0,0,1-1.2,1.9,5,5,0,0,1-2.4.3h-.8Zm1.1-2.2a1.7,1.7,0,0,0,1.2-.4,2,2,0,0,0,.7-1.6.9.9,0,0,0-.8-1.1H50c-.4,0-.5.1-.7.5l-.6,2.6Z" transform="translate(-2 -19.3)" style="fill:#fff"/><path d="M60.6,151.9h-.5v-.6c0-1-.4-1.6-1.2-1.6s-.3,0-.4.4l-1.3,4.9a1.4,1.4,0,0,0-.2.6c0,.3.2.3.8.3h.3v.6H54v-.6h1a7.2,7.2,0,0,0,.3-.8l1.3-4.9v-.3h-.3c-.8,0-1.5.6-2.2,2.3h-.5l.8-2.8h6.6Z" transform="translate(-2 -19.3)" style="fill:#fff"/><path d="M62,155.6a.9.9,0,0,1-.9.9.8.8,0,0,1-.9-.8.9.9,0,0,1,.9-.9h0A.9.9,0,0,1,62,155.6Z" transform="translate(-2 -19.3)" style="fill:#fff"/><path d="M73.5,151.5H73a3,3,0,0,0-.2-1.3,1.4,1.4,0,0,0-1.4-.6H71c-.4,0-.5.1-.6.5l-.6,2.2H70a1.6,1.6,0,0,0,1.7-1.2h.5l-.9,3.4h-.5v-.7c0-.6-.3-1-.9-1h-.2l-.6,2.1a1.5,1.5,0,0,0-.1.7c0,.2.1.2.8.2H70v.6H66.1v-.6h0c.8,0,.8,0,1-.5v-.4l1.2-4.4c0-.2.1-.4.1-.6s-.2-.3-.8-.3h-.2V149h6.2Z" transform="translate(-2 -19.3)" style="fill:#fff"/><path d="M73.6,156.4v-.6h.8c.1-.1.1-.1.3-.8l1.2-4.4c0-.2.1-.4.1-.6s-.1-.3-.8-.3h-.2v-.5h3.7v.5h-.1c-.4,0-.7.1-.7.2s-.1,0-.3.7l-1.2,4.4a1.5,1.5,0,0,0-.1.7c0,.2.1.2.8.2h.2v.6Z" transform="translate(-2 -19.3)" style="fill:#fff"/><path d="M81.4,154.9a1.5,1.5,0,0,0-.1.7c0,.2.1.2.8.2h.2v.6H78.4v-.6h.8c.1-.1.1-.1.3-.8l1.2-4.4c0-.2.1-.4.1-.6s-.1-.3-.8-.3h-.2v-.5h3.5a4.2,4.2,0,0,1,2.2.3,1.5,1.5,0,0,1,.8,1.4c0,1.1-1,1.8-2.9,2a1.6,1.6,0,0,1,1,.5,2,2,0,0,1,.4,1.3v1h.2c.2,0,.4-.2.6-.5a1.3,1.3,0,0,1,.1-.5l.5.3c-.4,1-.9,1.5-1.8,1.5a1.4,1.4,0,0,1-1.5-1.3V155a2.5,2.5,0,0,1,.1-.8v-.6c0-.6-.3-.8-1-.8h-.3Zm1.1-2.6c.9,0,1.1-.1,1.4-.3a1.7,1.7,0,0,0,.7-1.4c0-.7-.4-1-1.1-1h-.3c-.3,0-.4.1-.5.4l-.6,2.3Z" transform="translate(-2 -19.3)" style="fill:#fff"/><path d="M93.6,151.8h-.5a3.1,3.1,0,0,0-.3-1.3,1.9,1.9,0,0,0-1.7-1,1.3,1.3,0,0,0-1.4,1.1,1.1,1.1,0,0,0,.3.8l.8.4,1.8.7a2,2,0,0,1,.9,1.7c0,1.5-1.2,2.5-3,2.5a3.1,3.1,0,0,1-2.2-.9l-.6.7h-.4l.5-2.9h.5v.2a2.1,2.1,0,0,0,1.9,2.2h.3c.9,0,1.6-.5,1.6-1.2s-.4-.9-1.8-1.3a3.7,3.7,0,0,1-1.5-.8,2,2,0,0,1-.5-1.4,2.5,2.5,0,0,1,2.6-2.4H91a2.9,2.9,0,0,1,2,.7l.6-.5H94Z" transform="translate(-2 -19.3)" style="fill:#fff"/><path d="M101.7,151.9h-.6v-.6c0-1-.4-1.6-1.2-1.6s-.3,0-.4.4l-1.3,4.9a1.3,1.3,0,0,0-.1.6c0,.3.1.3.8.3h.2v.6H95v-.6h1c.1-.1.1-.1.3-.8l1.3-4.9v-.3h-.2c-.9,0-1.5.6-2.3,2.3h-.5l.8-2.8H102Z" transform="translate(-2 -19.3)" style="fill:#fff"/><path d="M108.7,149h3.9v.6h-.1a.9.9,0,0,0-.7.1c-.1.1-.1.1-.3.8l-.8,3.1a5.2,5.2,0,0,1-.6,1.6,2.4,2.4,0,0,1-2.4,1.3c-1.6,0-2.4-.7-2.4-1.9a1.4,1.4,0,0,1,1.2-1.6h.1a1,1,0,0,1,1.1.9h0a1.1,1.1,0,0,1-.9,1h0l-.4-.2H106a.4.4,0,0,0-.2.3,1,1,0,0,0,1.2.9h0a1.4,1.4,0,0,0,1.2-.7,4.4,4.4,0,0,0,.5-1.5l.9-3.2a1.7,1.7,0,0,0,.1-.7c0-.2-.1-.3-.8-.3h-.3Z" transform="translate(-2 -19.3)" style="fill:#fff"/><path d="M118.1,155.2c.1.5.3.6.9.6h.1v.6h-3.8v-.6h.9a.4.4,0,0,0,.1-.3v-.3l-.2-1.1h-2.4l-.4.9a.5.5,0,0,0-.2.4c0,.3.3.4.9.4h.1v.6h-2.9v-.6h0a2.1,2.1,0,0,0,1.4-1l3.5-5.9h.7Zm-2.6-4.1-1.4,2.5H116Z" transform="translate(-2 -19.3)" style="fill:#fff"/><path d="M125.5,150.3a.9.9,0,0,0,.3-.5c0-.1-.1-.2-.4-.2h-.3V149h3.1v.6a2.1,2.1,0,0,0-1.7.8l-1.7,1.5,1.5,3.2c.3.7.4.7,1.1.7h.1v.6h-3.9v-.6h.3c.5,0,.6,0,.6-.2s0-.1-.1-.3l-1-2.2-.9.8-.2,1a1.4,1.4,0,0,0-.2.6c0,.3.2.3.8.3h.1v.6h-3.6v-.6h.7c.1-.1.1-.1.3-.8l1.2-4.4a1.5,1.5,0,0,0,.1-.7c0-.2-.1-.2-.8-.2h-.2V149h3.8v.6h-.9c-.1.1-.1.1-.3.8l-.6,2.2Z" transform="translate(-2 -19.3)" style="fill:#fff"/><path d="M134.2,155.2c.1.5.3.6.9.6h.1v.6h-3.8v-.6h.8l.2-.3v-.3l-.2-1.1h-2.4l-.5.9c0,.1-.1.2-.1.4s.3.4.8.4h.2v.6h-2.9v-.6h.1a2.1,2.1,0,0,0,1.4-1l3.5-5.9h.6Zm-2.6-4.1-1.5,2.5H132Z" transform="translate(-2 -19.3)" style="fill:#fff"/><path d="M138.3,154.9a1.5,1.5,0,0,0-.1.7c0,.2.1.2.8.2h.2v.6h-3.8v-.6h.8c.1-.1.1-.1.3-.8l1.2-4.4c0-.2.1-.4.1-.6s-.1-.3-.8-.3h-.2v-.5h3.5a4.1,4.1,0,0,1,2.2.3,1.5,1.5,0,0,1,.8,1.4c0,1.1-1,1.8-2.9,2a1.4,1.4,0,0,1,1,.5,2,2,0,0,1,.4,1.3v.3c0,.6,0,.6.1.7h.1c.2,0,.4-.2.6-.5l.2-.5.4.3a1.8,1.8,0,0,1-1.8,1.5,1.5,1.5,0,0,1-1.5-1.3V155a2.5,2.5,0,0,1,.1-.8c0-.2.1-.4.1-.6s-.4-.8-1.1-.8h-.3Zm1.1-2.6a2.6,2.6,0,0,0,1.5-.3,2,2,0,0,0,.6-1.4c0-.7-.4-1-1.1-1h-.2c-.4,0-.5.1-.6.4l-.6,2.3Z" transform="translate(-2 -19.3)" style="fill:#fff"/><path d="M151.3,151.9h-.5v-.6c0-1-.5-1.6-1.2-1.6s-.4,0-.5.4l-1.3,4.9a1.3,1.3,0,0,0-.1.6c0,.3.1.3.8.3h.2v.6h-4.1v-.6h1c.1-.1.1-.1.3-.8l1.3-4.9c0-.1.1-.2.1-.3h-.3c-.9,0-1.5.6-2.2,2.3h-.5l.7-2.8h6.6Z" transform="translate(-2 -19.3)" style="fill:#fff"/><path d="M157.3,155.2c.1.5.3.6.9.6h.2v.6h-3.8v-.6h.8l.2-.3a.4.4,0,0,0-.1-.3l-.2-1.1H153l-.5.9c-.1.1-.1.2-.1.4s.2.4.8.4h.1v.6h-2.9v-.6h.1a1.9,1.9,0,0,0,1.3-1l3.5-5.9h.7Zm-2.6-4.1-1.4,2.5h1.9Z" transform="translate(-2 -19.3)" style="fill:#fff"/><path d="M161.7,156.4v-.6h.1c.4,0,.7,0,.7-.1s.1-.1.3-.8l1.2-4.4a1.3,1.3,0,0,0,.1-.6c0-.2-.1-.3-.8-.3h-.2v-.5h3.8v.5h-.1a1,1,0,0,0-.7.2c-.1.1-.1,0-.3.7l-1.2,4.4a1.5,1.5,0,0,0-.1.7c0,.2.1.2.8.2h.2v.6Z" transform="translate(-2 -19.3)" style="fill:#fff"/><path d="M173.3,154.2l.8-3a3.6,3.6,0,0,0,.2-1.1c0-.4-.3-.5-.9-.5V149h2.9v.6a.8.8,0,0,0-.8.2c-.3.3-.3.3-.6,1.4l-1.5,5.3h-.8l-3-5.8-.9,3.4a5.2,5.2,0,0,0-.2,1.1q0,.6.9.6h.1v.6h-2.9v-.6a1.1,1.1,0,0,0,.8-.3c.3-.2.3-.3.6-1.4l1.2-4.2c-.1-.2-.4-.4-.6-.3h-.6V149h2.5Z" transform="translate(-2 -19.3)" style="fill:#fff"/><path d="M183.2,151.9h-.5v-.6c0-1-.4-1.6-1.2-1.6s-.3,0-.4.4l-1.3,4.9a1.4,1.4,0,0,0-.2.6c0,.3.2.3.8.3h.3v.6h-4v-.6h1c.1-.1.1-.1.3-.8l1.3-4.9c0-.1.1-.2.1-.3h-.3c-.9,0-1.5.6-2.2,2.3h-.5l.7-2.8h6.6Z" transform="translate(-2 -19.3)" style="fill:#fff"/><path d="M190.6,151.5h-.5a5.9,5.9,0,0,0-.2-1.3,1.5,1.5,0,0,0-1.4-.6h-.4c-.4,0-.5.1-.6.5l-.6,2.2h.2a1.6,1.6,0,0,0,1.7-1.2h.5l-.9,3.4h-.6a1.7,1.7,0,0,0,.1-.7.8.8,0,0,0-.7-.9h-.5l-.6,2.5a.4.4,0,0,0-.1.3c0,.2.2.2.6.2h.3a3.7,3.7,0,0,0,3-2.1l.5.2-.7,2.5h-6.5v-.6h0c.7,0,.8,0,.9-.5l.2-.4,1.2-4.4c0-.2.1-.4.1-.6s-.2-.3-.8-.3h-.2V149H191Z" transform="translate(-2 -19.3)" style="fill:#fff"/><path d="M194,154.9a1.5,1.5,0,0,0-.1.7c0,.2.1.2.8.2h.2v.6H191v-.6h.8c.1-.1.1-.1.3-.8l1.2-4.4c0-.2.1-.4.1-.6s-.1-.3-.8-.3h-.2v-.5h3.5a4.2,4.2,0,0,1,2.2.3,1.5,1.5,0,0,1,.8,1.4c0,1.1-1,1.8-2.9,2a1.6,1.6,0,0,1,1,.5,2,2,0,0,1,.4,1.3v1h.2c.2,0,.4-.2.6-.5l.2-.5.4.3c-.4,1-.9,1.5-1.8,1.5a1.4,1.4,0,0,1-1.5-1.3V155c0-.2.1-.5.1-.8v-.6c0-.6-.3-.8-1-.8h-.3Zm1.1-2.6c.9,0,1.1-.1,1.4-.3a1.7,1.7,0,0,0,.7-1.4c0-.7-.4-1-1.1-1h-.2c-.4,0-.5.1-.6.4l-.6,2.3Z" transform="translate(-2 -19.3)" style="fill:#fff"/><path d="M206.2,154.2l.8-3a3.6,3.6,0,0,0,.2-1.1c0-.4-.3-.5-.9-.5V149h2.9v.6a.8.8,0,0,0-.8.2c-.3.3-.3.3-.7,1.4l-1.4,5.3h-.8l-3-5.8-.9,3.4a5.2,5.2,0,0,0-.2,1.1q0,.6.9.6h.1v.6h-2.9v-.6a1.1,1.1,0,0,0,.8-.3c.3-.2.3-.3.6-1.4l1.2-4.2c-.1-.2-.4-.4-.6-.3h-.6V149h2.6Z" transform="translate(-2 -19.3)" style="fill:#fff"/><path d="M214.7,155.2c.1.5.3.6,1,.6h.1v.6h-3.8v-.6h.8l.2-.3v-.3l-.2-1.1h-2.4l-.5.9c-.1.1-.1.2-.1.4s.2.4.8.4h.1v.6h-2.8v-.6h.1a1.7,1.7,0,0,0,1.3-1l3.6-5.9h.6Zm-2.5-4.1-1.5,2.5h1.9Z" transform="translate(-2 -19.3)" style="fill:#fff"/><path d="M223.5,151.9H223v-.6c0-1-.4-1.6-1.2-1.6s-.3,0-.4.4l-1.3,4.9a1.4,1.4,0,0,0-.2.6c0,.3.2.3.8.3h.3v.6h-4v-.6H218a3.3,3.3,0,0,0,.2-.8l1.4-4.9v-.3h-.3c-.9,0-1.5.6-2.2,2.3h-.5l.7-2.8h6.6Z" transform="translate(-2 -19.3)" style="fill:#fff"/><path d="M223.5,156.4v-.6h.9a3.3,3.3,0,0,0,.2-.8l1.2-4.4c.1-.2.1-.4.2-.6s-.2-.3-.8-.3h-.3v-.5h3.8v.5h0c-.5,0-.7.1-.8.2s-.1,0-.3.7l-1.2,4.4c0,.2-.1.4-.1.7s.1.2.8.2h.2v.6Z" transform="translate(-2 -19.3)" style="fill:#fff"/><path d="M236,149.8a3.2,3.2,0,0,1,.8,2.1,4.7,4.7,0,0,1-4.6,4.6,2.8,2.8,0,0,1-3.1-2.7v-.3a4.6,4.6,0,0,1,4.6-4.6A2.8,2.8,0,0,1,236,149.8Zm-4.2,1.2a8.2,8.2,0,0,0-.9,3.4c0,1,.5,1.6,1.3,1.6s1.4-.5,1.9-1.6a6.4,6.4,0,0,0,.8-3.3,1.4,1.4,0,0,0-.2-1.1,1.2,1.2,0,0,0-1-.6c-.8,0-1.4.5-1.9,1.6Z" transform="translate(-2 -19.3)" style="fill:#fff"/><path d="M243.8,154.2l.8-3a3.6,3.6,0,0,0,.2-1.1c0-.4-.3-.5-.9-.5V149h2.8v.6a.8.8,0,0,0-.8.2c-.3.3-.3.3-.6,1.4l-1.4,5.3H243l-3-5.8-.9,3.4a5.2,5.2,0,0,0-.2,1.1q0,.6.9.6h.1v.6h-2.9v-.6a1.1,1.1,0,0,0,.8-.3c.3-.2.3-.3.6-1.4l1.2-4.2c-.1-.2-.4-.4-.6-.3h-.6V149h2.6Z" transform="translate(-2 -19.3)" style="fill:#fff"/><path d="M252.4,155.2c.1.5.3.6.9.6h.1v.6h-3.8v-.6h.9a.4.4,0,0,0,.1-.3v-.3l-.2-1.1H248l-.4.8c-.1.2-.2.3-.2.5s.3.4.8.4h.2v.6h-2.9v-.6h.1a2.1,2.1,0,0,0,1.4-1l3.5-5.9h.6Zm-2.6-4.1-1.4,2.5h1.9Z" transform="translate(-2 -19.3)" style="fill:#fff"/><path d="M260.8,153.8l-.7,2.6h-6.5v-.6h.1a1.1,1.1,0,0,0,.8-.1l.2-.8,1.2-4.4c.1-.2.1-.4.2-.6s-.2-.3-.8-.3h-.2v-.5H259v.5h-.2a1,1,0,0,0-.7.2c-.1.1-.1,0-.3.7l-1.2,4.4c0,.2-.1.4-.1.7s.1.2.5.2h.4a2.9,2.9,0,0,0,2.1-.9,2.7,2.7,0,0,0,.9-1.2Z" transform="translate(-2 -19.3)" style="fill:#fff"/><path d="M4.2,180.2a4.6,4.6,0,0,1-1.6-1.5,4.3,4.3,0,0,1,0-4.4,4.1,4.1,0,0,1,1.6-1.6,5.9,5.9,0,0,1,2.3-.5,5.9,5.9,0,0,1,2.2.5,4.9,4.9,0,0,1,1.6,1.6,4.7,4.7,0,0,1,0,4.3,4.9,4.9,0,0,1-1.6,1.6,5.9,5.9,0,0,1-2.2.5A4.6,4.6,0,0,1,4.2,180.2Zm3.9-.9a2.5,2.5,0,0,0,1.1-1.2,3.2,3.2,0,0,0,0-3.3,2.9,2.9,0,0,0-1.1-1.1,3.2,3.2,0,0,0-1.6-.4,2.5,2.5,0,0,0-1.7.4,2.5,2.5,0,0,0-1.2,1.1,3.8,3.8,0,0,0,0,3.3,2.5,2.5,0,0,0,1.2,1.1,2.5,2.5,0,0,0,1.7.4,2.4,2.4,0,0,0,1.6-.4Z" transform="translate(-2 -19.3)" style="fill:#fff"/><path d="M22.1,174.3l-2.4,6.3H18.6l-1.8-4.8L15,180.6H13.9l-2.4-6.3h1.1l1.9,5,1.9-5h.9l1.9,5.1,1.9-5.1Z" transform="translate(-2 -19.3)" style="fill:#fff"/><path d="M28.5,175a3,3,0,0,1,.8,2v3.6H28.1v-3.5a1.7,1.7,0,0,0-.5-1.3,1.3,1.3,0,0,0-1.2-.5,2.5,2.5,0,0,0-1.5.5,1.9,1.9,0,0,0-.5,1.6v3.2H23.3v-6.3h1v1a2.3,2.3,0,0,1,1-.7,3.1,3.1,0,0,1,1.3-.3A2.6,2.6,0,0,1,28.5,175Z" transform="translate(-2 -19.3)" style="fill:#fff"/><path d="M37.1,177.8H32a1.7,1.7,0,0,0,.7,1.4,3,3,0,0,0,1.6.5,2.7,2.7,0,0,0,1.8-.8l.6.8a2.1,2.1,0,0,1-1.1.7,3.2,3.2,0,0,1-1.4.3,3.3,3.3,0,0,1-1.7-.4,2.8,2.8,0,0,1-1.2-1.2,3,3,0,0,1-.5-1.6,3.4,3.4,0,0,1,.5-1.7,2,2,0,0,1,1.1-1.1,3.1,3.1,0,0,1,3.2,0,2,2,0,0,1,1.1,1.1,3.3,3.3,0,0,1,.4,1.7Zm-4.5-2.1A2.2,2.2,0,0,0,32,177h4a2.2,2.2,0,0,0-.6-1.3A2.1,2.1,0,0,0,32.6,175.7Z" transform="translate(-2 -19.3)" style="fill:#fff"/><path d="M40.7,174.5a3.2,3.2,0,0,1,1.4-.3v1.1h-.2a2,2,0,0,0-1.5.6,2.3,2.3,0,0,0-.6,1.6v3.1H38.7v-6.3h1.1v1.1A2,2,0,0,1,40.7,174.5Z" transform="translate(-2 -19.3)" style="fill:#fff"/><path d="M47.9,180.3a3.4,3.4,0,0,1-1.2-1.2,3.2,3.2,0,0,1,0-3.3,2.5,2.5,0,0,1,1.2-1.1,3.3,3.3,0,0,1,3.3,0,2.5,2.5,0,0,1,1.2,1.1,3.3,3.3,0,0,1,0,3.3,3.4,3.4,0,0,1-1.2,1.2A3.8,3.8,0,0,1,47.9,180.3Zm2.8-.9a2.3,2.3,0,0,0,.7-.7,2.5,2.5,0,0,0,0-2.4,2.3,2.3,0,0,0-.7-.7l-1.1-.3a2,2,0,0,0-1.1.3,2.7,2.7,0,0,0-.8.7,1.7,1.7,0,0,0-.2,1.2,2.5,2.5,0,0,0,.2,1.2,2.7,2.7,0,0,0,.8.7,2,2,0,0,0,1.1.3Z" transform="translate(-2 -19.3)" style="fill:#fff"/><path d="M55.7,173.8v.5h1.9v1H55.8v5.3H54.6v-5.3H53.5v-1h1.1v-.5a2.1,2.1,0,0,1,2.1-2.1h.7l.6.3-.3.9-.9-.3A1,1,0,0,0,55.7,173.8Z" transform="translate(-2 -19.3)" style="fill:#fff"/><path d="M65.4,180.2a.9.9,0,0,1-.6.4h-.7a2.5,2.5,0,0,1-1.5-.5,1.7,1.7,0,0,1-.5-1.5v-3.5H61v-.9h1.1v-1.4h1.1v1.4H65v.9H63.2v3.5a1.1,1.1,0,0,0,.3.8.9.9,0,0,0,.7.3,1.4,1.4,0,0,0,.9-.3Z" transform="translate(-2 -19.3)" style="fill:#fff"/><path d="M72.1,175a2.6,2.6,0,0,1,.8,2v3.6H71.7v-3.5a2,2,0,0,0-.4-1.3,1.7,1.7,0,0,0-1.3-.5,2.7,2.7,0,0,0-1.5.5,1.9,1.9,0,0,0-.5,1.6v3.2H66.9v-8.8H68v3.4l.9-.7a2,2,0,0,1,1.3-.2A2.3,2.3,0,0,1,72.1,175Z" transform="translate(-2 -19.3)" style="fill:#fff"/><path d="M80.7,177.8H75.6a1.7,1.7,0,0,0,.7,1.4,3,3,0,0,0,1.6.5,2.5,2.5,0,0,0,1.8-.8l.6.8a2.3,2.3,0,0,1-1,.7l-1.5.3a3.3,3.3,0,0,1-1.7-.4,3.4,3.4,0,0,1-1.2-1.2,2.9,2.9,0,0,1-.4-1.6,3.3,3.3,0,0,1,.4-1.7,2,2,0,0,1,1.1-1.1,3.1,3.1,0,0,1,3.2,0,2,2,0,0,1,1.1,1.1,3.3,3.3,0,0,1,.4,1.7Zm-4.4-2.1a2.4,2.4,0,0,0-.7,1.3h4.1a2.4,2.4,0,0,0-.7-1.3A2,2,0,0,0,76.3,175.7Z" transform="translate(-2 -19.3)" style="fill:#fff"/><path d="M85.7,172.3h1.2v8.3H85.7Z" transform="translate(-2 -19.3)" style="fill:#fff"/><path d="M94.6,175a2.9,2.9,0,0,1,.7,2v3.6H94.1v-3.5a2,2,0,0,0-.4-1.3,1.7,1.7,0,0,0-1.3-.5,2.7,2.7,0,0,0-1.5.5,1.9,1.9,0,0,0-.5,1.6v3.2H89.2v-6.3h1.2v1a2,2,0,0,1,.9-.7,3.5,3.5,0,0,1,1.4-.3A2.8,2.8,0,0,1,94.6,175Z" transform="translate(-2 -19.3)" style="fill:#fff"/><path d="M103.4,171.8v8.8h-1.1v-1a2.5,2.5,0,0,1-1,.8,2.8,2.8,0,0,1-1.3.3,3.2,3.2,0,0,1-1.6-.4,2.5,2.5,0,0,1-1.1-1.2,3.2,3.2,0,0,1,0-3.3,2,2,0,0,1,1.1-1.1,3.3,3.3,0,0,1,1.6-.5,2.8,2.8,0,0,1,1.3.3,1.6,1.6,0,0,1,.9.7v-3.4Zm-2.2,7.6a1.9,1.9,0,0,0,.8-.7,2.5,2.5,0,0,0,0-2.4,1.9,1.9,0,0,0-.8-.7,2,2,0,0,0-2.1,0,2.7,2.7,0,0,0-.8.7,3.7,3.7,0,0,0,0,2.4,2.7,2.7,0,0,0,.8.7A2,2,0,0,0,101.2,179.4Z" transform="translate(-2 -19.3)" style="fill:#fff"/><path d="M106.6,180.3a3.4,3.4,0,0,1-1.2-1.2,3.8,3.8,0,0,1,0-3.3,2.5,2.5,0,0,1,1.2-1.1,3.4,3.4,0,0,1,3.4,0,2,2,0,0,1,1.1,1.1,3.2,3.2,0,0,1,0,3.3,2.5,2.5,0,0,1-1.1,1.2A4,4,0,0,1,106.6,180.3Zm2.8-.9a1.8,1.8,0,0,0,.7-.8,2,2,0,0,0,.3-1.1,2.7,2.7,0,0,0-.3-1.2,1.2,1.2,0,0,0-.7-.7,2.2,2.2,0,0,0-2.2,0,1.2,1.2,0,0,0-.7.7,2.7,2.7,0,0,0-.3,1.2,2,2,0,0,0,.3,1.1,1.8,1.8,0,0,0,.7.8,2.2,2.2,0,0,0,2.2,0Z" transform="translate(-2 -19.3)" style="fill:#fff"/><path d="M118.4,175a2.6,2.6,0,0,1,.8,2v3.6H118v-3.5a1.6,1.6,0,0,0-.4-1.3,1.5,1.5,0,0,0-1.3-.5,2.4,2.4,0,0,0-1.4.5,2.5,2.5,0,0,0-.6,1.6v3.2h-1.1v-6.3h1.1v1a1.6,1.6,0,0,1,.9-.7,3.2,3.2,0,0,1,1.4-.3A2.4,2.4,0,0,1,118.4,175Z" transform="translate(-2 -19.3)" style="fill:#fff"/><path d="M127,177.8h-5.1a2.1,2.1,0,0,0,.7,1.4,3,3,0,0,0,1.6.5,2.5,2.5,0,0,0,1.8-.8l.6.8a1.8,1.8,0,0,1-1,.7l-1.4.3a3.2,3.2,0,0,1-3-1.6,3.2,3.2,0,0,1,0-3.3,2.3,2.3,0,0,1,1.1-1.1,3.2,3.2,0,0,1,1.6-.4,2.7,2.7,0,0,1,1.6.4,2.5,2.5,0,0,1,1.2,1.1,3.2,3.2,0,0,1,.3,1.7Zm-4.4-2.1a2.4,2.4,0,0,0-.7,1.3h4a1.8,1.8,0,0,0-.6-1.3A2,2,0,0,0,122.6,175.7Z" transform="translate(-2 -19.3)" style="fill:#fff"/><path d="M129,180.5a2.4,2.4,0,0,1-1.1-.6l.4-.9a2.4,2.4,0,0,0,1,.5l1.2.2q1.5,0,1.5-.9a.4.4,0,0,0-.2-.4l-.5-.3h-.8l-1.3-.3-.8-.5a1.5,1.5,0,0,1-.4-1.1,1.6,1.6,0,0,1,.8-1.3,2.6,2.6,0,0,1,1.9-.5H132l1,.4-.5.9a3.7,3.7,0,0,0-1.8-.5,2,2,0,0,0-1.1.3.7.7,0,0,0-.4.6.8.8,0,0,0,.2.5l.5.2.9.2,1.3.3.8.5a1.9,1.9,0,0,1,.3,1,1.7,1.7,0,0,1-.7,1.4,4.6,4.6,0,0,1-2,.5Z" transform="translate(-2 -19.3)" style="fill:#fff"/><path d="M134.7,172.9a.5.5,0,0,1-.3-.5.9.9,0,0,1,.3-.6l.5-.2.6.2c.1.2.2.3.2.5a.8.8,0,0,1-.8.8Zm0,1.4h1.1v6.3h-1.1Z" transform="translate(-2 -19.3)" style="fill:#fff"/><path d="M142.3,174.9a2.6,2.6,0,0,1,.7,1.9v3.8h-1.1v-.8a1.6,1.6,0,0,1-.8.6,2.8,2.8,0,0,1-1.3.3,3.4,3.4,0,0,1-1.7-.5,1.7,1.7,0,0,1-.6-1.4,1.6,1.6,0,0,1,.6-1.3,2.7,2.7,0,0,1,1.9-.5h1.8v-.2a1.3,1.3,0,0,0-.4-1.2,1.7,1.7,0,0,0-1.2-.4l-1.1.2a1.9,1.9,0,0,0-.9.5l-.5-.8a2.3,2.3,0,0,1,1.2-.6,3.2,3.2,0,0,1,1.4-.2A2.5,2.5,0,0,1,142.3,174.9Zm-1.1,4.6a1.6,1.6,0,0,0,.6-.8v-.9h-1.7c-1,0-1.5.3-1.5,1a.7.7,0,0,0,.4.7,1.7,1.7,0,0,0,1,.3Z" transform="translate(-2 -19.3)" style="fill:#fff"/><path d="M149.1,180.4a3.3,3.3,0,0,1-1.3-.7l.4-1a2.5,2.5,0,0,0,1.2.7l1.5.3a4.1,4.1,0,0,0,1.6-.3,1.2,1.2,0,0,0,.5-1,1.1,1.1,0,0,0-.3-.7l-.7-.4-1.1-.3-1.5-.5a1.4,1.4,0,0,1-1-.7,1.4,1.4,0,0,1-.4-1.2,2.4,2.4,0,0,1,.3-1.2,3.1,3.1,0,0,1,1.1-.9,4.8,4.8,0,0,1,1.8-.3l1.4.2,1.3.5-.4,1-1.2-.5-1.1-.2a2.6,2.6,0,0,0-1.5.4,1.2,1.2,0,0,0-.5.9.8.8,0,0,0,.3.7,1,1,0,0,0,.7.4l1.2.4,1.5.4a3.1,3.1,0,0,1,.9.7,1.5,1.5,0,0,1,.4,1.2,2.1,2.1,0,0,1-.3,1.2,3.1,3.1,0,0,1-1.1.9l-1.8.3A6.3,6.3,0,0,1,149.1,180.4Z" transform="translate(-2 -19.3)" style="fill:#fff"/><path d="M159.3,180.2l-.6.4H158a2.5,2.5,0,0,1-1.5-.5,1.7,1.7,0,0,1-.5-1.5v-3.5h-1.1v-.9H156v-1.4h1.1v1.4h1.8v.9h-1.8v3.5a1.9,1.9,0,0,0,.2.8,1.1,1.1,0,0,0,.8.3l.9-.3Z" transform="translate(-2 -19.3)" style="fill:#fff"/><path d="M161.5,180.3a2.5,2.5,0,0,1-1.1-1.2,3.3,3.3,0,0,1,0-3.3,2,2,0,0,1,1.1-1.1,3.4,3.4,0,0,1,3.4,0,2.5,2.5,0,0,1,1.2,1.1,3.8,3.8,0,0,1,0,3.3,3.4,3.4,0,0,1-1.2,1.2A4,4,0,0,1,161.5,180.3Zm2.8-.9a3,3,0,0,0,.8-.8,3.6,3.6,0,0,0,.2-1.1,5,5,0,0,0-.2-1.2,1.8,1.8,0,0,0-.8-.7,2.2,2.2,0,0,0-2.2,0,1.6,1.6,0,0,0-.7.7,2.7,2.7,0,0,0-.3,1.2,2,2,0,0,0,.3,1.1,2.7,2.7,0,0,0,.7.8A2.2,2.2,0,0,0,164.3,179.4Z" transform="translate(-2 -19.3)" style="fill:#fff"/><path d="M169.1,180.3a3.4,3.4,0,0,1-1.2-1.2,3.8,3.8,0,0,1,0-3.3,2.5,2.5,0,0,1,1.2-1.1,3,3,0,0,1,1.8-.4,3.2,3.2,0,0,1,1.4.3,2.7,2.7,0,0,1,1.1,1l-.9.6a1.6,1.6,0,0,0-.7-.7,1.2,1.2,0,0,0-1-.2,1.4,1.4,0,0,0-1.1.2,3,3,0,0,0-.8.8,2,2,0,0,0-.2,1.1,2.5,2.5,0,0,0,.2,1.2,3,3,0,0,0,.8.8,1.4,1.4,0,0,0,1.1.2,1.2,1.2,0,0,0,1-.2,1.6,1.6,0,0,0,.7-.7l.9.6a2.7,2.7,0,0,1-1.1,1,3.2,3.2,0,0,1-1.4.3A3.8,3.8,0,0,1,169.1,180.3Z" transform="translate(-2 -19.3)" style="fill:#fff"/><path d="M177.3,177.7l-1.3,1.2v1.7h-1.2v-8.8H176v5.6l3.4-3.1h1.4l-2.6,2.6,2.9,3.7h-1.4Z" transform="translate(-2 -19.3)" style="fill:#fff"/><path d="M191.6,179.6v1h-6v-8.3h5.9v1h-4.7v2.6H191v1h-4.2v2.7Z" transform="translate(-2 -19.3)" style="fill:#fff"/><path d="M197.3,180.6l-1.8-2.4-1.9,2.4h-1.2l2.5-3.2-2.4-3.1h1.3l1.7,2.2,1.7-2.2h1.3l-2.4,3.1,2.5,3.2Z" transform="translate(-2 -19.3)" style="fill:#fff"/><path d="M200.7,180.3a3.4,3.4,0,0,1-1.2-1.2,3.2,3.2,0,0,1,0-3.3,3.3,3.3,0,0,1,2.9-1.5,2.9,2.9,0,0,1,1.6.3,2.4,2.4,0,0,1,1,1l-.9.6a1.6,1.6,0,0,0-.7-.7,1.2,1.2,0,0,0-1-.2,1.4,1.4,0,0,0-1.1.2,3,3,0,0,0-.8.8,3.6,3.6,0,0,0-.2,1.1,5,5,0,0,0,.2,1.2,3,3,0,0,0,.8.8,1.4,1.4,0,0,0,1.1.2,1.2,1.2,0,0,0,1-.2,1.6,1.6,0,0,0,.7-.7l.9.6a2.4,2.4,0,0,1-1,1,2.9,2.9,0,0,1-1.6.3A3.2,3.2,0,0,1,200.7,180.3Z" transform="translate(-2 -19.3)" style="fill:#fff"/><path d="M211.7,175a2.5,2.5,0,0,1,.7,2v3.6h-1.1v-3.5a1.7,1.7,0,0,0-.5-1.3,1.5,1.5,0,0,0-1.2-.5,2.5,2.5,0,0,0-1.5.5,1.9,1.9,0,0,0-.5,1.6v3.2h-1.2v-8.8h1.2v3.4a2.2,2.2,0,0,1,.9-.7,1.9,1.9,0,0,1,1.3-.2A2.3,2.3,0,0,1,211.7,175Z" transform="translate(-2 -19.3)" style="fill:#fff"/><path d="M218.8,174.9a2.3,2.3,0,0,1,.7,1.9v3.8h-1v-.8a1.5,1.5,0,0,1-.9.6l-1.2.3a3.4,3.4,0,0,1-1.7-.5,1.9,1.9,0,0,1-.2-2.5l.2-.2a2.6,2.6,0,0,1,1.9-.5h1.8v-.2a1.3,1.3,0,0,0-.4-1.2,2,2,0,0,0-1.3-.4l-1.1.2-.9.5-.4-.8a2.4,2.4,0,0,1,1.1-.6,3.9,3.9,0,0,1,1.5-.2A2.2,2.2,0,0,1,218.8,174.9Zm-1.1,4.6a1.8,1.8,0,0,0,.7-.8v-.9h-1.7c-1,0-1.5.3-1.5,1a.7.7,0,0,0,.4.7,1.7,1.7,0,0,0,1,.3A2,2,0,0,0,217.7,179.5Z" transform="translate(-2 -19.3)" style="fill:#fff"/><path d="M227,175a2.9,2.9,0,0,1,.7,2v3.6h-1.1v-3.5a2.1,2.1,0,0,0-.5-1.3,1.5,1.5,0,0,0-1.2-.5,1.9,1.9,0,0,0-2.1,2.1v3.2h-1.1v-6.3h1.1v1a1.6,1.6,0,0,1,.9-.7,3.2,3.2,0,0,1,1.4-.3A2.8,2.8,0,0,1,227,175Z" transform="translate(-2 -19.3)" style="fill:#fff"/><path d="M235.9,174.3v5.5a3.7,3.7,0,0,1-.8,2.4,3.3,3.3,0,0,1-2.5.8,5.1,5.1,0,0,1-1.7-.3,2.4,2.4,0,0,1-1.3-.7l.5-.8,1.1.6,1.4.2a2.2,2.2,0,0,0,1.6-.5,1.9,1.9,0,0,0,.5-1.6v-.5a1.8,1.8,0,0,1-1,.7,2.7,2.7,0,0,1-1.2.3,4.7,4.7,0,0,1-1.7-.4,3.8,3.8,0,0,1-1.1-1.1,3.1,3.1,0,0,1,0-3.2l1.1-1.1a4.7,4.7,0,0,1,1.7-.3,3,3,0,0,1,1.3.2,2.5,2.5,0,0,1,1,.8v-1Zm-2.2,4.8a1.4,1.4,0,0,0,.7-.8,1.7,1.7,0,0,0,.3-1,1.7,1.7,0,0,0-.6-1.5,2.2,2.2,0,0,0-1.5-.6,2.3,2.3,0,0,0-1.6.6,2,2,0,0,0-.6,1.5,1.7,1.7,0,0,0,.3,1,1.4,1.4,0,0,0,.7.8,2.3,2.3,0,0,0,1.1.3,2.7,2.7,0,0,0,1.2-.3Z" transform="translate(-2 -19.3)" style="fill:#fff"/><path d="M243.8,177.8h-5.2a2.2,2.2,0,0,0,.8,1.4,2.7,2.7,0,0,0,1.5.5,2.7,2.7,0,0,0,1.9-.8l.6.8a2.6,2.6,0,0,1-1.1.7,3.2,3.2,0,0,1-1.4.3,3.9,3.9,0,0,1-1.8-.4,3.4,3.4,0,0,1-1.2-1.2,4.2,4.2,0,0,1-.4-1.6,4.7,4.7,0,0,1,.4-1.7,2.5,2.5,0,0,1,1.2-1.1,3.1,3.1,0,0,1,3.2,0,2.3,2.3,0,0,1,1.1,1.1,3.3,3.3,0,0,1,.4,1.7Zm-4.5-2.1a1.8,1.8,0,0,0-.6,1.3h4a2.4,2.4,0,0,0-.7-1.3,2,2,0,0,0-2.7,0Z" transform="translate(-2 -19.3)" style="fill:#fff"/><path d="M255.5,177a2.4,2.4,0,0,1,.5,1.4,1.9,1.9,0,0,1-.9,1.6,3.2,3.2,0,0,1-2.3.6h-4v-8.3h3.7a2.9,2.9,0,0,1,2.2.6,1.8,1.8,0,0,1,.8,1.5,2.7,2.7,0,0,1-.3,1.2,2.7,2.7,0,0,1-.8.7A2.6,2.6,0,0,1,255.5,177Zm-5.5-3.7v2.6h2.4a2.2,2.2,0,0,0,1.4-.3,1.3,1.3,0,0,0,.3-1.8l-.3-.2a1.7,1.7,0,0,0-1.4-.3Zm4.2,6a.9.9,0,0,0,.5-1c0-1-.6-1.4-2-1.4H250v2.7h2.7A2,2,0,0,0,254.2,179.3Z" transform="translate(-2 -19.3)" style="fill:#fff"/><path d="M263.5,174.3v6.3h-1v-.9l-1,.7a2.4,2.4,0,0,1-1.2.3,3.1,3.1,0,0,1-2-.7,2.7,2.7,0,0,1-.7-2.1v-3.6h1.1v3.5a1.9,1.9,0,0,0,.5,1.4,1.8,1.8,0,0,0,1.2.5,1.8,1.8,0,0,0,1.4-.6,2.2,2.2,0,0,0,.6-1.5v-3.3Z" transform="translate(-2 -19.3)" style="fill:#fff"/><path d="M265.8,172.9c-.2-.2-.3-.3-.3-.5a.9.9,0,0,1,.8-.8l.5.2c.2.2.3.3.3.5a.9.9,0,0,1-.8.8Zm0,1.4h1.1v6.3h-1.1Z" transform="translate(-2 -19.3)" style="fill:#fff"/><path d="M269.1,171.8h1.1v8.8h-1.1Z" transform="translate(-2 -19.3)" style="fill:#fff"/><path d="M278.4,171.8v8.8h-1.1v-1a2.5,2.5,0,0,1-1,.8l-1.2.3a3.3,3.3,0,0,1-1.7-.4,2.5,2.5,0,0,1-1.1-1.2,3.3,3.3,0,0,1,0-3.3,2,2,0,0,1,1.1-1.1,2.5,2.5,0,0,1,1.7-.4,1.7,1.7,0,0,1,1.2.2,1.8,1.8,0,0,1,.9.8v-3.5Zm-2.2,7.6a2.7,2.7,0,0,0,.8-.7,5,5,0,0,0,.2-1.2,2.5,2.5,0,0,0-.2-1.2,2.7,2.7,0,0,0-.8-.7,2,2,0,0,0-2.1,0,1.9,1.9,0,0,0-.8.7,2.6,2.6,0,0,0,0,2.4,1.9,1.9,0,0,0,.8.7A2,2,0,0,0,276.2,179.4Z" transform="translate(-2 -19.3)" style="fill:#fff"/><path d="M280.6,172.9a.8.8,0,0,1-.2-.5.8.8,0,0,1,.7-.8l.6.2c.1.2.2.3.2.5a.8.8,0,0,1-.7.8Zm0,1.4h1.2v6.3h-1.2Z" transform="translate(-2 -19.3)" style="fill:#fff"/><path d="M289.2,175a2.5,2.5,0,0,1,.7,2v3.6h-1.1v-3.5a1.7,1.7,0,0,0-.5-1.3,1.5,1.5,0,0,0-1.2-.5,2.5,2.5,0,0,0-1.5.5,1.9,1.9,0,0,0-.5,1.6v3.2h-1.2v-6.3H285v1a2,2,0,0,1,.9-.7,3.5,3.5,0,0,1,1.4-.3A2.3,2.3,0,0,1,289.2,175Z" transform="translate(-2 -19.3)" style="fill:#fff"/><path d="M298.1,174.3v5.5a3.1,3.1,0,0,1-.8,2.4,3.2,3.2,0,0,1-2.4.8,4.7,4.7,0,0,1-1.7-.3,2.1,2.1,0,0,1-1.3-.7l.5-.8,1.1.6,1.3.2a2.6,2.6,0,0,0,1.7-.5,3,3,0,0,0,.5-1.6v-.5a2.3,2.3,0,0,1-1,.7,2.8,2.8,0,0,1-1.3.3,4.7,4.7,0,0,1-1.6-.4,4.3,4.3,0,0,1-1.2-1.1,3.6,3.6,0,0,1,0-3.2,4.3,4.3,0,0,1,1.2-1.1,4.5,4.5,0,0,1,1.6-.3,2.7,2.7,0,0,1,1.3.2,2,2,0,0,1,1,.8v-1Zm-2.1,4.8a1.9,1.9,0,0,0,.7-.8,1.7,1.7,0,0,0,.3-1,2,2,0,0,0-.6-1.5,2.4,2.4,0,0,0-3.2,0,2,2,0,0,0-.6,1.5,1.7,1.7,0,0,0,.3,1,2,2,0,0,0,.8.8,2,2,0,0,0,1.1.3A2.7,2.7,0,0,0,296,179.1Z" transform="translate(-2 -19.3)" style="fill:#fff"/></svg>