<svg xmlns="http://www.w3.org/2000/svg" viewBox="0 0 398.7 197.5"><title>footer_fi</title><path d="M258.1,0V8.9h-2.7V0h-1.6V8.9h-6.7V0h-1.6V8.9H244V0h-1.6V8.9h-1V21.7h-3v1.6h0v6.6h-4.9V27.1h-1.6v2.8h-2.4V27.1h-1.7v2.8h-2.7v7.5h-.7v.5h0v17h-2.3v-4h-1.6v4h-2.6v-4h-1.5v86.9h-3.1v-4.1h-1.6v4.1h-5.9v-4.1h-1.7v4.1h-9.5v-4.1H193v4.1h-5.9v-4.1h-1.6v4.1h-3.1v-87h-1.6v4h-2.5v-4h-1.6v4h-2.3V37.9h0v-.6h-.8V29.8H171V27h-1.6v2.8h-2.5V27h-1.6v2.8h-4.9V21.6h-3V10.5h0V8.9h-1V0h-1.6V8.9h-1.5V0h-1.7V8.9H145V0h-1.6V8.9h-2.7V0H139V151.2H260V0Zm-2.7,23.3h2.7v6.5h-2.7Zm-1.6,6.5h-6.6V23.3h6.6Zm4.3-19.3V21.6h-2.7V10.5Zm-4.3,0V21.6h-6.6V10.5Zm-10.7,0h2.4V21.6h-2.4Zm-3,12.8h5.4v6.5h-5.4Zm1.3,8.2v2h-7.9v-2ZM231.9,39v6.9h-2.4V39Zm-2.5-1.6V35.2h2.4v2.2Zm0,10.1h2.4v7.3h-2.4Zm0,9h2.4v6.1h-2.4Zm0,7.7h2.4v6.9h-2.4Zm0,8.6h2.4v6.3h-2.4Zm0,7.9h2.4v6.1h-2.4Zm0,7.7h2.4v6.5h-2.4Zm0,8h2.4v6.5h-2.4Zm0,8.2h2.4v6.3h-2.4Zm0,7.9h2.4V119h-2.4Zm4,0h8V119h-7.9Zm0-1.6v-6.3h8v6.3Zm0-8V96.5h8v6.4Zm0-8.1V88.3h8v6.5Zm0-8V80.7h8v6.1Zm0-7.7V72.8h8v6.4Zm0-7.9v-7h8v6.9Zm0-8.6V56.5h8v6.1Zm0-7.8V47.5h8v7.3Zm0-8.9V39h8v6.9h-8Zm-4,74.7h2.4v6.2h-2.4Zm4.1,0h7.9v6.2h-7.9Zm9.6,0h2.4v6.2h-2.4Zm0-1.6v-6.5h2.4V119Zm0-8.1v-6.3h2.4v6.3Zm0-8V96.4h2.4v6.5Zm0-8.1V88.3h2.4v6.5Zm0-8V80.7h2.4v6.1Zm0-7.7V72.8h2.4v6.4Zm0-7.9v-7h2.4v6.9Zm0-8.6V56.5h2.4v6.1Zm0-7.8V47.5h2.4v7.3Zm0-8.9V39h2.4v6.9Zm0-8.6V35.2h2.4v2.1Zm-1.7,0h-7.9V35.2h7.9Zm-9.5-5.9v2.1h-2.4V31.4Zm-4.1,0v2.1h-1V31.4Zm-1,3.8h1v2.1h-1Zm-2.3,21.3v2.8h-2.4V56.5Zm-4,0v2.8H218V56.5Zm-2.4,4.4h2.5v76.9h-2.5Zm2.5,84.3H218v-5.8h2.5Zm-4.1-5.8v5.8h-3.1v-5.8Zm-4.7,0v5.8h-5.9v-5.8Zm-11.5,0h3.9v5.8h-9.5v-5.8Zm-7.2,0v5.8h-5.9v-5.8Zm-7.5,0v5.8h-3.2v-5.8Zm-4.8-82.9v2.8h-2.5V56.5Zm-4.1,0v2.8h-2.3V56.5ZM171,37.4V35.2h1.1v2.2Zm-15.2-2.2v2.2h-2.4V35.2ZM169.4,119H167v-6.5h2.4Zm-4-54.8v6.9h-8.1V64.2Zm-8-1.6V56.5h8v6.1Zm8,10.2v6.4h-8.1V72.8Zm0,7.9v6.1h-8.1V80.7Zm0,7.7v6.5h-8.1V88.4Zm0,8v6.5h-8.1V96.4Zm0,8.2v6.3h-8.1v-6.3Zm0,7.9V119h-8.1v-6.5Zm4-1.6H167v-6.3h2.4Zm0-7.9H167V96.5h2.4Zm0-8.2H167V88.3h2.4Zm0-8H167V80.7h2.4Zm0-7.6H167V72.8h2.4Zm0-8H167v-7h2.4Zm0-8.6H167V56.5h2.4Zm0-7.8H167V47.5h2.4Zm-4,0h-8.1V47.5h8Zm-8-8.9V39h8v6.9h-8Zm0-8.5V35.2h8v2.2ZM155.8,39v7h-2.4V39Zm0,8.5v7.3h-2.4V47.5Zm0,9v6.1h-2.4V56.5Zm0,7.7v6.9h-2.4V64.2Zm0,8.6v6.3h-2.4V72.8Zm0,7.9v6.1h-2.4V80.7Zm0,7.7v6.5h-2.4V88.4Zm0,8v6.5h-2.4V96.4Zm0,8.2v6.3h-2.4v-6.3Zm0,7.9V119h-2.4v-6.5Zm0,8.1v6.3h-2.4v-6.3Zm1.6,0h8v6.3h-8.1Zm9.6,0h2.4v6.3H167Zm2.4-74.7H167V39h2.4ZM167,37.4V35.2h2.4v2.2Zm5.1-5.9v2.1H171V31.5Zm-2.7,0v2.1H167V31.5Zm-4.1,2.1h-8V31.5h8Zm-6.5-3.8h-5.5V23.3h5.4Zm-18.1-6.5h2.7v6.5h-2.7V23.3Zm4.3,0h6.7v6.5H145Zm10.8-12.8V21.6h-2.4V10.5Zm-4.1,0V21.6H145V10.5Zm-8.3,0V21.6h-2.7V10.5Zm-2.7,139.1V31.4h2.7V149.6Zm4.3,0V31.4h10.7v2.1h-4v3.7h-4v1.7h0V149.6Zm4.4,0V39h2.3v6.9h0v1.7h0v7.3h0v1.6h0v6.1h0v1.6h0v7h0v1.6h0v6.3h0v1.6h0v6.1h0v1.6h0v6.5h0v1.6h0V103h0v1.7h0V111h0v1.6h0v6.5h0v1.6h0v6.2h0v1.7h0v21.2h-2.3Zm3.9,0V128.3h2.5v21.3Zm4,0V128.3h8v21.3Zm9.6,0V128.3h2.5v21.3Zm4.1,0V39h1.8V149.6Zm3.4,0V60.9h2.3v88.7Zm3.9,0V60.9h2.5v76.9h-1.4v1.6h1.5v5.8h-1.5v1.7h1.5v2.8h-2.6Zm4.1,0v-2.8h3.1v2.8Zm4.7,0v-2.8H193v2.8Zm13.1,0h-5.6v-2.8h9.6v2.8Zm5.6,0v-2.8h5.9v2.8Zm7.5,0v-2.8h3.1v2.8Zm4.7,0v-2.8h2.6v2.8Zm4.1,0V60.9h2.3v88.7Zm4,0V39h1.8V149.6Zm3.3,0V128.3h2.5v21.3Zm4.1,0V128.3h8v21.3Zm9.6,0V128.3h2.4v21.3Zm4,0V128.3h0v-1.6h0v-6.3h0v-1.6h0v-6.4h0v-1.5h0v-6.4h0v-1.7h0V96.3h0V94.7h0V88.2h0V86.6h0V80.5h0V79.1h0V72.8h0V71.1h0V64.2h0V62.6h0V56.5h0V54.8h0V47.5h0V45.9h0V39h2.4V149.6Zm4,0V39h0V37.4h-4V33.6h-4V31.5h10.6V149.6Zm4.3,0V31.4h2.7V149.6Z" style="fill:#fff"/><path d="M62,167.8a2.9,2.9,0,0,0-.2.9c0,.3.2.3,1.1.3h.4v.8H58V169h.1c.9,0,1.1-.1,1.2-.6l.2-.6,1.6-6c0-.2.1-.5.1-.8s-.1-.4-1.1-.4h-.1v-.7h4.3a5,5,0,0,1,3.1.6,2.5,2.5,0,0,1,1,2,3,3,0,0,1-1.7,2.6,8.5,8.5,0,0,1-3.2.4H62.6Zm1.5-3a2.6,2.6,0,0,0,1.7-.5,3.1,3.1,0,0,0,.9-2.2,1.3,1.3,0,0,0-1.1-1.5h-.4c-.6,0-.7.1-.9.8l-.9,3.4Z" style="fill:#fff"/><path d="M78.9,163.7h-.7v-.8c0-1.4-.6-2.2-1.6-2.2s-.4,0-.6.6l-1.7,6.6a1.9,1.9,0,0,0-.2.8c0,.3.2.4,1.1.4h.3v.7H70V169h.4l1-.2c.1-.1.1-.1.3-1l1.8-6.6c0-.2.1-.3.1-.4s-.2-.2-.4-.2-2,.9-3,3.2l-.6-.3,1-3.6h8.8Z" style="fill:#fff"/><path d="M80.8,168.8a1.2,1.2,0,0,1-1.2,1.2,1.2,1.2,0,0,1,0-2.4h0A1.2,1.2,0,0,1,80.8,168.8Z" style="fill:#fff"/><path d="M96.3,163.2h-.7a4.7,4.7,0,0,0-.3-1.7,1.8,1.8,0,0,0-1.9-.9h-.5c-.5,0-.7.1-.8.7l-.8,3h.3a2.1,2.1,0,0,0,2.2-1.7h.8l-1.3,4.6h-.7c0-.3.1-.6.1-.9s-.4-1.3-1.3-1.3h-.3l-.8,2.8a2.8,2.8,0,0,0-.1.9c0,.3.1.3,1,.3h.4v.8H86.4V169h0c1,0,1.1-.1,1.2-.6l.2-.6,1.6-6c.1-.2.1-.5.2-.8s-.2-.4-1.1-.4h-.3v-.7h8.4Z" style="fill:#fff"/><path d="M96.4,169.8V169h.1c.6,0,.9,0,1-.2s.1-.1.4-1l1.6-5.9c.1-.3.1-.6.2-.9s-.2-.4-1.1-.4h-.3v-.7h5.1v.7h-.1a1.6,1.6,0,0,0-1,.2,3.9,3.9,0,0,0-.4,1l-1.6,6a2.8,2.8,0,0,0-.1.9c0,.3.1.3,1,.3h.3v.8Z" style="fill:#fff"/><path d="M106.9,167.8a2.9,2.9,0,0,0-.2.9c0,.3.2.3,1.1.3h.3v.8h-5.1V169h.1c.5,0,.9,0,1-.2s.1-.1.3-1l1.6-5.9a2.9,2.9,0,0,0,.2-.9c0-.3-.2-.4-1.1-.4h-.2v-.7h4.7a7,7,0,0,1,2.9.4,2.1,2.1,0,0,1,1.1,1.9q0,2.4-3.9,2.7a2.7,2.7,0,0,1,1.4.7,2.6,2.6,0,0,1,.5,1.7v.4c0,.9,0,.9.1,1a.2.2,0,0,0,.2.2c.3,0,.6-.3.8-.8l.2-.5.6.2c-.5,1.4-1.2,2.1-2.4,2.1a1.9,1.9,0,0,1-2-1.7V168a5.3,5.3,0,0,1,.1-1.2c0-.3.1-.5.1-.8s-.5-1.1-1.4-1.1h-.4Zm1.4-3.6c1.2,0,1.6,0,2-.4a2.1,2.1,0,0,0,.9-1.8c0-.9-.5-1.4-1.5-1.4h-.3c-.5,0-.6.1-.8.5l-.8,3.1Z" style="fill:#fff"/><path d="M123.3,163.6l-.7-.2a4.5,4.5,0,0,0-.3-1.6,2.7,2.7,0,0,0-2.3-1.4c-1.2,0-2,.6-2,1.5a1.4,1.4,0,0,0,.5,1l1.1.5,2.3,1a2.8,2.8,0,0,1,1.3,2.3c0,2-1.7,3.3-4,3.3a3.8,3.8,0,0,1-3-1.1l-.8.9h-.6l.7-3.9h.7v.2a2.7,2.7,0,0,0,2.5,3h.4c1.3,0,2.2-.6,2.2-1.5s-.5-1.2-2.4-1.8a7.5,7.5,0,0,1-2-1,2.3,2.3,0,0,1-.7-1.9,3.3,3.3,0,0,1,3.5-3.3h.1a3.4,3.4,0,0,1,2.7,1l.8-.8h.6Z" style="fill:#fff"/><path d="M134.2,163.7h-.7v-.8c0-1.4-.6-2.2-1.6-2.2s-.5,0-.6.6l-1.8,6.6a1.9,1.9,0,0,0-.2.8c0,.3.2.4,1.1.4h.4v.7h-5.5V169h.4a1.6,1.6,0,0,0,1-.2c.1-.1.1-.1.4-1l1.7-6.6a.8.8,0,0,0,.1-.4c0-.1-.1-.2-.4-.2s-2,.9-3,3.2l-.7-.3,1-3.6h8.9Z" style="fill:#fff"/><path d="M143.7,159.9h5.1v.7h0a2.2,2.2,0,0,0-1.1.2c-.1.1-.1.1-.3,1l-1.1,4.2a9.7,9.7,0,0,1-.8,2.2,3.2,3.2,0,0,1-3.3,1.7c-2.1,0-3.2-.9-3.2-2.5a1.9,1.9,0,0,1,1.7-2.2h.1a1.4,1.4,0,0,1,1.5,1.2v.2a1.2,1.2,0,0,1-1.2,1.2h-.6l-.3-.2a.4.4,0,0,0-.3.4,1.4,1.4,0,0,0,1.5,1.2h0a2.1,2.1,0,0,0,1.7-1,6.8,6.8,0,0,0,.7-2l1.2-4.3c0-.3.1-.6.1-.9s-.1-.3-1-.3h-.4Z" style="fill:#fff"/><path d="M156.3,168.2c.1.6.4.8,1.2.8h.2v.8h-5.1V169h.2a1.4,1.4,0,0,0,.9-.1c.1,0,.2-.2.2-.3v-.4l-.3-1.5h-3.2l-.6,1.2a.8.8,0,0,0-.2.5c0,.4.4.6,1.1.6h.2v.8h-3.9V169h.1a2.3,2.3,0,0,0,1.8-1.4l4.7-7.9h.9Zm-3.5-5.5-1.9,3.3h2.5Z" style="fill:#fff"/><path d="M166.3,161.5c.3-.2.4-.4.4-.5a.5.5,0,0,0-.5-.4h-.5v-.7h4.1v.7a3.2,3.2,0,0,0-2.4,1.1l-2.2,2.1,2,4.2c.4,1,.5,1,1.5,1h.2v.7h-5.2V169h.4c.7,0,.8-.1.8-.3s0-.1-.1-.4l-1.4-3-1.2,1.1-.3,1.4a1.9,1.9,0,0,0-.2.8c0,.3.2.4,1.1.4h.1v.7h-4.9V169h.1a2,2,0,0,0,1-.2c.1-.1.1-.1.3-1.1l1.6-5.9a2.9,2.9,0,0,0,.2-.9c0-.3-.2-.3-1.1-.3h-.2v-.8h5.1v.8h-.2c-.5,0-.9,0-1,.2a6.2,6.2,0,0,0-.3,1l-.9,3.1Z" style="fill:#fff"/><path d="M177.9,168.2c.2.6.4.8,1.3.8h.1v.8h-5.2V169h.2a1.3,1.3,0,0,0,.9-.1.3.3,0,0,0,.3-.3c0-.2,0-.3-.1-.4l-.2-1.5h-3.2l-.7,1.2a.7.7,0,0,0-.1.5c0,.4.3.6,1.1.6h.1v.8h-3.9V169h.1a2.2,2.2,0,0,0,1.8-1.4l4.8-7.9h.8Zm-3.5-5.5-1.9,3.3h2.6Z" style="fill:#fff"/><path d="M183.5,167.8c-.1.3-.1.6-.2.9s.2.3,1.1.3h.4v.8h-5.2V169h.1c.6,0,.9,0,1-.2s.1-.1.4-1l1.6-5.9c0-.3.1-.6.1-.9s-.1-.4-1-.4h-.3v-.7h4.8a7.5,7.5,0,0,1,2.9.4,2.4,2.4,0,0,1,1.1,1.9c0,1.6-1.4,2.5-4,2.7a2.7,2.7,0,0,1,1.4.7,2.2,2.2,0,0,1,.5,1.7v.4c0,.9,0,.9.1,1l.3.2c.2,0,.5-.3.7-.8s.1-.2.2-.5l.6.2a2.4,2.4,0,0,1-2.4,2.1,1.9,1.9,0,0,1-2-1.7V168a5.3,5.3,0,0,1,.1-1.2,2.2,2.2,0,0,0,.1-.8c0-.7-.5-1.1-1.4-1.1h-.4Zm1.4-3.6c1.3,0,1.6,0,2-.4a2.1,2.1,0,0,0,.9-1.8,1.3,1.3,0,0,0-1.4-1.4H186c-.5,0-.6.1-.7.5l-.9,3.1Z" style="fill:#fff"/><path d="M201,163.7h-.7v-.8c0-1.4-.6-2.2-1.6-2.2s-.5,0-.6.6l-1.8,6.6c-.1.2-.1.5-.2.8s.2.4,1.1.4h.4v.7H192V169h.4a1.6,1.6,0,0,0,1-.2c.1-.1.1-.1.4-1l1.7-6.6a.8.8,0,0,0,.1-.4c0-.1-.1-.2-.4-.2s-2,.9-2.9,3.2l-.7-.3,1-3.6h8.9Z" style="fill:#fff"/><path d="M209.1,168.2c.1.6.4.8,1.2.8h.2v.8h-5.1V169h.2a1.4,1.4,0,0,0,.9-.1c.2,0,.2-.2.3-.3a.8.8,0,0,1-.1-.4l-.3-1.5h-3.2l-.6,1.2a.8.8,0,0,0-.2.5c0,.4.4.6,1.1.6h.2v.8h-3.9V169h.1a2.3,2.3,0,0,0,1.8-1.4l4.8-7.9h.8Zm-3.5-5.5-1.9,3.3h2.5Z" style="fill:#fff"/><path d="M215.1,169.8V169h.1c.5,0,.9,0,1-.2s.1-.1.3-1l1.6-5.9a2.9,2.9,0,0,0,.2-.9c0-.3-.2-.4-1.1-.4H217v-.7h5.1v.7h0a2,2,0,0,0-1.1.2,3.9,3.9,0,0,0-.4,1l-1.6,6a2.8,2.8,0,0,0-.1.9c0,.3.1.3,1,.3h.3v.8Z" style="fill:#fff"/><path d="M230.6,166.8l1.1-4,.3-1.5c0-.5-.5-.7-1.3-.7v-.8h3.8v.8a2,2,0,0,0-1.1.3c-.4.4-.4.5-.8,1.9l-1.9,7.1h-1.1l-4.1-7.7-1.2,4.6a3.2,3.2,0,0,0-.3,1.4c0,.5.4.8,1.2.8h.1v.7h-3.9V169a1.5,1.5,0,0,0,1.1-.4c.4-.3.5-.4.9-1.8l1.5-5.8a.7.7,0,0,0-.8-.4h-.8v-.8h3.5Z" style="fill:#fff"/><path d="M244,163.7h-.7v-.8c0-1.4-.6-2.2-1.6-2.2s-.5,0-.6.6l-1.8,6.6c-.1.2-.1.5-.2.8s.2.4,1.1.4h.4v.7h-5.4V169h.4l1-.2c.1-.1.1-.1.3-1l1.8-6.6a.8.8,0,0,0,.1-.4c0-.1-.2-.2-.4-.2s-2,.9-2.9,3.2l-.7-.3,1-3.6h8.8Z" style="fill:#fff"/><path d="M253.9,163.2h-.7a2.5,2.5,0,0,0-.3-1.7,1.7,1.7,0,0,0-1.8-.9h-.6c-.5,0-.7.1-.8.7l-.8,3h.3a2.1,2.1,0,0,0,2.2-1.7h.8l-1.3,4.6h-.7c0-.3.1-.6.1-.9a1.2,1.2,0,0,0-1-1.3h-.6l-.9,3.2c0,.2-.1.3-.1.5s.2.3.8.3h.5a3.6,3.6,0,0,0,2.7-1.2,4.8,4.8,0,0,0,1.2-1.6l.8.2-.9,3.4h-8.9V169h.1c.9,0,1.1-.1,1.3-.6v-.6l1.6-6a1.9,1.9,0,0,0,.2-.8c0-.3-.2-.4-1.1-.4h-.3l.2-.7h8.4Z" style="fill:#fff"/><path d="M258.5,167.8a2.9,2.9,0,0,0-.2.9c0,.3.2.3,1.1.3h.3v.8h-5.1V169h.1c.5,0,.9,0,1-.2s.1-.1.3-1l1.6-5.9a2.9,2.9,0,0,0,.2-.9c0-.3-.2-.4-1.1-.4h-.2v-.7h4.7a7,7,0,0,1,2.9.4,2.1,2.1,0,0,1,1.1,1.9q0,2.4-3.9,2.7a2.7,2.7,0,0,1,1.4.7,2.6,2.6,0,0,1,.5,1.7v.4c0,.9,0,.9.1,1a.2.2,0,0,0,.2.2c.3,0,.6-.3.8-.8l.2-.5.6.2c-.5,1.4-1.2,2.1-2.4,2.1a1.9,1.9,0,0,1-2-1.7V168a4.9,4.9,0,0,1,.1-1.2c0-.3.1-.5.1-.8s-.5-1.1-1.4-1.1h-.4Zm1.4-3.6c1.2,0,1.6,0,2-.4a2.1,2.1,0,0,0,.9-1.8c0-.9-.5-1.4-1.5-1.4H261c-.5,0-.6.1-.7.5l-.9,3.1Z" style="fill:#fff"/><path d="M274.9,166.8l1-4a4,4,0,0,0,.3-1.5c0-.5-.4-.7-1.2-.7v-.8h3.8v.8a2,2,0,0,0-1.1.3c-.4.4-.4.5-.9,1.9l-1.9,7.1h-1.1l-4-7.7-1.2,4.6a3.2,3.2,0,0,0-.3,1.4c0,.5.4.8,1.2.8h.2v.7h-3.9V169a1.7,1.7,0,0,0,1.1-.4c.4-.3.4-.4.8-1.8l1.5-5.8a.6.6,0,0,0-.8-.4h-.7v-.8h3.4Z" style="fill:#fff"/><path d="M286.4,168.2c.2.6.4.8,1.2.8h.2v.8h-5.1V169h.2a1.4,1.4,0,0,0,.9-.1.3.3,0,0,0,.3-.3c0-.2-.1-.3-.1-.4l-.3-1.5h-3.1l-.7,1.2c-.1.1-.1.3-.2.5s.4.6,1.2.6h.1v.8H277V169h.1a2.2,2.2,0,0,0,1.8-1.4l4.8-7.9h.8Zm-3.5-5.5L281,166h2.6Z" style="fill:#fff"/><path d="M298.3,163.7h-.8v-.8c0-1.4-.5-2.2-1.6-2.2s-.4,0-.6.6l-1.7,6.6a1.9,1.9,0,0,0-.2.8c0,.3.2.4,1.1.4h.3v.7h-5.4V169h.4l1-.2a6.2,6.2,0,0,0,.3-1l1.8-6.6c0-.2,0-.3.1-.4s-.2-.2-.4-.2-2,.9-3,3.2l-.7-.3,1-3.6h8.9Z" style="fill:#fff"/><path d="M298.2,169.8V169h.1c.5,0,.9,0,1-.2s.1-.1.3-1l1.6-5.9a2.9,2.9,0,0,0,.2-.9c0-.3-.2-.4-1.1-.4h-.3v-.7h5.2v.7h-.1a2.3,2.3,0,0,0-1.1.2c-.1.2-.1.1-.3,1l-1.6,6a2.9,2.9,0,0,0-.2.9c0,.3.2.3,1.1.3h.3l-.2.8Z" style="fill:#fff"/><path d="M315,160.9a4.3,4.3,0,0,1,1.1,2.8,6.4,6.4,0,0,1-6.2,6.3,4,4,0,0,1-4.2-3.6v-.6a6.3,6.3,0,0,1,1.9-4.4,5.9,5.9,0,0,1,4.3-1.7A3.9,3.9,0,0,1,315,160.9Zm-5.7,1.6a10.7,10.7,0,0,0-1.1,4.6c0,1.3.6,2.1,1.7,2.1s1.9-.7,2.6-2.1a10,10,0,0,0,1.1-4.5,2.8,2.8,0,0,0-.4-1.5,1.7,1.7,0,0,0-1.3-.7c-1,0-1.8.7-2.6,2.1Z" style="fill:#fff"/><path d="M325.5,166.8l1.1-4a4,4,0,0,0,.3-1.5c0-.5-.4-.7-1.2-.7v-.8h3.8v.8a2.4,2.4,0,0,0-1.2.3,4.3,4.3,0,0,0-.8,1.9l-1.9,7.1h-1.1l-4-7.7-1.3,4.6-.3,1.4c0,.5.4.8,1.2.8h.2v.7h-3.9V169a1.5,1.5,0,0,0,1.1-.4c.4-.3.4-.4.8-1.8l1.6-5.8a.8.8,0,0,0-.9-.4h-.7v-.8h3.5Z" style="fill:#fff"/><path d="M337.1,168.2c.1.6.4.8,1.2.8h.2v.8h-5.1V169h.2a1.4,1.4,0,0,0,.9-.1c.1,0,.2-.2.2-.3v-.4l-.3-1.5h-3.2l-.6,1.1a1.4,1.4,0,0,0-.2.6c0,.4.3.6,1.1.6h.2v.7h-3.9V169h0a3,3,0,0,0,1.9-1.4l4.7-8h.9Zm-3.5-5.5-1.9,3.3h2.5Z" style="fill:#fff"/><path d="M348.4,166.3l-.9,3.5h-8.8V169h0a1.4,1.4,0,0,0,1.1-.2c.1-.1.1-.1.4-1l1.6-5.9c0-.3.1-.6.1-.9s-.2-.4-1-.4h-.3v-.7H346v.7h-.2c-.6,0-1,.1-1,.2a2.5,2.5,0,0,0-.4,1l-1.6,6a2.9,2.9,0,0,0-.2.9c0,.2.2.3.7.3h.5a3.6,3.6,0,0,0,2.8-1.2,5.2,5.2,0,0,0,1.2-1.7Z" style="fill:#fff"/><path d="M2.9,193.7a5.8,5.8,0,0,1-2.1-2,5.7,5.7,0,0,1,0-5.9,5.3,5.3,0,0,1,2.1-2.1A6.7,6.7,0,0,1,6,183a6.3,6.3,0,0,1,3,.7,5.3,5.3,0,0,1,2.1,2.1,5.5,5.5,0,0,1,0,5.8A5.3,5.3,0,0,1,9,193.7a6.4,6.4,0,0,1-3,.8A6.8,6.8,0,0,1,2.9,193.7Zm5.3-1.2a3.9,3.9,0,0,0,1.5-1.6A4.3,4.3,0,0,0,8.2,185a4.3,4.3,0,0,0-4.4,0,3.9,3.9,0,0,0-1.6,1.5,4.3,4.3,0,0,0,0,4.4,3.3,3.3,0,0,0,1.6,1.5,4.3,4.3,0,0,0,4.4,0Z" style="fill:#fff"/><path d="M27,185.8l-3.2,8.5H22.4l-2.5-6.4-2.5,6.4H16l-3.1-8.5h1.4l2.5,6.8,2.5-6.8h1.3l2.5,6.8,2.6-6.8Z" style="fill:#fff"/><path d="M35.7,186.7a3.6,3.6,0,0,1,1,2.8v4.8H35.1v-4.7a2.1,2.1,0,0,0-.6-1.8,1.8,1.8,0,0,0-1.7-.6,2.6,2.6,0,0,0-2,.7,3.1,3.1,0,0,0-.7,2.1v4.3H28.6v-8.4h1.5v1.2a4,4,0,0,1,1.2-1l1.8-.3A3.5,3.5,0,0,1,35.7,186.7Z" style="fill:#fff"/><path d="M47.2,190.6H40.4a2.4,2.4,0,0,0,1,1.8,3.5,3.5,0,0,0,2,.7,3.6,3.6,0,0,0,2.5-1l.8,1a5,5,0,0,1-1.4,1,6.3,6.3,0,0,1-1.9.3,6.4,6.4,0,0,1-2.4-.5,4.1,4.1,0,0,1-1.6-1.6,4.3,4.3,0,0,1-.6-2.2,4.6,4.6,0,0,1,.6-2.3,4.3,4.3,0,0,1,1.5-1.5,4.9,4.9,0,0,1,4.4,0,4,4,0,0,1,1.4,1.5,4.6,4.6,0,0,1,.6,2.3A1.1,1.1,0,0,1,47.2,190.6Zm-6-2.9a2.5,2.5,0,0,0-.8,1.8h5.4a3.1,3.1,0,0,0-.9-1.8A2.9,2.9,0,0,0,41.2,187.7Z" style="fill:#fff"/><path d="M52.1,186.1a4.1,4.1,0,0,1,1.9-.4v1.5h-.3a2.7,2.7,0,0,0-2,.7,3,3,0,0,0-.8,2.2v4.2H49.4v-8.5h1.5v1.4A3.2,3.2,0,0,1,52.1,186.1Z" style="fill:#fff"/><path d="M61.8,193.8a3.9,3.9,0,0,1-1.6-1.5,4.5,4.5,0,0,1,0-4.5,3.9,3.9,0,0,1,1.6-1.5,5.1,5.1,0,0,1,4.5,0,4.6,4.6,0,0,1,1.6,1.5,5.1,5.1,0,0,1,0,4.5,3.9,3.9,0,0,1-1.6,1.5A4.5,4.5,0,0,1,61.8,193.8Zm3.7-1.1a2.4,2.4,0,0,0,1-1,3.1,3.1,0,0,0-1-4.2,3.7,3.7,0,0,0-1.5-.3,3,3,0,0,0-2.4,4.5,1.9,1.9,0,0,0,1,1,2.3,2.3,0,0,0,1.4.4A2.6,2.6,0,0,0,65.5,192.7Z" style="fill:#fff"/><path d="M72.3,185.1v.7h2.5v1.3H72.4v7.2H70.8v-7.2H69.4v-1.3h1.4v-.7a2.8,2.8,0,0,1,.8-2,3,3,0,0,1,2-.8l1,.2a1.9,1.9,0,0,1,.8.3l-.5,1.2a1.5,1.5,0,0,0-1.1-.4A1.3,1.3,0,0,0,72.3,185.1Z" style="fill:#fff"/><path d="M85.4,193.8a1.2,1.2,0,0,1-.8.4l-1,.2a2.9,2.9,0,0,1-2-.7,2.5,2.5,0,0,1-.7-2v-4.6H79.4v-1.3h1.5v-1.9h1.5v1.9h2.5v1.3H82.4v4.6a1.5,1.5,0,0,0,.4,1.1,1.1,1.1,0,0,0,1,.3,1.5,1.5,0,0,0,1.2-.4Z" style="fill:#fff"/><path d="M94.4,186.7a3.6,3.6,0,0,1,1,2.8v4.8H93.8v-4.7a2.4,2.4,0,0,0-.5-1.8,1.9,1.9,0,0,0-1.7-.6,2.4,2.4,0,0,0-2,.7,2.8,2.8,0,0,0-.8,2.1v4.3H87.3V182.4h1.6V187a2.7,2.7,0,0,1,1.2-.9,3.8,3.8,0,0,1,4.3.6Z" style="fill:#fff"/><path d="M106,190.6H99.1a2.4,2.4,0,0,0,1,1.8,3.8,3.8,0,0,0,2.1.7,3.5,3.5,0,0,0,2.4-1l.9,1a5.6,5.6,0,0,1-1.5,1,5.8,5.8,0,0,1-1.9.3,6.9,6.9,0,0,1-2.4-.5,4.9,4.9,0,0,1-1.6-1.6,3.4,3.4,0,0,1-.5-2.2,3.7,3.7,0,0,1,.5-2.3,5.4,5.4,0,0,1,1.5-1.5,4.9,4.9,0,0,1,4.4,0,5.4,5.4,0,0,1,1.5,1.5,5.9,5.9,0,0,1,.5,2.3Zm-6-2.9a3.1,3.1,0,0,0-.9,1.8h5.5a3.1,3.1,0,0,0-.9-1.8A2.9,2.9,0,0,0,100,187.7Z" style="fill:#fff"/><path d="M112.7,183.1h1.6v11.2h-1.6Z" style="fill:#fff"/><path d="M124.6,186.7a3.6,3.6,0,0,1,1,2.8v4.8H124v-4.7a2.5,2.5,0,0,0-.6-1.8,1.8,1.8,0,0,0-1.7-.6,2.5,2.5,0,0,0-2,.7,2.7,2.7,0,0,0-.7,2.1v4.3h-1.5v-8.4H119v1.2a4.5,4.5,0,0,1,1.3-1,4.8,4.8,0,0,1,1.8-.3A3.4,3.4,0,0,1,124.6,186.7Z" style="fill:#fff"/><path d="M136.5,182.4v11.9H135V193a3.2,3.2,0,0,1-1.3,1,3.3,3.3,0,0,1-1.7.4,5.1,5.1,0,0,1-2.2-.5,4.1,4.1,0,0,1-1.6-1.6,5.1,5.1,0,0,1,0-4.5,3.9,3.9,0,0,1,1.6-1.5,4.3,4.3,0,0,1,2.2-.6,3.3,3.3,0,0,1,1.7.4,3.1,3.1,0,0,1,1.3,1v-4.7Zm-2.9,10.3a2.4,2.4,0,0,0,1-1,3.1,3.1,0,0,0-1-4.2,3.7,3.7,0,0,0-2.9,0,3.2,3.2,0,0,0-1,4.2,2.4,2.4,0,0,0,1,1A3,3,0,0,0,133.6,192.7Z" style="fill:#fff"/><path d="M140.8,193.8a3.6,3.6,0,0,1-1.5-1.5,4.5,4.5,0,0,1,0-4.5,3.6,3.6,0,0,1,1.5-1.5,5.3,5.3,0,0,1,4.6,0,4.3,4.3,0,0,1,1.5,1.5,4.5,4.5,0,0,1,0,4.5,3.6,3.6,0,0,1-1.5,1.5A4.7,4.7,0,0,1,140.8,193.8Zm3.8-1.1a3.6,3.6,0,0,0,1-1.1,2.7,2.7,0,0,0,.3-1.5,2.9,2.9,0,0,0-.3-1.6,3.2,3.2,0,0,0-1-1,3,3,0,0,0-3,0,3.2,3.2,0,0,0-1,1,4.1,4.1,0,0,0-.3,1.6,4,4,0,0,0,.3,1.5,3.6,3.6,0,0,0,1,1.1,4.2,4.2,0,0,0,1.5.4,2.8,2.8,0,0,0,1.5-.4Z" style="fill:#fff"/><path d="M156.8,186.7a4,4,0,0,1,1,2.8v4.8h-1.6v-4.7a2.1,2.1,0,0,0-.6-1.8,1.8,1.8,0,0,0-1.7-.6,2.6,2.6,0,0,0-2,.7,3.1,3.1,0,0,0-.7,2.1v4.3h-1.5v-8.4h1.5v1.2a4,4,0,0,1,1.2-1l1.8-.3A3.5,3.5,0,0,1,156.8,186.7Z" style="fill:#fff"/><path d="M168.3,190.6h-6.9a3.2,3.2,0,0,0,1,1.8,3.8,3.8,0,0,0,2.1.7,3.9,3.9,0,0,0,2.5-1l.8,1a7.1,7.1,0,0,1-1.4,1,6.3,6.3,0,0,1-1.9.3,6,6,0,0,1-2.4-.5,3.5,3.5,0,0,1-1.6-1.6,4.5,4.5,0,0,1,0-4.5,3.6,3.6,0,0,1,1.5-1.5,3.3,3.3,0,0,1,2.2-.5,3.1,3.1,0,0,1,2.1.5,3.6,3.6,0,0,1,1.5,1.5,4.6,4.6,0,0,1,.6,2.3A.7.7,0,0,0,168.3,190.6Zm-6-2.9a3.1,3.1,0,0,0-.9,1.8h5.5a3.1,3.1,0,0,0-.9-1.8A2.9,2.9,0,0,0,162.3,187.7Z" style="fill:#fff"/><path d="M170.9,194.1a5.1,5.1,0,0,1-1.5-.7l.7-1.2a3.8,3.8,0,0,0,1.3.6,5.1,5.1,0,0,0,1.7.3c1.3,0,2-.4,2-1.2a.9.9,0,0,0-.3-.6l-.7-.3-1.2-.2-1.6-.4a3,3,0,0,1-1.1-.7,1.9,1.9,0,0,1-.5-1.4,2.3,2.3,0,0,1,1-1.9,4.8,4.8,0,0,1,2.6-.7l1.7.3a3.9,3.9,0,0,1,1.4.5l-.7,1.2a4.1,4.1,0,0,0-2.4-.6,1.9,1.9,0,0,0-1.5.3.9.9,0,0,0-.5.8.6.6,0,0,0,.2.7,1.9,1.9,0,0,0,.8.3l1.1.3,1.7.4a2.4,2.4,0,0,1,1.1.6,1.8,1.8,0,0,1,.4,1.4,2,2,0,0,1-1,1.8,4.8,4.8,0,0,1-2.6.7A7.6,7.6,0,0,1,170.9,194.1Z" style="fill:#fff"/><path d="M178.6,183.9a1,1,0,0,1,0-1.4,1.1,1.1,0,0,1,.7-.3,1.1,1.1,0,0,1,.8.3.9.9,0,0,1,.3.7,1.1,1.1,0,0,1-1.1,1A.9.9,0,0,1,178.6,183.9Zm0,1.9h1.5v8.5h-1.5Z" style="fill:#fff"/><path d="M188.9,186.6a3.5,3.5,0,0,1,.9,2.6v5.1h-1.4v-1.1a3.1,3.1,0,0,1-1.1.9l-1.7.3a3.9,3.9,0,0,1-2.3-.7,2.3,2.3,0,0,1,0-3.6,3.7,3.7,0,0,1,2.5-.7h2.5v-.3a2,2,0,0,0-.6-1.5,2.2,2.2,0,0,0-1.7-.5l-1.5.2-1.2.7-.6-1.2,1.5-.8a6.9,6.9,0,0,1,2-.3A4.6,4.6,0,0,1,188.9,186.6Zm-1.6,6.2a1.8,1.8,0,0,0,1-1.1v-1.2h-2.4c-1.3,0-2,.5-2,1.3a1.2,1.2,0,0,0,.5,1,2.3,2.3,0,0,0,1.4.4A2.6,2.6,0,0,0,187.3,192.8Z" style="fill:#fff"/><path d="M198.1,194a4,4,0,0,1-1.8-1l.6-1.2a4.2,4.2,0,0,0,1.6.9,4.5,4.5,0,0,0,2,.4,4.1,4.1,0,0,0,2.1-.5,1.5,1.5,0,0,0,.7-1.2,1.8,1.8,0,0,0-.4-1l-.9-.5-1.6-.5a7.6,7.6,0,0,1-2-.6,3,3,0,0,1-1.3-.9,2.7,2.7,0,0,1-.6-1.7,2.8,2.8,0,0,1,.5-1.6,3.3,3.3,0,0,1,1.4-1.2,6.7,6.7,0,0,1,2.4-.4l2,.2a4.8,4.8,0,0,1,1.6.8l-.5,1.3a6.6,6.6,0,0,0-3.1-1,4.6,4.6,0,0,0-2,.5,1.6,1.6,0,0,0-.6,1.3,1,1,0,0,0,.4,1,2.3,2.3,0,0,0,1,.5l1.5.4,2,.6,1.3,1a2.4,2.4,0,0,1,.6,1.7,3.3,3.3,0,0,1-.5,1.6A3.3,3.3,0,0,1,203,194a4.9,4.9,0,0,1-2.4.4A7.3,7.3,0,0,1,198.1,194Z" style="fill:#fff"/><path d="M211.8,193.8a1.2,1.2,0,0,1-.8.4l-1,.2a2.7,2.7,0,0,1-2-.7,2.4,2.4,0,0,1-.7-2v-4.6h-1.5v-1.3h1.5v-1.9h1.5v1.9h2.4v1.3h-2.4v4.6a2,2,0,0,0,.3,1.1,1.3,1.3,0,0,0,1,.3,1.6,1.6,0,0,0,1.2-.4Z" style="fill:#fff"/><path d="M214.8,193.8a3.9,3.9,0,0,1-1.6-1.5,5.1,5.1,0,0,1,0-4.5,3.9,3.9,0,0,1,1.6-1.5,5.1,5.1,0,0,1,4.5,0,4.6,4.6,0,0,1,1.6,1.5,5.1,5.1,0,0,1,0,4.5,3.9,3.9,0,0,1-1.6,1.5A4.5,4.5,0,0,1,214.8,193.8Zm3.7-1.1a2.7,2.7,0,0,0,1-1.1,2.8,2.8,0,0,0,.4-1.5,2.9,2.9,0,0,0-.4-1.6,2.4,2.4,0,0,0-1-1,3,3,0,0,0-2.9,0,2.4,2.4,0,0,0-1,1,2.9,2.9,0,0,0-.4,1.6,2.8,2.8,0,0,0,.4,1.5,2.7,2.7,0,0,0,1,1.1A3,3,0,0,0,218.5,192.7Z" style="fill:#fff"/><path d="M225,193.8a3.9,3.9,0,0,1-1.6-1.5,5.1,5.1,0,0,1,0-4.5,4.6,4.6,0,0,1,3.9-2.1,4.6,4.6,0,0,1,2,.5,3.2,3.2,0,0,1,1.4,1.4l-1.1.7a2.8,2.8,0,0,0-1-.9,3.5,3.5,0,0,0-1.4-.3,2.8,2.8,0,0,0-1.5.4,2.4,2.4,0,0,0-1,1,3.7,3.7,0,0,0-.3,1.5,4.1,4.1,0,0,0,.3,1.6,3.2,3.2,0,0,0,1,1,2.8,2.8,0,0,0,1.5.4,3.5,3.5,0,0,0,1.4-.3,2.8,2.8,0,0,0,1-.9l1.1.7a3.2,3.2,0,0,1-1.4,1.4,3.4,3.4,0,0,1-2,.4A3.7,3.7,0,0,1,225,193.8Z" style="fill:#fff"/><path d="M236,190.4l-1.8,1.6v2.3h-1.5V182.4h1.5V190l4.7-4.2h1.8l-3.5,3.5,3.9,5h-1.9Z" style="fill:#fff"/><path d="M255.3,192.9v1.4h-8.1V183.1h7.9v1.4h-6.3v3.4h5.6v1.4h-5.6v3.6Z" style="fill:#fff"/><path d="M262.9,194.3l-2.4-3.2-2.5,3.2h-1.7l3.4-4.3-3.2-4.2h1.7l2.3,3,2.3-3h1.7l-3.2,4.2,3.4,4.3Z" style="fill:#fff"/><path d="M267.5,193.8a3.9,3.9,0,0,1-1.6-1.5,4.5,4.5,0,0,1,0-4.5,3.9,3.9,0,0,1,1.6-1.5,4.6,4.6,0,0,1,2.3-.6,5.4,5.4,0,0,1,2.1.5,3.2,3.2,0,0,1,1.4,1.4l-1.2.7a2.2,2.2,0,0,0-1-.9,2.8,2.8,0,0,0-1.3-.3,2.8,2.8,0,0,0-1.5.4,1.9,1.9,0,0,0-1,1,2.6,2.6,0,0,0-.4,1.5,2.9,2.9,0,0,0,.4,1.6,2.4,2.4,0,0,0,1,1,2.8,2.8,0,0,0,1.5.4,2.8,2.8,0,0,0,1.3-.3,2.2,2.2,0,0,0,1-.9l1.2.7a3.2,3.2,0,0,1-1.4,1.4,3.9,3.9,0,0,1-2.1.4A3.7,3.7,0,0,1,267.5,193.8Z" style="fill:#fff"/><path d="M282.3,186.7a3.6,3.6,0,0,1,1,2.8v4.8h-1.5v-4.7a3,3,0,0,0-.6-1.8,1.9,1.9,0,0,0-1.7-.6,2.4,2.4,0,0,0-2,.7,2.8,2.8,0,0,0-.8,2.1v4.3h-1.5V182.4h1.5V187a3.8,3.8,0,0,1,1.3-.9,3.3,3.3,0,0,1,1.7-.4A4,4,0,0,1,282.3,186.7Z" style="fill:#fff"/><path d="M291.9,186.6a3.5,3.5,0,0,1,1,2.6v5.1h-1.5v-1.1a2.4,2.4,0,0,1-1.1.9,4.7,4.7,0,0,1-1.7.3,3.9,3.9,0,0,1-2.3-.7,2.3,2.3,0,0,1-.2-3.3l.2-.3a4.1,4.1,0,0,1,2.6-.7h2.5v-.3a2,2,0,0,0-.6-1.5,2.2,2.2,0,0,0-1.7-.5l-1.5.2-1.2.7-.6-1.2,1.5-.8a6.9,6.9,0,0,1,2-.3A4.1,4.1,0,0,1,291.9,186.6Zm-1.5,6.2a2,2,0,0,0,.9-1.1v-1.2H289c-1.3,0-1.9.5-1.9,1.3a1,1,0,0,0,.4,1,2.3,2.3,0,0,0,1.4.4A2.6,2.6,0,0,0,290.4,192.8Z" style="fill:#fff"/><path d="M302.9,186.7a4.5,4.5,0,0,1,1,2.8v4.8h-1.6v-4.7a2.5,2.5,0,0,0-.6-1.8,1.8,1.8,0,0,0-1.7-.6,2.6,2.6,0,0,0-2,.7,2.7,2.7,0,0,0-.7,2.1v4.3h-1.5v-8.4h1.4v1.2l1.3-1,1.8-.3A3.6,3.6,0,0,1,302.9,186.7Z" style="fill:#fff"/><path d="M314.9,185.8v7.4a4.2,4.2,0,0,1-1.1,3.2,4.6,4.6,0,0,1-3.3,1.1,8.5,8.5,0,0,1-2.3-.3,4,4,0,0,1-1.8-1l.8-1.1,1.4.8,1.8.3a3.4,3.4,0,0,0,2.2-.7,2.9,2.9,0,0,0,.7-2.2v-.7a2.6,2.6,0,0,1-1.3,1,3.5,3.5,0,0,1-1.7.4,4.3,4.3,0,0,1-2.2-.6,3.6,3.6,0,0,1-1.6-1.4,4.7,4.7,0,0,1,0-4.3,3.6,3.6,0,0,1,1.6-1.4,3.4,3.4,0,0,1,2.2-.5l1.8.3a3.2,3.2,0,0,1,1.3,1v-1.3Zm-3,6.5a2.4,2.4,0,0,0,1-1,2.8,2.8,0,0,0,.4-1.5,2.3,2.3,0,0,0-.8-2,3.5,3.5,0,0,0-4.2,0,2.3,2.3,0,0,0-.8,2,2.8,2.8,0,0,0,.4,1.5,2.4,2.4,0,0,0,1,1,3.3,3.3,0,0,0,1.5.3,3.7,3.7,0,0,0,1.5-.3Z" style="fill:#fff"/><path d="M325.5,190.6h-6.9a2.7,2.7,0,0,0,1,1.8,3.8,3.8,0,0,0,2.1.7,3.5,3.5,0,0,0,2.4-1l.9,1a5.6,5.6,0,0,1-1.5,1,5.8,5.8,0,0,1-1.9.3,5.9,5.9,0,0,1-2.3-.5,4.4,4.4,0,0,1-1.7-1.6,5.4,5.4,0,0,1-.5-2.2,5.9,5.9,0,0,1,.5-2.3,4.5,4.5,0,0,1,5.9-1.5,5.4,5.4,0,0,1,1.5,1.5,4.6,4.6,0,0,1,.5,2.3Zm-6-2.9a3.1,3.1,0,0,0-.9,1.8H324a3.1,3.1,0,0,0-.9-1.8,2.9,2.9,0,0,0-3.7,0Z" style="fill:#fff"/><path d="M341.3,189.5a2.8,2.8,0,0,1,.6,1.8,2.7,2.7,0,0,1-1.1,2.2,5.3,5.3,0,0,1-3.2.8h-5.3V183.1h5a4.7,4.7,0,0,1,3,.8,2.8,2.8,0,0,1,1,2.1,3.7,3.7,0,0,1-.4,1.5,3.5,3.5,0,0,1-1.1,1A3.1,3.1,0,0,1,341.3,189.5Zm-7.4-5.1V188h3.2a3,3,0,0,0,1.9-.5,1.5,1.5,0,0,0,.3-2.3.5.5,0,0,0-.3-.3,3,3,0,0,0-1.9-.5Zm5.7,8.2a2.1,2.1,0,0,0,.7-1.4c0-1.3-.9-1.9-2.8-1.9h-3.6V193h3.6A3.8,3.8,0,0,0,339.6,192.6Z" style="fill:#fff"/><path d="M352.1,185.8v8.5h-1.5V193a2.3,2.3,0,0,1-1.2,1,3.2,3.2,0,0,1-1.6.4,4.2,4.2,0,0,1-2.7-.9,3.7,3.7,0,0,1-1-2.8v-4.9h1.5v4.7a3.1,3.1,0,0,0,.6,1.9,2.2,2.2,0,0,0,1.7.6,2.6,2.6,0,0,0,1.9-.7,2.7,2.7,0,0,0,.7-2.1v-4.4Z" style="fill:#fff"/><path d="M355.1,183.9a.9.9,0,0,1-.3-.7.9.9,0,0,1,1-1,.9.9,0,0,1,.7.3.8.8,0,0,1,.3.7,1,1,0,0,1-1,1A1.1,1.1,0,0,1,355.1,183.9Zm0,1.9h1.5v8.5h-1.5Z" style="fill:#fff"/><path d="M359.6,182.4h1.5v11.9h-1.5Z" style="fill:#fff"/><path d="M372.1,182.4v11.9h-1.5V193a3.2,3.2,0,0,1-1.3,1,3.3,3.3,0,0,1-1.7.4,5.4,5.4,0,0,1-2.2-.5,3.3,3.3,0,0,1-1.5-1.6,4.5,4.5,0,0,1,0-4.5,3.1,3.1,0,0,1,1.5-1.5,4.3,4.3,0,0,1,2.2-.6,4.7,4.7,0,0,1,1.7.4,3.1,3.1,0,0,1,1.3,1v-4.7Zm-2.9,10.3a2.4,2.4,0,0,0,1-1,4.5,4.5,0,0,0,.3-1.6,3,3,0,0,0-.3-1.6,4.7,4.7,0,0,0-1-1,3.7,3.7,0,0,0-2.9,0,2.4,2.4,0,0,0-1,1,3.4,3.4,0,0,0,0,3.2,1.9,1.9,0,0,0,1,1A3,3,0,0,0,369.2,192.7Z" style="fill:#fff"/><path d="M375.1,183.9a.9.9,0,0,1-.3-.7.9.9,0,0,1,1-1,.9.9,0,0,1,.7.3.8.8,0,0,1,.3.7,1,1,0,0,1-1,1A.9.9,0,0,1,375.1,183.9Zm0,1.9h1.5v8.5h-1.5Z" style="fill:#fff"/><path d="M386.7,186.7a4.1,4.1,0,0,1,.9,2.8v4.8h-1.5v-4.7a3,3,0,0,0-.6-1.8,1.9,1.9,0,0,0-1.7-.6,2.5,2.5,0,0,0-2,.7,2.7,2.7,0,0,0-.7,2.1v4.3h-1.6v-8.4H381v1.2a4.5,4.5,0,0,1,1.3-1,4.8,4.8,0,0,1,1.8-.3A3.6,3.6,0,0,1,386.7,186.7Z" style="fill:#fff"/><path d="M398.7,185.8v7.4a4.2,4.2,0,0,1-1.1,3.2,4.6,4.6,0,0,1-3.3,1.1,8.5,8.5,0,0,1-2.3-.3,4,4,0,0,1-1.8-1l.8-1.1,1.4.8,1.8.3a3.4,3.4,0,0,0,2.2-.7,2.9,2.9,0,0,0,.7-2.2v-.7a2.6,2.6,0,0,1-1.3,1,3.3,3.3,0,0,1-1.7.4,4.3,4.3,0,0,1-2.2-.6,3.6,3.6,0,0,1-1.6-1.4,4.7,4.7,0,0,1,0-4.3,3.6,3.6,0,0,1,1.6-1.4,3.4,3.4,0,0,1,2.2-.5l1.8.3a3.2,3.2,0,0,1,1.3,1v-1.3Zm-2.9,6.5,1-1a4,4,0,0,0,.3-1.5,2.3,2.3,0,0,0-.8-2,3.3,3.3,0,0,0-4.2,0,3,3,0,0,0-.8,2,2.8,2.8,0,0,0,.4,1.5,2.4,2.4,0,0,0,1,1,3.3,3.3,0,0,0,1.5.3A4.5,4.5,0,0,0,395.8,192.3Z" style="fill:#fff"/></svg>