<?xml version="1.0" encoding="utf-8"?>
<!-- Generator: Adobe Illustrator 23.0.0, SVG Export Plug-In . SVG Version: 6.00 Build 0)  -->
<svg version="1.1" id="Layer_1" xmlns="http://www.w3.org/2000/svg" xmlns:xlink="http://www.w3.org/1999/xlink" x="0px" y="0px"
	 viewBox="0 0 398.7 187.8" style="enable-background:new 0 0 398.7 187.8;" xml:space="preserve">
<style type="text/css">
	.st0{fill:#FFFFFF;}
</style>
<title>Logo Bawah_white</title>
<g id="Group_1083">
	<path id="Logo_FJI_OK_08082019" class="st0" d="M259.3,0v8.5h-2.6V0h-1.6v8.5h-6.3V0h-1.6v8.5h-1.4V0h-1.6v8.5h-0.9v12.2h-2.9v1.6
		l0,0v6.3h-4.7v-2.7h-1.6v2.7h-2.3v-2.7h-1.6v2.7h-2.6v7.2H227v0.5l0,0v16.2h-2.2v-3.8h-1.6v3.8h-2.4v-3.8h-1.4v83.1h-3v-3.9h-1.6
		v3.9h-5.6v-3.9h-1.6v3.9h-9.1v-3.9H197v3.9h-5.6v-3.9h-1.5v3.9h-3V48.6h-1.6v3.8h-2.4v-3.8h-1.6v3.8h-2.2V36.2l0,0v-0.5h-0.7v-7.2
		H176v-2.7h-1.6v2.7h-2.3v-2.7h-1.6v2.7h-4.7v-7.8H163V10l0,0V8.5h-1V0h-1.6v8.5H159V0h-1.6v8.5h-6.3V0h-1.6v8.5H147V0h-1.6v144.6
		H261V0H259.3z M256.6,22.2h2.6v6.3h-2.6V22.2z M255.1,28.5h-6.3v-6.3h6.3V28.5z M259.3,10v10.7h-2.6V10H259.3z M255.1,10v10.7h-6.3
		V10H255.1z M244.9,10h2.3v10.7h-2.3V10z M242,22.2h5.2v6.3H242V22.2z M243.3,30.1v2h-7.6v-2H243.3z M234.2,37.3v6.7h-2.3v-6.7
		H234.2z M231.8,35.7v-2.1h2.3v2.1H231.8z M231.8,45.4h2.3v7h-2.3V45.4z M231.8,54h2.3v5.8h-2.3V54z M231.8,61.4h2.3V68h-2.3V61.4z
		 M231.8,69.6h2.3v6.1h-2.3V69.6z M231.8,77.2h2.3V83h-2.3V77.2z M231.8,84.5h2.3v6.2h-2.3V84.5z M231.8,92.2h2.3v6.2h-2.3V92.2z
		 M231.8,100h2.3v6.1h-2.3V100z M231.8,107.6h2.3v6.2h-2.3V107.6z M235.7,107.6h7.6v6.2h-7.6L235.7,107.6z M235.7,106.1V100h7.6v6
		L235.7,106.1z M235.7,98.4v-6.2h7.6v6.2L235.7,98.4z M235.7,90.6v-6.2h7.6v6.2L235.7,90.6z M235.7,83v-5.8h7.6V83L235.7,83z
		 M235.7,75.7v-6.1h7.6v6.1L235.7,75.7z M235.7,68v-6.7h7.6V68L235.7,68z M235.7,59.8V54h7.6v5.8L235.7,59.8z M235.7,52.4v-7h7.6v7
		H235.7z M235.7,43.9v-6.6h7.6v6.7L235.7,43.9L235.7,43.9z M231.8,115.3h2.3v6h-2.3V115.3z M235.7,115.3h7.6v6h-7.6V115.3z
		 M244.9,115.3h2.3v6h-2.3V115.3z M244.9,113.7v-6.2h2.3v6.2H244.9z M244.9,106v-6h2.3v6L244.9,106z M244.9,98.4v-6.2h2.3v6.2H244.9
		z M244.9,90.6v-6.2h2.3v6.2H244.9z M244.9,82.9v-5.8h2.3V83L244.9,82.9z M244.9,75.6v-6h2.3v6.1L244.9,75.6z M244.9,68v-6.7h2.3V68
		L244.9,68z M244.9,59.8V54h2.3v5.8L244.9,59.8z M244.9,52.4v-7h2.3v7H244.9z M244.9,43.9v-6.6h2.3v6.7L244.9,43.9L244.9,43.9z
		 M244.9,35.7v-2.1h2.3v2.1L244.9,35.7z M243.3,35.7h-7.6v-2.1h7.6V35.7z M234.2,30.1v2h-2.3v-2H234.2z M230.3,30.1v2h-1v-2H230.3z
		 M229.3,33.6h1v2.1h-1V33.6z M227.1,54v2.7h-2.2V54H227.1z M223.3,54v2.7h-2.4V54H223.3z M221,58.2h2.4v73.5H221V58.2z
		 M223.4,138.8h-2.5v-5.6h2.4L223.4,138.8z M219.4,133.3v5.6h-2.9v-5.6H219.4z M214.9,133.3v5.6h-5.6v-5.6H214.9z M203.9,133.3h3.8
		v5.6h-9.1v-5.6H203.9z M197.1,133.3v5.6h-5.6v-5.6H197.1z M189.9,133.3v5.6h-3v-5.6H189.9z M185.4,54v2.7h-2.4V54H185.4z M181.4,54
		v2.7h-2.2V54H181.4z M176,35.7v-2.1h1v2.1H176z M161.4,33.6v2.1h-2.3v-2.1H161.4z M174.4,113.7h-2.3v-6.2h2.3V113.7z M170.6,61.4
		V68h-7.7v-6.6L170.6,61.4z M163,59.8V54h7.6v5.8L163,59.8z M170.6,69.6v6.1h-7.7v-6.1L170.6,69.6z M170.6,77.2V83h-7.7v-5.8
		L170.6,77.2z M170.6,84.5v6.2h-7.7v-6.2L170.6,84.5z M170.6,92.2v6.2h-7.7v-6.2L170.6,92.2z M170.6,100v6.1h-7.7V100L170.6,100z
		 M170.6,107.6v6.2h-7.7v-6.2L170.6,107.6z M174.4,106.1h-2.3V100h2.3V106.1z M174.4,98.4h-2.3v-6.2h2.3V98.4z M174.4,90.6h-2.3
		v-6.2h2.3V90.6z M174.4,83h-2.3v-5.8h2.3V83z M174.4,75.7h-2.3v-6.1h2.3V75.7z M174.4,68h-2.3v-6.7h2.3V68z M174.4,59.8h-2.3V54
		h2.3V59.8z M174.4,52.4h-2.3v-7h2.3V52.4z M170.6,52.4h-7.7v-7h7.6L170.6,52.4z M163,43.9v-6.6h7.6v6.7L163,43.9L163,43.9z
		 M163,35.7v-2.1h7.6v2.1H163z M161.5,37.3v6.7h-2.3v-6.7L161.5,37.3z M161.5,45.4v7h-2.3v-7H161.5z M161.5,54v5.8h-2.3V54L161.5,54
		z M161.5,61.4V68h-2.3v-6.6L161.5,61.4z M161.5,69.6v6.1h-2.3v-6.1L161.5,69.6z M161.5,77.2V83h-2.3v-5.8L161.5,77.2z M161.5,84.5
		v6.2h-2.3v-6.2L161.5,84.5z M161.5,92.2v6.2h-2.3v-6.2L161.5,92.2z M161.5,100v6.1h-2.3V100L161.5,100z M161.5,107.6v6.2h-2.3v-6.2
		L161.5,107.6z M161.5,115.3v6h-2.3v-6H161.5z M163,115.3h7.6v6h-7.7L163,115.3z M172.1,115.3h2.3v6h-2.3V115.3z M174.5,43.9h-2.3
		v-6.6h2.3V43.9z M172.1,35.7v-2.1h2.3v2.1H172.1z M177,30.1v2h-1v-2L177,30.1z M174.4,30.1v2h-2.3v-2L174.4,30.1z M170.6,32.1h-7.7
		v-2h7.6L170.6,32.1z M164.3,28.5H159v-6.3h5.2L164.3,28.5z M147,22.2h2.6v6.3H147V22.2L147,22.2z M151.1,22.2h6.3v6.3h-6.3
		L151.1,22.2z M161.4,10.1v10.6h-2.3V10L161.4,10.1z M157.5,10.1v10.6h-6.3V10L157.5,10.1z M149.6,10.1v10.6H147V10L149.6,10.1z
		 M147,143V30h2.6v113H147z M151.1,143V30h10.2v2h-3.9v3.6h-3.8v1.5l0,0V143H151.1z M155.3,143V37.3h2.2v6.7l0,0v1.5l0,0v7l0,0V54
		l0,0v5.8l0,0v1.5l0,0v6.7l0,0v1.6l0,0v6l0,0v1.6l0,0V83l0,0v1.6l0,0v6.2l0,0v1.6l0,0v6.2l0,0v1.6l0,0v6.1l0,0v1.6l0,0v6.2l0,0v1.6
		l0,0v5.9l0,0v1.6l0,0v20.3h-2.2V143z M159,143v-20.3h2.4V143H159z M162.9,143v-20.3h7.6V143H162.9z M172.1,143v-20.3h2.3V143H172.1
		z M175.9,143V37.3h1.7V143H175.9z M179.2,143V58.2h2.2V143H179.2z M182.9,143V58.2h2.4v73.5H184v1.6h1.4v5.6H184v1.6h1.4v2.7
		L182.9,143L182.9,143z M186.8,143v-2.7h2.9v2.7H186.8z M191.4,143v-2.7h5.6v2.7H191.4z M203.9,143h-5.3v-2.7h9.1v2.7H203.9z
		 M209.2,143v-2.7h5.6v2.7H209.2z M216.4,143v-2.7h2.9v2.7H216.4z M220.9,143v-2.7h2.4v2.7H220.9z M224.9,143V58.2h2.2V143H224.9z
		 M228.6,143V37.3h1.7V143H228.6z M231.8,143v-20.3h2.3V143H231.8z M235.7,143v-20.3h7.6V143H235.7z M244.9,143v-20.3h2.3V143H244.9
		z M248.7,143v-20.3l0,0v-1.6l0,0v-6l0,0v-1.6l0,0v-6.1l0,0V106l0,0v-6.1l0,0v-1.6l0,0v-6.2l0,0v-1.5l0,0v-6.2l0,0v-1.6l0,0V77l0,0
		v-1.3l0,0v-6.1l0,0V68l0,0v-6.6l0,0v-1.5l0,0V54l0,0v-1.6l0,0v-7l0,0v-1.5l0,0v-6.6h2.3V143H248.7z M252.5,143V37.3l0,0v-1.5h-3.8
		v-3.6h-3.9v-2h10.2V143H252.5z M256.6,143V30h2.6v113H256.6z"/>
</g>
<g>
	<path class="st0" d="M60.5,165.1c-0.1,0.3-0.2,0.6-0.2,0.9c0,0.3,0.2,0.4,1.1,0.4h0.3l-0.1,0.7h-5l0.1-0.7h0.1
		c0.9,0,1.1-0.1,1.2-0.7l0.1-0.6l1.6-5.9c0.1-0.3,0.2-0.6,0.2-0.9c0-0.3-0.2-0.4-1.1-0.4h-0.2l0.1-0.7h4.2c1-0.1,2.1,0.1,3,0.6
		c0.6,0.5,1,1.2,1,2c0,1.1-0.6,2.2-1.6,2.6c-1,0.4-2,0.5-3.1,0.5h-1.1L60.5,165.1z M61.9,162.1c0.6,0,1.2-0.1,1.7-0.5
		c0.6-0.6,0.9-1.4,0.9-2.2c0.1-0.7-0.4-1.3-1.1-1.4c-0.1,0-0.1,0-0.2,0H63c-0.6,0-0.7,0.1-0.8,0.7l-0.9,3.4L61.9,162.1z"/>
	<path class="st0" d="M77,161l-0.7-0.1c0-0.3,0-0.6,0-0.8c0-1.4-0.6-2.3-1.6-2.3c-0.4,0-0.4,0-0.6,0.6l-1.7,6.6
		c-0.1,0.3-0.2,0.6-0.2,0.9c0,0.3,0.2,0.4,1.1,0.4h0.3l-0.1,0.7h-5.3l0.1-0.7h0.4c0.6,0,0.9-0.1,1-0.2s0.1-0.1,0.4-1l1.7-6.6
		c0-0.1,0.1-0.2,0.1-0.3c0-0.1-0.1-0.2-0.4-0.2c-1.1,0-2,0.9-2.9,3.1l-0.7-0.2l1-3.7h8.6L77,161z"/>
	<path class="st0" d="M78.8,166.1c0,0.7-0.5,1.2-1.2,1.2c-0.6,0-1.2-0.5-1.2-1.2c0-0.7,0.5-1.2,1.2-1.2c0,0,0,0,0,0
		C78.3,164.9,78.8,165.4,78.8,166.1z"/>
	<path class="st0" d="M93.9,160.5h-0.7c0-0.6-0.1-1.2-0.3-1.7c-0.4-0.6-1.1-1-1.8-0.9h-0.5c-0.5,0-0.7,0.1-0.8,0.7l-0.8,3h0.3
		c1,0.1,2-0.6,2.2-1.7l0.7,0.1l-1.2,4.6l-0.7-0.1c0-0.3,0.1-0.6,0.1-0.8c0-0.9-0.4-1.3-1.3-1.3h-0.3l-0.7,2.8
		c-0.1,0.3-0.2,0.6-0.2,0.9c0,0.3,0.2,0.4,1.1,0.4h0.4l-0.1,0.7h-5l0.1-0.7l0,0c1,0,1.1-0.1,1.2-0.7l0.2-0.6l1.6-5.9
		c0.1-0.3,0.1-0.6,0.2-0.9c0-0.3-0.2-0.4-1.1-0.4h-0.3l0.1-0.7h8.2L93.9,160.5z"/>
	<path class="st0" d="M94,167.1l0.1-0.7h0.1c0.6,0,0.9-0.1,1-0.2s0.1-0.1,0.4-1l1.5-5.9c0.1-0.3,0.2-0.6,0.2-0.9
		c0-0.3-0.2-0.4-1.1-0.4H96l0.1-0.7h5l-0.1,0.7h-0.1c-0.6,0-0.9,0.1-1,0.2c-0.1,0.1-0.1,0.1-0.4,1l-1.6,5.9
		c-0.1,0.3-0.2,0.6-0.2,0.9c0,0.3,0.2,0.4,1.1,0.4h0.3l-0.1,0.7H94z"/>
	<path class="st0" d="M104.3,165.1c-0.1,0.3-0.1,0.6-0.2,0.9c0,0.3,0.2,0.4,1.1,0.4h0.3l-0.1,0.7h-5l0.1-0.7h0.1
		c0.6,0,0.9-0.1,1-0.2s0.1-0.1,0.4-1l1.6-5.9c0.1-0.3,0.2-0.6,0.2-0.9c0-0.3-0.2-0.4-1.1-0.4h-0.3l0.1-0.7h4.6
		c1-0.1,1.9,0.1,2.8,0.4c0.7,0.3,1.1,1.1,1.1,1.9c0,1.6-1.3,2.5-3.8,2.7c0.5,0.1,1,0.4,1.3,0.8c0.4,0.5,0.6,1.1,0.5,1.7v0.4
		c0,0.9,0,0.9,0.1,1c0,0.1,0.1,0.1,0.2,0.1c0.2,0,0.5-0.3,0.7-0.7c0.1-0.1,0.1-0.2,0.2-0.6l0.6,0.3c-0.5,1.4-1.2,2.1-2.3,2.1
		c-1,0.1-1.9-0.7-1.9-1.7c0-0.1,0-0.1,0-0.2c0-0.3,0-0.7,0.1-1.2c0-0.3,0.1-0.5,0.1-0.8c0-0.8-0.4-1.1-1.4-1.1h-0.4L104.3,165.1z
		 M105.7,161.5c1.2,0,1.5-0.1,2-0.4c0.6-0.4,0.9-1.1,0.9-1.9c0-0.9-0.5-1.4-1.4-1.4h-0.3c-0.5,0-0.6,0.1-0.7,0.5l-0.8,3.1H105.7z"/>
	<path class="st0" d="M120.3,160.9l-0.7-0.1c0-0.6-0.1-1.2-0.3-1.7c-0.4-0.9-1.3-1.4-2.2-1.4c-1.1,0-1.9,0.6-1.9,1.5
		c0,0.4,0.1,0.7,0.4,1c0.3,0.3,0.7,0.4,1.1,0.5c0.8,0.3,1.6,0.6,2.3,1c0.8,0.5,1.2,1.4,1.2,2.3c0,1.9-1.6,3.3-3.9,3.3
		c-1.1,0.1-2.1-0.3-2.9-1.1l-0.8,0.9H112l0.7-3.9l0.7,0.1v0.2c-0.1,1.5,1,2.9,2.5,3c0.1,0,0.2,0,0.4,0c1.3,0,2.1-0.6,2.1-1.6
		s-0.5-1.2-2.3-1.8c-0.7-0.2-1.4-0.5-2-1c-0.5-0.5-0.8-1.2-0.7-1.9c0-1.9,1.6-3.4,3.4-3.3c0,0,0.1,0,0.1,0c1,0,1.9,0.3,2.7,1
		l0.7-0.7h0.6L120.3,160.9z"/>
	<path class="st0" d="M130.9,161l-0.7-0.1c0-0.3,0-0.6,0-0.8c0-1.4-0.6-2.3-1.6-2.3c-0.4,0-0.4,0-0.6,0.6l-1.7,6.6
		c-0.1,0.3-0.2,0.6-0.2,0.9c0,0.3,0.2,0.4,1.1,0.4h0.3l-0.1,0.7h-5.3l0.1-0.7h0.4c0.6,0,0.9-0.1,1-0.2c0.1-0.1,0.1-0.1,0.4-1
		l1.7-6.6c0-0.1,0-0.2,0-0.3c0-0.1-0.1-0.2-0.4-0.2c-1.1,0-2,0.9-2.9,3.1l-0.7-0.2l1-3.7h8.6L130.9,161z"/>
	<path class="st0" d="M140.1,157.1h5.1l-0.1,0.7h0c-0.4-0.1-0.7,0-1,0.2c-0.1,0.1-0.1,0.1-0.3,1l-1.1,4.2c-0.1,0.8-0.4,1.5-0.7,2.2
		c-0.6,1.2-1.9,1.9-3.3,1.8c-2,0-3.1-0.9-3.1-2.5c-0.1-1.1,0.6-2,1.6-2.2c0,0,0.1,0,0.1,0c0.7-0.1,1.4,0.5,1.4,1.2c0,0,0,0.1,0,0.1
		c0,0.7-0.5,1.3-1.1,1.3c0,0,0,0,0,0c-0.2,0-0.4-0.1-0.6-0.2c-0.2-0.1-0.2-0.1-0.3-0.1c-0.1,0-0.2,0.1-0.2,0.4
		c0.1,0.8,0.7,1.3,1.5,1.3c0,0,0,0,0,0c0.7,0,1.3-0.4,1.6-1c0.4-0.6,0.6-1.3,0.7-2l1.1-4.4c0.1-0.3,0.2-0.6,0.2-0.9
		c0-0.3-0.2-0.4-1.1-0.4H140L140.1,157.1z"/>
	<path class="st0" d="M152.4,165.5c0.1,0.6,0.4,0.8,1.2,0.8h0.2l-0.1,0.7h-5l0.1-0.7h0.2c0.3,0,0.6,0,0.9-0.1
		c0.1-0.1,0.2-0.2,0.2-0.3c0-0.1,0-0.3-0.1-0.4l-0.3-1.4h-3.1l-0.6,1.1c-0.1,0.2-0.2,0.4-0.2,0.6c0,0.4,0.3,0.6,1.1,0.6h0.2
		l-0.1,0.7h-3.8l0.1-0.7h0.1c0.8-0.1,1.4-0.7,1.8-1.4l4.7-7.9h0.8L152.4,165.5z M149.1,160l-1.9,3.3h2.5L149.1,160z"/>
	<path class="st0" d="M162.2,158.8c0.3-0.3,0.4-0.4,0.4-0.6s-0.2-0.4-0.5-0.4h-0.5l0.1-0.7h4l-0.1,0.7c-0.9,0-1.7,0.4-2.3,1.1
		l-2.2,2.1l2,4.2c0.4,1,0.5,1,1.4,1h0.2l-0.1,0.7h-5l0.1-0.7h0.4c0.6,0,0.8-0.1,0.8-0.3s0-0.1-0.1-0.4l-1.4-2.9l-1.1,1.1l-0.3,1.4
		c-0.1,0.3-0.2,0.6-0.2,0.9c0,0.3,0.2,0.4,1.1,0.4h0.1l-0.1,0.7H154l0.1-0.7h0c0.3,0,0.7,0,1-0.2c0.1-0.1,0.1-0.1,0.4-1.1l1.5-5.9
		c0.1-0.3,0.2-0.6,0.2-0.9c0-0.3-0.2-0.4-1.1-0.4h-0.3l0.1-0.7h5l-0.1,0.7h-0.2c-0.6,0-0.9,0.1-1,0.2c-0.1,0.1-0.1,0.1-0.4,1
		l-0.8,3.1L162.2,158.8z"/>
	<path class="st0" d="M173.6,165.5c0.1,0.6,0.4,0.8,1.2,0.8h0.2l-0.1,0.7h-5l0.1-0.7h0.2c0.3,0,0.6,0,0.9-0.1
		c0.1-0.1,0.2-0.2,0.2-0.3c0-0.1,0-0.3-0.1-0.4L171,164h-3.1l-0.6,1.1c-0.1,0.2-0.2,0.4-0.2,0.6c0,0.4,0.3,0.6,1.1,0.6h0.2l-0.1,0.7
		h-3.8l0.1-0.7h0.1c0.8-0.1,1.5-0.7,1.8-1.4l4.6-7.9h0.8L173.6,165.5z M170.2,160l-1.9,3.3h2.5L170.2,160z"/>
	<path class="st0" d="M179,165.1c-0.1,0.3-0.1,0.6-0.2,0.9c0,0.3,0.2,0.4,1.1,0.4h0.3l-0.1,0.7h-5l0.1-0.7h0.1c0.6,0,0.9-0.1,1-0.2
		s0.1-0.1,0.4-1l1.6-5.9c0.1-0.3,0.2-0.6,0.2-0.9c0-0.3-0.2-0.4-1.1-0.4H177l0.1-0.7h4.6c1-0.1,1.9,0.1,2.8,0.4
		c0.7,0.3,1.1,1.1,1.1,1.9c0,1.6-1.3,2.5-3.8,2.7c0.5,0.1,1,0.4,1.3,0.8c0.4,0.5,0.6,1.1,0.5,1.7v0.4c0,0.9,0,0.9,0.1,1
		c0,0.1,0.1,0.1,0.2,0.1c0.2,0,0.5-0.3,0.7-0.7c0.1-0.1,0.1-0.2,0.2-0.6l0.6,0.3c-0.5,1.4-1.2,2.1-2.3,2.1c-1,0.1-1.9-0.7-1.9-1.7
		c0-0.1,0-0.1,0-0.2c0-0.3,0-0.7,0.1-1.2c0-0.3,0.1-0.5,0.1-0.8c0-0.8-0.4-1.1-1.4-1.1h-0.4L179,165.1z M180.4,161.5
		c1.2,0,1.5-0.1,2-0.4c0.5-0.4,0.9-1.1,0.9-1.9c0-0.9-0.5-1.4-1.4-1.4h-0.3c-0.5,0-0.6,0.1-0.7,0.5l-0.8,3.1H180.4z"/>
	<path class="st0" d="M196.1,161l-0.7-0.1c0-0.3,0-0.6,0-0.8c0-1.4-0.6-2.3-1.6-2.3c-0.4,0-0.4,0-0.6,0.6l-1.7,6.6
		c-0.1,0.3-0.2,0.6-0.2,0.9c0,0.3,0.2,0.4,1.1,0.4h0.3l-0.1,0.7h-5.3l0.1-0.7h0.4c0.6,0,0.9-0.1,1-0.2s0.1-0.1,0.4-1l1.7-6.6
		c0-0.1,0.1-0.2,0.1-0.3c0-0.1-0.1-0.2-0.4-0.2c-1.1,0-2,0.9-2.9,3.1l-0.7-0.2l1-3.7h8.7L196.1,161z"/>
	<path class="st0" d="M204,165.5c0.1,0.6,0.4,0.8,1.2,0.8h0.2l-0.1,0.7h-5l0.1-0.7h0.2c0.3,0,0.6,0,0.9-0.1c0.1-0.1,0.2-0.2,0.2-0.3
		c0-0.1,0-0.3,0-0.4l-0.3-1.4h-3.1l-0.6,1.1c-0.1,0.2-0.2,0.4-0.2,0.6c0,0.4,0.3,0.6,1.1,0.6h0.2l-0.1,0.7h-3.8l0.1-0.7h0.1
		c0.8-0.1,1.4-0.7,1.8-1.4l4.7-7.9h0.8L204,165.5z M200.6,160l-1.9,3.3h2.5L200.6,160z"/>
	<path class="st0" d="M209.8,167.1l0.1-0.7h0.1c0.6,0,0.9-0.1,1-0.2c0.1-0.1,0.1-0.1,0.4-1l1.6-5.9c0.1-0.3,0.2-0.6,0.2-0.9
		c0-0.3-0.2-0.4-1.1-0.4h-0.3l0.1-0.7h5l-0.1,0.7h-0.1c-0.6,0-0.9,0.1-1,0.2s-0.1,0.1-0.4,1l-1.6,5.9c-0.1,0.3-0.2,0.6-0.2,0.9
		c0,0.3,0.2,0.4,1.1,0.4h0.3l-0.1,0.7H209.8z"/>
	<path class="st0" d="M224.9,164.1l1-4c0.2-0.5,0.3-1,0.3-1.5c0-0.5-0.4-0.8-1.2-0.8l0.1-0.7h3.7l-0.1,0.7c-0.4,0-0.8,0.1-1.1,0.4
		c-0.4,0.4-0.4,0.4-0.8,1.9l-1.9,7.1h-1.1l-4-7.8l-1.2,4.6c-0.2,0.5-0.3,1-0.3,1.5c0,0.5,0.4,0.8,1.2,0.8h0.1l-0.1,0.7h-3.8l0.1-0.7
		c0.4,0,0.8-0.1,1.1-0.4c0.4-0.4,0.4-0.4,0.8-1.9l1.5-5.7c-0.1-0.3-0.5-0.5-0.8-0.4h-0.8l0.1-0.7h3.4L224.9,164.1z"/>
	<path class="st0" d="M238,161l-0.7-0.1c0-0.3,0-0.6,0-0.8c0-1.4-0.6-2.3-1.6-2.3c-0.4,0-0.4,0-0.6,0.6l-1.7,6.6
		c-0.1,0.3-0.2,0.6-0.2,0.9c0,0.3,0.2,0.4,1.1,0.4h0.3l-0.1,0.7h-5.2l0.1-0.7h0.4c0.6,0,0.9-0.1,1-0.2c0.1-0.1,0.1-0.1,0.4-1
		l1.7-6.6c0-0.1,0.1-0.2,0.1-0.3c0-0.1-0.1-0.2-0.4-0.2c-1.1,0-2,0.9-2.9,3.1l-0.7-0.2l1-3.7h8.6L238,161z"/>
	<path class="st0" d="M247.7,160.5H247c0-0.6-0.1-1.2-0.3-1.7c-0.4-0.6-1.1-1-1.8-0.9h-0.5c-0.5,0-0.7,0.1-0.8,0.7l-0.8,3h0.3
		c1,0.1,2-0.6,2.2-1.7l0.7,0.1l-1.2,4.6l-0.7-0.1c0-0.3,0.1-0.6,0.1-0.9c0.1-0.6-0.3-1.2-0.9-1.3c-0.1,0-0.2,0-0.3,0h-0.3l-0.8,3.2
		c0,0.1-0.1,0.3-0.1,0.4c0,0.3,0.2,0.4,0.7,0.4h0.5c1,0,2-0.4,2.7-1.2c0.5-0.5,0.9-1,1.2-1.6l0.7,0.1l-0.9,3.4H238l0.1-0.7h0
		c0.9,0,1.1-0.1,1.2-0.7l0.1-0.6l1.6-5.9c0.1-0.3,0.1-0.6,0.2-0.9c0-0.3-0.2-0.4-1.1-0.4h-0.3l0.1-0.7h8.2L247.7,160.5z"/>
	<path class="st0" d="M252.1,165.1c-0.1,0.3-0.1,0.6-0.2,0.9c0,0.3,0.2,0.4,1.1,0.4h0.3l-0.1,0.7h-5l0.1-0.7h0.1
		c0.6,0,0.9-0.1,1-0.2s0.1-0.1,0.4-1l1.6-5.9c0.1-0.3,0.2-0.6,0.2-0.9c0-0.3-0.2-0.4-1.1-0.4h-0.3l0.1-0.7h4.6
		c1-0.1,1.9,0.1,2.8,0.4c0.7,0.3,1.1,1.1,1.1,1.9c0,1.6-1.3,2.5-3.8,2.7c0.5,0.1,1,0.4,1.3,0.8c0.4,0.5,0.6,1.1,0.5,1.7v0.4
		c0,0.9,0,0.9,0.1,1c0.1,0.1,0.1,0.1,0.2,0.1c0.2,0,0.5-0.3,0.7-0.7c0.1-0.1,0.1-0.2,0.2-0.6l0.6,0.3c-0.5,1.4-1.2,2.1-2.3,2.1
		c-1,0.1-1.9-0.7-1.9-1.7c0-0.1,0-0.1,0-0.2c0-0.4,0-0.8,0.1-1.2c0-0.3,0.1-0.5,0.1-0.8c0-0.8-0.4-1.1-1.4-1.1h-0.4L252.1,165.1z
		 M253.5,161.5c1.2,0,1.6-0.1,2-0.4c0.6-0.4,0.9-1.1,0.9-1.9c0-0.9-0.5-1.4-1.4-1.4h-0.3c-0.5,0-0.6,0.1-0.7,0.5l-0.8,3.1H253.5z"/>
	<path class="st0" d="M268.1,164.1l1-4c0.2-0.5,0.3-1,0.3-1.5c0-0.5-0.4-0.8-1.2-0.8l0.1-0.7h3.7l-0.1,0.7c-0.4,0-0.8,0.1-1.1,0.4
		c-0.4,0.4-0.4,0.4-0.8,1.9l-1.9,7.1h-1.1l-3.9-7.8L262,164c-0.2,0.5-0.2,1-0.3,1.5c0,0.5,0.4,0.8,1.2,0.8h0.1l-0.1,0.7h-3.8
		l0.1-0.7c0.4,0,0.8-0.1,1.1-0.4c0.4-0.4,0.4-0.4,0.8-1.9l1.5-5.7c-0.1-0.3-0.5-0.5-0.8-0.4h-0.8l0.1-0.7h3.4L268.1,164.1z"/>
	<path class="st0" d="M279.4,165.5c0.1,0.6,0.4,0.8,1.2,0.8h0.2l-0.1,0.7h-5l0.1-0.7h0.2c0.3,0,0.6,0,0.9-0.1
		c0.1-0.1,0.2-0.2,0.2-0.3c0-0.1,0-0.3-0.1-0.4l-0.3-1.4h-3.1l-0.6,1.1c-0.1,0.2-0.2,0.4-0.2,0.6c0,0.4,0.3,0.6,1.1,0.6h0.1L274,167
		h-3.8l0.1-0.7h0.1c0.8-0.1,1.5-0.7,1.8-1.4l4.6-7.9h0.8L279.4,165.5z M276,160l-1.9,3.3h2.5L276,160z"/>
	<path class="st0" d="M290.9,161l-0.7-0.1c0-0.3,0-0.6,0-0.8c0-1.4-0.6-2.3-1.6-2.3c-0.4,0-0.4,0-0.6,0.6l-1.7,6.6
		c-0.1,0.3-0.2,0.6-0.2,0.9c0,0.3,0.2,0.4,1.1,0.4h0.3l-0.1,0.7h-5.3l0.1-0.7h0.4c0.6,0,0.9-0.1,1-0.2c0.1-0.1,0.1-0.1,0.4-1
		l1.7-6.6c0-0.1,0-0.2,0-0.3c0-0.1-0.1-0.2-0.4-0.2c-1.1,0-2,0.9-2.9,3.1l-0.7-0.2l1-3.7h8.7L290.9,161z"/>
	<path class="st0" d="M290.9,167.1l0.1-0.7h0.1c0.6,0,0.9-0.1,1-0.2c0.1-0.1,0.1-0.1,0.4-1l1.6-5.9c0.1-0.3,0.2-0.6,0.2-0.9
		c0-0.3-0.2-0.4-1.1-0.4h-0.3l0.1-0.7h5l-0.1,0.7h-0.1c-0.6,0-0.9,0.1-1,0.2c-0.1,0.1-0.1,0.1-0.4,1l-1.6,5.9
		c-0.1,0.3-0.2,0.6-0.2,0.9c0,0.3,0.2,0.4,1.1,0.4h0.3l-0.1,0.7H290.9z"/>
	<path class="st0" d="M307.3,158.2c0.7,0.7,1.1,1.8,1.1,2.8c0,3.4-2.7,6.2-6.1,6.3c-2.1,0.2-3.9-1.5-4.1-3.6c0-0.2,0-0.3,0-0.5
		c0-1.7,0.7-3.3,1.9-4.4c1.1-1.1,2.6-1.8,4.2-1.7C305.4,156.9,306.5,157.4,307.3,158.2z M301.7,159.8c-0.7,1.4-1.1,3-1.1,4.6
		c0,1.3,0.7,2.1,1.7,2.1s1.8-0.7,2.6-2.1c0.7-1.4,1-2.9,1.1-4.4c0-0.5-0.1-1.1-0.4-1.5c-0.3-0.4-0.8-0.7-1.3-0.7
		C303.2,157.7,302.4,158.4,301.7,159.8L301.7,159.8z"/>
	<path class="st0" d="M317.5,164.1l1-4c0.2-0.5,0.3-1,0.3-1.5c0-0.5-0.4-0.8-1.2-0.8l0.1-0.7h3.7l-0.1,0.7c-0.4,0-0.8,0.1-1.1,0.4
		c-0.4,0.4-0.4,0.4-0.8,1.9l-1.9,7.1h-1.1l-4-7.8l-1.2,4.6c-0.2,0.5-0.3,1-0.3,1.5c0,0.5,0.4,0.8,1.2,0.8h0.1l-0.1,0.7h-3.8l0.1-0.7
		c0.4,0,0.8-0.1,1.1-0.4c0.4-0.4,0.4-0.4,0.8-1.9l1.5-5.7c-0.1-0.3-0.5-0.5-0.8-0.4h-0.8l0.1-0.7h3.4L317.5,164.1z"/>
	<path class="st0" d="M328.8,165.5c0.1,0.6,0.4,0.8,1.2,0.8h0.2l-0.1,0.7h-5l0.1-0.7h0.2c0.3,0,0.6,0,0.9-0.1
		c0.1-0.1,0.2-0.2,0.2-0.3c0-0.1,0-0.3-0.1-0.4l-0.3-1.4h-3.1l-0.6,1.1c-0.1,0.2-0.2,0.4-0.2,0.6c0,0.4,0.3,0.6,1.1,0.6h0.2
		l-0.1,0.7h-3.8l0.1-0.7h0.1c0.8-0.1,1.4-0.7,1.8-1.4l4.7-7.9h0.8L328.8,165.5z M325.4,160l-1.9,3.3h2.5L325.4,160z"/>
	<path class="st0" d="M339.9,163.6l-0.9,3.5h-8.6l0.1-0.7h0.1c0.4,0,0.7,0,1-0.2c0.1-0.1,0.1-0.1,0.4-1l1.6-5.9
		c0.1-0.3,0.1-0.6,0.2-0.9c0-0.3-0.2-0.4-1.1-0.4h-0.3l0.1-0.7h5.1l-0.1,0.7h-0.2c-0.6,0-0.9,0.1-1,0.2c-0.1,0.1-0.1,0.1-0.4,1
		l-1.6,5.9c-0.1,0.3-0.2,0.6-0.2,0.9c0,0.3,0.2,0.4,0.7,0.4h0.5c1,0,2-0.4,2.7-1.2c0.5-0.5,0.9-1.1,1.2-1.7L339.9,163.6z"/>
</g>
<path class="st0" d="M2.8,184c-0.9-0.5-1.6-1.2-2.1-2.1c-1-1.8-1-4,0-5.9c0.5-0.9,1.2-1.6,2.1-2.1c0.9-0.5,2-0.8,3-0.7
	c1,0,2,0.2,2.9,0.7c0.9,0.5,1.6,1.2,2.1,2.1c1,1.8,1,4,0,5.9c-0.5,0.9-1.2,1.6-2.1,2.1c-0.9,0.5-1.9,0.8-2.9,0.8
	C4.8,184.8,3.8,184.5,2.8,184z M8,182.8c0.6-0.4,1.2-0.9,1.5-1.5c0.7-1.4,0.7-3,0-4.4c-0.4-0.6-0.9-1.2-1.5-1.6
	c-0.6-0.4-1.4-0.6-2.1-0.6c-0.8,0-1.5,0.2-2.2,0.6c-0.6,0.4-1.2,0.9-1.5,1.6c-0.7,1.4-0.7,3,0,4.4c0.4,0.6,0.9,1.2,1.5,1.5
	c0.7,0.4,1.4,0.6,2.2,0.6C6.6,183.3,7.3,183.1,8,182.8L8,182.8z"/>
<path class="st0" d="M26.3,176.1l-3.1,8.5h-1.4l-2.4-6.4l-2.4,6.4h-1.4l-3.1-8.5h1.4l2.4,6.8l2.5-6.8h1.3l2.4,6.8l2.5-6.8H26.3z"/>
<path class="st0" d="M34.8,177c0.7,0.7,1,1.7,1,2.8v4.9h-1.5v-4.7c0-0.7-0.2-1.3-0.6-1.9c-0.4-0.4-1-0.7-1.7-0.6
	c-0.7,0-1.4,0.2-2,0.7c-0.5,0.6-0.8,1.3-0.7,2.1v4.4h-1.5v-8.5h1.4v1.3c0.3-0.4,0.7-0.8,1.2-1c0.6-0.2,1.2-0.4,1.8-0.4
	C33.2,176,34.1,176.4,34.8,177z"/>
<path class="st0" d="M46.1,180.9h-6.7c0.1,0.7,0.4,1.4,1,1.8c0.6,0.5,1.3,0.7,2,0.7c0.9,0,1.8-0.3,2.4-1l0.8,1
	c-0.4,0.4-0.9,0.8-1.4,1c-0.6,0.2-1.2,0.4-1.9,0.4c-0.8,0-1.6-0.2-2.3-0.6c-0.7-0.4-1.2-0.9-1.6-1.5c-0.4-0.7-0.6-1.5-0.5-2.2
	c0-0.8,0.2-1.5,0.5-2.2c0.3-0.6,0.9-1.2,1.5-1.5c1.3-0.7,2.9-0.7,4.2,0c0.6,0.4,1.1,0.9,1.5,1.5c0.4,0.7,0.5,1.5,0.5,2.3
	C46.1,180.5,46.1,180.7,46.1,180.9z M40.2,178c-0.5,0.5-0.8,1.1-0.8,1.8h5.3c-0.1-0.7-0.4-1.3-0.8-1.8
	C42.8,177.1,41.3,177.1,40.2,178z"/>
<path class="st0" d="M50.8,176.4c0.6-0.3,1.2-0.4,1.9-0.4v1.5h-0.3c-0.7-0.1-1.4,0.2-2,0.7c-0.5,0.6-0.7,1.3-0.7,2.1v4.2h-1.5v-8.5
	h1.4v1.4C49.9,177,50.3,176.6,50.8,176.4z"/>
<path class="st0" d="M60.2,184.1c-0.6-0.4-1.2-0.9-1.5-1.5c-0.7-1.4-0.7-3.1,0-4.5c0.4-0.7,0.9-1.2,1.5-1.5c1.4-0.7,3-0.7,4.4,0
	c0.6,0.4,1.2,0.9,1.5,1.5c0.7,1.4,0.7,3.1,0,4.5c-0.4,0.6-0.9,1.2-1.5,1.5C63.3,184.9,61.6,184.9,60.2,184.1z M63.9,183
	c0.4-0.2,0.8-0.6,1-1.1c0.2-0.5,0.4-1,0.4-1.6c0-0.5-0.1-1.1-0.4-1.6c-0.2-0.4-0.6-0.8-1-1c-0.4-0.3-0.9-0.4-1.4-0.4
	c-0.5,0-1,0.1-1.4,0.4c-0.4,0.2-0.7,0.6-1,1c-0.2,0.5-0.4,1-0.4,1.6c0,0.5,0.1,1.1,0.4,1.6c0.2,0.4,0.6,0.8,1,1.1
	c0.4,0.3,0.9,0.4,1.4,0.4C63,183.4,63.5,183.3,63.9,183z"/>
<path class="st0" d="M70.6,175.4v0.7H73v1.3h-2.4v7.2h-1.5v-7.2h-1.4v-1.3h1.4v-0.8c0-0.7,0.2-1.5,0.7-2c0.5-0.5,1.3-0.8,2-0.7
	c0.3,0,0.7,0,1,0.1c0.3,0.1,0.5,0.2,0.8,0.4l-0.4,1.2c-0.3-0.3-0.7-0.4-1.2-0.4C71,173.9,70.6,174.4,70.6,175.4z"/>
<path class="st0" d="M83.3,184.1c-0.2,0.2-0.5,0.4-0.8,0.4c-0.3,0.1-0.6,0.1-1,0.1c-0.7,0-1.4-0.2-2-0.7c-0.5-0.5-0.7-1.3-0.7-2
	v-4.7h-1.4v-1.3h1.4v-1.9h1.5v1.9h2.4v1.3h-2.4v4.7c0,0.4,0.1,0.8,0.3,1.1c0.3,0.3,0.6,0.4,1,0.4c0.4,0,0.8-0.1,1.2-0.4L83.3,184.1z
	"/>
<path class="st0" d="M92.1,177c0.7,0.7,1,1.7,1,2.8v4.9h-1.5v-4.7c0-0.7-0.2-1.3-0.6-1.9c-0.4-0.4-1-0.7-1.7-0.6
	c-0.7,0-1.4,0.2-2,0.7c-0.5,0.6-0.8,1.3-0.7,2.1v4.4h-1.5v-11.9h1.5v4.6c0.3-0.4,0.7-0.7,1.2-0.9c0.5-0.2,1.1-0.3,1.7-0.3
	C90.5,176,91.4,176.3,92.1,177z"/>
<path class="st0" d="M103.4,180.9h-6.8c0.1,0.7,0.4,1.4,1,1.8c0.6,0.5,1.3,0.7,2,0.7c0.9,0,1.8-0.3,2.4-1l0.8,1
	c-0.4,0.4-0.9,0.8-1.4,1c-0.6,0.2-1.2,0.4-1.9,0.4c-0.8,0-1.6-0.2-2.3-0.6c-0.7-0.4-1.2-0.9-1.6-1.5c-0.4-0.7-0.6-1.5-0.6-2.2
	c0-0.8,0.2-1.5,0.5-2.2c0.3-0.6,0.9-1.2,1.5-1.5c1.3-0.7,2.9-0.7,4.2,0c0.6,0.4,1.1,0.9,1.5,1.5c0.4,0.7,0.5,1.5,0.5,2.3
	C103.4,180.5,103.4,180.7,103.4,180.9z M97.5,178c-0.5,0.5-0.8,1.1-0.8,1.8h5.3c-0.1-0.7-0.4-1.3-0.8-1.8
	C100.1,177.1,98.6,177.1,97.5,178z"/>
<path class="st0" d="M110,173.4h1.6v11.2H110V173.4z"/>
<path class="st0" d="M121.6,177c0.7,0.7,1,1.7,1,2.8v4.9H121v-4.7c0-0.7-0.2-1.3-0.6-1.9c-0.4-0.4-1-0.7-1.7-0.6
	c-0.7,0-1.4,0.2-2,0.7c-0.5,0.6-0.8,1.3-0.7,2.1v4.4h-1.5v-8.5h1.5v1.3c0.3-0.4,0.7-0.8,1.2-1c0.6-0.2,1.2-0.4,1.8-0.4
	C120,176,120.9,176.4,121.6,177z"/>
<path class="st0" d="M133.2,172.7v11.9h-1.5v-1.4c-0.3,0.5-0.8,0.8-1.3,1.1c-0.5,0.3-1.1,0.4-1.7,0.4c-0.7,0-1.5-0.2-2.1-0.5
	c-0.6-0.4-1.1-0.9-1.5-1.5c-0.7-1.4-0.7-3.1,0-4.5c0.3-0.6,0.9-1.2,1.5-1.5c0.7-0.4,1.4-0.6,2.2-0.6c0.6,0,1.1,0.1,1.6,0.3
	c0.5,0.2,0.9,0.6,1.2,1v-4.7L133.2,172.7z M130.3,183c0.4-0.2,0.8-0.6,1-1.1c0.2-0.5,0.4-1,0.4-1.6c0-0.5-0.1-1.1-0.4-1.6
	c-0.2-0.4-0.6-0.8-1-1c-0.9-0.5-2-0.5-2.8,0c-0.4,0.2-0.7,0.6-1,1c-0.2,0.5-0.4,1-0.4,1.6c0,0.5,0.1,1.1,0.4,1.6
	c0.2,0.4,0.6,0.8,1,1.1C128.4,183.5,129.4,183.5,130.3,183z"/>
<path class="st0" d="M137.4,184.1c-0.6-0.4-1.2-0.9-1.5-1.5c-0.7-1.4-0.7-3.1,0-4.5c0.4-0.7,0.9-1.2,1.5-1.5c1.4-0.7,3-0.7,4.4,0
	c0.6,0.4,1.2,0.9,1.5,1.5c0.7,1.4,0.7,3.1,0,4.5c-0.4,0.6-0.9,1.2-1.5,1.5C140.4,184.9,138.8,184.9,137.4,184.1z M141,183
	c0.4-0.2,0.8-0.6,1-1.1c0.2-0.5,0.4-1,0.4-1.6c0-0.5-0.1-1.1-0.4-1.6c-0.2-0.4-0.6-0.8-1-1c-0.4-0.3-0.9-0.4-1.4-0.4
	c-0.5,0-1,0.1-1.4,0.4c-0.4,0.2-0.7,0.6-1,1c-0.2,0.5-0.4,1-0.4,1.6c0,0.5,0.1,1.1,0.4,1.6c0.2,0.4,0.6,0.8,1,1.1
	c0.4,0.3,0.9,0.4,1.4,0.4C140.1,183.4,140.6,183.2,141,183L141,183z"/>
<path class="st0" d="M152.9,177c0.7,0.7,1,1.7,1,2.8v4.9h-1.5v-4.7c0-0.7-0.2-1.3-0.6-1.9c-0.4-0.4-1-0.7-1.7-0.6
	c-0.7,0-1.4,0.2-2,0.7c-0.5,0.6-0.8,1.3-0.7,2.1v4.4H146v-8.5h1.4v1.3c0.3-0.4,0.7-0.8,1.2-1c0.6-0.2,1.2-0.4,1.8-0.4
	C151.4,176,152.2,176.4,152.9,177z"/>
<path class="st0" d="M164.2,180.9h-6.7c0.1,0.7,0.4,1.4,1,1.8c0.6,0.5,1.3,0.7,2,0.7c0.9,0,1.8-0.3,2.4-1l0.8,1
	c-0.4,0.4-0.9,0.8-1.4,1c-0.6,0.2-1.2,0.4-1.9,0.4c-0.8,0-1.6-0.2-2.3-0.6c-0.7-0.4-1.2-0.9-1.6-1.5c-0.7-1.4-0.7-3.1,0-4.5
	c0.3-0.6,0.9-1.2,1.5-1.5c0.6-0.4,1.4-0.6,2.1-0.6c0.7,0,1.5,0.2,2.1,0.6c0.6,0.4,1.1,0.9,1.5,1.5c0.4,0.7,0.5,1.5,0.5,2.3
	C164.2,180.5,164.2,180.7,164.2,180.9z M158.3,178c-0.5,0.5-0.8,1.1-0.8,1.8h5.3c-0.1-0.7-0.4-1.3-0.8-1.8
	C160.9,177.1,159.4,177.1,158.3,178z"/>
<path class="st0" d="M166.7,184.4c-0.5-0.1-1-0.4-1.5-0.7l0.6-1.2c0.4,0.3,0.9,0.5,1.3,0.6c0.5,0.2,1,0.2,1.6,0.2c1.3,0,2-0.4,2-1.2
	c0-0.2-0.1-0.5-0.3-0.6c-0.2-0.2-0.4-0.3-0.7-0.3c-0.3-0.1-0.6-0.1-1.1-0.2c-0.6-0.1-1.1-0.2-1.6-0.4c-0.4-0.1-0.8-0.4-1.1-0.7
	c-0.3-0.4-0.5-0.9-0.4-1.4c0-0.7,0.4-1.4,1-1.9c0.7-0.5,1.6-0.7,2.5-0.7c0.6,0,1.1,0.1,1.6,0.2c0.5,0.1,0.9,0.3,1.4,0.6l-0.6,1.2
	c-0.7-0.5-1.5-0.7-2.4-0.7c-0.5,0-1,0.1-1.5,0.3c-0.3,0.2-0.5,0.5-0.5,0.9c0,0.2,0.1,0.5,0.3,0.6c0.2,0.2,0.4,0.3,0.7,0.4
	c0.3,0.1,0.7,0.2,1.2,0.3c0.5,0.1,1.1,0.2,1.6,0.4c0.4,0.1,0.8,0.4,1.1,0.7c0.3,0.4,0.5,0.9,0.4,1.3c0,0.7-0.4,1.4-1,1.8
	c-0.8,0.5-1.7,0.7-2.6,0.7C168,184.7,167.4,184.6,166.7,184.4z"/>
<path class="st0" d="M174.2,174.2c-0.2-0.2-0.3-0.4-0.3-0.7c0-0.3,0.1-0.5,0.3-0.7c0.2-0.2,0.5-0.3,0.7-0.3c0.3,0,0.5,0.1,0.7,0.3
	c0.2,0.2,0.3,0.4,0.3,0.7c0,0.6-0.5,1-1,1C174.7,174.5,174.4,174.4,174.2,174.2z M174.2,176.1h1.5v8.5h-1.5V176.1z"/>
<path class="st0" d="M184.2,176.9c0.6,0.7,1,1.6,0.9,2.6v5.1h-1.4v-1.1c-0.3,0.4-0.6,0.7-1.1,0.9c-0.5,0.2-1.1,0.3-1.6,0.3
	c-0.8,0-1.6-0.2-2.2-0.7c-0.5-0.4-0.9-1.1-0.8-1.8c0-0.7,0.3-1.4,0.8-1.8c0.7-0.5,1.6-0.8,2.5-0.7h2.4v-0.3c0-0.6-0.2-1.1-0.6-1.5
	c-0.5-0.4-1.1-0.6-1.6-0.5c-0.5,0-1,0.1-1.4,0.2c-0.4,0.1-0.8,0.4-1.2,0.7l-0.6-1.1c0.5-0.4,1-0.6,1.5-0.8c0.6-0.2,1.2-0.3,1.9-0.3
	C182.6,176,183.5,176.3,184.2,176.9z M182.7,183.1c0.4-0.3,0.7-0.6,0.9-1.1v-1.2h-2.3c-1.3,0-2,0.4-2,1.3c0,0.4,0.2,0.8,0.5,1
	c0.4,0.3,0.9,0.4,1.3,0.4C181.7,183.5,182.3,183.4,182.7,183.1z"/>
<path class="st0" d="M202.2,184.3c-0.7-0.2-1.3-0.5-1.8-1l0.6-1.3c0.5,0.4,1,0.7,1.6,0.9c0.6,0.2,1.3,0.4,2,0.4
	c0.7,0.1,1.4-0.1,2-0.5c0.4-0.3,0.7-0.7,0.7-1.3c0-0.4-0.1-0.7-0.4-0.9c-0.3-0.2-0.6-0.4-0.9-0.6c-0.4-0.1-0.9-0.3-1.5-0.4
	c-0.7-0.2-1.3-0.4-2-0.6c-0.5-0.2-0.9-0.5-1.3-0.9c-0.4-0.5-0.6-1.1-0.5-1.7c0-0.6,0.1-1.1,0.5-1.6c0.3-0.5,0.8-0.9,1.4-1.1
	c0.7-0.3,1.5-0.5,2.3-0.4c0.7,0,1.3,0.1,2,0.3c0.6,0.1,1.1,0.4,1.6,0.7l-0.5,1.3c-0.5-0.3-1-0.5-1.5-0.7c-0.5-0.1-1-0.2-1.5-0.2
	c-0.7,0-1.4,0.1-2,0.5c-0.4,0.3-0.7,0.8-0.7,1.3c0,0.4,0.1,0.7,0.4,0.9c0.3,0.3,0.6,0.5,1,0.6c0.5,0.2,1,0.3,1.5,0.4
	c0.7,0.2,1.3,0.4,2,0.6c0.5,0.2,0.9,0.5,1.3,0.9c0.4,0.5,0.6,1.1,0.5,1.7c0,0.6-0.2,1.1-0.5,1.6c-0.4,0.5-0.9,0.9-1.4,1.1
	c-0.7,0.3-1.5,0.5-2.3,0.4C203.8,184.7,203,184.6,202.2,184.3z"/>
<path class="st0" d="M215.6,184.1c-0.2,0.2-0.5,0.4-0.8,0.4c-0.3,0.1-0.6,0.1-1,0.1c-0.7,0.1-1.4-0.2-2-0.7c-0.5-0.5-0.7-1.3-0.7-2
	v-4.7h-1.4v-1.3h1.4v-1.9h1.5v1.9h2.4v1.3h-2.4v4.7c0,0.4,0.1,0.8,0.3,1.1c0.3,0.3,0.6,0.4,1,0.4c0.4,0,0.8-0.1,1.2-0.4L215.6,184.1
	z"/>
<path class="st0" d="M218.5,184.1c-0.6-0.4-1.2-0.9-1.5-1.5c-0.7-1.4-0.7-3.1,0-4.5c0.4-0.7,0.9-1.2,1.5-1.5c1.4-0.7,3-0.7,4.4,0
	c0.6,0.4,1.2,0.9,1.5,1.5c0.7,1.4,0.7,3.1,0,4.5c-0.4,0.6-0.9,1.2-1.5,1.5C221.5,184.9,219.8,184.9,218.5,184.1z M222.1,183
	c0.4-0.2,0.8-0.6,1-1.1c0.2-0.5,0.4-1,0.4-1.6c0-0.5-0.1-1.1-0.4-1.6c-0.2-0.4-0.6-0.8-1-1c-0.9-0.5-2-0.5-2.9,0
	c-0.4,0.2-0.7,0.6-1,1c-0.3,0.5-0.4,1-0.4,1.6c0,0.5,0.1,1.1,0.4,1.6c0.2,0.4,0.6,0.8,1,1.1C220.1,183.5,221.2,183.5,222.1,183z"/>
<path class="st0" d="M228.4,184.1c-0.6-0.4-1.2-0.9-1.6-1.5c-0.7-1.4-0.7-3.1,0-4.5c0.4-0.6,0.9-1.2,1.6-1.5
	c0.7-0.4,1.5-0.6,2.3-0.6c0.7,0,1.3,0.2,2,0.5c0.6,0.3,1.1,0.8,1.4,1.4l-1.1,0.8c-0.2-0.4-0.6-0.7-1-0.9c-0.4-0.2-0.8-0.3-1.3-0.3
	c-0.5,0-1,0.1-1.5,0.4c-0.4,0.2-0.7,0.6-1,1c-0.2,0.5-0.4,1-0.4,1.6c0,0.5,0.1,1.1,0.4,1.6c0.2,0.4,0.6,0.8,1,1.1
	c0.4,0.3,1,0.4,1.5,0.4c0.4,0,0.9-0.1,1.3-0.3c0.4-0.2,0.7-0.5,1-0.9l1.1,0.7c-0.3,0.6-0.8,1.1-1.4,1.4c-0.6,0.3-1.3,0.5-2,0.5
	C229.9,184.7,229.1,184.5,228.4,184.1z"/>
<path class="st0" d="M239.2,180.6l-1.7,1.6v2.3h-1.5v-11.9h1.5v7.6l4.5-4.2h1.8l-3.5,3.5l3.8,5h-1.8L239.2,180.6z"/>
<path class="st0" d="M258,183.2v1.4h-7.9v-11.2h7.7v1.4h-6.2v3.4h5.5v1.4h-5.5v3.6H258z"/>
<path class="st0" d="M265.4,184.6l-2.4-3.3l-2.4,3.3H259l3.3-4.3l-3.1-4.1h1.7l2.3,3l2.3-3h1.6l-3.1,4.1l3.3,4.3H265.4z"/>
<path class="st0" d="M269.9,184.1c-0.6-0.4-1.2-0.9-1.6-1.5c-0.8-1.4-0.8-3.1,0-4.5c0.4-0.7,0.9-1.2,1.6-1.5
	c0.7-0.4,1.5-0.6,2.3-0.6c0.7,0,1.4,0.1,2,0.5c0.6,0.3,1.1,0.8,1.4,1.4l-1.1,0.8c-0.2-0.4-0.6-0.7-1-0.9c-0.4-0.2-0.8-0.3-1.3-0.3
	c-0.5,0-1,0.1-1.5,0.4c-0.4,0.2-0.7,0.6-1,1c-0.3,0.5-0.4,1-0.4,1.6c0,0.5,0.1,1.1,0.4,1.6c0.2,0.4,0.6,0.8,1,1.1
	c0.4,0.3,1,0.4,1.5,0.4c0.4,0,0.9-0.1,1.3-0.3c0.4-0.2,0.7-0.5,1-0.9l1.1,0.7c-0.3,0.6-0.8,1.1-1.4,1.4c-0.6,0.3-1.3,0.5-2,0.5
	C271.4,184.7,270.6,184.5,269.9,184.1z"/>
<path class="st0" d="M284.3,177c0.7,0.7,1,1.7,1,2.8v4.9h-1.5v-4.7c0-0.7-0.2-1.3-0.6-1.9c-0.4-0.4-1-0.7-1.7-0.6
	c-0.7,0-1.4,0.2-2,0.7c-0.5,0.6-0.8,1.3-0.7,2.1v4.4h-1.5v-11.9h1.5v4.6c0.3-0.4,0.7-0.7,1.2-0.9c0.5-0.2,1.1-0.3,1.7-0.3
	C282.7,176,283.6,176.3,284.3,177z"/>
<path class="st0" d="M293.7,176.9c0.6,0.7,1,1.6,0.9,2.6v5.1h-1.4v-1.1c-0.3,0.4-0.6,0.7-1.1,0.9c-0.5,0.2-1.1,0.3-1.6,0.3
	c-0.8,0-1.6-0.2-2.2-0.7c-1-0.9-1.1-2.4-0.2-3.4c0.1-0.1,0.2-0.2,0.2-0.3c0.7-0.5,1.6-0.8,2.5-0.7h2.4v-0.3c0-0.6-0.2-1.1-0.6-1.5
	c-0.5-0.4-1.1-0.6-1.7-0.5c-0.5,0-1,0.1-1.4,0.2c-0.4,0.1-0.8,0.4-1.2,0.7l-0.6-1.1c0.4-0.4,1-0.6,1.5-0.8c0.6-0.2,1.3-0.3,1.9-0.3
	C292.1,176,293,176.3,293.7,176.9z M292.2,183.1c0.4-0.3,0.7-0.6,0.9-1.1v-1.2h-2.3c-1.3,0-1.9,0.4-1.9,1.3c0,0.4,0.2,0.8,0.5,1
	c0.4,0.3,0.9,0.4,1.3,0.4C291.3,183.5,291.8,183.4,292.2,183.1z"/>
<path class="st0" d="M304.4,177c0.7,0.7,1,1.7,1,2.8v4.9h-1.5v-4.7c0-0.7-0.2-1.3-0.6-1.9c-0.4-0.4-1-0.7-1.7-0.6
	c-0.7,0-1.4,0.2-2,0.7c-0.5,0.6-0.8,1.3-0.7,2.1v4.4h-1.5v-8.5h1.4v1.3c0.3-0.4,0.7-0.8,1.2-1c0.6-0.2,1.2-0.4,1.8-0.4
	C302.8,176,303.7,176.4,304.4,177z"/>
<path class="st0" d="M316.1,176.1v7.3c0.1,1.2-0.3,2.4-1.1,3.3c-0.9,0.8-2.1,1.2-3.2,1.1c-0.8,0-1.5-0.1-2.2-0.3
	c-0.6-0.2-1.2-0.5-1.7-0.9l0.7-1.2c0.4,0.4,0.9,0.6,1.4,0.8c0.6,0.2,1.2,0.3,1.8,0.3c0.8,0.1,1.6-0.2,2.1-0.7
	c0.5-0.6,0.8-1.4,0.7-2.1v-0.7c-0.3,0.4-0.8,0.8-1.3,1c-0.5,0.2-1.1,0.3-1.7,0.3c-0.7,0-1.5-0.2-2.1-0.5c-0.6-0.3-1.1-0.8-1.5-1.5
	c-0.7-1.3-0.7-2.9,0-4.3c0.4-0.6,0.9-1.1,1.5-1.4c0.7-0.3,1.4-0.5,2.1-0.5c0.6,0,1.2,0.1,1.7,0.4c0.5,0.2,1,0.6,1.3,1v-1.3
	L316.1,176.1z M313.2,182.5c0.4-0.2,0.7-0.6,1-1c0.2-0.4,0.4-0.9,0.4-1.4c0-0.8-0.3-1.5-0.8-2c-0.6-0.5-1.3-0.8-2-0.8
	c-0.8,0-1.5,0.2-2.1,0.8c-0.5,0.5-0.8,1.2-0.8,2c0,0.5,0.1,1,0.4,1.4c0.2,0.4,0.6,0.8,1,1c0.5,0.2,1,0.4,1.5,0.4
	C312.2,182.9,312.8,182.8,313.2,182.5L313.2,182.5z"/>
<path class="st0" d="M326.4,180.9h-6.7c0.1,0.7,0.4,1.4,1,1.8c0.6,0.5,1.3,0.7,2,0.7c0.9,0,1.8-0.3,2.4-1l0.8,1
	c-0.4,0.4-0.9,0.8-1.4,1c-0.6,0.2-1.2,0.4-1.9,0.4c-0.8,0-1.6-0.2-2.3-0.6c-0.7-0.4-1.2-0.9-1.6-1.5c-0.4-0.7-0.6-1.5-0.6-2.2
	c0-0.8,0.2-1.5,0.5-2.2c0.3-0.6,0.9-1.2,1.5-1.5c1.3-0.7,2.9-0.7,4.2,0c0.6,0.4,1.1,0.9,1.5,1.5c0.4,0.7,0.5,1.5,0.5,2.3
	C326.5,180.5,326.5,180.7,326.4,180.9z M320.6,178c-0.5,0.5-0.8,1.1-0.8,1.8h5.3c-0.1-0.7-0.4-1.3-0.8-1.8
	C323.1,177.1,321.6,177.1,320.6,178L320.6,178z"/>
<path class="st0" d="M341.9,179.8c0.4,0.5,0.6,1.2,0.5,1.8c0,0.9-0.4,1.7-1.1,2.2c-0.9,0.6-2,0.9-3.1,0.8h-5.2v-11.2h4.9
	c1-0.1,2.1,0.2,2.9,0.8c0.6,0.5,1,1.3,1,2.1c0,0.5-0.1,1.1-0.4,1.5c-0.3,0.4-0.6,0.8-1.1,1C341,178.9,341.5,179.3,341.9,179.8z
	 M334.6,174.7v3.6h3.2c0.6,0,1.3-0.1,1.9-0.5c0.7-0.6,0.9-1.6,0.3-2.4c-0.1-0.1-0.2-0.2-0.3-0.3c-0.6-0.3-1.2-0.5-1.9-0.5
	L334.6,174.7z M340.2,182.8c0.5-0.3,0.7-0.8,0.7-1.4c0-1.3-0.9-1.9-2.7-1.9h-3.6v3.7h3.6C338.9,183.3,339.6,183.2,340.2,182.8z"/>
<path class="st0" d="M352.4,176.1v8.5H351v-1.3c-0.3,0.4-0.7,0.8-1.2,1c-0.5,0.2-1.1,0.4-1.6,0.4c-1,0.1-1.9-0.3-2.6-0.9
	c-0.7-0.7-1-1.7-1-2.8v-4.9h1.5v4.7c0,0.7,0.2,1.3,0.6,1.9c0.4,0.4,1,0.7,1.6,0.6c0.7,0,1.4-0.2,1.9-0.7c0.5-0.6,0.7-1.3,0.7-2.1
	v-4.4L352.4,176.1z"/>
<path class="st0" d="M355.3,174.2c-0.2-0.2-0.3-0.4-0.3-0.7c0-0.6,0.4-1,1-1c0.3,0,0.5,0.1,0.7,0.3c0.2,0.2,0.3,0.4,0.3,0.7
	c0,0.6-0.4,1-1,1C355.8,174.5,355.5,174.4,355.3,174.2z M355.3,176.1h1.5v8.5h-1.5V176.1z"/>
<path class="st0" d="M359.7,172.7h1.5v11.9h-1.5V172.7z"/>
<path class="st0" d="M371.9,172.7v11.9h-1.4v-1.4c-0.3,0.5-0.8,0.8-1.3,1.1c-0.5,0.3-1.1,0.4-1.7,0.4c-0.8,0-1.5-0.2-2.2-0.5
	c-0.6-0.4-1.1-0.9-1.5-1.5c-0.7-1.4-0.7-3.1,0-4.5c0.3-0.6,0.9-1.2,1.5-1.5c0.7-0.4,1.4-0.6,2.2-0.5c0.6,0,1.1,0.1,1.6,0.3
	c0.5,0.2,0.9,0.6,1.2,1v-4.7L371.9,172.7z M369.1,183c0.4-0.3,0.8-0.6,1-1.1c0.2-0.5,0.4-1,0.4-1.6c0-0.5-0.1-1.1-0.4-1.6
	c-0.2-0.4-0.6-0.8-1-1c-0.9-0.5-2-0.5-2.8,0c-0.4,0.2-0.7,0.6-1,1c-0.3,0.5-0.4,1-0.4,1.6c0,0.5,0.1,1.1,0.4,1.6
	c0.2,0.4,0.6,0.8,1,1.1C367.1,183.5,368.2,183.5,369.1,183z"/>
<path class="st0" d="M374.8,174.2c-0.2-0.2-0.3-0.4-0.3-0.7c0-0.6,0.4-1,1-1c0.3,0,0.5,0.1,0.7,0.3c0.2,0.2,0.3,0.4,0.3,0.7
	c0,0.6-0.4,1-1,1C375.3,174.5,375,174.4,374.8,174.2z M374.8,176.1h1.5v8.5h-1.5V176.1z"/>
<path class="st0" d="M386.1,177c0.7,0.7,1,1.7,0.9,2.8v4.9h-1.5v-4.7c0-0.7-0.2-1.3-0.6-1.9c-0.4-0.4-1-0.7-1.6-0.6
	c-0.7,0-1.4,0.2-2,0.7c-0.5,0.6-0.8,1.3-0.7,2.1v4.4h-1.5v-8.5h1.4v1.3c0.3-0.4,0.7-0.8,1.2-1c0.6-0.2,1.2-0.4,1.8-0.4
	C384.5,176,385.4,176.3,386.1,177z"/>
<path class="st0" d="M397.8,176.1v7.3c0.1,1.2-0.3,2.4-1.1,3.3c-0.9,0.8-2,1.2-3.2,1.1c-0.8,0-1.5-0.1-2.2-0.3
	c-0.6-0.2-1.2-0.5-1.7-0.9l0.7-1.2c0.4,0.4,0.9,0.6,1.4,0.8c0.6,0.2,1.2,0.3,1.8,0.3c0.8,0.1,1.6-0.2,2.1-0.7
	c0.5-0.6,0.8-1.4,0.7-2.1v-0.7c-0.3,0.4-0.8,0.8-1.3,1c-0.5,0.2-1.1,0.3-1.7,0.3c-0.7,0-1.5-0.2-2.1-0.5c-0.6-0.3-1.1-0.8-1.5-1.5
	c-0.7-1.3-0.7-2.9,0-4.3c0.4-0.6,0.9-1.1,1.5-1.4c0.7-0.3,1.4-0.5,2.1-0.5c0.6,0,1.2,0.1,1.7,0.4c0.5,0.2,1,0.6,1.3,1v-1.3
	L397.8,176.1z M395,182.5c0.4-0.2,0.7-0.6,1-1c0.2-0.4,0.4-0.9,0.4-1.4c0-0.8-0.3-1.5-0.8-2c-1.2-1-2.9-1-4.1,0
	c-0.5,0.5-0.8,1.2-0.8,2c0,0.5,0.1,1,0.4,1.4c0.2,0.4,0.6,0.8,1,1c0.5,0.2,1,0.4,1.5,0.4C394,182.9,394.5,182.8,395,182.5z"/>
<path class="st0" d="M193.6,177c0.7,0.7,1,1.7,1,2.8v4.9h-1.5v-4.7c0-0.7-0.2-1.3-0.6-1.9c-0.4-0.4-1-0.7-1.7-0.6
	c-0.7,0-1.4,0.2-2,0.7c-0.5,0.6-0.8,1.3-0.7,2.1v4.4h-1.5v-8.5h1.4v1.3c0.3-0.4,0.7-0.8,1.2-1c0.6-0.2,1.2-0.4,1.8-0.4
	C192.1,176,193,176.4,193.6,177z"/>
</svg>
