<?xml version="1.0" encoding="utf-8"?>
<!-- Generator: Adobe Illustrator 23.0.0, SVG Export Plug-In . SVG Version: 6.00 Build 0)  -->
<svg version="1.1" id="Layer_1" xmlns="http://www.w3.org/2000/svg" xmlns:xlink="http://www.w3.org/1999/xlink" x="0px" y="0px"
	 viewBox="0 0 398.7 187.8" style="enable-background:new 0 0 398.7 187.8;" xml:space="preserve">
<style type="text/css">
	.st0{fill:#FFFFFF;}
</style>
<title>Logo Bawah_white</title>
<g id="Group_1083">
	<path id="Logo_FJI_OK_08082019" class="st0" d="M232.9-36.6v10.2h-3.1v-10.2h-1.9v10.2h-7.5v-10.2h-1.8v10.2h-1.7v-10.2h-1.9v10.2
		h-1.1v14.5h-3.4v1.9l0,0v7.5h-5.6v-3.2H203v3.2h-2.7v-3.2h-1.9v3.2h-3.1V6h-0.9v0.6l0,0v19.3h-2.6v-4.5H190v4.5h-2.9v-4.5h-1.7
		v98.9h-3.6v-4.7H180v4.7h-6.7v-4.7h-1.9v4.7h-10.9v-4.7h-1.8v4.7h-6.7v-4.7h-1.8v4.7h-3.5V21.2h-1.8v4.5h-2.9v-4.5h-1.8v4.5h-2.6
		V6.5l0,0V5.9h-0.8v-8.6h-2.9v-3.2h-1.9v3.2h-2.7v-3.2h-1.8v3.2h-5.6V-12h-3.3v-12.7l0,0v-1.7h-1.2v-10.2h-1.8v10.2h-1.7v-10.2h-1.9
		v10.2h-7.5v-10.2h-1.8v10.2h-3v-10.2h-1.9v172H235v-172H232.9z M229.7-10.1h3.1v7.5h-3.1V-10.1z M228-2.7h-7.5v-7.5h7.5V-2.7z
		 M232.9-24.7V-12h-3.1v-12.7H232.9z M228-24.7V-12h-7.5v-12.7H228z M215.8-24.7h2.7V-12h-2.7V-24.7z M212.3-10.1h6.2v7.5h-6.2
		V-10.1z M213.9-0.8v2.4h-9.1v-2.4H213.9z M203,7.7v7.9h-2.7V7.7H203z M200.2,5.9V3.4h2.7v2.5H200.2z M200.2,17.5h2.7v8.3h-2.7V17.5
		z M200.2,27.6h2.7v7h-2.7V27.6z M200.2,36.4h2.7v7.9h-2.7V36.4z M200.2,46.2h2.7v7.2h-2.7V46.2z M200.2,55.2h2.7v6.9h-2.7V55.2z
		 M200.2,64h2.7v7.3h-2.7V64z M200.2,73.1h2.7v7.4h-2.7V73.1z M200.2,82.3h2.7v7.2h-2.7V82.3z M200.2,91.3h2.7v7.3h-2.7V91.3z
		 M204.8,91.3h9.1v7.3h-9.1L204.8,91.3z M204.8,89.6v-7.2h9.1v7.1L204.8,89.6z M204.8,80.5v-7.4h9.1v7.4L204.8,80.5z M204.8,71.2
		v-7.4h9.1v7.3L204.8,71.2z M204.8,62.1v-6.9h9.1v7L204.8,62.1z M204.8,53.4v-7.2h9.1v7.2L204.8,53.4z M204.8,44.3v-7.9h9.1v7.9
		L204.8,44.3z M204.8,34.6v-6.9h9.1v7L204.8,34.6z M204.8,25.8v-8.3h9.1v8.3H204.8z M204.8,15.6V7.7h9.1v7.9L204.8,15.6L204.8,15.6z
		 M200.2,100.5h2.7v7.1h-2.7V100.5z M204.8,100.5h9.1v7.1h-9.1V100.5z M215.7,100.5h2.7v7.1h-2.7V100.5z M215.7,98.7v-7.4h2.7v7.4
		H215.7z M215.7,89.6v-7.2h2.7v7.1L215.7,89.6z M215.7,80.5v-7.4h2.7v7.4H215.7z M215.7,71.2v-7.3h2.7v7.3H215.7z M215.7,62.1v-6.9
		h2.7v7L215.7,62.1z M215.7,53.4v-7.2h2.7v7.2L215.7,53.4z M215.7,44.3v-7.9h2.7v7.9L215.7,44.3z M215.7,34.6v-6.9h2.7v7L215.7,34.6
		z M215.7,25.8v-8.3h2.7v8.3H215.7z M215.7,15.6V7.7h2.7v7.9L215.7,15.6L215.7,15.6z M215.7,5.9V3.4h2.7v2.5L215.7,5.9z M213.9,5.9
		h-9.1V3.4h9.1V5.9z M203-0.8v2.4h-2.7v-2.4H203z M198.4-0.8v2.4h-1.2v-2.4H198.4z M197.2,3.4h1.2v2.5h-1.2V3.4z M194.6,27.7v3.2
		h-2.6v-3.2H194.6z M190.1,27.7v3.2h-2.9v-3.2H190.1z M187.3,32.7h2.9v87.4h-2.9V32.7z M190.2,128.6h-2.9v-6.6h2.9L190.2,128.6z
		 M185.5,121.9v6.6H182v-6.6H185.5z M180.1,121.9v6.6h-6.7v-6.6H180.1z M167,121.9h4.5v6.6h-10.9v-6.6H167z M158.9,121.9v6.6h-6.7
		v-6.6H158.9z M150.4,121.9v6.6h-3.6v-6.6H150.4z M144.9,27.7v3.2h-2.9v-3.2H144.9z M140.3,27.7v3.2h-2.6v-3.2H140.3z M133.8,5.9
		V3.4h1.2v2.5H133.8z M116.5,3.4v2.5h-2.7V3.4H116.5z M132,98.7h-2.7v-7.4h2.7V98.7z M127.4,36.4v7.9h-9.1v-7.9L127.4,36.4z
		 M118.3,34.6v-6.9h9.1v7L118.3,34.6z M127.4,46.2v7.2h-9.1v-7.2L127.4,46.2z M127.4,55.2v6.9h-9.1v-7L127.4,55.2z M127.4,64v7.4
		h-9.1v-7.4L127.4,64z M127.4,73.1v7.4h-9.1v-7.4L127.4,73.1z M127.4,82.4v7.2h-9.1v-7.2L127.4,82.4z M127.4,91.4v7.3h-9.1v-7.4
		L127.4,91.4z M132,89.6h-2.7v-7.2h2.7V89.6z M132,80.5h-2.7v-7.4h2.7V80.5z M132,71.2h-2.7v-7.4h2.7V71.2z M132,62.1h-2.7v-6.9h2.7
		V62.1z M132,53.4h-2.7v-7.2h2.7V53.4z M132,44.4h-2.7v-7.9h2.7V44.4z M132,34.6h-2.7v-6.9h2.7V34.6z M132,25.8h-2.7v-8.3h2.7V25.8z
		 M127.4,25.8h-9.1v-8.3h9.1L127.4,25.8z M118.3,15.6V7.7h9.1v7.9L118.3,15.6L118.3,15.6z M118.3,5.9V3.4h9.1v2.5H118.3z M116.5,7.8
		v7.9h-2.7V7.7L116.5,7.8z M116.5,17.5v8.3h-2.7v-8.3H116.5z M116.5,27.6v7h-2.7v-6.9L116.5,27.6z M116.5,36.4v7.9h-2.7v-7.9
		L116.5,36.4z M116.5,46.2v7.2h-2.7v-7.2L116.5,46.2z M116.5,55.2v6.9h-2.7v-7L116.5,55.2z M116.5,64v7.3h-2.7v-7.4L116.5,64z
		 M116.5,73.1v7.4h-2.7v-7.4L116.5,73.1z M116.5,82.3v7.2h-2.7v-7.2L116.5,82.3z M116.5,91.4v7.3h-2.7v-7.4L116.5,91.4z
		 M116.5,100.6v7.1h-2.7v-7.1H116.5z M118.3,100.6h9.1v7.1h-9.1L118.3,100.6z M129.2,100.6h2.7v7.1h-2.7V100.6z M132,15.6h-2.7V7.7
		h2.7V15.6z M129.2,5.9V3.4h2.7v2.5H129.2z M135-0.8v2.4h-1.2v-2.4L135-0.8z M131.9-0.8v2.4h-2.7v-2.4L131.9-0.8z M127.4,1.6h-9.1
		v-2.4h9.1L127.4,1.6z M119.9-2.7h-6.3v-7.4h6.2L119.9-2.7z M99.3-10.1h3.1v7.5h-3.1V-10.1L99.3-10.1z M104.3-10.1h7.5v7.5h-7.5
		L104.3-10.1z M116.5-24.6V-12h-2.7v-12.7L116.5-24.6z M111.8-24.6V-12h-7.5v-12.7L111.8-24.6z M102.4-24.6V-12h-3.1v-12.7
		L102.4-24.6z M99.3,133.5V-0.9h3.1v134.4H99.3z M104.3,133.5V-0.9h12.1v2.4h-4.6v4.3h-4.5v1.8l0,0v125.9H104.3z M109.2,133.5V7.7
		h2.6v7.9l0,0v1.8l0,0v8.3l0,0v1.8l0,0v7l0,0v1.8l0,0v7.9l0,0v1.9l0,0v7.1l0,0v1.8l0,0v6.9l0,0V64l0,0v7.4l0,0v1.8l0,0v7.4l0,0v1.9
		l0,0v7.2l0,0v1.9l0,0v7.3l0,0v1.9l0,0v7.1l0,0v1.9l0,0v24.2h-2.6V133.5z M113.6,133.5v-24.1h2.8v24.1H113.6z M118.2,133.5v-24.1
		h9.1v24.1H118.2z M129.2,133.5v-24.1h2.7v24.1H129.2z M133.8,133.5V7.7h2v125.8H133.8z M137.6,133.5V32.7h2.6v100.8H137.6z
		 M142.1,133.5V32.7h2.9v87.4h-1.6v1.9h1.7v6.6h-1.7v1.8h1.7v3.2h-2.9L142.1,133.5z M146.7,133.5v-3.2h3.5v3.2H146.7z M152.1,133.5
		v-3.2h6.7v3.2H152.1z M167,133.5h-6.3v-3.2h10.9v3.2H167z M173.3,133.5v-3.2h6.7v3.2H173.3z M181.9,133.5v-3.2h3.5v3.2H181.9z
		 M187.3,133.5v-3.2h2.9v3.2H187.3z M191.9,133.5V32.7h2.6v100.8H191.9z M196.4,133.5V7.7h2v125.8H196.4z M200.2,133.5v-24.1h2.7
		v24.1H200.2z M204.8,133.5v-24.1h9.1v24.1H204.8z M215.8,133.5v-24.1h2.7v24.1H215.8z M220.4,133.5v-24.1l0,0v-1.9l0,0v-7.1l0,0
		v-1.8l0,0v-7.2l0,0v-1.8l0,0v-7.3l0,0v-1.9l0,0V73l0,0v-1.8l0,0v-7.4l0,0v-1.8l0,0V55l0,0v-1.6l0,0v-7.2l0,0v-1.9l0,0v-7.9l0,0
		v-1.8l0,0v-6.9l0,0v-1.9l0,0v-8.3l0,0v-1.8l0,0V7.7h2.7v125.8H220.4z M224.8,133.5V7.7l0,0V5.9h-4.5V1.6h-4.6v-2.4h12.1v134.3
		H224.8z M229.7,133.5V-0.9h3.1v134.4H229.7z"/>
</g>
<g>
	<path class="st0" d="M-1.8,157.8c-0.1,0.3-0.2,0.7-0.2,1c0,0.4,0.2,0.4,1.3,0.4h0.4l-0.1,0.9h-6.1l0.1-0.9h0.1
		c1.1,0,1.3-0.1,1.5-0.8l0.2-0.7l1.9-7.1c0.1-0.3,0.2-0.7,0.2-1c0-0.4-0.2-0.4-1.3-0.4h-0.2l0.1-0.9h5.1c1.3-0.1,2.6,0.1,3.7,0.7
		c0.8,0.5,1.2,1.4,1.2,2.4c0,1.3-0.8,2.6-2,3.1c-1.2,0.4-2.5,0.6-3.8,0.5H-1L-1.8,157.8z M0,154.2c0.7,0,1.5-0.2,2.1-0.6
		c0.7-0.7,1.1-1.7,1.1-2.7c0.1-0.8-0.5-1.6-1.3-1.7c-0.1,0-0.1,0-0.2,0H1.3c-0.7,0-0.8,0.1-1,0.9l-1.1,4.1L0,154.2z"/>
	<path class="st0" d="M18.4,152.9l-0.9-0.1c0-0.4,0-0.8,0-1c0-1.7-0.7-2.7-1.9-2.7c-0.5,0-0.5,0-0.7,0.7l-2.1,7.8
		c-0.1,0.3-0.2,0.7-0.2,1c0,0.4,0.2,0.4,1.3,0.4h0.4l-0.1,0.9H7.7l0.1-0.9h0.4c0.7,0,1.1-0.1,1.2-0.2s0.2-0.1,0.4-1.2l2.1-7.9
		c0-0.1,0.1-0.3,0.1-0.4c0-0.2-0.2-0.2-0.5-0.2c-1.4,0-2.4,1.1-3.5,3.7l-0.8-0.3l1.2-4.4h10.5L18.4,152.9z"/>
	<path class="st0" d="M20.6,158.9c0,0.8-0.6,1.4-1.4,1.4c-0.8,0-1.4-0.6-1.4-1.4c0-0.8,0.6-1.4,1.4-1.4c0,0,0,0,0,0
		C19.9,157.5,20.6,158.2,20.6,158.9z"/>
	<path class="st0" d="M39,152.3h-0.8c0-0.7-0.1-1.4-0.3-2.1c-0.5-0.8-1.3-1.2-2.2-1H35c-0.7,0-0.8,0.2-1,0.8l-1,3.6h0.3
		c1.3,0.1,2.4-0.7,2.7-2l0.9,0.1l-1.5,5.5l-0.9-0.1c0.1-0.3,0.1-0.7,0.1-1c0-1.1-0.5-1.6-1.5-1.6h-0.4l-0.9,3.3
		c-0.1,0.3-0.2,0.7-0.2,1c0,0.4,0.2,0.4,1.3,0.4h0.4l-0.1,0.9h-6.1l0.1-0.9l0,0c1.2,0,1.3-0.1,1.5-0.8l0.2-0.7l1.9-7.1
		c0.1-0.3,0.2-0.7,0.2-1c0-0.4-0.2-0.4-1.3-0.4h-0.3l0.1-0.9h10L39,152.3z"/>
	<path class="st0" d="M39.2,160.1l0.1-0.9h0.1c0.7,0,1.1-0.1,1.2-0.2c0.1-0.2,0.2-0.1,0.5-1.2l1.9-7.1c0.1-0.3,0.2-0.7,0.2-1
		c0-0.4-0.2-0.4-1.3-0.4h-0.4l0.1-0.9h6.1l-0.1,0.9h-0.1c-0.7,0-1.1,0.1-1.2,0.2c-0.1,0.2-0.1,0.1-0.4,1.2l-1.9,7.1
		c-0.1,0.3-0.2,0.7-0.2,1c0,0.4,0.2,0.4,1.3,0.4h0.4l-0.1,0.9H39.2z"/>
	<path class="st0" d="M51.6,157.8c-0.1,0.3-0.2,0.7-0.2,1c0,0.4,0.2,0.4,1.3,0.4h0.4l-0.1,0.9h-6.1l0.1-0.9h0.1
		c0.7,0,1.1-0.1,1.2-0.2c0.1-0.2,0.1-0.1,0.4-1.2l1.9-7.1c0.1-0.3,0.2-0.7,0.2-1c0-0.4-0.2-0.4-1.3-0.4h-0.3l0.1-0.9H55
		c1.2-0.1,2.3,0.1,3.4,0.5c0.8,0.4,1.3,1.3,1.3,2.2c0,1.9-1.6,2.9-4.7,3.2c0.6,0.1,1.2,0.4,1.6,0.9c0.5,0.6,0.7,1.3,0.6,2v0.5
		c0,1.1,0,1.1,0.1,1.2c0.1,0.1,0.2,0.2,0.3,0.2c0.3,0,0.7-0.3,0.9-0.9c0.1-0.2,0.1-0.3,0.3-0.7l0.7,0.3c-0.6,1.7-1.5,2.5-2.9,2.5
		c-1.2,0.1-2.3-0.8-2.4-2.1c0-0.1,0-0.2,0-0.2c0-0.3,0-0.9,0.1-1.4c0.1-0.3,0.1-0.6,0.1-0.9c0-0.9-0.5-1.3-1.7-1.3h-0.5L51.6,157.8z
		 M53.3,153.5c1.5,0,1.9-0.1,2.4-0.5c0.7-0.5,1.1-1.3,1.1-2.2c0-1-0.6-1.6-1.8-1.6h-0.4c-0.6,0-0.7,0.1-0.9,0.6l-1,3.7H53.3z"/>
	<path class="st0" d="M71.2,152.7l-0.8-0.1c0-0.7-0.1-1.4-0.4-2c-0.5-1-1.6-1.6-2.7-1.6c-1.4,0-2.3,0.7-2.3,1.8
		c0,0.5,0.2,0.9,0.5,1.2c0.4,0.3,0.8,0.5,1.3,0.6c1,0.3,1.9,0.7,2.8,1.2c1,0.6,1.5,1.6,1.5,2.7c0,2.3-1.9,3.9-4.8,3.9
		c-1.3,0.1-2.6-0.4-3.6-1.3l-1,1.1H61l0.8-4.6l0.8,0.1v0.2c-0.1,1.8,1.2,3.4,3.1,3.6c0.1,0,0.3,0,0.4,0c1.5,0,2.6-0.7,2.6-1.8
		s-0.6-1.4-2.8-2.2c-0.9-0.2-1.7-0.6-2.4-1.2c-0.6-0.6-0.9-1.4-0.9-2.2c0.1-2.2,1.9-4,4.2-3.9c0.1,0,0.1,0,0.2,0
		c1.2,0,2.4,0.4,3.3,1.2l0.9-0.9h0.7L71.2,152.7z"/>
	<path class="st0" d="M84.1,152.9l-0.9-0.1c0-0.4,0-0.8,0-1c0-1.7-0.7-2.7-1.9-2.7c-0.5,0-0.5,0-0.7,0.7l-2.1,7.8
		c-0.1,0.3-0.2,0.7-0.2,1c0,0.4,0.2,0.4,1.3,0.4H80l-0.1,0.9h-6.5l0.1-0.9H74c0.7,0,1.1-0.1,1.2-0.2c0.1-0.2,0.2-0.1,0.4-1.2
		l2.1-7.9c0-0.1,0.1-0.3,0.1-0.4c0-0.2-0.2-0.2-0.5-0.2c-1.4,0-2.4,1.1-3.6,3.7l-0.8-0.3l1.2-4.4h10.5L84.1,152.9z"/>
	<path class="st0" d="M95.4,148.3h6.2l-0.1,0.9h-0.1c-0.4-0.1-0.9,0-1.3,0.2c-0.1,0.1-0.1,0.1-0.4,1.2l-1.3,4.9
		c-0.2,0.9-0.4,1.8-0.8,2.6c-0.8,1.4-2.3,2.3-4,2.1c-2.5,0-3.8-1.1-3.8-3c-0.2-1.3,0.7-2.4,2-2.6c0.1,0,0.1,0,0.2,0
		c0.9-0.1,1.6,0.5,1.7,1.4c0,0.1,0,0.1,0,0.2c0,0.8-0.6,1.5-1.4,1.5c0,0,0,0,0,0c-0.3,0-0.5-0.1-0.7-0.2c-0.2-0.1-0.3-0.2-0.4-0.2
		c-0.1,0-0.3,0.2-0.3,0.4c0.1,0.9,0.9,1.6,1.8,1.5c0,0,0,0,0,0c0.8,0,1.6-0.5,2-1.2c0.4-0.7,0.7-1.5,0.8-2.4l1.4-5.2
		c0.1-0.3,0.2-0.7,0.2-1c0-0.4-0.2-0.4-1.3-0.4h-0.5L95.4,148.3z"/>
	<path class="st0" d="M110.4,158.3c0.2,0.8,0.5,1,1.5,1h0.2l-0.1,0.9h-6.1l0.1-0.9h0.3c0.4,0,0.7,0,1.1-0.1c0.2-0.1,0.3-0.2,0.3-0.4
		c0-0.2,0-0.4-0.1-0.5l-0.3-1.7h-3.8l-0.7,1.3c-0.1,0.2-0.2,0.5-0.2,0.7c0,0.5,0.4,0.7,1.3,0.7h0.2l-0.1,0.9h-4.7l0.1-0.9h0.1
		c1-0.2,1.8-0.8,2.2-1.7l5.7-9.4h1L110.4,158.3z M106.2,151.7l-2.3,3.9h3L106.2,151.7z"/>
	<path class="st0" d="M122.3,150.3c0.3-0.3,0.5-0.5,0.5-0.7c0-0.2-0.2-0.4-0.7-0.4h-0.6l0.1-0.9h4.9l-0.1,0.9
		c-1.1,0-2.1,0.5-2.8,1.3L121,153l2.4,5c0.5,1.2,0.6,1.2,1.8,1.2h0.2l-0.1,0.9h-6.1l0.1-0.9h0.5c0.7,0,1-0.1,1-0.4s0-0.1-0.2-0.5
		l-1.7-3.5l-1.4,1.3l-0.4,1.6c-0.1,0.3-0.2,0.7-0.2,1c0,0.4,0.2,0.4,1.3,0.4h0.2l-0.1,0.9h-5.9l0.1-0.9h0.1c0.4,0,0.8,0,1.2-0.2
		c0.1-0.1,0.1-0.1,0.5-1.2l1.9-7.1c0.1-0.3,0.2-0.7,0.2-1c0-0.4-0.2-0.4-1.3-0.4h-0.3l0.1-0.9h6.1l-0.1,0.9h-0.2
		c-0.7,0-1.1,0.1-1.2,0.2c-0.1,0.2-0.2,0.1-0.4,1.2l-1,3.7L122.3,150.3z"/>
	<path class="st0" d="M136.1,158.3c0.2,0.8,0.5,1,1.5,1h0.2l-0.1,0.9h-6.1l0.1-0.9h0.3c0.4,0,0.7,0,1.1-0.1c0.2-0.1,0.3-0.2,0.3-0.4
		c0-0.2,0-0.4-0.1-0.5l-0.3-1.7h-3.8l-0.7,1.3c-0.1,0.2-0.2,0.5-0.2,0.7c0,0.5,0.4,0.7,1.3,0.7h0.2l-0.1,0.9h-4.7l0.1-0.9h0.1
		c1-0.2,1.8-0.8,2.2-1.7l5.7-9.4h1L136.1,158.3z M132,151.7l-2.3,3.9h3L132,151.7z"/>
	<path class="st0" d="M142.8,157.8c-0.1,0.3-0.2,0.7-0.2,1c0,0.4,0.2,0.4,1.3,0.4h0.4l-0.1,0.9H138l0.1-0.9h0.1
		c0.7,0,1.1-0.1,1.2-0.2c0.1-0.2,0.1-0.1,0.4-1.2l1.9-7.1c0.1-0.3,0.2-0.7,0.2-1c0-0.4-0.2-0.4-1.3-0.4h-0.3l0.1-0.9h5.7
		c1.2-0.1,2.3,0.1,3.4,0.5c0.8,0.4,1.3,1.3,1.3,2.2c0,1.9-1.6,2.9-4.7,3.2c0.6,0.1,1.2,0.4,1.6,0.9c0.5,0.6,0.7,1.3,0.6,2v0.5
		c0,1.1,0,1.1,0.1,1.2c0.1,0.1,0.2,0.2,0.3,0.2c0.3,0,0.7-0.3,0.9-0.9c0.1-0.2,0.1-0.3,0.3-0.7l0.7,0.3c-0.6,1.7-1.5,2.5-2.9,2.5
		c-1.2,0.1-2.3-0.8-2.4-2.1c0-0.1,0-0.2,0-0.2c0-0.3,0-0.9,0.1-1.4c0.1-0.3,0.1-0.6,0.1-0.9c0-0.9-0.5-1.3-1.7-1.3h-0.5L142.8,157.8
		z M144.5,153.5c1.5,0,1.9-0.1,2.4-0.5c0.7-0.5,1.1-1.3,1.1-2.2c0-1-0.6-1.6-1.8-1.6h-0.4c-0.6,0-0.7,0.1-0.9,0.6l-1,3.7H144.5z"/>
	<path class="st0" d="M163.6,152.9l-0.9-0.1c0-0.4,0-0.8,0-1c0-1.7-0.7-2.7-1.9-2.7c-0.5,0-0.5,0-0.7,0.7l-2.1,7.8
		c-0.1,0.3-0.2,0.7-0.2,1c0,0.4,0.2,0.4,1.3,0.4h0.4l-0.1,0.9h-6.5l0.1-0.9h0.4c0.7,0,1.1-0.1,1.2-0.2c0.1-0.2,0.1-0.1,0.4-1.2
		l2.1-7.9c0-0.1,0.1-0.3,0.1-0.4c0-0.2-0.2-0.2-0.5-0.2c-1.4,0-2.4,1.1-3.5,3.7l-0.8-0.3l1.2-4.4h10.6L163.6,152.9z"/>
	<path class="st0" d="M173.2,158.3c0.2,0.8,0.5,1,1.5,1h0.2l-0.1,0.9h-6.1l0.1-0.9h0.3c0.4,0,0.7,0,1.1-0.1c0.2-0.1,0.3-0.2,0.3-0.4
		c0-0.2,0-0.4-0.1-0.5l-0.3-1.7h-3.8l-0.7,1.3c-0.1,0.2-0.2,0.5-0.2,0.7c0,0.5,0.4,0.7,1.3,0.7h0.2l-0.1,0.9H162l0.1-0.9h0.1
		c1-0.2,1.8-0.8,2.2-1.7l5.7-9.4h1L173.2,158.3z M169,151.7l-2.3,3.9h3L169,151.7z"/>
	<path class="st0" d="M180.3,160.1l0.1-0.9h0.1c0.7,0,1.1-0.1,1.2-0.2c0.1-0.2,0.1-0.1,0.4-1.2l1.9-7.1c0.1-0.3,0.2-0.7,0.2-1
		c0-0.4-0.2-0.4-1.3-0.4h-0.4l0.1-0.9h6.1l-0.1,0.9h-0.1c-0.7,0-1.1,0.1-1.2,0.2c-0.2,0.2-0.1,0.1-0.4,1.2l-1.9,7.1
		c-0.1,0.3-0.2,0.7-0.2,1c0,0.4,0.2,0.4,1.3,0.4h0.4l-0.1,0.9H180.3z"/>
	<path class="st0" d="M198.7,156.6l1.3-4.8c0.2-0.6,0.3-1.2,0.4-1.8c0-0.6-0.5-0.9-1.5-0.9l0.1-0.9h4.5l-0.1,0.9
		c-0.5,0-0.9,0.1-1.3,0.4c-0.5,0.4-0.5,0.5-1,2.2l-2.3,8.5h-1.3l-4.8-9.2l-1.5,5.5c-0.2,0.6-0.3,1.2-0.3,1.8c0,0.6,0.5,0.9,1.4,0.9
		h0.2l-0.1,0.9h-4.6l0.1-0.9c0.5,0,0.9-0.2,1.3-0.4c0.5-0.4,0.5-0.5,1-2.2l1.8-6.8c-0.2-0.4-0.6-0.6-1-0.5h-0.9l0.1-0.9h4.1
		L198.7,156.6z"/>
	<path class="st0" d="M214.7,152.9l-0.9-0.1c0-0.4,0-0.8,0-1c0-1.7-0.7-2.7-1.9-2.7c-0.5,0-0.5,0-0.7,0.7l-2.1,7.8
		c-0.1,0.3-0.2,0.7-0.2,1c0,0.4,0.2,0.4,1.3,0.4h0.4l-0.1,0.9h-6.4l0.1-0.9h0.4c0.7,0,1.1-0.1,1.2-0.2c0.1-0.2,0.1-0.1,0.4-1.2
		l2.1-7.9c0-0.1,0.1-0.3,0.1-0.4c0-0.2-0.2-0.2-0.5-0.2c-1.4,0-2.4,1.1-3.5,3.7l-0.8-0.3l1.2-4.4h10.5L214.7,152.9z"/>
	<path class="st0" d="M226.5,152.3h-0.8c0-0.7-0.1-1.4-0.3-2.1c-0.5-0.8-1.3-1.2-2.2-1h-0.6c-0.7,0-0.8,0.2-1,0.8l-1,3.6h0.3
		c1.3,0.1,2.4-0.7,2.7-2l0.9,0.1l-1.5,5.5l-0.9-0.1c0.1-0.3,0.1-0.7,0.1-1c0.1-0.8-0.4-1.5-1.2-1.6c-0.1,0-0.3,0-0.4,0h-0.4l-1,3.9
		c-0.1,0.2-0.1,0.3-0.1,0.5c0,0.3,0.3,0.4,0.9,0.4h0.6c1.3,0,2.5-0.5,3.3-1.4c0.6-0.5,1.1-1.2,1.4-1.9l0.9,0.2l-1.1,4h-10.5l0.1-0.9
		h0.1c1.1,0,1.3-0.1,1.5-0.8l0.2-0.7l1.9-7.1c0.1-0.3,0.2-0.7,0.2-1c0-0.4-0.2-0.4-1.3-0.4H217l0.1-0.9h10L226.5,152.3z"/>
	<path class="st0" d="M231.9,157.8c-0.1,0.3-0.2,0.7-0.2,1c0,0.4,0.2,0.4,1.3,0.4h0.4l-0.1,0.9h-6.1l0.1-0.9h0.1
		c0.7,0,1.1-0.1,1.2-0.2c0.1-0.2,0.1-0.1,0.4-1.2l1.9-7.1c0.1-0.3,0.2-0.7,0.2-1c0-0.4-0.2-0.4-1.3-0.4h-0.3l0.1-0.9h5.7
		c1.2-0.1,2.3,0.1,3.4,0.5c0.8,0.4,1.3,1.3,1.3,2.2c0,1.9-1.6,2.9-4.7,3.2c0.6,0.1,1.2,0.4,1.6,0.9c0.5,0.6,0.7,1.3,0.6,2v0.5
		c0,1.1,0,1.1,0.1,1.2c0.1,0.1,0.2,0.2,0.3,0.2c0.3,0,0.6-0.3,0.9-0.9c0.1-0.2,0.1-0.3,0.3-0.7l0.7,0.3c-0.6,1.7-1.5,2.5-2.9,2.5
		c-1.2,0.1-2.3-0.8-2.4-2.1c0-0.1,0-0.2,0-0.2c0-0.5,0.1-0.9,0.1-1.4c0-0.3,0.1-0.6,0.1-0.9c0-0.9-0.5-1.3-1.7-1.3h-0.5L231.9,157.8
		z M233.6,153.5c1.5,0,1.9-0.1,2.4-0.5c0.7-0.5,1.1-1.3,1.1-2.2c0-1-0.6-1.6-1.8-1.6h-0.4c-0.6,0-0.7,0.1-0.9,0.6l-1,3.7H233.6z"/>
	<path class="st0" d="M251.4,156.6l1.3-4.8c0.2-0.6,0.3-1.2,0.4-1.8c0-0.6-0.5-0.9-1.5-0.9l0.1-0.9h4.5l-0.1,0.9
		c-0.5,0-1,0.1-1.3,0.4c-0.5,0.4-0.5,0.5-1,2.2l-2.3,8.5h-1.3l-4.8-9.2l-1.5,5.5c-0.2,0.6-0.3,1.2-0.3,1.8c0,0.6,0.5,0.9,1.4,0.9
		h0.2l-0.1,0.9h-4.6l0.1-0.9c0.5,0,0.9-0.1,1.3-0.4c0.5-0.4,0.5-0.5,1-2.2l1.8-6.8c-0.2-0.4-0.6-0.6-1-0.5h-0.9l0.1-0.9h4.2
		L251.4,156.6z"/>
	<path class="st0" d="M265.1,158.3c0.2,0.8,0.5,1,1.5,1h0.2l-0.1,0.9h-6.1l0.1-0.9h0.3c0.4,0,0.7,0,1.1-0.1c0.2-0.1,0.3-0.2,0.3-0.4
		c0-0.2,0-0.4-0.1-0.5l-0.3-1.7h-3.8l-0.7,1.3c-0.1,0.2-0.2,0.5-0.2,0.7c0,0.5,0.4,0.7,1.3,0.7h0.2l-0.1,0.9H254l0.1-0.9h0.1
		c1-0.2,1.8-0.8,2.2-1.7l5.7-9.4h1L265.1,158.3z M261,151.7l-2.3,3.9h3L261,151.7z"/>
	<path class="st0" d="M279.2,152.9l-0.9-0.1c0-0.4,0-0.8,0-1c0-1.7-0.7-2.7-1.9-2.7c-0.5,0-0.5,0-0.7,0.7l-2.1,7.8
		c-0.1,0.3-0.2,0.7-0.2,1c0,0.4,0.2,0.4,1.3,0.4h0.4l-0.1,0.9h-6.5l0.1-0.9h0.4c0.7,0,1.1-0.1,1.2-0.2c0.1-0.2,0.1-0.1,0.4-1.2
		l2.1-7.9c0-0.1,0.1-0.3,0.1-0.4c0-0.2-0.2-0.2-0.5-0.2c-1.4,0-2.4,1.1-3.6,3.7l-0.8-0.3l1.2-4.4h10.6L279.2,152.9z"/>
	<path class="st0" d="M279.1,160.1l0.1-0.9h0.1c0.7,0,1.1-0.1,1.2-0.2c0.1-0.2,0.1-0.1,0.4-1.2l1.9-7.1c0.1-0.3,0.2-0.7,0.2-1
		c0-0.4-0.2-0.4-1.3-0.4h-0.4l0.1-0.9h6.1l-0.1,0.9h-0.1c-0.7,0-1.1,0.1-1.2,0.2c-0.2,0.2-0.1,0.1-0.4,1.2l-1.9,7.1
		c-0.1,0.3-0.2,0.7-0.2,1c0,0.4,0.2,0.4,1.3,0.4h0.4l-0.1,0.9H279.1z"/>
	<path class="st0" d="M299.1,149.6c0.9,0.9,1.4,2.1,1.3,3.3c0,4.1-3.3,7.4-7.4,7.4c-2.6,0.2-4.8-1.7-5-4.3c0-0.2,0-0.4,0-0.6
		c0-2,0.8-3.9,2.3-5.3c1.4-1.3,3.2-2.1,5.1-2.1C296.9,148.1,298.2,148.6,299.1,149.6z M292.4,151.5c-0.8,1.7-1.3,3.6-1.4,5.5
		c0,1.5,0.8,2.5,2.1,2.5s2.2-0.8,3.1-2.6c0.8-1.6,1.3-3.4,1.3-5.3c0-0.6-0.1-1.3-0.4-1.8c-0.4-0.5-1-0.8-1.6-0.8
		C294.2,149,293.3,149.8,292.4,151.5L292.4,151.5z"/>
	<path class="st0" d="M311.7,156.6l1.3-4.8c0.2-0.6,0.3-1.2,0.4-1.8c0-0.6-0.5-0.9-1.5-0.9l0.1-0.9h4.5l-0.1,0.9
		c-0.5,0-1,0.1-1.3,0.4c-0.5,0.4-0.5,0.5-1,2.2l-2.3,8.5h-1.3l-4.8-9.2l-1.5,5.5c-0.2,0.6-0.3,1.2-0.3,1.8c0,0.6,0.5,0.9,1.4,0.9
		h0.2l-0.1,0.9h-4.6l0.1-0.9c0.5,0,0.9-0.2,1.3-0.4c0.5-0.4,0.5-0.5,1-2.2l1.8-6.8c-0.2-0.4-0.6-0.6-1-0.5H303l0.1-0.9h4.1
		L311.7,156.6z"/>
	<path class="st0" d="M325.4,158.3c0.2,0.8,0.5,1,1.5,1h0.2l-0.1,0.9h-6.1l0.1-0.9h0.3c0.4,0,0.7,0,1.1-0.1c0.2-0.1,0.3-0.2,0.3-0.4
		c0-0.2,0-0.4-0.1-0.5l-0.3-1.7h-3.8l-0.7,1.3c-0.1,0.2-0.2,0.5-0.2,0.7c0,0.5,0.4,0.7,1.3,0.7h0.2l-0.1,0.9h-4.7l0.1-0.9h0.1
		c1-0.2,1.8-0.8,2.2-1.7l5.7-9.4h1L325.4,158.3z M321.3,151.7l-2.3,3.9h3L321.3,151.7z"/>
	<path class="st0" d="M338.9,156l-1.1,4.2h-10.5l0.1-0.9h0.1c0.4,0.1,0.9,0,1.2-0.2c0.1-0.1,0.1-0.1,0.4-1.2l1.9-7.1
		c0.1-0.3,0.2-0.7,0.2-1c0-0.4-0.2-0.4-1.3-0.4h-0.3l0.1-0.9h6.2l-0.1,0.9h-0.3c-0.7,0-1.1,0.1-1.2,0.2c-0.1,0.2-0.2,0.1-0.4,1.2
		l-1.9,7.1c-0.1,0.3-0.2,0.7-0.2,1c0,0.3,0.2,0.4,0.9,0.4h0.6c1.3,0,2.5-0.5,3.3-1.4c0.6-0.6,1.1-1.3,1.5-2L338.9,156z"/>
</g>
<path class="st0" d="M-72.1,183.3c-1.1-0.6-1.9-1.4-2.5-2.4c-1.2-2.2-1.2-4.8,0-7c0.6-1,1.5-1.9,2.5-2.5c1.1-0.6,2.4-0.9,3.7-0.9
	c1.2,0,2.5,0.3,3.6,0.9c1,0.6,1.9,1.4,2.5,2.4c1.2,2.2,1.2,4.8,0,7c-0.6,1-1.5,1.9-2.5,2.5c-1.1,0.6-2.3,0.9-3.6,0.9
	C-69.7,184.2-70.9,183.9-72.1,183.3z M-65.8,181.8c0.8-0.4,1.4-1.1,1.9-1.8c0.9-1.6,0.9-3.6,0-5.2c-0.4-0.8-1.1-1.4-1.9-1.8
	c-0.8-0.5-1.7-0.7-2.6-0.7c-0.9,0-1.8,0.2-2.7,0.7c-0.8,0.4-1.4,1.1-1.9,1.8c-0.9,1.6-0.9,3.6,0,5.2c0.4,0.8,1.1,1.4,1.9,1.8
	c0.8,0.5,1.7,0.7,2.7,0.7C-67.5,182.4-66.6,182.2-65.8,181.8L-65.8,181.8z"/>
<path class="st0" d="M-43.4,173.9l-3.8,10.1h-1.7l-2.9-7.6l-2.9,7.6h-1.7l-3.7-10.1h1.7l2.9,8l3-8h1.5l3,8.1l3-8.1H-43.4z"/>
<path class="st0" d="M-33.1,175c0.8,0.9,1.3,2.1,1.2,3.3v5.8h-1.9v-5.6c0.1-0.8-0.2-1.6-0.7-2.2c-0.5-0.5-1.3-0.8-2-0.7
	c-0.9-0.1-1.7,0.3-2.4,0.9c-0.6,0.7-0.9,1.6-0.9,2.5v5.2h-1.8v-10.1h1.7v1.5c0.4-0.5,0.9-0.9,1.5-1.2c0.7-0.3,1.4-0.4,2.1-0.4
	C-35,173.8-33.9,174.2-33.1,175z"/>
<path class="st0" d="M-19.3,179.5h-8.2c0.1,0.8,0.5,1.6,1.2,2.1c0.7,0.6,1.6,0.8,2.5,0.8c1.1,0.1,2.2-0.4,2.9-1.2l1,1.2
	c-0.5,0.5-1,0.9-1.7,1.2c-0.7,0.3-1.5,0.4-2.3,0.4c-1,0-2-0.2-2.8-0.7c-0.8-0.4-1.5-1.1-1.9-1.8c-0.5-0.8-0.7-1.7-0.7-2.7
	c0-0.9,0.2-1.8,0.7-2.7c0.4-0.8,1-1.4,1.8-1.8c1.6-0.9,3.6-0.9,5.2,0c0.7,0.4,1.4,1.1,1.8,1.8c0.4,0.8,0.6,1.8,0.6,2.7
	C-19.3,179.1-19.3,179.3-19.3,179.5z M-26.5,176.1c-0.6,0.5-1,1.3-1,2.1h6.5c-0.1-0.8-0.4-1.6-1-2.1
	C-23.3,175.1-25.2,175.1-26.5,176.1z"/>
<path class="st0" d="M-13.5,174.3c0.7-0.3,1.5-0.5,2.3-0.5v1.8h-0.4c-0.9-0.1-1.7,0.3-2.4,0.9c-0.6,0.7-0.9,1.6-0.8,2.5v5h-1.8
	v-10.1h1.7v1.7C-14.6,175-14.1,174.5-13.5,174.3z"/>
<path class="st0" d="M-2.1,183.4c-0.8-0.4-1.4-1.1-1.9-1.8c-0.9-1.7-0.9-3.6,0-5.3c0.4-0.8,1.1-1.4,1.9-1.8c1.7-0.9,3.7-0.9,5.4,0
	c0.8,0.4,1.4,1.1,1.9,1.8c0.9,1.7,0.9,3.7,0,5.3c-0.4,0.8-1.1,1.4-1.9,1.8C1.7,184.3-0.4,184.3-2.1,183.4z M2.4,182.1
	c0.5-0.3,0.9-0.7,1.2-1.2c0.3-0.6,0.5-1.2,0.4-1.9c0-0.6-0.1-1.3-0.4-1.9c-0.3-0.5-0.7-0.9-1.2-1.2c-0.5-0.3-1.1-0.5-1.7-0.4
	c-0.6,0-1.2,0.1-1.7,0.4c-0.5,0.3-0.9,0.7-1.2,1.2c-0.3,0.6-0.5,1.2-0.4,1.9c0,0.6,0.1,1.3,0.4,1.9c0.3,0.5,0.7,0.9,1.2,1.2
	c0.5,0.3,1.1,0.5,1.7,0.5C1.3,182.5,1.9,182.4,2.4,182.1z"/>
<path class="st0" d="M10.5,173v0.9h2.9v1.5h-2.9v8.6H8.7v-8.6H7v-1.5h1.7V173c0-0.9,0.3-1.7,0.9-2.4c0.7-0.6,1.5-0.9,2.5-0.9
	c0.4,0,0.8,0,1.2,0.2c0.3,0.1,0.6,0.2,0.9,0.4l-0.5,1.4c-0.4-0.3-0.9-0.5-1.4-0.5C11.1,171.2,10.5,171.8,10.5,173z"/>
<path class="st0" d="M26.1,183.4c-0.3,0.2-0.6,0.4-1,0.5c-0.4,0.1-0.8,0.2-1.2,0.2c-0.9,0.1-1.7-0.2-2.4-0.8
	c-0.6-0.6-0.9-1.5-0.8-2.4v-5.5H19v-1.5h1.7v-2.2h1.8v2.2h2.9v1.5h-2.9v5.5c0,0.5,0.1,0.9,0.4,1.3c0.3,0.3,0.7,0.5,1.2,0.4
	c0.5,0,1-0.2,1.4-0.5L26.1,183.4z"/>
<path class="st0" d="M36.8,175c0.8,0.9,1.3,2.1,1.2,3.3v5.8h-1.9v-5.6c0.1-0.8-0.2-1.6-0.7-2.2c-0.5-0.5-1.3-0.8-2-0.7
	c-0.9-0.1-1.7,0.3-2.4,0.9c-0.6,0.7-0.9,1.6-0.9,2.5v5.2h-1.8v-14.2h1.8v5.5c0.4-0.5,0.9-0.9,1.5-1.1c0.7-0.3,1.4-0.4,2.1-0.4
	C34.9,173.8,36,174.2,36.8,175z"/>
<path class="st0" d="M50.6,179.5h-8.2c0.1,0.8,0.5,1.6,1.2,2.1c0.7,0.6,1.6,0.8,2.5,0.8c1.1,0.1,2.2-0.4,2.9-1.2l1,1.2
	c-0.5,0.5-1,0.9-1.7,1.2c-0.7,0.3-1.5,0.4-2.3,0.4c-1,0-2-0.2-2.8-0.7c-0.8-0.4-1.5-1.1-1.9-1.8c-0.5-0.8-0.7-1.7-0.7-2.7
	c0-0.9,0.2-1.8,0.7-2.7c0.4-0.8,1-1.4,1.8-1.8c1.6-0.9,3.6-0.9,5.2,0c0.7,0.4,1.4,1.1,1.8,1.8c0.4,0.8,0.6,1.8,0.6,2.7
	C50.6,179.1,50.6,179.3,50.6,179.5z M43.4,176.1c-0.6,0.5-1,1.3-1,2.1h6.5c-0.1-0.8-0.4-1.5-1-2.1C46.6,175.1,44.7,175.1,43.4,176.1
	z"/>
<path class="st0" d="M58.6,170.7h1.9V184h-1.9V170.7z"/>
<path class="st0" d="M72.7,175c0.8,0.9,1.3,2.1,1.2,3.3v5.8H72v-5.6c0.1-0.8-0.2-1.6-0.7-2.2c-0.5-0.5-1.3-0.8-2-0.7
	c-0.9-0.1-1.7,0.3-2.4,0.9c-0.6,0.7-0.9,1.6-0.9,2.5v5.2h-1.8v-10.1H66v1.5c0.4-0.5,0.9-0.9,1.5-1.2c0.7-0.3,1.4-0.4,2.1-0.4
	C70.8,173.8,71.9,174.2,72.7,175z"/>
<path class="st0" d="M86.9,169.9V184h-1.8v-1.6c-0.4,0.6-0.9,1-1.5,1.3c-0.6,0.3-1.3,0.4-2.1,0.4c-0.9,0-1.8-0.2-2.6-0.6
	c-0.8-0.4-1.4-1.1-1.8-1.8c-0.9-1.7-0.9-3.7,0-5.4c0.4-0.8,1.1-1.4,1.8-1.8c0.8-0.5,1.7-0.7,2.7-0.7c0.7,0,1.4,0.1,2,0.4
	c0.6,0.3,1.1,0.7,1.5,1.2v-5.6L86.9,169.9z M83.4,182.1c0.5-0.3,0.9-0.7,1.2-1.2c0.3-0.6,0.5-1.2,0.4-1.9c0-0.6-0.1-1.3-0.4-1.9
	c-0.3-0.5-0.7-0.9-1.2-1.2c-1.1-0.6-2.4-0.6-3.5,0c-0.5,0.3-0.9,0.7-1.2,1.2c-0.3,0.6-0.5,1.2-0.4,1.9c0,0.6,0.1,1.3,0.4,1.9
	c0.3,0.5,0.7,0.9,1.2,1.2C81,182.7,82.3,182.7,83.4,182.1z"/>
<path class="st0" d="M92,183.4c-0.8-0.4-1.4-1.1-1.9-1.8c-0.9-1.7-0.9-3.6,0-5.3c0.4-0.8,1.1-1.4,1.9-1.8c1.7-0.9,3.7-0.9,5.4,0
	c0.8,0.4,1.4,1.1,1.9,1.8c0.9,1.7,0.9,3.7,0,5.3c-0.4,0.8-1.1,1.4-1.9,1.8C95.7,184.3,93.7,184.3,92,183.4z M96.4,182
	c0.5-0.3,0.9-0.7,1.2-1.2c0.3-0.6,0.5-1.2,0.4-1.9c0-0.6-0.1-1.3-0.4-1.9c-0.3-0.5-0.7-0.9-1.2-1.2c-0.5-0.3-1.1-0.5-1.7-0.4
	c-0.6,0-1.2,0.1-1.7,0.4c-0.5,0.3-0.9,0.7-1.2,1.2c-0.3,0.6-0.5,1.2-0.4,1.9c0,0.6,0.1,1.3,0.4,1.9c0.3,0.5,0.7,0.9,1.2,1.2
	c0.5,0.3,1.1,0.5,1.7,0.5C95.3,182.5,95.9,182.4,96.4,182L96.4,182z"/>
<path class="st0" d="M110.9,175c0.8,0.9,1.3,2.1,1.2,3.3v5.8h-1.8v-5.6c0.1-0.8-0.2-1.6-0.7-2.2c-0.5-0.5-1.3-0.8-2-0.7
	c-0.9-0.1-1.7,0.3-2.4,0.9c-0.6,0.7-0.9,1.6-0.9,2.5v5.2h-1.8v-10.1h1.7v1.5c0.4-0.5,0.9-0.9,1.5-1.2c0.7-0.3,1.4-0.4,2.1-0.4
	C109,173.8,110.1,174.2,110.9,175z"/>
<path class="st0" d="M124.7,179.5h-8.2c0.1,0.8,0.5,1.6,1.2,2.1c0.7,0.6,1.6,0.8,2.5,0.8c1.1,0.1,2.2-0.4,2.9-1.2l1,1.2
	c-0.5,0.5-1,0.9-1.7,1.2c-0.7,0.3-1.5,0.4-2.3,0.4c-1,0-2-0.2-2.8-0.7c-0.8-0.4-1.5-1.1-1.9-1.8c-0.9-1.7-0.9-3.7,0-5.3
	c0.4-0.8,1-1.4,1.8-1.8c0.8-0.4,1.7-0.7,2.6-0.7c0.9,0,1.8,0.2,2.6,0.7c0.7,0.4,1.4,1.1,1.8,1.8c0.4,0.8,0.7,1.8,0.6,2.7
	C124.7,179.1,124.7,179.3,124.7,179.5z M117.5,176.1c-0.6,0.5-1,1.3-1,2.1h6.5c-0.1-0.8-0.4-1.6-1-2.1
	C120.7,175.1,118.8,175.1,117.5,176.1z"/>
<path class="st0" d="M127.8,183.8c-0.6-0.2-1.3-0.4-1.8-0.8l0.8-1.4c0.5,0.3,1,0.6,1.6,0.8c0.6,0.2,1.3,0.3,1.9,0.3
	c1.6,0,2.4-0.5,2.4-1.4c0-0.3-0.1-0.5-0.3-0.7c-0.2-0.2-0.5-0.3-0.8-0.4c-0.3-0.1-0.8-0.2-1.4-0.3c-0.7-0.1-1.3-0.2-2-0.4
	c-0.5-0.2-1-0.5-1.3-0.8c-0.4-0.5-0.6-1.1-0.5-1.7c0-0.9,0.4-1.7,1.2-2.2c0.9-0.6,2-0.9,3.1-0.8c0.7,0,1.4,0.1,2,0.2
	c0.6,0.1,1.1,0.3,1.7,0.7l-0.8,1.4c-0.9-0.5-1.9-0.8-2.9-0.8c-0.6,0-1.2,0.1-1.8,0.4c-0.4,0.2-0.6,0.6-0.6,1c0,0.3,0.1,0.6,0.3,0.8
	c0.2,0.2,0.5,0.3,0.8,0.4c0.3,0.1,0.8,0.2,1.4,0.3c0.7,0.1,1.3,0.3,2,0.5c0.5,0.2,0.9,0.4,1.3,0.8c0.4,0.4,0.6,1,0.5,1.6
	c0,0.9-0.4,1.7-1.2,2.2c-1,0.6-2.1,0.9-3.2,0.8C129.4,184.1,128.6,184,127.8,183.8z"/>
<path class="st0" d="M136.9,171.6c-0.2-0.2-0.4-0.5-0.4-0.8c0-0.3,0.1-0.6,0.4-0.8c0.2-0.2,0.6-0.4,0.9-0.3c0.3,0,0.7,0.1,0.9,0.3
	c0.2,0.2,0.4,0.5,0.3,0.8c0,0.7-0.6,1.2-1.3,1.2C137.4,172,137.1,171.8,136.9,171.6z M136.9,173.9h1.8V184h-1.8V173.9z"/>
<path class="st0" d="M149.1,174.8c0.8,0.8,1.2,1.9,1.1,3.1v6.1h-1.7v-1.3c-0.3,0.5-0.8,0.8-1.3,1.1c-0.6,0.3-1.3,0.4-2,0.4
	c-1,0-1.9-0.2-2.7-0.8c-0.7-0.5-1-1.3-1-2.2c0-0.8,0.3-1.6,1-2.1c0.9-0.6,2-0.9,3.1-0.8h2.9v-0.4c0-0.7-0.2-1.3-0.7-1.8
	c-0.6-0.5-1.3-0.7-2-0.6c-0.6,0-1.2,0.1-1.7,0.3c-0.5,0.2-1,0.4-1.5,0.8l-0.8-1.4c0.6-0.4,1.2-0.8,1.9-1c0.7-0.2,1.5-0.3,2.3-0.3
	C147.1,173.7,148.2,174.1,149.1,174.8z M147.3,182.2c0.5-0.3,0.9-0.8,1.1-1.3v-1.4h-2.8c-1.5,0-2.4,0.5-2.4,1.6
	c0,0.5,0.2,0.9,0.6,1.2c0.5,0.3,1.1,0.5,1.6,0.4C146.1,182.7,146.7,182.5,147.3,182.2z"/>
<path class="st0" d="M160.1,183.7c-0.8-0.2-1.6-0.6-2.2-1.2l0.7-1.5c0.6,0.5,1.2,0.9,2,1.1c0.8,0.3,1.6,0.4,2.4,0.4
	c0.9,0.1,1.7-0.1,2.5-0.6c0.5-0.3,0.8-0.9,0.8-1.5c0-0.4-0.1-0.8-0.5-1.1c-0.3-0.3-0.7-0.5-1.1-0.7c-0.4-0.2-1.1-0.3-1.9-0.5
	c-0.8-0.2-1.6-0.4-2.4-0.7c-0.6-0.2-1.2-0.6-1.6-1.1c-0.5-0.6-0.7-1.3-0.7-2c0-0.7,0.2-1.4,0.6-1.9c0.4-0.6,1-1.1,1.7-1.4
	c0.9-0.4,1.9-0.5,2.8-0.5c0.8,0,1.6,0.1,2.4,0.3c0.7,0.2,1.4,0.5,2,0.9l-0.6,1.5c-0.6-0.4-1.2-0.6-1.8-0.8c-0.6-0.2-1.2-0.3-1.9-0.3
	c-0.8-0.1-1.7,0.2-2.4,0.6c-0.5,0.3-0.8,0.9-0.8,1.5c0,0.4,0.2,0.8,0.5,1.1c0.3,0.3,0.7,0.5,1.2,0.7c0.6,0.2,1.2,0.4,1.8,0.5
	c0.8,0.2,1.6,0.4,2.4,0.7c0.6,0.2,1.1,0.6,1.6,1.1c0.5,0.6,0.7,1.3,0.7,2c0,0.7-0.2,1.3-0.6,1.9c-0.4,0.6-1,1.1-1.7,1.4
	c-0.9,0.4-1.9,0.5-2.9,0.5C162.1,184.2,161.1,184,160.1,183.7z"/>
<path class="st0" d="M176.4,183.4c-0.3,0.2-0.6,0.4-1,0.5c-0.4,0.1-0.8,0.2-1.2,0.2c-0.9,0.1-1.7-0.2-2.4-0.8
	c-0.6-0.6-0.9-1.5-0.8-2.4v-5.5h-1.7v-1.5h1.7v-2.2h1.8v2.2h2.9v1.5h-2.9v5.5c0,0.5,0.1,0.9,0.4,1.3c0.3,0.3,0.7,0.5,1.2,0.4
	c0.5,0,1-0.2,1.4-0.5L176.4,183.4z"/>
<path class="st0" d="M179.9,183.4c-0.8-0.4-1.4-1.1-1.9-1.8c-0.9-1.7-0.9-3.7,0-5.3c0.4-0.8,1.1-1.4,1.9-1.8c1.7-0.9,3.7-0.9,5.4,0
	c0.8,0.4,1.4,1.1,1.9,1.8c0.9,1.7,0.9,3.6,0,5.3c-0.4,0.8-1.1,1.4-1.9,1.8C183.7,184.3,181.6,184.3,179.9,183.4z M184.4,182
	c0.5-0.3,0.9-0.7,1.2-1.2c0.3-0.6,0.5-1.2,0.4-1.9c0-0.6-0.1-1.3-0.4-1.9c-0.3-0.5-0.7-0.9-1.2-1.2c-1.1-0.6-2.4-0.6-3.5,0
	c-0.5,0.3-0.9,0.7-1.2,1.2c-0.3,0.6-0.5,1.2-0.5,1.9c0,0.6,0.1,1.3,0.5,1.9c0.3,0.5,0.7,0.9,1.2,1.2
	C182,182.6,183.3,182.6,184.4,182z"/>
<path class="st0" d="M192.1,183.4c-0.8-0.4-1.4-1.1-1.9-1.8c-0.9-1.7-0.9-3.7,0-5.3c0.5-0.8,1.1-1.4,1.9-1.8
	c0.8-0.4,1.8-0.7,2.8-0.7c0.8,0,1.6,0.2,2.4,0.5c0.7,0.4,1.3,0.9,1.7,1.6l-1.4,0.9c-0.3-0.5-0.7-0.8-1.2-1.1c-0.5-0.3-1-0.4-1.6-0.4
	c-0.6,0-1.2,0.1-1.8,0.4c-0.5,0.3-0.9,0.7-1.2,1.2c-0.3,0.6-0.5,1.2-0.4,1.9c0,0.6,0.1,1.3,0.4,1.9c0.3,0.5,0.7,1,1.2,1.2
	c0.5,0.3,1.2,0.5,1.8,0.4c0.5,0,1.1-0.1,1.6-0.4c0.5-0.3,0.9-0.6,1.2-1.1l1.4,0.9c-0.4,0.7-1,1.2-1.7,1.6c-0.7,0.4-1.6,0.6-2.4,0.6
	C193.9,184.1,193,183.9,192.1,183.4z"/>
<path class="st0" d="M205.2,179.3l-2.1,1.9v2.8h-1.8v-14.1h1.8v9.1l5.5-5h2.2l-4.2,4.2l4.7,5.9H209L205.2,179.3z"/>
<path class="st0" d="M228.2,182.3v1.7h-9.7v-13.3h9.4v1.7h-7.5v4.1h6.7v1.6h-6.7v4.3H228.2z"/>
<path class="st0" d="M237.2,184l-2.9-3.9l-3,3.9h-2l4-5.2l-3.8-4.9h2l2.8,3.6l2.8-3.6h2l-3.8,4.9l4,5.2H237.2z"/>
<path class="st0" d="M242.7,183.4c-0.8-0.4-1.4-1.1-1.9-1.8c-0.9-1.6-0.9-3.7,0-5.3c0.4-0.8,1.1-1.4,1.9-1.8
	c0.8-0.4,1.8-0.7,2.7-0.7c0.8,0,1.7,0.2,2.5,0.5c0.7,0.4,1.3,0.9,1.7,1.6l-1.4,0.9c-0.3-0.5-0.7-0.8-1.2-1.1c-0.5-0.3-1-0.4-1.6-0.4
	c-0.6,0-1.2,0.1-1.8,0.4c-0.5,0.3-0.9,0.7-1.2,1.2c-0.3,0.6-0.5,1.2-0.5,1.9c0,0.7,0.1,1.3,0.5,1.9c0.3,0.5,0.7,1,1.2,1.2
	c0.5,0.3,1.2,0.5,1.8,0.4c0.5,0,1.1-0.1,1.6-0.4c0.5-0.3,0.9-0.6,1.2-1.1l1.4,0.9c-0.4,0.7-1,1.2-1.7,1.6c-0.8,0.4-1.6,0.6-2.5,0.6
	C244.5,184.1,243.5,183.9,242.7,183.4z"/>
<path class="st0" d="M260.2,175c0.8,0.9,1.3,2.1,1.2,3.3v5.8h-1.8v-5.6c0.1-0.8-0.2-1.6-0.7-2.2c-0.5-0.5-1.3-0.8-2-0.7
	c-0.9-0.1-1.7,0.3-2.4,0.9c-0.6,0.7-0.9,1.6-0.9,2.5v5.2h-1.8v-14.2h1.8v5.5c0.4-0.5,0.9-0.9,1.5-1.1c0.7-0.3,1.4-0.4,2.1-0.4
	C258.3,173.8,259.4,174.2,260.2,175z"/>
<path class="st0" d="M271.7,174.8c0.8,0.8,1.2,1.9,1.1,3.1v6.1h-1.7v-1.3c-0.3,0.5-0.8,0.8-1.3,1.1c-0.6,0.3-1.3,0.4-2,0.4
	c-1,0-1.9-0.2-2.7-0.8c-1.2-1-1.3-2.8-0.3-4c0.1-0.1,0.2-0.2,0.3-0.3c0.9-0.6,2-0.9,3.1-0.8h2.9v-0.4c0-0.7-0.2-1.3-0.7-1.8
	c-0.6-0.5-1.3-0.7-2-0.6c-0.6,0-1.2,0.1-1.7,0.3c-0.5,0.2-1,0.4-1.4,0.8l-0.8-1.4c0.5-0.4,1.2-0.8,1.9-1c0.7-0.2,1.5-0.3,2.3-0.3
	C269.7,173.7,270.8,174.1,271.7,174.8z M269.9,182.2c0.5-0.3,0.9-0.8,1.1-1.3v-1.4h-2.8c-1.5,0-2.3,0.5-2.3,1.6
	c0,0.5,0.2,0.9,0.6,1.2c0.5,0.3,1.1,0.5,1.6,0.4C268.7,182.7,269.4,182.5,269.9,182.2z"/>
<path class="st0" d="M284.7,175c0.8,0.9,1.3,2.1,1.2,3.3v5.8h-1.8v-5.6c0.1-0.8-0.2-1.6-0.7-2.2c-0.5-0.5-1.3-0.8-2-0.7
	c-0.9-0.1-1.7,0.3-2.4,0.9c-0.6,0.7-0.9,1.6-0.9,2.5v5.2h-1.8v-10.1h1.7v1.5c0.4-0.5,0.9-0.9,1.5-1.2c0.7-0.3,1.4-0.4,2.1-0.4
	C282.8,173.8,283.9,174.2,284.7,175z"/>
<path class="st0" d="M299,173.9v8.7c0.1,1.4-0.4,2.8-1.3,3.9c-1.1,0.9-2.5,1.4-3.9,1.3c-0.9,0-1.8-0.1-2.7-0.4
	c-0.8-0.2-1.5-0.6-2.1-1.1l0.9-1.4c0.5,0.4,1.1,0.8,1.7,1c0.7,0.2,1.4,0.3,2.1,0.3c0.9,0.1,1.9-0.2,2.6-0.8c0.6-0.7,0.9-1.6,0.9-2.5
	V182c-0.4,0.5-1,0.9-1.6,1.2c-0.6,0.3-1.3,0.4-2,0.4c-0.9,0-1.8-0.2-2.6-0.6c-0.8-0.4-1.4-1-1.8-1.7c-0.9-1.6-0.9-3.5,0-5.1
	c0.4-0.7,1.1-1.3,1.8-1.7c0.8-0.4,1.7-0.6,2.6-0.6c0.7,0,1.4,0.1,2.1,0.4c0.6,0.3,1.2,0.7,1.6,1.2v-1.6L299,173.9z M295.5,181.5
	c0.5-0.3,0.9-0.7,1.2-1.2c0.3-0.5,0.5-1.1,0.5-1.7c0-0.9-0.3-1.8-1-2.4c-0.7-0.6-1.6-0.9-2.5-0.9c-0.9,0-1.8,0.3-2.5,0.9
	c-0.6,0.6-1,1.5-1,2.4c0,0.6,0.1,1.2,0.4,1.7c0.3,0.5,0.7,0.9,1.2,1.2c0.6,0.3,1.2,0.4,1.8,0.4C294.3,182,294.9,181.8,295.5,181.5
	L295.5,181.5z"/>
<path class="st0" d="M311.6,179.5h-8.2c0.1,0.8,0.5,1.6,1.2,2.1c0.7,0.6,1.6,0.8,2.5,0.8c1.1,0.1,2.2-0.4,2.9-1.2l1,1.2
	c-0.5,0.5-1.1,0.9-1.7,1.2c-0.7,0.3-1.5,0.4-2.3,0.4c-1,0-2-0.2-2.8-0.7c-0.8-0.4-1.5-1.1-1.9-1.8c-0.5-0.8-0.7-1.7-0.7-2.7
	c0-0.9,0.2-1.8,0.7-2.7c0.4-0.8,1.1-1.4,1.8-1.8c1.6-0.9,3.6-0.9,5.2,0c0.7,0.4,1.4,1.1,1.8,1.8c0.4,0.8,0.6,1.8,0.6,2.7
	C311.6,179.1,311.6,179.3,311.6,179.5z M304.5,176.1c-0.6,0.5-1,1.3-1,2.1h6.4c-0.1-0.8-0.4-1.5-1-2.1
	C307.5,175.1,305.7,175.1,304.5,176.1L304.5,176.1z"/>
<path class="st0" d="M330.5,178.2c0.5,0.6,0.7,1.4,0.7,2.1c0,1.1-0.4,2.1-1.3,2.7c-1.1,0.7-2.5,1-3.8,0.9h-6.4v-13.3h5.9
	c1.3-0.1,2.5,0.2,3.6,0.9c0.8,0.6,1.2,1.5,1.2,2.5c0,0.6-0.1,1.3-0.5,1.8c-0.3,0.5-0.8,0.9-1.3,1.2
	C329.3,177.3,330,177.7,330.5,178.2z M321.6,172.2v4.3h3.9c0.8,0.1,1.6-0.1,2.3-0.5c0.9-0.7,1-1.9,0.4-2.8c-0.1-0.1-0.2-0.3-0.4-0.4
	c-0.7-0.4-1.5-0.6-2.3-0.5L321.6,172.2z M328.4,181.9c0.6-0.4,0.9-1,0.8-1.7c0-1.5-1.1-2.2-3.3-2.2h-4.4v4.4h4.4
	C326.8,182.5,327.6,182.3,328.4,181.9z"/>
<path class="st0" d="M343.3,173.9V184h-1.7v-1.5c-0.4,0.5-0.9,0.9-1.5,1.2c-0.6,0.3-1.3,0.4-2,0.4c-1.2,0.1-2.3-0.3-3.2-1.1
	c-0.8-0.9-1.3-2.1-1.2-3.3v-5.8h1.8v5.6c-0.1,0.8,0.2,1.6,0.7,2.2c0.5,0.5,1.3,0.8,2,0.7c0.9,0,1.7-0.3,2.3-0.9
	c0.6-0.7,0.9-1.6,0.8-2.5v-5.2L343.3,173.9z"/>
<path class="st0" d="M346.8,171.6c-0.2-0.2-0.3-0.5-0.3-0.8c0-0.7,0.5-1.2,1.2-1.2c0.3,0,0.6,0.1,0.9,0.3c0.2,0.2,0.4,0.5,0.4,0.8
	c0,0.7-0.5,1.2-1.2,1.2C347.4,171.9,347.1,171.8,346.8,171.6z M346.8,173.9h1.8V184h-1.8V173.9z"/>
<path class="st0" d="M352.2,169.9h1.8V184h-1.8V169.9z"/>
<path class="st0" d="M367.1,169.9V184h-1.7v-1.6c-0.4,0.6-0.9,1-1.5,1.3c-0.6,0.3-1.3,0.4-2.1,0.4c-0.9,0-1.8-0.2-2.6-0.6
	c-0.8-0.4-1.4-1.1-1.8-1.8c-0.9-1.7-0.9-3.7,0-5.4c0.4-0.8,1.1-1.4,1.8-1.8c0.8-0.4,1.7-0.7,2.6-0.6c0.7,0,1.4,0.1,2,0.4
	c0.6,0.3,1.1,0.7,1.5,1.2v-5.6L367.1,169.9z M363.6,182.1c0.5-0.3,0.9-0.7,1.2-1.2c0.3-0.6,0.4-1.2,0.4-1.9c0-0.6-0.1-1.3-0.4-1.9
	c-0.3-0.5-0.7-0.9-1.2-1.2c-1.1-0.6-2.4-0.6-3.5,0c-0.5,0.3-0.9,0.7-1.2,1.2c-0.3,0.6-0.5,1.2-0.5,1.9c0,0.6,0.1,1.3,0.5,1.9
	c0.3,0.5,0.7,0.9,1.2,1.2C361.2,182.7,362.5,182.7,363.6,182.1z"/>
<path class="st0" d="M370.6,171.6c-0.2-0.2-0.4-0.5-0.4-0.8c0-0.7,0.5-1.2,1.2-1.2c0.3,0,0.6,0.1,0.9,0.3c0.2,0.2,0.4,0.5,0.4,0.8
	c0,0.7-0.5,1.2-1.2,1.2C371.2,171.9,370.8,171.8,370.6,171.6z M370.6,173.9h1.8V184h-1.8V173.9z"/>
<path class="st0" d="M384.4,175c0.8,0.9,1.2,2.1,1.1,3.3v5.8h-1.8v-5.6c0.1-0.8-0.2-1.6-0.7-2.2c-0.5-0.5-1.3-0.8-2-0.7
	c-0.9-0.1-1.7,0.3-2.4,0.9c-0.6,0.7-0.9,1.6-0.9,2.5v5.2h-1.8v-10.1h1.7v1.5c0.4-0.5,0.9-0.9,1.5-1.2c0.7-0.3,1.4-0.4,2.1-0.4
	C382.4,173.8,383.5,174.2,384.4,175z"/>
<path class="st0" d="M398.7,173.9v8.7c0.1,1.4-0.4,2.8-1.3,3.9c-1.1,0.9-2.5,1.4-3.9,1.3c-0.9,0-1.8-0.1-2.7-0.4
	c-0.8-0.2-1.5-0.6-2.1-1.1l0.9-1.4c0.5,0.4,1.1,0.8,1.7,1c0.7,0.2,1.4,0.3,2.1,0.3c0.9,0.1,1.9-0.2,2.6-0.8c0.6-0.7,0.9-1.6,0.8-2.5
	V182c-0.4,0.5-1,0.9-1.6,1.2c-0.6,0.3-1.3,0.4-2,0.4c-0.9,0-1.8-0.2-2.6-0.6c-0.8-0.4-1.4-1-1.8-1.7c-0.9-1.6-0.9-3.5,0-5.1
	c0.4-0.7,1.1-1.3,1.8-1.7c0.8-0.4,1.7-0.6,2.6-0.6c0.7,0,1.4,0.1,2.1,0.4c0.6,0.2,1.2,0.7,1.6,1.2v-1.6L398.7,173.9z M395.2,181.5
	c0.5-0.3,0.9-0.7,1.2-1.2c0.3-0.5,0.5-1.1,0.4-1.7c0-0.9-0.3-1.8-1-2.4c-1.5-1.2-3.6-1.2-5,0c-0.7,0.6-1,1.5-1,2.4
	c0,0.6,0.1,1.2,0.5,1.7c0.3,0.5,0.7,0.9,1.2,1.2c0.6,0.3,1.2,0.4,1.8,0.4C394,182,394.6,181.8,395.2,181.5z"/>
</svg>
