<svg xmlns="http://www.w3.org/2000/svg" viewBox="0 0 516.9 249.6"><title>Asset 3</title><path d="M336.2,0V11.1h-3.4V0h-2.1V11.1h-8.2V0h-2V11.1h-1.9V0h-2V11.1h-1.2V26.9h-3.7v2h0V37h-6.1V33.6h-2V37h-3V33.6h-2V37h-3.3v9.4h-1V47h0V68h-2.8V63.1h-2.1V68h-3.1V63.1h-1.8V170.8h-3.9v-5h-2v5h-7.4v-5h-2v5H257.4v-5h-2v5h-7.3v-5h-1.9v5h-3.9V63h-2v4.9h-3.1V63h-2v4.9h-2.9v-21h0v-.6h-.9V37h-3.2V33.5h-2.1V37h-3V33.5h-2V37H215V26.8h-3.7V13h0V11.1H210V0h-2V11.1h-1.8V0h-2.1V11.1h-8.2V0h-2V11.1h-3.3V0h-2.1V187.5h150V0Zm-3.4,28.8h3.4V37h-3.4Zm-2,8.2h-8.2V28.8h8.2Zm5.4-24V26.8h-3.4V13Zm-5.4,0V26.8h-8.2V13Zm-13.3,0h3V26.8h-3Zm-3.7,15.8h6.7V37h-6.7ZM315.4,39v2.6h-9.8V39Zm-11.8,9.3v8.6h-3V48.3Zm-3.1-2V43.6h3v2.7Zm0,12.6h3V68h-3Zm0,11.1h3v7.6h-3Zm0,9.6h3v8.6h-3Zm0,10.6h3v7.9h-3Zm0,9.8h3v7.6h-3Zm0,9.6h3v8h-3Zm0,9.9h3v8.1h-3Zm0,10.1h3v7.9h-3Zm0,9.8h3v8h-3Zm5,0h10v8h-9.9Zm0-1.9v-7.8h10v7.7Zm0-9.9v-8h10v8Zm0-10.1v-8h10v8Zm0-9.9V100h10v7.6Zm0-9.5V90.2h10v7.9Zm0-9.9V79.6h10v8.6Zm0-10.6V70h10v7.6Zm0-9.6V58.9h10V68Zm0-11.1V48.3h10v8.6h-10Zm-4.9,92.6h3v7.7h-3Zm5,0h9.9v7.7h-9.9Zm11.9,0h3v7.7h-3Zm0-2.1v-8h3v8Zm0-9.9v-7.8h3v7.7Zm0-9.9v-8.1h3v8.1Zm0-10.1v-8h3v8Zm0-10V100h3v7.6Zm0-9.4V90.2h3v7.9Zm0-9.9V79.6h3v8.6Zm0-10.7V70h3v7.6Zm0-9.6v-9h3v9Zm0-11V48.3h3v8.6Zm0-10.6V43.6h3v2.7Zm-2,0h-9.9V43.6h9.9ZM303.6,39v2.6h-2.9V39Zm-5,0v2.6h-1.3V39Zm-1.3,4.6h1.3v2.7h-1.3ZM294.4,70v3.6h-2.9V70Zm-4.9,0v3.6h-3.1V70Zm-3,5.5h3.2v95.3h-3.2ZM289.6,180h-3.2v-7.2h3.1Zm-5.1-7.2V180h-3.8v-7.2Zm-5.8,0V180h-7.3v-7.2Zm-14.3,0h4.9V180H257.5v-7.2Zm-8.9,0V180h-7.3v-7.2Zm-9.3,0V180h-3.9v-7.2ZM240.3,70v3.5h-3.1V70Zm-5.1,0v3.5h-2.8V70Zm-7-23.7V43.6h1.3v2.7Zm-18.9-2.7v2.7h-3V43.6Zm16.9,103.8h-3v-8h3Zm-5-67.8v8.6h-10V79.6Zm-9.9-2V70h9.9v7.6Zm9.9,12.6v7.9h-10V90.2Zm0,9.9v7.5h-10V100Zm0,9.5v8h-10v-8Zm0,9.9v8.1h-10v-8.1Zm0,10.1v7.9h-10v-7.8Zm0,9.9v7.9h-10v-8Zm5-2h-3v-7.8h3Zm0-9.9h-3v-8h3Zm0-10.1h-3v-8h3Zm0-9.9h-3V100h3Zm0-9.5h-3V90.2h3Zm0-9.9h-3V79.6h3Zm0-10.6h-3V70h3Zm0-9.6h-3V58.9h3Zm-5,0h-10V58.9h9.9Zm-9.9-11.1V48.3h9.9v8.6h-9.9Zm0-10.6V43.6h9.9v2.7Zm-2,2V57h-3V48.3Zm0,10.6V68h-3V58.9Zm0,11.1v7.6h-3V70Zm0,9.6v8.6h-3V79.6Zm0,10.6v7.9h-3V90.2Zm0,9.9v7.5h-3V100Zm0,9.5v8h-3v-8Zm0,9.9v8.1h-3v-8.1Zm0,10.1v7.9h-3v-7.8Zm0,9.9v7.9h-3v-8Zm0,10v7.8h-3v-7.8Zm2,0h9.9v7.8h-10Zm11.9,0h3v7.8h-3Zm3-92.6h-3V48.3h3Zm-3-10.6V43.6h3v2.7Zm6.3-7.3v2.6h-1.3V39Zm-3.4,0v2.6h-2.9V39Zm-5,2.6h-9.9V39h9.9ZM213,36.9h-6.8V28.8h6.7Zm-22.4-8.1h3.3V37h-3.3V28.8Zm5.4,0h8.2V37H196ZM209.3,13V26.8h-3V13Zm-5.1,0V26.8H196V13ZM194,13V26.8h-3.4V13Zm-3.4,172.4V38.9h3.3V185.4Zm5.4,0V38.9h13.2v2.6h-5v4.7h-4.9v2h0V185.4Zm5.3,0V48.3h2.9v8.6h0V59h0v9h0v2h0v7.6h0v2h0v8.6h0v2.1h0V98h0v2.1h0v7.5h0v2h0v8.1h0v2h0v8h0v2h0v7.9h0v2h0v8h0v2h0v7.8h0v2h0v26.3h-2.9Zm4.9,0V159.1h3.1v26.3Zm5,0V159.1h9.9v26.3Zm11.9,0V159.1h3v26.3Zm5,0V48.3h2.2V185.4Zm4.2,0V75.5h2.9V185.4Zm4.9,0V75.5h3.1v95.3h-1.7v2h1.8V180h-1.8v2h1.8v3.5h-3.2Zm5.1,0v-3.5h3.8v3.5Zm5.8,0v-3.5h7.3v3.5Zm16.2,0h-6.9v-3.5h11.9v3.5Zm7,0v-3.5h7.3v3.5Zm9.3,0v-3.5h3.8v3.5Zm5.9,0v-3.5h3.1v3.5Zm5,0V75.5h2.9V185.4Zm4.9,0V48.3h2.3V185.4Zm4.2,0V159.1h3v26.3Zm5,0V159.1h9.9v26.3Zm11.9,0V159.1h3v26.3Zm5,0V159.1h0v-2h0v-7.8h0v-2h0v-7.9h0v-2h0v-7.9h0v-2h0v-8.1h0v-2h0v-8h0v-2h0V99.8h0V98.1h0V90.2h0v-2h0V79.6h0v-2h0V70h0V68h0V58.9h0v-2h0V48.3h2.9V185.4Zm4.9,0V48.3h0v-2h-4.9V41.6h-5V39h13.2V185.4Zm5.4,0V38.9h3.4V185.4Z" style="fill:#fff"/><path d="M80.4,211.8l-.3,1.2c0,.4.3.5,1.5.5H82v.9H75.2v-.9h.1c1.2,0,1.4-.2,1.6-.9l.2-.8,2.1-7.7a3.6,3.6,0,0,0,.2-1.1c0-.4-.2-.5-1.4-.5h-.2v-.9h5.6a6.2,6.2,0,0,1,4,.8,3.2,3.2,0,0,1,1.3,2.6,3.5,3.5,0,0,1-2.2,3.3,9.5,9.5,0,0,1-4.1.6H81.2Zm1.9-3.8a3.9,3.9,0,0,0,2.3-.7,4.2,4.2,0,0,0,1.1-2.9,1.6,1.6,0,0,0-1.4-1.8h-.5c-.8,0-1,.1-1.2.9L81.4,208Z" style="fill:#fff"/><path d="M102.4,206.6h-1v-1.1c0-1.9-.7-2.9-2.1-2.9s-.5,0-.7.8l-2.3,8.5a4.5,4.5,0,0,0-.3,1.1c0,.4.3.5,1.5.5h.4v1h-7v-1h.5a3.1,3.1,0,0,0,1.3-.2,6.3,6.3,0,0,0,.4-1.3l2.3-8.7c.1-.1.1-.2.1-.4s-.2-.3-.5-.3-2.6,1.2-3.8,4.1l-.9-.3,1.3-4.7h11.5Z" style="fill:#fff"/><path d="M104.7,213.1a1.5,1.5,0,0,1-1.5,1.6,1.6,1.6,0,0,1-1.6-1.5,1.6,1.6,0,0,1,1.6-1.6h0A1.5,1.5,0,0,1,104.7,213.1Z" style="fill:#fff"/><path d="M124.9,205.9H124a5.7,5.7,0,0,0-.4-2.2,2.4,2.4,0,0,0-2.4-1.2h-.7c-.7,0-.9.2-1.1.9l-1.1,3.9h.4a2.8,2.8,0,0,0,3-2.2h.9l-1.6,6h-.9c0-.4.1-.8.1-1.1s-.6-1.8-1.7-1.8h-.4l-1,3.6a5,5,0,0,0-.2,1.2c0,.4.2.5,1.4.5h.5l-.2.9H112v-.9h0c1.3,0,1.4-.2,1.6-.9l.2-.8,2.1-7.7a3.6,3.6,0,0,0,.2-1.1c0-.4-.2-.5-1.4-.5h-.3v-.9h10.9Z" style="fill:#fff"/><path d="M125,214.4v-.9h.1c.8,0,1.2-.1,1.3-.3s.2-.1.5-1.3l2.1-7.7a4.3,4.3,0,0,0,.2-1.1c0-.4-.2-.5-1.4-.5h-.4l.2-1h6.6v1h-.1a2.4,2.4,0,0,0-1.3.2c-.2.2-.2.2-.5,1.3l-2.1,7.7a5,5,0,0,0-.2,1.2c0,.4.2.5,1.4.5h.4l-.2.9Z" style="fill:#fff"/><path d="M138.6,211.8l-.3,1.2c0,.4.3.5,1.5.5h.4v.9h-6.7v-.9h.1c.8,0,1.2-.1,1.3-.3s.2-.1.5-1.3l2.1-7.7a5.2,5.2,0,0,0,.2-1.1c0-.4-.2-.5-1.4-.5H136v-1h6.2a9.6,9.6,0,0,1,3.7.6,2.5,2.5,0,0,1,1.4,2.4c0,2-1.7,3.2-5,3.5a3.3,3.3,0,0,1,1.7,1,2.8,2.8,0,0,1,.7,2.1v.6c0,1.1,0,1.1.1,1.2s.2.2.4.2.7-.3.9-.9a2.2,2.2,0,0,0,.3-.8l.8.4c-.6,1.8-1.6,2.7-3.1,2.7a2.4,2.4,0,0,1-2.6-2.3v-.2a8.1,8.1,0,0,1,.1-1.5,4.1,4.1,0,0,0,.1-1.1c0-.9-.6-1.4-1.8-1.4h-.6Zm1.8-4.6c1.6,0,2.1-.1,2.6-.5a3,3,0,0,0,1.2-2.4,1.7,1.7,0,0,0-1.9-1.8h-.5c-.6,0-.8.2-.9.7l-1.1,4Z" style="fill:#fff"/><path d="M159.9,206.4l-.9-.2a5.9,5.9,0,0,0-.5-2.2,3,3,0,0,0-2.9-1.7c-1.5,0-2.6.7-2.6,1.9a1.6,1.6,0,0,0,.6,1.3,3.7,3.7,0,0,0,1.4.7,12,12,0,0,1,3.1,1.3,3.3,3.3,0,0,1,1.6,3c0,2.5-2.1,4.2-5.2,4.2a5.2,5.2,0,0,1-3.9-1.4l-1,1.1h-.8l.9-5,.9.2v.2a3.7,3.7,0,0,0,3.4,3.9h.4c1.7,0,2.8-.8,2.8-2s-.6-1.5-3-2.4a5,5,0,0,1-2.6-1.3,3.1,3.1,0,0,1-1-2.4,4.5,4.5,0,0,1,4.5-4.3h.2a5.3,5.3,0,0,1,3.6,1.3l.9-.9h.8Z" style="fill:#fff"/><path d="M174,206.6h-.9v-1.1c0-1.9-.8-2.9-2.1-2.9s-.6,0-.8.8l-2.3,8.5a4.3,4.3,0,0,0-.2,1.1c0,.4.2.5,1.4.5h.4v1h-7v-1h.5a2.2,2.2,0,0,0,1.2-.2c.2-.2.2-.2.5-1.3l2.3-8.7c.1-.1.1-.2.1-.4s-.2-.3-.5-.3-2.6,1.2-3.9,4.1l-.8-.3,1.2-4.7h11.5Z" style="fill:#fff"/><path d="M186.3,201.6H193v.9h-.1a3.2,3.2,0,0,0-1.4.3c-.1.1-.1.1-.4,1.3l-1.5,5.4a13.1,13.1,0,0,1-.9,2.8,4.5,4.5,0,0,1-4.4,2.3c-2.6,0-4.1-1.1-4.1-3.2a2.6,2.6,0,0,1,2.1-2.9h.2a1.7,1.7,0,0,1,1.9,1.6h0a1.5,1.5,0,0,1-1.5,1.7h0l-.8-.2-.4-.2c-.1,0-.3.2-.3.5a1.7,1.7,0,0,0,1.9,1.6h0a2.6,2.6,0,0,0,2.2-1.3,8,8,0,0,0,.9-2.6l1.5-5.6.3-1.2c0-.3-.3-.4-1.4-.4h-.6Z" style="fill:#fff"/><path d="M202.6,212.4c.2.8.5,1.1,1.6,1.1h.3v.9h-6.7v-.9h.3l1.2-.2c.2-.1.3-.2.3-.4a1.3,1.3,0,0,0-.1-.6l-.3-1.8H195l-.8,1.4a2.4,2.4,0,0,0-.2.8c0,.5.4.8,1.4.8h.3l-.2.9h-5.1v-.9h.2a3.2,3.2,0,0,0,2.3-1.9l6.2-10.3h1.1Zm-4.5-7.1-2.5,4.2h3.3Z" style="fill:#fff"/><path d="M215.6,203.7c.4-.3.6-.5.6-.7s-.3-.5-.8-.5h-.6v-.9h5.3v.9a4.2,4.2,0,0,0-3,1.5l-2.9,2.6,2.6,5.5c.5,1.3.7,1.3,1.9,1.3h.3l-.2,1h-6.7v-1h.6c.8,0,1.1-.1,1.1-.4s0-.1-.2-.5l-1.9-3.8-1.4,1.4-.5,1.7-.3,1.1c0,.4.3.5,1.5.5h.1v1h-6.4l.2-1h0a1.9,1.9,0,0,0,1.3-.2c.2-.2.2-.2.5-1.4l2-7.7a2.3,2.3,0,0,0,.3-1.1c0-.4-.3-.5-1.4-.5h-.3v-1h6.7l-.2,1h-.2c-.7,0-1.2.1-1.3.3s-.1.1-.5,1.3l-1,3.9Z" style="fill:#fff"/><path d="M230.7,212.4c.2.8.5,1.1,1.6,1.1h.2v.9h-6.6v-.9h.3a2,2,0,0,0,1.1-.2l.4-.4a1.3,1.3,0,0,1-.1-.6l-.4-1.8h-4.1l-.8,1.4a2.6,2.6,0,0,0-.3.8c0,.5.5.8,1.5.8h.2v.9h-5.1v-.9h.1a3.5,3.5,0,0,0,2.4-1.9l6.1-10.3h1.2Zm-4.5-7.1-2.5,4.2H227Z" style="fill:#fff"/><path d="M237.9,211.8a5,5,0,0,0-.2,1.2c0,.4.2.5,1.4.5h.5l-.2.9h-6.6v-.9h.1a1.9,1.9,0,0,0,1.3-.3,5.6,5.6,0,0,0,.5-1.3l2-7.7.3-1.1c0-.4-.3-.5-1.4-.5h-.4v-1h6.2a9.8,9.8,0,0,1,3.8.6,2.7,2.7,0,0,1,1.4,2.4c0,2-1.7,3.2-5.1,3.5a3.2,3.2,0,0,1,1.8,1,3.3,3.3,0,0,1,.7,2.1v.6c0,1.1,0,1.1.1,1.2s.2.2.3.2.7-.3,1-.9l.3-.8.7.4c-.6,1.8-1.6,2.7-3.1,2.7a2.5,2.5,0,0,1-2.6-2.3v-.2a4.1,4.1,0,0,1,.2-1.5v-1.1c0-.9-.5-1.4-1.8-1.4h-.5Zm1.9-4.6c1.6,0,2-.1,2.6-.5a3.2,3.2,0,0,0,1.1-2.4,1.7,1.7,0,0,0-1.9-1.8h-.4c-.7,0-.8.2-1,.7l-1.1,4Z" style="fill:#fff"/><path d="M260.6,206.6h-.9v-1.1c0-1.9-.8-2.9-2.1-2.9s-.6,0-.8.8l-2.3,8.5a4.3,4.3,0,0,0-.2,1.1c0,.4.2.5,1.4.5h.4v1h-7v-1h.5a3.1,3.1,0,0,0,1.3-.2l.5-1.3,2.3-8.7v-.4c0-.2-.1-.3-.5-.3s-2.6,1.2-3.8,4.1l-.9-.3,1.3-4.7h11.5Z" style="fill:#fff"/><path d="M271.1,212.4c.2.8.5,1.1,1.6,1.1h.3l-.2.9h-6.6v-.9h.3a2.5,2.5,0,0,0,1.2-.2c.1-.1.3-.2.3-.4s-.1-.4-.1-.6l-.4-1.8h-4.1l-.8,1.4a2.4,2.4,0,0,0-.2.8c0,.5.4.8,1.4.8h.2v.9h-5.1v-.9h.1a3.1,3.1,0,0,0,2.4-1.9l6.2-10.3h1.1Zm-4.5-7.1-2.5,4.2h3.3Z" style="fill:#fff"/><path d="M278.8,214.4l.2-.9h.1c.7,0,1.2-.1,1.3-.3a5.6,5.6,0,0,0,.5-1.3l2-7.7a4.5,4.5,0,0,0,.3-1.1c0-.4-.3-.5-1.4-.5h-.4v-1h6.6v1h-.1l-1.4.2a6.3,6.3,0,0,0-.4,1.3l-2.1,7.7a5,5,0,0,0-.2,1.2c0,.4.2.5,1.4.5h.4l-.2.9Z" style="fill:#fff"/><path d="M299,210.6l1.3-5.2a4.3,4.3,0,0,0,.4-1.9c0-.7-.5-1-1.6-1l.2-1h4.9v1a2,2,0,0,0-1.5.5c-.5.5-.5.5-1.1,2.4l-2.4,9.2h-1.4l-5.3-10-1.6,5.9a12.9,12.9,0,0,0-.4,1.9c0,.7.5,1,1.6,1h.2l-.2,1h-5v-1a2.4,2.4,0,0,0,1.4-.5c.5-.4.6-.5,1.1-2.4l2-7.4a1,1,0,0,0-1-.6h-1v-1h4.5Z" style="fill:#fff"/><path d="M316.4,206.6h-1v-1.1c0-1.9-.7-2.9-2.1-2.9s-.5,0-.7.8l-2.3,8.5-.3,1.1c0,.4.3.5,1.5.5h.4v1h-7l.2-1h.4a2.4,2.4,0,0,0,1.3-.2c.2-.2.2-.2.5-1.3l2.3-8.7c.1-.1.1-.2.1-.4s-.2-.3-.5-.3-2.6,1.2-3.8,4.1l-.9-.3,1.3-4.7h11.5Z" style="fill:#fff"/><path d="M329.2,205.9h-.9a4.3,4.3,0,0,0-.4-2.2,2.4,2.4,0,0,0-2.4-1.2h-.7c-.7,0-.9.2-1.1.9l-1,3.9h.3a2.8,2.8,0,0,0,3-2.2h.9l-1.6,6h-.9c0-.4.1-.8.1-1.1a1.7,1.7,0,0,0-1.3-1.8h-.8l-1.1,4.2a1.3,1.3,0,0,0-.1.6c0,.3.3.5.9.5h.7a4.8,4.8,0,0,0,3.6-1.6,8.3,8.3,0,0,0,1.6-2.1l.9.2-1.2,4.4H316.3v-.9h.1c1.2,0,1.4-.2,1.6-.9l.2-.8,2.1-7.7a3.6,3.6,0,0,0,.2-1.1c0-.4-.2-.5-1.4-.5h-.3v-.9h11Z" style="fill:#fff"/><path d="M335.1,211.8a5,5,0,0,0-.2,1.2c0,.4.3.5,1.4.5h.5l-.2.9H330v-.9h.1c.7,0,1.2-.1,1.3-.3a5.6,5.6,0,0,0,.5-1.3l2-7.7.3-1.1c0-.4-.3-.5-1.4-.5h-.4v-1h6.2a9.8,9.8,0,0,1,3.8.6,2.7,2.7,0,0,1,1.4,2.4c0,2-1.7,3.2-5.1,3.5a3.2,3.2,0,0,1,1.8,1,3.3,3.3,0,0,1,.7,2.1v.6c0,1.1,0,1.1.1,1.2s.2.2.3.2.7-.3,1-.9l.3-.8.7.4c-.6,1.8-1.6,2.7-3.1,2.7a2.5,2.5,0,0,1-2.6-2.3v-.2c.1-.5.1-1,.2-1.5a4.1,4.1,0,0,1,.1-1.1c0-.9-.6-1.4-1.9-1.4H336Zm1.9-4.6c1.6,0,2.1-.1,2.6-.5a3.2,3.2,0,0,0,1.1-2.4,1.7,1.7,0,0,0-1.9-1.8h-.4a.9.9,0,0,0-1,.7l-1,4Z" style="fill:#fff"/><path d="M356.4,210.6l1.4-5.2a12.9,12.9,0,0,0,.4-1.9c0-.7-.6-1-1.7-1l.2-1h4.9v1a2,2,0,0,0-1.5.5c-.5.5-.5.5-1.1,2.4l-2.4,9.2h-1.4l-5.2-10-1.6,5.9a4.3,4.3,0,0,0-.4,1.9c0,.7.5,1,1.5,1h.2v1h-5.1l.2-1a1.9,1.9,0,0,0,1.4-.5c.5-.4.5-.5,1.1-2.4l2-7.4a1,1,0,0,0-1.1-.6h-1l.2-1h4.5Z" style="fill:#fff"/><path d="M371.3,212.4c.2.8.6,1.1,1.6,1.1h.3v.9h-6.7l.2-.9h.2a2.5,2.5,0,0,0,1.2-.2c.2-.1.3-.2.3-.4a1.3,1.3,0,0,0-.1-.6l-.3-1.8h-4.1l-.9,1.4a2.4,2.4,0,0,0-.2.8c0,.5.4.8,1.4.8h.2v.9h-5.1l.2-.9h.1a3.2,3.2,0,0,0,2.3-1.9l6.2-10.3H369Zm-4.5-7.1-2.5,4.2h3.4Z" style="fill:#fff"/><path d="M386.7,206.6h-.9v-1.1c0-1.9-.8-2.9-2.1-2.9s-.6,0-.8.8l-2.3,8.5a4.3,4.3,0,0,0-.2,1.1c0,.4.2.5,1.4.5h.5l-.2,1h-7v-1h.5a2.7,2.7,0,0,0,1.3-.2l.5-1.3,2.3-8.7v-.4c0-.2-.2-.3-.5-.3s-2.6,1.2-3.9,4.1l-.8-.3,1.3-4.7h11.5Z" style="fill:#fff"/><path d="M386.6,214.4v-.9h.1c.8,0,1.2-.1,1.3-.3s.2-.1.5-1.3l2.1-7.7a4.3,4.3,0,0,0,.2-1.1c0-.4-.2-.5-1.4-.5h-.4l.2-1h6.6v1h-.1a3.3,3.3,0,0,0-1.4.2c-.2.2-.2.2-.5,1.3l-2,7.7a5.3,5.3,0,0,0-.3,1.2c0,.4.3.5,1.4.5h.4v.9Z" style="fill:#fff"/><path d="M408.4,202.9a5.1,5.1,0,0,1,1.5,3.7,8.3,8.3,0,0,1-8.1,8.1,5,5,0,0,1-5.4-4.7v-.7a7.9,7.9,0,0,1,2.5-5.7,7.6,7.6,0,0,1,5.5-2.3A5.4,5.4,0,0,1,408.4,202.9Zm-7.3,2.1a17.8,17.8,0,0,0-1.6,6c0,1.7.9,2.7,2.3,2.7s2.4-.9,3.4-2.8a12.6,12.6,0,0,0,1.4-5.7,2.9,2.9,0,0,0-.5-2,2,2,0,0,0-1.7-.9q-1.9,0-3.3,2.7Z" style="fill:#fff"/><path d="M422.1,210.6l1.3-5.2a4.3,4.3,0,0,0,.4-1.9c0-.7-.5-1-1.6-1l.2-1h4.9v1a2,2,0,0,0-1.5.5c-.5.5-.5.5-1.1,2.4l-2.4,9.2h-1.5l-5.2-10-1.6,5.9a6.5,6.5,0,0,0-.4,1.9c0,.7.5,1,1.6,1h.2l-.2,1h-5v-1a2.4,2.4,0,0,0,1.4-.5c.5-.4.6-.5,1.1-2.4l2-7.4a1,1,0,0,0-1-.6h-1v-1h4.5Z" style="fill:#fff"/><path d="M437,212.4c.2.8.6,1.1,1.6,1.1h.3v.9h-6.7v-.9h.3a2.5,2.5,0,0,0,1.2-.2c.2-.1.3-.2.3-.4a1.3,1.3,0,0,0-.1-.6l-.3-1.8h-4.2l-.8,1.4a1.9,1.9,0,0,0-.2.8c0,.5.4.7,1.4.7h.3l-.2,1h-5.1v-1h.2a3.3,3.3,0,0,0,2.3-1.8l6.2-10.3h1.1Zm-4.5-7.1-2.5,4.2h3.3Z" style="fill:#fff"/><path d="M451.8,209.9l-1.2,4.5H439.1l.2-.9h0a3.2,3.2,0,0,0,1.4-.3c.1-.1.1-.1.5-1.3l2-7.7.3-1.1c0-.4-.3-.5-1.4-.5h-.4l.2-1h6.7v1h-.3a2.4,2.4,0,0,0-1.3.2c-.2.2-.2.2-.5,1.3l-2.1,7.7a5,5,0,0,0-.2,1.2c0,.3.2.5.9.5h.6a5.2,5.2,0,0,0,3.7-1.6,8.9,8.9,0,0,0,1.6-2.2Z" style="fill:#fff"/><path d="M3.8,244.7A8.1,8.1,0,0,1,1,242a7.9,7.9,0,0,1,0-7.6,7.3,7.3,0,0,1,2.8-2.7,7.9,7.9,0,0,1,4-1,9,9,0,0,1,3.9,1,6.4,6.4,0,0,1,2.7,2.7,7.4,7.4,0,0,1,0,7.6,7.8,7.8,0,0,1-2.7,2.7,8.9,8.9,0,0,1-3.9.9A7.8,7.8,0,0,1,3.8,244.7Zm6.8-1.6a6.4,6.4,0,0,0,2-2,6,6,0,0,0,0-5.8,6.4,6.4,0,0,0-2-2,5.5,5.5,0,0,0-2.8-.7,5.9,5.9,0,0,0-2.9.7,4.8,4.8,0,0,0-2,2,5.8,5.8,0,0,0,0,5.7,4.3,4.3,0,0,0,2,2,5,5,0,0,0,2.9.7,4.7,4.7,0,0,0,2.8-.7Z" style="fill:#fff"/><path d="M35,234.4l-4.1,11H29l-3.2-8.3-3.2,8.3H20.7l-4-11h1.8l3.2,8.8,3.4-8.8h1.6l3.3,8.8,3.3-8.8Z" style="fill:#fff"/><path d="M46.3,235.6a4.5,4.5,0,0,1,1.3,3.5v6.4H45.5v-6.1a3.3,3.3,0,0,0-.7-2.4,2.7,2.7,0,0,0-2.2-.8,3.1,3.1,0,0,0-2.6.9,3.8,3.8,0,0,0-1,2.7v5.7H37.1v-11H39v1.6a5.1,5.1,0,0,1,1.6-1.3,6.7,6.7,0,0,1,2.4-.4A4.5,4.5,0,0,1,46.3,235.6Z" style="fill:#fff"/><path d="M61.2,240.6H52.3a3.6,3.6,0,0,0,1.3,2.3,4.4,4.4,0,0,0,2.7.9,3.9,3.9,0,0,0,3.2-1.3l1.1,1.3a5,5,0,0,1-1.9,1.3,6.9,6.9,0,0,1-2.4.5,6.5,6.5,0,0,1-3.1-.8,4.5,4.5,0,0,1-2.1-2,5.5,5.5,0,0,1-.8-2.9,6,6,0,0,1,.8-2.9,4.4,4.4,0,0,1,1.9-1.9,5.8,5.8,0,0,1,5.7,0,4.4,4.4,0,0,1,1.9,1.9,6.6,6.6,0,0,1,.7,3A1.8,1.8,0,0,1,61.2,240.6Zm-7.7-3.7a3.5,3.5,0,0,0-1.2,2.3h7.1a3.8,3.8,0,0,0-1.1-2.3A3.6,3.6,0,0,0,53.5,236.9Z" style="fill:#fff"/><path d="M67.6,234.8a6.4,6.4,0,0,1,2.4-.5v1.9h-.4a3.5,3.5,0,0,0-2.6,1,3.8,3.8,0,0,0-1,2.7v5.5H64.1v-11H66v1.9A3.3,3.3,0,0,1,67.6,234.8Z" style="fill:#fff"/><path d="M80.1,244.8a4.5,4.5,0,0,1-2.1-2,6.6,6.6,0,0,1,0-5.8,5.8,5.8,0,0,1,2.1-2,6.8,6.8,0,0,1,5.9,0,6.4,6.4,0,0,1,2,2,6,6,0,0,1,0,5.8,5.5,5.5,0,0,1-2,2A6.2,6.2,0,0,1,80.1,244.8Zm4.8-1.4a4.2,4.2,0,0,0,1.3-5.4,2.7,2.7,0,0,0-1.3-1.3,3.2,3.2,0,0,0-1.9-.5,3.4,3.4,0,0,0-1.9.5,3.3,3.3,0,0,0-1.3,1.3,5.2,5.2,0,0,0,0,4,4.4,4.4,0,0,0,1.3,1.4,4.5,4.5,0,0,0,1.9.5A4.1,4.1,0,0,0,84.9,243.4Z" style="fill:#fff"/><path d="M93.8,233.5v.9H97v1.7H93.8v9.3h-2v-9.3H90v-1.7h1.8v-.9a3.5,3.5,0,0,1,1-2.6,3.4,3.4,0,0,1,2.7-1,3.2,3.2,0,0,1,1.3.2,2.4,2.4,0,0,1,1,.5l-.6,1.5a2.5,2.5,0,0,0-1.6-.6C94.4,231.5,93.8,232.2,93.8,233.5Z" style="fill:#fff"/><path d="M110.8,244.8l-1.1.5a3,3,0,0,1-1.3.2,3.4,3.4,0,0,1-2.6-.8,3.2,3.2,0,0,1-.9-2.6V236H103v-1.6h1.9V232h2v2.4H110V236h-3.1v6.1a1.5,1.5,0,0,0,.4,1.3,1.3,1.3,0,0,0,1.3.5,3,3,0,0,0,1.6-.5Z" style="fill:#fff"/><path d="M122.4,235.6a4.5,4.5,0,0,1,1.3,3.5v6.4h-2v-6.1a3.3,3.3,0,0,0-.8-2.4,2.7,2.7,0,0,0-2.2-.8,3.1,3.1,0,0,0-2.6.9,3.3,3.3,0,0,0-.9,2.7v5.7h-2V230h2v6a3.1,3.1,0,0,1,1.6-1.2,6.4,6.4,0,0,1,2.3-.5A4.6,4.6,0,0,1,122.4,235.6Z" style="fill:#fff"/><path d="M137.4,240.6h-8.9a3.5,3.5,0,0,0,1.2,2.3,4.7,4.7,0,0,0,2.8.9,3.7,3.7,0,0,0,3.1-1.3l1.1,1.3a4.6,4.6,0,0,1-1.8,1.3,7.4,7.4,0,0,1-2.5.5,6.8,6.8,0,0,1-3.1-.8,4.5,4.5,0,0,1-2.1-2,5.4,5.4,0,0,1-.7-2.9,5.9,5.9,0,0,1,.7-2.9,4.6,4.6,0,0,1,2-1.9,5.6,5.6,0,0,1,5.6,0,4.4,4.4,0,0,1,1.9,1.9,5.5,5.5,0,0,1,.7,3Zm-7.7-3.7a3.5,3.5,0,0,0-1.2,2.3h7.1a3.8,3.8,0,0,0-1.1-2.3A3.6,3.6,0,0,0,129.7,236.9Z" style="fill:#fff"/><path d="M146.2,230.9h2v14.5h-2Z" style="fill:#fff"/><path d="M161.6,235.6a4.9,4.9,0,0,1,1.3,3.5v6.4h-2.1v-6.1a3.3,3.3,0,0,0-.8-2.4,2.7,2.7,0,0,0-2.2-.8,3.1,3.1,0,0,0-2.6.9,3.3,3.3,0,0,0-.9,2.7v5.7h-2v-11h2v1.6a5.1,5.1,0,0,1,1.6-1.3,6.7,6.7,0,0,1,2.4-.4A4.5,4.5,0,0,1,161.6,235.6Z" style="fill:#fff"/><path d="M177,230v15.4h-2v-1.7a4.3,4.3,0,0,1-1.6,1.4,6.2,6.2,0,0,1-2.3.4,4.5,4.5,0,0,1-2.8-.7,4.1,4.1,0,0,1-2-1.9,6.2,6.2,0,0,1,0-5.9,4.8,4.8,0,0,1,2-2,5.3,5.3,0,0,1,2.8-.7,5.4,5.4,0,0,1,2.2.4A4.5,4.5,0,0,1,175,236v-6Zm-3.8,13.4a3.5,3.5,0,0,0,1.3-1.4,4.3,4.3,0,0,0,0-4,2.7,2.7,0,0,0-1.3-1.3,3.7,3.7,0,0,0-3.8,0,3.3,3.3,0,0,0-1.3,1.3,5.2,5.2,0,0,0,0,4,4.4,4.4,0,0,0,1.3,1.4A4.2,4.2,0,0,0,173.2,243.4Z" style="fill:#fff"/><path d="M182.6,244.8a4.5,4.5,0,0,1-2.1-2,6.6,6.6,0,0,1,0-5.8,5.8,5.8,0,0,1,2.1-2,6.8,6.8,0,0,1,5.9,0,6.4,6.4,0,0,1,2,2,6,6,0,0,1,0,5.8,5.5,5.5,0,0,1-2,2A6.2,6.2,0,0,1,182.6,244.8Zm4.8-1.5a2.9,2.9,0,0,0,1.3-1.4,4.3,4.3,0,0,0,0-4,3.3,3.3,0,0,0-1.3-1.3,3.8,3.8,0,0,0-1.9-.5,4.5,4.5,0,0,0-1.9.5,5.3,5.3,0,0,0-1.3,1.3,5.2,5.2,0,0,0,0,4,4.4,4.4,0,0,0,1.3,1.4,4.5,4.5,0,0,0,1.9.5,3.8,3.8,0,0,0,1.9-.4Z" style="fill:#fff"/><path d="M203.3,235.6a4.9,4.9,0,0,1,1.3,3.5v6.4h-2v-6.1a3.3,3.3,0,0,0-.8-2.4,2.7,2.7,0,0,0-2.2-.8,3.1,3.1,0,0,0-2.6.9,3.3,3.3,0,0,0-.9,2.7v5.7h-2v-11H196v1.6a5.1,5.1,0,0,1,1.6-1.3,6.7,6.7,0,0,1,2.4-.4A4.5,4.5,0,0,1,203.3,235.6Z" style="fill:#fff"/><path d="M218.2,240.6h-8.9a3.6,3.6,0,0,0,1.3,2.3,4.4,4.4,0,0,0,2.7.9,4,4,0,0,0,3.2-1.3l1.1,1.3a5,5,0,0,1-1.9,1.3,7,7,0,0,1-2.5.5,7.1,7.1,0,0,1-3.1-.8,5,5,0,0,1-2.1-2,6.6,6.6,0,0,1,0-5.8,5.2,5.2,0,0,1,2-1.9,6,6,0,0,1,2.8-.8,6,6,0,0,1,2.9.8,5,5,0,0,1,1.9,1.9,6.6,6.6,0,0,1,.7,3A3.5,3.5,0,0,0,218.2,240.6Zm-7.8-3.7a3.8,3.8,0,0,0-1.1,2.3h7.1a3.5,3.5,0,0,0-1.2-2.3A3.6,3.6,0,0,0,210.4,236.9Z" style="fill:#fff"/><path d="M221.6,245.2a6.6,6.6,0,0,1-1.9-.9l.8-1.6a7.1,7.1,0,0,0,1.8.8l2.1.3c1.7,0,2.6-.5,2.6-1.5a1.2,1.2,0,0,0-.4-.8,1.9,1.9,0,0,0-.9-.4l-1.5-.3a8,8,0,0,1-2.1-.5,2.9,2.9,0,0,1-1.5-.9,2.9,2.9,0,0,1,.7-4.2,6.7,6.7,0,0,1,3.4-.9l2.1.3a4.8,4.8,0,0,1,1.8.7l-.8,1.6a5.7,5.7,0,0,0-3.2-.9,4.3,4.3,0,0,0-1.9.4,1.5,1.5,0,0,0-.7,1.1,1.3,1.3,0,0,0,.4.9,1.8,1.8,0,0,0,.9.4l1.6.4,2.1.5a2.5,2.5,0,0,1,2,2.6,2.9,2.9,0,0,1-1.3,2.4,5.9,5.9,0,0,1-3.5.8Z" style="fill:#fff"/><path d="M231.6,231.9a1,1,0,0,1-.4-.9,1.4,1.4,0,0,1,1.3-1.3,1.3,1.3,0,0,1,1,.4,1.3,1.3,0,0,1,.4.9,1.4,1.4,0,0,1-1.4,1.3A1,1,0,0,1,231.6,231.9Zm0,2.5h2v11h-2Z" style="fill:#fff"/><path d="M244.9,235.4a4.6,4.6,0,0,1,1.2,3.4v6.6h-1.9V244a2.6,2.6,0,0,1-1.4,1.1,4.1,4.1,0,0,1-2.2.4,4.6,4.6,0,0,1-3-.8,3.2,3.2,0,0,1-1.1-2.4,2.8,2.8,0,0,1,1.1-2.3,5.2,5.2,0,0,1,3.4-.9h3.1v-.4a2.9,2.9,0,0,0-.7-2,3.6,3.6,0,0,0-2.2-.7,5.8,5.8,0,0,0-1.9.4,4,4,0,0,0-1.6.8l-.9-1.5a6.8,6.8,0,0,1,2.1-1,6.9,6.9,0,0,1,2.5-.4A5.1,5.1,0,0,1,244.9,235.4Zm-2,8.1a2.4,2.4,0,0,0,1.2-1.4v-1.6H241c-1.7,0-2.6.6-2.6,1.7a1.7,1.7,0,0,0,.7,1.3,2.7,2.7,0,0,0,1.8.5A3.5,3.5,0,0,0,242.9,243.5Z" style="fill:#fff"/><path d="M256.8,245.1a7.6,7.6,0,0,1-2.3-1.3l.7-1.6a9.4,9.4,0,0,0,2.2,1.2,7.3,7.3,0,0,0,2.5.4,4.2,4.2,0,0,0,2.7-.6,1.7,1.7,0,0,0,.9-1.6,1.1,1.1,0,0,0-.5-1.2,2.6,2.6,0,0,0-1.1-.7l-2.1-.6-2.6-.8a4.8,4.8,0,0,1-1.7-1.2,3.4,3.4,0,0,1-.7-2.2,3.7,3.7,0,0,1,.6-2.1,4,4,0,0,1,1.9-1.5,7.8,7.8,0,0,1,3.1-.6,10.9,10.9,0,0,1,2.5.4,8.5,8.5,0,0,1,2.2.9l-.7,1.7a7.2,7.2,0,0,0-2-.9,6.4,6.4,0,0,0-2-.3,4.8,4.8,0,0,0-2.6.7,2,2,0,0,0-.9,1.6,1.7,1.7,0,0,0,.5,1.2,2.4,2.4,0,0,0,1.3.7l2,.6,2.6.8a4.3,4.3,0,0,1,1.7,1.2,2.9,2.9,0,0,1,.7,2.2,4.2,4.2,0,0,1-.6,2.1,4.5,4.5,0,0,1-1.9,1.4,8.1,8.1,0,0,1-3.1.6A12.6,12.6,0,0,1,256.8,245.1Z" style="fill:#fff"/><path d="M274.6,244.8l-1.1.5a2.7,2.7,0,0,1-1.3.2,3.7,3.7,0,0,1-2.6-.8,4.1,4.1,0,0,1-.9-2.6V236h-1.8v-1.6h1.8V232h2v2.4h3.2V236h-3.2v6.1a1.5,1.5,0,0,0,.5,1.3,1.3,1.3,0,0,0,1.3.5,2.7,2.7,0,0,0,1.5-.5Z" style="fill:#fff"/><path d="M278.5,244.8a4.5,4.5,0,0,1-2.1-2,6.6,6.6,0,0,1,0-5.8,5.8,5.8,0,0,1,2.1-2,6.8,6.8,0,0,1,5.9,0,6.4,6.4,0,0,1,2,2,6,6,0,0,1,0,5.8,5.5,5.5,0,0,1-2,2A6.2,6.2,0,0,1,278.5,244.8Zm4.8-1.5a2.9,2.9,0,0,0,1.3-1.4,4.3,4.3,0,0,0,0-4,3.3,3.3,0,0,0-1.3-1.3,4.2,4.2,0,0,0-3.8,0,4,4,0,0,0-1.3,1.3,4.2,4.2,0,0,0,0,4,3.5,3.5,0,0,0,1.3,1.4A3.7,3.7,0,0,0,283.3,243.3Z" style="fill:#fff"/><path d="M291.7,244.8a5.5,5.5,0,0,1-2-2,6,6,0,0,1,0-5.8,6.4,6.4,0,0,1,2-2,6.6,6.6,0,0,1,3-.7,5.8,5.8,0,0,1,2.6.6,3.9,3.9,0,0,1,1.8,1.8l-1.5.9a2.4,2.4,0,0,0-1.3-1.1,4.2,4.2,0,0,0-3.6,0,3.3,3.3,0,0,0-1.3,1.3,5.4,5.4,0,0,0-.5,2.1,4.6,4.6,0,0,0,.5,2,3.5,3.5,0,0,0,1.3,1.4,4.3,4.3,0,0,0,1.9.4,3.3,3.3,0,0,0,1.7-.4,2.4,2.4,0,0,0,1.3-1.1l1.5.9a3.9,3.9,0,0,1-1.8,1.8,5.8,5.8,0,0,1-2.6.6A6.6,6.6,0,0,1,291.7,244.8Z" style="fill:#fff"/><path d="M306,240.3l-2.3,2.1v3h-2V230h2v9.9l6-5.5h2.4l-4.6,4.6,5.1,6.4h-2.5Z" style="fill:#fff"/><path d="M331,243.6v1.8H320.5V230.9h10.2v1.8h-8.1v4.5h7.2v1.7h-7.2v4.7Z" style="fill:#fff"/><path d="M340.9,245.4l-3.2-4.2-3.2,4.2h-2.2l4.4-5.6-4.2-5.4h2.2l3.1,3.9,3-3.9H343l-4.2,5.4,4.4,5.6Z" style="fill:#fff"/><path d="M346.8,244.8a4.8,4.8,0,0,1-2-2,6,6,0,0,1,0-5.8,6.4,6.4,0,0,1,2-2,6.6,6.6,0,0,1,3-.7,6,6,0,0,1,2.7.6,3.9,3.9,0,0,1,1.8,1.8l-1.5.9a2.8,2.8,0,0,0-1.3-1.1,3.3,3.3,0,0,0-1.7-.4,3.1,3.1,0,0,0-1.9.4,3.3,3.3,0,0,0-1.3,1.3,4.1,4.1,0,0,0-.5,2.1,4,4,0,0,0,1.8,3.4,4.1,4.1,0,0,0,1.9.4,3.3,3.3,0,0,0,1.7-.4,2.8,2.8,0,0,0,1.3-1.1l1.5.9a3.9,3.9,0,0,1-1.8,1.8,6,6,0,0,1-2.7.6A6.6,6.6,0,0,1,346.8,244.8Z" style="fill:#fff"/><path d="M366,235.6a4.5,4.5,0,0,1,1.3,3.5v6.4h-2v-6.1a3,3,0,0,0-.8-2.4,2.4,2.4,0,0,0-2.2-.8,3.2,3.2,0,0,0-2.6.9,3.7,3.7,0,0,0-.9,2.7v5.7h-2V230h2v6a3.1,3.1,0,0,1,1.6-1.2,5.9,5.9,0,0,1,2.3-.5A4.6,4.6,0,0,1,366,235.6Z" style="fill:#fff"/><path d="M378.5,235.4a4.2,4.2,0,0,1,1.2,3.4v6.6h-1.9V244a2.6,2.6,0,0,1-1.4,1.1,4.1,4.1,0,0,1-2.2.4,4.3,4.3,0,0,1-2.9-.8,3.2,3.2,0,0,1-.4-4.4l.4-.3a4.7,4.7,0,0,1,3.3-.9h3.2v-.4a3,3,0,0,0-.8-2,3.4,3.4,0,0,0-2.2-.7,6.5,6.5,0,0,0-1.9.4,4.8,4.8,0,0,0-1.6.8l-.8-1.5a7.5,7.5,0,0,1,2-1,7.8,7.8,0,0,1,2.6-.4A4.8,4.8,0,0,1,378.5,235.4Zm-2,8.1a2.4,2.4,0,0,0,1.2-1.4v-1.6h-3c-1.7,0-2.5.6-2.5,1.7a1.6,1.6,0,0,0,.6,1.3,2.9,2.9,0,0,0,1.8.5A4.1,4.1,0,0,0,376.5,243.5Z" style="fill:#fff"/><path d="M392.7,235.6a4.9,4.9,0,0,1,1.3,3.5v6.4h-2v-6.1a3.3,3.3,0,0,0-.8-2.4,2.7,2.7,0,0,0-2.2-.8,3.1,3.1,0,0,0-2.6.9,3.3,3.3,0,0,0-.9,2.7v5.7h-2v-11h1.9v1.6a5.1,5.1,0,0,1,1.6-1.3,6.7,6.7,0,0,1,2.4-.4A4.5,4.5,0,0,1,392.7,235.6Z" style="fill:#fff"/><path d="M408.2,234.4v9.5a5.6,5.6,0,0,1-1.4,4.3,6,6,0,0,1-4.3,1.4,9.3,9.3,0,0,1-2.9-.5,4.6,4.6,0,0,1-2.3-1.2l.9-1.5a5,5,0,0,0,1.9,1,6.7,6.7,0,0,0,2.4.4,3.7,3.7,0,0,0,2.8-.9,3.9,3.9,0,0,0,1-2.8v-.8a5.9,5.9,0,0,1-1.8,1.3,8.5,8.5,0,0,1-2.2.4,5.9,5.9,0,0,1-2.9-.7,5.2,5.2,0,0,1-2-1.9,5.9,5.9,0,0,1,0-5.5,5.2,5.2,0,0,1,2-1.9,7.3,7.3,0,0,1,2.9-.7,5.9,5.9,0,0,1,2.3.5,4.6,4.6,0,0,1,1.8,1.3v-1.7Zm-3.7,8.4a3.7,3.7,0,0,0,1.2-1.3,3.9,3.9,0,0,0-.5-4.5,3.9,3.9,0,0,0-2.7-1,4.2,4.2,0,0,0-2.8,1,3.2,3.2,0,0,0-1,2.6,4.1,4.1,0,0,0,.4,1.9,5.3,5.3,0,0,0,1.3,1.3,4.8,4.8,0,0,0,2,.4,5.2,5.2,0,0,0,2.1-.4Z" style="fill:#fff"/><path d="M422,240.6h-8.9a3.2,3.2,0,0,0,1.3,2.3,4.2,4.2,0,0,0,2.7.9,4,4,0,0,0,3.2-1.3l1.1,1.3a5,5,0,0,1-1.9,1.3,7,7,0,0,1-2.5.5,6.8,6.8,0,0,1-3.1-.8,5,5,0,0,1-2.1-2,5.4,5.4,0,0,1-.7-2.9,5.9,5.9,0,0,1,.7-2.9,5.2,5.2,0,0,1,2-1.9,5.6,5.6,0,0,1,5.6,0,4.6,4.6,0,0,1,2,1.9,8.2,8.2,0,0,1,.7,3C422,240.1,422,240.3,422,240.6Zm-7.8-3.7a3.8,3.8,0,0,0-1.1,2.3h7a3.8,3.8,0,0,0-1.1-2.3,3.6,3.6,0,0,0-4.8,0Z" style="fill:#fff"/><path d="M442.6,239.2a3.9,3.9,0,0,1-.7,5.2,6.9,6.9,0,0,1-4.2,1h-6.9V230.9h6.5a6.9,6.9,0,0,1,3.9,1,3.5,3.5,0,0,1,1.3,2.7,3.6,3.6,0,0,1-.6,2,2.9,2.9,0,0,1-1.4,1.3A3.9,3.9,0,0,1,442.6,239.2Zm-9.7-6.6v4.6h4.2a3.7,3.7,0,0,0,2.5-.6,2.2,2.2,0,0,0,.4-3l-.4-.4a3.7,3.7,0,0,0-2.5-.6Zm7.4,10.6a2.2,2.2,0,0,0,.9-1.9q0-2.4-3.6-2.4h-4.7v4.8h4.7A4.9,4.9,0,0,0,440.3,243.2Z" style="fill:#fff"/><path d="M456.5,234.4v11h-1.9v-1.6a4.2,4.2,0,0,1-1.6,1.3,4.9,4.9,0,0,1-2.1.4,4.4,4.4,0,0,1-4.8-4.8v-6.3h2v6.1a3.3,3.3,0,0,0,.8,2.4,3.1,3.1,0,0,0,2.2.9,3.9,3.9,0,0,0,2.5-1,4.4,4.4,0,0,0,.9-2.7v-5.7Z" style="fill:#fff"/><path d="M460.4,231.9a1.3,1.3,0,0,1-.4-.9,1.3,1.3,0,0,1,1.3-1.3,1.3,1.3,0,0,1,1,.4,1.3,1.3,0,0,1,.4.9,1.3,1.3,0,0,1-1.3,1.3A1.3,1.3,0,0,1,460.4,231.9Zm0,2.5h2v11h-2Z" style="fill:#fff"/><path d="M466.2,230h2v15.4h-2Z" style="fill:#fff"/><path d="M482.4,230v15.4h-1.9v-1.7a4.3,4.3,0,0,1-1.6,1.4,5.9,5.9,0,0,1-2.3.4,4.5,4.5,0,0,1-2.8-.7,4.1,4.1,0,0,1-2-1.9,6.2,6.2,0,0,1,0-5.9,4.8,4.8,0,0,1,2-2,5.3,5.3,0,0,1,2.8-.7,5.4,5.4,0,0,1,2.2.5,5.2,5.2,0,0,1,1.7,1.3V230Zm-3.7,13.4A4.4,4.4,0,0,0,480,242a5.2,5.2,0,0,0,0-4,3.3,3.3,0,0,0-1.3-1.3,3.7,3.7,0,0,0-3.8,0,2.7,2.7,0,0,0-1.3,1.3,3.5,3.5,0,0,0-.5,2,4.6,4.6,0,0,0,.5,2,3.5,3.5,0,0,0,1.3,1.4A4.2,4.2,0,0,0,478.7,243.4Z" style="fill:#fff"/><path d="M486.3,231.9a1.3,1.3,0,0,1-.4-.9,1.3,1.3,0,0,1,1.3-1.3,1.3,1.3,0,0,1,1,.4,1.3,1.3,0,0,1,.4.9,1.3,1.3,0,0,1-1.3,1.3A1.3,1.3,0,0,1,486.3,231.9Zm0,2.5h2v11h-2Z" style="fill:#fff"/><path d="M501.3,235.6a4.7,4.7,0,0,1,1.3,3.5v6.4h-2v-6.1a3.3,3.3,0,0,0-.8-2.4,2.7,2.7,0,0,0-2.2-.8,3.2,3.2,0,0,0-2.6.9,3.7,3.7,0,0,0-.9,2.7v5.7h-2v-11H494v1.6a5.1,5.1,0,0,1,1.6-1.3,6.2,6.2,0,0,1,2.3-.4A4.2,4.2,0,0,1,501.3,235.6Z" style="fill:#fff"/><path d="M516.9,234.4v9.5a6,6,0,0,1-1.4,4.3,6.2,6.2,0,0,1-4.3,1.4,10.5,10.5,0,0,1-3-.5,5.7,5.7,0,0,1-2.3-1.2l1-1.5a5,5,0,0,0,1.9,1,6.2,6.2,0,0,0,2.3.4,3.8,3.8,0,0,0,2.9-.9,3.4,3.4,0,0,0,.9-2.8v-.8a5.5,5.5,0,0,1-1.7,1.3,8.5,8.5,0,0,1-2.2.4,5.9,5.9,0,0,1-2.9-.7,5.2,5.2,0,0,1-2-1.9,5.4,5.4,0,0,1,0-5.5,5.2,5.2,0,0,1,2-1.9,5.9,5.9,0,0,1,2.9-.7,6.8,6.8,0,0,1,2.3.5,5.2,5.2,0,0,1,1.7,1.3v-1.7Zm-3.8,8.4a3.3,3.3,0,0,0,1.3-1.3,4.1,4.1,0,0,0,.5-1.9,3.6,3.6,0,0,0-1.1-2.6,4.2,4.2,0,0,0-5.4,0,3.6,3.6,0,0,0-1.1,2.6,4.1,4.1,0,0,0,.5,1.9,4,4,0,0,0,1.3,1.3,5.2,5.2,0,0,0,4,0Z" style="fill:#fff"/></svg>