<svg id="Layer_1" data-name="Layer 1" xmlns="http://www.w3.org/2000/svg" viewBox="0 0 375.07 46.54"><defs><style>.cls-1{isolation:isolate;}.cls-2{fill:#fff;}</style></defs><title>Logo_white</title><g id="Group_1083" data-name="Group 1083"><g class="cls-1"><path class="cls-2" d="M63.2,31.09l.09-.7h.09c.54,0,.86-.05,1-.18s.11-.1.35-1l1.51-5.64a4.4,4.4,0,0,0,.18-.82c0-.29-.18-.35-1-.35h-.29l.11-.7h4.85l-.09.7h-.09c-.55,0-.86.05-1,.18s-.12.09-.35,1L67,29.22a3.68,3.68,0,0,0-.18.82c0,.29.18.35,1,.35h.29l-.1.7Z"/><path class="cls-2" d="M77.92,28.3l1-3.77a5.09,5.09,0,0,0,.29-1.41c0-.48-.4-.71-1.17-.71l.09-.7h3.6l-.09.7a1.54,1.54,0,0,0-1.06.35c-.36.35-.39.39-.79,1.77L78,31.28H77l-3.85-7.36-1.17,4.35a5.09,5.09,0,0,0-.27,1.41c0,.48.38.71,1.13.71H73l-.11.7H69.15l.09-.7A1.63,1.63,0,0,0,70.29,30c.37-.34.39-.41.78-1.77l1.47-5.44a.73.73,0,0,0-.76-.42h-.73l.09-.7h3.3Z"/><path class="cls-2" d="M80.81,30.39h0c.55,0,.86-.05,1-.18s.11-.1.35-1l1.51-5.64a4.05,4.05,0,0,0,.17-.82c0-.29-.18-.35-1-.35h-.23l.09-.7h4.66a4.6,4.6,0,0,1,3,.73,3.38,3.38,0,0,1,1.36,3,5.71,5.71,0,0,1-2,4.38c-1.12.94-2.42,1.3-4.68,1.3H80.72Zm4.58,0A3.08,3.08,0,0,0,88.05,29a8.87,8.87,0,0,0,1.24-4.41c0-1.42-.68-2.17-1.94-2.17h-.29c-.59,0-.78.17-1,.82l-1.66,6.21a2.88,2.88,0,0,0-.12.6c0,.26.2.35.69.35Z"/><path class="cls-2" d="M101.86,22.7a3.69,3.69,0,0,1,1.08,2.66A6,6,0,0,1,97,31.29a3.71,3.71,0,0,1-4-3.91,6,6,0,0,1,1.82-4.22A5.72,5.72,0,0,1,99,21.51,3.79,3.79,0,0,1,101.86,22.7Zm-5.38,1.53a11.29,11.29,0,0,0-1.11,4.36c0,1.23.64,2,1.65,2s1.76-.67,2.48-2a9.77,9.77,0,0,0,1-4.22,2.46,2.46,0,0,0-.35-1.44,1.58,1.58,0,0,0-1.28-.67C97.93,22.22,97.15,22.86,96.48,24.23Z"/><path class="cls-2" d="M111.83,28.3l1-3.77a4.69,4.69,0,0,0,.29-1.41c0-.48-.39-.71-1.17-.71l.09-.7h3.6l-.09.7a1.53,1.53,0,0,0-1,.35c-.37.35-.39.39-.8,1.77l-1.8,6.75h-1L107,23.92l-1.17,4.35a5.09,5.09,0,0,0-.27,1.41c0,.48.37.71,1.13.71h.14l-.1.7h-3.7l.09-.7A1.64,1.64,0,0,0,104.2,30c.36-.34.39-.41.78-1.77l1.47-5.44a.75.75,0,0,0-.77-.42H105l.09-.7h3.3Z"/><path class="cls-2" d="M124.2,24.89h-.67a3.73,3.73,0,0,0-.27-1.65,1.82,1.82,0,0,0-1.79-.83H121c-.53,0-.68.12-.82.62l-.77,2.85h.28a2,2,0,0,0,2.16-1.58l.68.09-1.17,4.35-.68-.09a5.56,5.56,0,0,0,.06-.81c0-.84-.4-1.26-1.22-1.26h-.29l-.82,3.07a1.71,1.71,0,0,0-.07.42c0,.23.2.32.7.32h.47a3.47,3.47,0,0,0,2.63-1.13,5.31,5.31,0,0,0,1.15-1.53l.67.14-.85,3.22h-8.36l.09-.7h.05c.9,0,1-.08,1.2-.62l.14-.55,1.52-5.64a4.34,4.34,0,0,0,.17-.82c0-.29-.18-.35-1-.35h-.24l.1-.7h8Z"/><path class="cls-2" d="M133.37,25.22l-.68-.12a3.62,3.62,0,0,0-.32-1.6,2.32,2.32,0,0,0-2.15-1.28c-1.11,0-1.86.55-1.86,1.4a1.27,1.27,0,0,0,.42.94,3.09,3.09,0,0,0,1,.5,11.7,11.7,0,0,1,2.25.94,2.4,2.4,0,0,1,1.17,2.18c0,1.84-1.55,3.11-3.8,3.11a3.91,3.91,0,0,1-2.82-1l-.75.84h-.57l.65-3.67.67.1v.19a2.65,2.65,0,0,0,2.78,2.88c1.23,0,2-.6,2-1.47S131,28,129.22,27.39a4.23,4.23,0,0,1-1.88-1,2.38,2.38,0,0,1-.73-1.77,3.24,3.24,0,0,1,3.46-3.15,3.7,3.7,0,0,1,2.6,1l.69-.7h.58Z"/><path class="cls-2" d="M134,31.09l.1-.7h.09c.54,0,.85-.05,1-.18s.11-.1.35-1l1.5-5.64a4,4,0,0,0,.19-.82c0-.29-.19-.35-1-.35h-.29l.11-.7h4.85l-.09.7h-.1c-.54,0-.85.05-1,.18s-.12.09-.35,1l-1.51,5.64a3.68,3.68,0,0,0-.18.82c0,.29.18.35,1,.35H139l-.11.7Z"/><path class="cls-2" d="M148.7,29.61c.13.61.37.78,1.17.78h.18l-.09.7H145.1l.09-.7h.2a1.76,1.76,0,0,0,.86-.1.34.34,0,0,0,.22-.3,2.07,2.07,0,0,0-.05-.42l-.26-1.34h-3l-.6,1.06a1.11,1.11,0,0,0-.18.56c0,.37.32.54,1,.54h.17l-.11.7h-3.71l.09-.7h.07a2.31,2.31,0,0,0,1.73-1.34l4.53-7.52h.8Zm-3.31-5.21-1.83,3.13H146Z"/><path class="cls-2" d="M164.44,25.22l-.68-.12a3.92,3.92,0,0,0-.32-1.6,2.32,2.32,0,0,0-2.15-1.28c-1.12,0-1.86.55-1.86,1.4a1.23,1.23,0,0,0,.42.94,3,3,0,0,0,1,.5,12,12,0,0,1,2.25.94,2.4,2.4,0,0,1,1.17,2.18c0,1.84-1.55,3.11-3.8,3.11a3.91,3.91,0,0,1-2.82-1l-.76.84h-.57l.65-3.67.68.1v.19a2.65,2.65,0,0,0,2.78,2.88c1.22,0,2-.6,2-1.47S162,28,160.29,27.39a4.35,4.35,0,0,1-1.89-1,2.37,2.37,0,0,1-.72-1.77,3.23,3.23,0,0,1,3.45-3.15,3.67,3.67,0,0,1,2.6,1l.69-.7H165Z"/><path class="cls-2" d="M174.76,25.39l-.69-.07c0-.3,0-.62,0-.78,0-1.36-.55-2.13-1.54-2.13-.37,0-.4,0-.55.58l-1.67,6.23a3.24,3.24,0,0,0-.18.82c0,.29.18.35,1,.35h.32l-.09.7h-5.16l.09-.7h.35c.55,0,.86-.05,1-.18s.12-.1.35-1l1.69-6.3a1.23,1.23,0,0,0,.06-.32c0-.13-.14-.19-.37-.19-1.1,0-1.9.85-2.79,3l-.65-.21.92-3.47h8.41Z"/><path class="cls-2" d="M184.55,22.7a3.69,3.69,0,0,1,1.08,2.66,6,6,0,0,1-5.92,5.93,3.71,3.71,0,0,1-4-3.91,6,6,0,0,1,1.82-4.22,5.71,5.71,0,0,1,4.08-1.65A3.8,3.8,0,0,1,184.55,22.7Zm-5.39,1.53a11.45,11.45,0,0,0-1.1,4.36c0,1.23.64,2,1.65,2s1.76-.67,2.48-2a9.77,9.77,0,0,0,1-4.22,2.46,2.46,0,0,0-.35-1.44,1.58,1.58,0,0,0-1.28-.67C180.62,22.22,179.84,22.86,179.16,24.23Z"/><path class="cls-2" d="M195.6,25.56l-.64-.08c-.07-2.22-.75-3.28-2.15-3.28a2.56,2.56,0,0,0-2.17,1.41A9,9,0,0,0,189.41,28a2.19,2.19,0,0,0,2.23,2.47,3.22,3.22,0,0,0,2.85-2.13h.82a4.61,4.61,0,0,1-1.14,1.84,4,4,0,0,1-2.9,1.11,4.83,4.83,0,0,1-3.2-1.12,3.92,3.92,0,0,1-1.13-2.87,5.86,5.86,0,0,1,5.69-5.79A2.86,2.86,0,0,1,195,22.58l.73-.74h.6Z"/><path class="cls-2" d="M204,23.28c.27-.26.39-.42.39-.55s-.19-.32-.53-.32h-.46l.09-.7h3.89l-.09.7A3.1,3.1,0,0,0,205,23.46l-2.1,1.95,1.86,4c.41.91.5,1,1.4,1h.2l-.11.7h-4.86l.09-.7h.4c.6,0,.78-.06.78-.28s0-.11-.14-.41l-1.33-2.77-1.09,1-.34,1.28a4.4,4.4,0,0,0-.18.82c0,.29.18.35,1,.35h.14l-.1.7H196l.09-.7h.06a1.75,1.75,0,0,0,1-.18c.1-.1.1-.1.35-1L199,23.58a3.91,3.91,0,0,0,.18-.82c0-.29-.18-.35-1-.35h-.25l.1-.7h4.88l-.09.7h-.16c-.54,0-.86.05-1,.18s-.11.11-.35,1l-.79,2.93Z"/><path class="cls-2" d="M220.11,24.89h-.67a3.88,3.88,0,0,0-.27-1.65,1.82,1.82,0,0,0-1.79-.83h-.49c-.53,0-.68.12-.82.62l-.77,2.85h.28a2,2,0,0,0,2.16-1.58l.68.09-1.17,4.35-.68-.09a5.56,5.56,0,0,0,.06-.81c0-.84-.4-1.26-1.22-1.26h-.29l-.82,3.07a1.84,1.84,0,0,0-.08.42c0,.23.21.32.71.32h.47A3.47,3.47,0,0,0,218,29.26a5.31,5.31,0,0,0,1.15-1.53l.67.14L219,31.09h-8.36l.09-.7h.05c.9,0,1.05-.08,1.2-.62l.14-.55,1.52-5.64a4.34,4.34,0,0,0,.17-.82c0-.29-.18-.35-1-.35h-.24l.1-.7h8Z"/><path class="cls-2" d="M228.8,29.68c.26.57.5.71,1.26.71h.3l-.09.7h-5l.09-.7h.53c.49,0,.65-.06.65-.28a.9.9,0,0,0-.13-.43l-.95-2.21-1.75,1.71a1.05,1.05,0,0,0-.41.69c0,.35.29.52.86.52h.29l-.09.7h-4.07l.09-.7a2.6,2.6,0,0,0,1.92-1l2.82-2.77L223.45,23c-.23-.51-.37-.6-1-.6H222l.11-.7H227l-.09.7h-.43c-.54,0-.7.06-.7.26a1.07,1.07,0,0,0,.11.38l.9,2,1.6-1.59a.82.82,0,0,0,.31-.59c0-.29-.26-.42-.78-.42h-.21l.09-.7h4l-.1.7c-.93.06-1.22.22-2.22,1.18l-2.34,2.25Z"/><path class="cls-2" d="M239.87,25.56l-.63-.08c-.07-2.22-.76-3.28-2.15-3.28a2.54,2.54,0,0,0-2.17,1.41A8.92,8.92,0,0,0,233.69,28a2.19,2.19,0,0,0,2.23,2.47,3.22,3.22,0,0,0,2.85-2.13h.82a4.52,4.52,0,0,1-1.15,1.84,4,4,0,0,1-2.9,1.11,4.83,4.83,0,0,1-3.19-1.12,3.92,3.92,0,0,1-1.13-2.87,5.85,5.85,0,0,1,5.69-5.79,2.87,2.87,0,0,1,2.39,1.07l.73-.74h.6Z"/><path class="cls-2" d="M244.75,26.67l-.68,2.55a3.91,3.91,0,0,0-.18.82c0,.29.18.35,1,.35h.14l-.1.7h-4.67l.09-.7h.05c.9,0,1.06-.08,1.2-.62,0-.16.1-.37.14-.55l1.52-5.64a4.05,4.05,0,0,0,.17-.82c0-.29-.18-.35-1-.35h-.24l.1-.7h4.88l-.09.7h-.16c-.55,0-.86.05-1,.18s-.12.09-.35,1l-.62,2.3h3.32l.62-2.3a3.91,3.91,0,0,0,.18-.82c0-.29-.18-.35-1-.35h-.14l.1-.7h4.67l-.09.7h-.05c-.55,0-.86.05-1,.18s-.11.09-.34,1l-1.52,5.64a4.6,4.6,0,0,0-.17.82c0,.29.18.35,1,.35h.29l-.09.7H245.8l.09-.7h.16c.54,0,.86-.05,1-.18s.11-.1.35-1l.69-2.55Z"/><path class="cls-2" d="M260.48,29.61c.13.61.38.78,1.17.78h.18l-.09.7h-4.86l.09-.7h.21a1.81,1.81,0,0,0,.86-.1.34.34,0,0,0,.22-.3,2.28,2.28,0,0,0-.06-.42l-.26-1.34h-3l-.6,1.06a1.11,1.11,0,0,0-.18.56c0,.37.32.54,1,.54h.17l-.1.7h-3.72l.09-.7h.08a2.34,2.34,0,0,0,1.73-1.34L258,21.53h.81Zm-3.3-5.21-1.84,3.13h2.43Z"/><path class="cls-2" d="M270.58,28.3l1-3.77a4.69,4.69,0,0,0,.29-1.41c0-.48-.39-.71-1.17-.71l.09-.7h3.6l-.09.7a1.53,1.53,0,0,0-1.05.35c-.37.35-.39.39-.8,1.77l-1.8,6.75h-1l-3.85-7.36-1.17,4.35a5.09,5.09,0,0,0-.27,1.41c0,.48.37.71,1.13.71h.14l-.1.7h-3.7l.09-.7A1.64,1.64,0,0,0,263,30c.36-.34.39-.41.78-1.77l1.47-5.44a.75.75,0,0,0-.77-.42h-.73l.09-.7h3.3Z"/><path class="cls-2" d="M283.08,25.48l-.66-.09a5.19,5.19,0,0,0-.3-1.78,1.89,1.89,0,0,0-1.89-1.39c-1,0-1.9.66-2.61,2a9.35,9.35,0,0,0-1,3.93,3.92,3.92,0,0,0,.33,1.64,1.76,1.76,0,0,0,1.5.85,2,2,0,0,0,1.83-1.49,8,8,0,0,0,.32-1.34c0-.3-.16-.35-1-.35h-.36l.09-.7h4.84l-.09.7H284c-.9,0-1.06.08-1.19.62,0,.18-.1.38-.15.55l-.72,2.68h-.62L281,30a3.33,3.33,0,0,1-2.77,1.25,4.67,4.67,0,0,1-2.57-.77,3.67,3.67,0,0,1-1.5-3.12,6,6,0,0,1,5.87-5.89,2.86,2.86,0,0,1,2.4,1l.78-.75h.59Z"/><path class="cls-2" d="M293.68,24.89H293a3.73,3.73,0,0,0-.27-1.65,1.8,1.8,0,0,0-1.78-.83h-.49c-.54,0-.68.12-.82.62l-.77,2.85h.27a2,2,0,0,0,2.16-1.58l.69.09-1.17,4.35-.69-.09a5.86,5.86,0,0,0,.07-.81A1.1,1.1,0,0,0,289,26.58h-.28l-.82,3.07a1.84,1.84,0,0,0-.08.42c0,.23.21.32.7.32H289a3.49,3.49,0,0,0,2.64-1.13,5.27,5.27,0,0,0,1.14-1.53l.68.14-.86,3.22H284.2l.09-.7h.06c.89,0,1-.08,1.19-.62l.15-.55,1.52-5.64a5.44,5.44,0,0,0,.17-.82c0-.29-.19-.35-1-.35h-.25l.11-.7h8Z"/><path class="cls-2" d="M304.81,21.71a5.06,5.06,0,0,1,2.43.45,2,2,0,0,1,1,1.77c0,1.3-1.08,2.16-3,2.38,1.7.3,2.52,1,2.52,2.25a2.19,2.19,0,0,1-1.37,2.07,7.39,7.39,0,0,1-2.73.46h-5.43l.09-.7h.05c.55,0,.86-.05,1-.18s.11-.1.34-1l1.52-5.64a3.93,3.93,0,0,0,.17-.82c0-.29-.18-.35-1-.35h-.25l.1-.7Zm-2.88,7.8a2.36,2.36,0,0,0-.1.49c0,.28.22.39.69.39H303a2.48,2.48,0,0,0,1.6-.48,2.45,2.45,0,0,0,.73-1.84,1.29,1.29,0,0,0-.49-1.16c-.32-.22-.57-.27-1.44-.27h-.65Zm1.36-3.58A2.66,2.66,0,0,0,305,25.6a2.26,2.26,0,0,0,.9-1.88,1.16,1.16,0,0,0-1.26-1.31h-.19c-.47,0-.62.14-.79.78l-.74,2.74Z"/><path class="cls-2" d="M310.46,21.71h4.89l-.1.7h-.16c-.55,0-.86.05-1,.18s-.11.11-.35,1l-1.05,4a4.31,4.31,0,0,0-.2,1.15,1.72,1.72,0,0,0,1.95,1.8,2.24,2.24,0,0,0,1.76-.76,3.77,3.77,0,0,0,.92-1.93l.87-3.27a4.65,4.65,0,0,0,.29-1.4c0-.49-.38-.71-1.17-.71l.09-.7h3.56l-.09.7a1.57,1.57,0,0,0-1,.35c-.37.33-.41.42-.8,1.76l-1,3.62c-.58,2.2-1.79,3.15-4,3.15a5,5,0,0,1-2.22-.44,2.79,2.79,0,0,1-1.46-2.3,6,6,0,0,1,.22-1.4l1-3.57a4,4,0,0,0,.19-.82c0-.29-.19-.35-1-.35h-.24Z"/><path class="cls-2" d="M319.82,31.09l.09-.7H320c.55,0,.86-.05,1-.18s.12-.1.35-1l1.51-5.64a3.67,3.67,0,0,0,.18-.82c0-.29-.18-.35-1-.35h-.29l.1-.7h4.85l-.09.7h-.09c-.54,0-.86.05-1,.18s-.11.09-.35,1l-1.51,5.64a3.68,3.68,0,0,0-.18.82c0,.29.18.35,1,.35h.29l-.11.7Z"/><path class="cls-2" d="M335.23,27.78l-.89,3.31H326l.1-.7h.05a1.64,1.64,0,0,0,1-.18c.1-.1.1-.1.34-1L329,23.58a5.44,5.44,0,0,0,.17-.82c0-.29-.19-.35-1-.35h-.25l.11-.7h5l-.1.7h-.23c-.55,0-.86.05-1,.18s-.12.11-.35,1l-1.51,5.64a4.08,4.08,0,0,0-.18.83c0,.26.16.34.68.34h.47a3.49,3.49,0,0,0,2.64-1.13,4.66,4.66,0,0,0,1.17-1.62Z"/><path class="cls-2" d="M335.51,30.39h.06a1.67,1.67,0,0,0,1-.18c.1-.1.1-.1.35-1l1.51-5.64a4.54,4.54,0,0,0,.16-.82c0-.29-.18-.35-1-.35h-.24l.09-.7h4.66a4.58,4.58,0,0,1,3,.73,3.39,3.39,0,0,1,1.37,3,5.74,5.74,0,0,1-2,4.38c-1.12.94-2.42,1.3-4.69,1.3h-4.34Zm4.58,0a3.07,3.07,0,0,0,2.66-1.4A8.87,8.87,0,0,0,344,24.58c0-1.42-.68-2.17-1.94-2.17h-.28c-.6,0-.78.17-1,.82l-1.66,6.21a4.08,4.08,0,0,0-.12.6c0,.26.2.35.69.35Z"/><path class="cls-2" d="M346.75,31.09l.09-.7h.09c.54,0,.86-.05,1-.18s.11-.1.35-1l1.5-5.64a4,4,0,0,0,.19-.82c0-.29-.19-.35-1-.35h-.29l.11-.7h4.85l-.09.7h-.1c-.54,0-.85.05-1,.18s-.12.09-.35,1l-1.51,5.64a3.68,3.68,0,0,0-.18.82c0,.29.18.35,1,.35h.29l-.11.7Z"/><path class="cls-2" d="M361.47,28.3l1-3.77a4.85,4.85,0,0,0,.28-1.41c0-.48-.39-.71-1.17-.71l.1-.7h3.6l-.09.7a1.54,1.54,0,0,0-1.06.35c-.36.35-.39.39-.79,1.77l-1.81,6.75h-1l-3.85-7.36-1.17,4.35a5.09,5.09,0,0,0-.27,1.41c0,.48.38.71,1.13.71h.15l-.11.7H352.7l.09-.7a1.63,1.63,0,0,0,1-.35c.37-.34.39-.41.78-1.77l1.47-5.44a.73.73,0,0,0-.76-.42h-.73l.09-.7H358Z"/><path class="cls-2" d="M374,25.48l-.66-.09a5.71,5.71,0,0,0-.3-1.78,1.91,1.91,0,0,0-1.9-1.39c-1,0-1.9.66-2.6,2a9.36,9.36,0,0,0-1,3.93,3.76,3.76,0,0,0,.34,1.64,1.73,1.73,0,0,0,1.5.85,2,2,0,0,0,1.83-1.49,7.84,7.84,0,0,0,.31-1.34c0-.3-.16-.35-1-.35h-.36l.09-.7h4.83l-.09.7h-.13c-.89,0-1.05.08-1.18.62l-.16.55-.71,2.68h-.63L371.93,30a3.36,3.36,0,0,1-2.77,1.25,4.73,4.73,0,0,1-2.58-.77,3.69,3.69,0,0,1-1.49-3.12A6,6,0,0,1,371,21.51a2.88,2.88,0,0,1,2.41,1l.78-.75h.58Z"/></g><path id="Logo_FJI_OK_08082019" data-name="Logo FJI OK 08082019" class="cls-2" d="M36.65,0V2.75H35.8V0h-.5V2.75h-2V0h-.5V2.75H32.3V0h-.5V2.75h-.3V6.67h-.92v.5h0v2H29.07V8.33h-.5v.86h-.75V8.33h-.5v.86h-.83v2.32h-.22v.15h0v5.22h-.71V15.66h-.5v1.22h-.78V15.66h-.46V42.41h-.95V41.14h-.5v1.27H20.55V41.14h-.5v1.27H17.11V41.14h-.5v1.27H14.79V41.14h-.48v1.27h-1V15.64h-.5v1.23h-.78V15.64h-.5v1.23h-.71V11.65h0v-.16h-.22V9.18H9.83V8.31h-.5v.87H8.59V8.31h-.5v.87H6.57V6.65H5.65V3.23h0V2.75H5.36V0h-.5V2.75H4.39V0h-.5V2.75h-2V0h-.5V2.75H.5V0H0V46.54H37.22V0ZM35.8,7.15h.85v2H35.8Zm-.48,2h-2v-2h2Zm1.33-5.95V6.65H35.8V3.23Zm-1.33,0V6.65h-2V3.23Zm-3.3,0h.74V6.65H32ZM31.1,7.15h1.68v2H31.1Zm.42,2.53v.65H29.07V9.68ZM28.58,12v2.15h-.75V12Zm-.76-.5v-.67h.74v.67Zm0,3.13h.74v2.25h-.74Zm0,2.75h.74v1.88h-.74Zm0,2.38h.74V21.9h-.74Zm0,2.65h.74v2h-.74Zm0,2.44h.74V26.7h-.74Zm0,2.36h.74v2h-.74Zm0,2.47h.74v2h-.74Zm0,2.51h.74v2h-.74Zm0,2.44h.74v2h-.74Zm1.24,0h2.46v2H29.07Zm0-.49v-2h2.46v2Zm0-2.45v-2h2.46v2Zm0-2.51v-2h2.46v2Zm0-2.47V24.83h2.46V26.7Zm0-2.35v-2h2.46v2Zm0-2.45V19.75h2.46v2.14Zm0-2.65V17.37h2.46v1.88Zm0-2.38V14.62h2.46v2.25Zm0-2.75V12h2.46v2.15H29.07Zm-1.24,23h.74V39h-.74Zm1.25,0h2.45V39H29.07Zm3,0h.74V39H32Zm0-.5v-2h.74v2Zm0-2.47v-2h.74v2Zm0-2.45v-2h.74v2Zm0-2.51v-2h.74v2Zm0-2.47V24.83h.74V26.7Zm0-2.35v-2h.74v2Zm0-2.46V19.75h.74v2.14Zm0-2.64V17.37h.74v1.88Zm0-2.39V14.62h.74v2.25Zm0-2.74V12h.74v2.15H32Zm0-2.63v-.67h.74v.67Zm-.5,0H29.07v-.67h2.45ZM28.58,9.68v.65h-.74V9.68Zm-1.24,0v.65H27V9.68ZM27,10.82h.33v.67H27Zm-.73,6.55v.88h-.7v-.88Zm-1.2,0v.88H24.3v-.88Zm-.76,1.36h.77V42.39h-.77Zm.76,26H24.3v-1.8h.78Zm-1.27-1.8v1.8h-.95v-1.8Zm-1.45,0v1.8H20.55v-1.8Zm-3.54,0h1.23v1.8H17.11v-1.8Zm-2.21,0v1.8H14.79v-1.8Zm-2.3,0v1.8h-1v-1.8ZM12.86,17.37v.88h-.78v-.88Zm-1.26,0v.88h-.71v-.88ZM9.83,11.49v-.67h.33v.67Zm-4.68-.67v.67H4.41v-.67ZM9.33,36.6H8.59v-2h.74ZM8.09,19.75v2.14H5.63V19.75Zm-2.46-.5V17.37H8.09v1.88ZM8.09,22.4v2H5.63v-2Zm0,2.44V26.7H5.63V24.83Zm0,2.36v2H5.63v-2Zm0,2.48v2H5.63v-2Zm0,2.5v2H5.63v-2Zm0,2.44v2H5.63v-2Zm1.24-.49H8.59v-2h.74Zm0-2.45H8.59v-2h.74Zm0-2.51H8.59v-2h.74Zm0-2.47H8.59V24.83h.74Zm0-2.35H8.59v-2h.74Zm0-2.45H8.59V19.75h.74Zm0-2.65H8.59V17.37h.74Zm0-2.38H8.59V14.62h.74Zm-1.24,0H5.63V14.62H8.09ZM5.63,14.12V12H8.09v2.15H5.63Zm0-2.63v-.67H8.09v.67Zm-.48.5v2.15H4.41V12Zm0,2.63v2.25H4.41V14.62Zm0,2.75v1.88H4.41V17.37Zm0,2.38V21.9H4.41V19.75Zm0,2.65v2H4.41v-2Zm0,2.44V26.7H4.41V24.83Zm0,2.36v2H4.41v-2Zm0,2.47v2H4.41v-2Zm0,2.51v2H4.41v-2Zm0,2.44v2H4.41v-2Zm0,2.49V39H4.41V37.1Zm.48,0H8.09V39H5.63Zm3,0h.74V39H8.59Zm.74-23H8.59V12h.74ZM8.59,11.5v-.68h.74v.68Zm1.57-1.82v.66H9.83V9.68Zm-.83,0v.66H8.59V9.68Zm-1.24.66H5.63V9.68H8.09Zm-2-1.16H4.39v-2H6.06Zm-5.55-2h.83v2H.5v-2Zm1.33,0h2v2h-2Zm3.3-3.92V6.66H4.41V3.23Zm-1.26,0V6.66h-2V3.23Zm-2.54,0V6.66H.5V3.23ZM.52,46V9.68h.83V46Zm1.33,0V9.68H5.13v.65H3.89v1.16H2.68V12h0V46Zm1.33,0V12h.71v2.15h0v.5h0v2.24h0v.5h0v1.89h0v.5h0v2.14h0v.5h0v1.93h0v.5h0v1.87h0v.5h0v2h0v.5h0v2h0v.5h0v1.95h0v.5h0v2h0v.5h0v1.92h0v.5h0V46.1H3.18Zm1.21,0V39.5h.76V46Zm1.25,0V39.5H8.09V46Zm3,0V39.5h.74V46Zm1.24,0V12h.56V46Zm1,0V18.74h.71V46Zm1.21,0V18.74h.78V42.39h-.45v.5h.45v1.8h-.45v.5h.45v.86h-.78Zm1.26,0v-.87h.95V46Zm1.45,0v-.87h1.82V46Zm4,0H17.11v-.87h2.94V46Zm1.73,0v-.87h1.81V46Zm2.32,0v-.87h.95V46Zm1.45,0v-.87h.78V46Zm1.26,0V18.74h.71V46Zm1.21,0V12h.55V46Zm1,0V39.5h.74V46Zm1.24,0V39.5h2.45V46Zm3,0V39.5h.75V46Zm1.25,0V39.5h0V39h0V37.08h0v-.5h0v-2h0v-.5h0v-2h0v-.5h0v-2h0v-.5h0v-2h0v-.5h0V24.78h0v-.43h0v-2h0v-.5h0V19.75h0v-.5h0V17.37h0v-.5h0V14.62h0v-.5h0V12H34V46Zm1.21,0V12h0v-.5H33.27V10.33H32V9.68H35.3V46Zm1.33,0V9.68h.85V46Z"/></g></svg>