<svg id="Layer_1" data-name="Layer 1" xmlns="http://www.w3.org/2000/svg" viewBox="0 0 269.29 95.79"><defs><style>.cls-1{fill:#fff;}</style></defs><title>Cushman &amp;amp; Wakefield Marketing White</title><path class="cls-1" d="M119,31.45c-5,0-8.06-2.79-8.06-8.27V12.55H115V23.08c0,3,1.51,4.6,4,4.6s4-1.52,4-4.47V12.55h4.09v10.5c0,5.64-3.16,8.4-8.16,8.4"/><path class="cls-1" d="M139.49,31.43a11.88,11.88,0,0,1-7.9-3l2.42-2.9a8.56,8.56,0,0,0,5.55,2.26c1.68,0,2.7-.66,2.7-1.75V26c0-1-.65-1.57-3.76-2.36-3.74-1-6.16-2.08-6.16-5.77v-.05c0-3.38,2.71-5.61,6.51-5.61a10.78,10.78,0,0,1,6.91,2.36l-2.13,3.09a8.72,8.72,0,0,0-4.83-1.84c-1.57,0-2.4.72-2.4,1.63v.05c0,1.22.8,1.7,4,2.52,3.78,1,5.9,2.34,5.9,5.59v.05c0,3.69-2.82,5.77-6.83,5.77"/><polygon class="cls-1" points="163.51 31.16 163.51 23.69 155.96 23.69 155.96 31.16 151.87 31.16 151.87 12.55 155.96 12.55 155.96 19.91 163.51 19.91 163.51 12.55 167.61 12.55 167.61 31.16 163.51 31.16"/><polygon class="cls-1" points="234.54 31.16 225.77 19.52 225.77 31.16 221.73 31.16 221.73 12.55 225.51 12.55 234.23 24.39 234.23 12.55 238.27 12.55 238.27 31.16 234.54 31.16"/><polygon class="cls-1" points="154.47 56.49 148.7 48.57 146.55 50.81 146.55 56.49 142.45 56.49 142.45 37.88 146.55 37.88 146.55 46.02 154.1 37.88 159.05 37.88 151.47 45.78 159.39 56.49 154.47 56.49"/><polygon class="cls-1" points="163.99 56.49 163.99 37.88 177.9 37.88 177.9 41.53 168.05 41.53 168.05 45.3 176.71 45.3 176.71 48.94 168.05 48.94 168.05 52.85 178.04 52.85 178.04 56.49 163.99 56.49"/><rect class="cls-1" x="203.55" y="37.89" width="4.09" height="18.61"/><polygon class="cls-1" points="213.68 56.47 213.68 37.86 227.6 37.86 227.6 41.5 217.75 41.5 217.75 45.27 226.4 45.27 226.4 48.92 217.75 48.92 217.75 52.83 227.73 52.83 227.73 56.47 213.68 56.47"/><polygon class="cls-1" points="233.85 56.49 233.85 37.88 237.94 37.88 237.94 52.77 247.22 52.77 247.22 56.49 233.85 56.49"/><path class="cls-1" d="M259.4,56.49h-7.26V37.88h7.26c5.85,0,9.89,4,9.89,9.26v0c0,5.24-4,9.3-9.89,9.3m5.61-9.3a5.34,5.34,0,0,0-5.61-5.61h-3.16V52.8h3.16A5.3,5.3,0,0,0,265,47.24Z"/><path class="cls-1" d="M98.79,27.68a5.6,5.6,0,0,1-5.74-5.75v-.05A5.57,5.57,0,0,1,98.54,16a5.81,5.81,0,0,1,4.57,2l2.6-3.1a10,10,0,0,0-7.19-2.73A9.62,9.62,0,0,0,88.77,22v.06a9.54,9.54,0,0,0,10,9.4,9.92,9.92,0,0,0,7.31-3.4l-2.76-2.69a5.75,5.75,0,0,1-4.56,2.31"/><polygon class="cls-1" points="188.43 12.55 192.81 12.55 192.81 31.16 188.91 31.16 188.91 18.99 183.63 26.96 183.52 26.96 178.24 18.99 178.24 31.16 174.34 31.16 174.34 12.55 178.72 12.55 183.57 20.36 188.43 12.55"/><path class="cls-1" d="M205.32,12.55l-7.91,18.61h4.17L203.29,27h7.87l1.7,4.17h4.27l-7.92-18.61Zm-.57,10.82,2.47-6,2.47,6Z"/><path class="cls-1" d="M126.05,37.88,118.13,56.5h4.17l1.7-4.18h7.88l1.7,4.18h4.27l-7.91-18.62Zm-.58,10.83,2.47-6,2.47,6Z"/><polygon class="cls-1" points="187.88 41.61 187.88 45.57 196.64 45.57 196.64 49.29 187.88 49.29 187.88 56.49 183.79 56.49 183.79 37.88 197.97 37.88 197.97 41.61 187.88 41.61"/><polygon class="cls-1" points="113.75 37.88 109.43 50.85 105.12 37.88 101.17 37.88 96.85 50.85 92.54 37.88 88.16 37.88 94.87 56.49 98.94 56.49 103.14 43.72 107.35 56.49 111.42 56.49 118.13 37.88 113.75 37.88"/><path class="cls-1" d="M264.4,26.57l2.15-2.4L264,21.41l-1.91,2.24-2.31-2.75a4.85,4.85,0,0,0,2.43-4.28,4.64,4.64,0,0,0-4.81-4.42,4.46,4.46,0,0,0-4.54,4.68,5.86,5.86,0,0,0,1.68,3.39,6.06,6.06,0,0,0-3.74,5.46,6.13,6.13,0,0,0,6.14,5.77,7.33,7.33,0,0,0,5.1-2.37l1.66,2h4.8Zm-4.6-.17a3.93,3.93,0,0,1-2.89,1.74,2.61,2.61,0,0,1-2.56-2.45c0-.82.6-2.06,2.45-2.9Zm-2.3-7.73a3.55,3.55,0,0,1-1.19-1.73,1.34,1.34,0,1,1,2.66-.13c0,.86-.88,1.54-1.47,1.86"/><polygon class="cls-1" points="39.65 0 39.65 56.49 56.26 56.49 56.26 12.56 39.65 0"/><polygon class="cls-1" points="33.04 5 33.04 56.49 36.44 56.49 36.44 2.43 33.04 5"/><polygon class="cls-1" points="26.43 56.49 29.83 56.49 29.83 7.42 26.43 9.99 26.43 56.49"/><polygon class="cls-1" points="19.82 56.49 23.22 56.49 23.22 12.42 19.82 14.98 19.82 56.49"/><polygon class="cls-1" points="59.47 25.33 59.47 56.49 76.09 56.49 76.09 37.88 59.47 25.33"/><polygon class="cls-1" points="13.22 30.25 13.22 56.49 16.61 56.49 16.61 27.69 13.22 30.25"/><polygon class="cls-1" points="6.61 56.49 10.01 56.49 10.01 32.68 6.61 35.25 6.61 56.49"/><polygon class="cls-1" points="0 56.49 3.4 56.49 3.4 37.68 0 40.25 0 56.49"/><path class="cls-1" d="M11.92,79.36h1.64V91.64H11.79V82.08L8,86.83H7.69L3.88,82.08v9.56H2.12V79.36H3.78l4.08,5Z"/><path class="cls-1" d="M21.46,86.78v3.43c0,.28.1.41.29.41a1.91,1.91,0,0,0,.9-.43v1a5.88,5.88,0,0,1-.87.48,2,2,0,0,1-.7.13c-.68,0-1.08-.27-1.21-.81a3.46,3.46,0,0,1-2.17.79,1.91,1.91,0,0,1-1.4-.56,1.88,1.88,0,0,1-.57-1.4,2,2,0,0,1,.55-1.37,3.73,3.73,0,0,1,1.56-1l2.05-.7v-.44a1.29,1.29,0,0,0-1.46-1.45,3.53,3.53,0,0,0-2.55,1.35V84.49a3.33,3.33,0,0,1,2.68-1.1,3.06,3.06,0,0,1,2.1.69,2,2,0,0,1,.48.58,2.25,2.25,0,0,1,.27.73A13.3,13.3,0,0,1,21.46,86.78ZM19.89,90v-2.4l-1.07.41a3.92,3.92,0,0,0-1.16.65,1.14,1.14,0,0,0-.34.83,1.1,1.1,0,0,0,.32.81,1.17,1.17,0,0,0,.84.32A2,2,0,0,0,19.89,90Z"/><path class="cls-1" d="M26.17,83.55V85.4l.09-.14c.78-1.24,1.55-1.87,2.32-1.87a2.84,2.84,0,0,1,1.89.92l-.84,1.4a2.36,2.36,0,0,0-1.55-.79,1.68,1.68,0,0,0-1.34.74,2.76,2.76,0,0,0-.57,1.75v4.23h-1.6V83.55Z"/><path class="cls-1" d="M32,79.36h1.59V91.64H32Zm5.26,4.19h1.9l-3.45,4,4.15,4.14H37.7l-4-4.13Z"/><path class="cls-1" d="M47.36,87.73H41.67a2.63,2.63,0,0,0,.78,1.85,2.55,2.55,0,0,0,1.85.68,4.8,4.8,0,0,0,2.92-1v1.56a5.35,5.35,0,0,1-1.47.71,6.12,6.12,0,0,1-1.7.21,3.88,3.88,0,0,1-2.16-.55,4.06,4.06,0,0,1-1.32-1.49,4.6,4.6,0,0,1-.5-2.17,4.29,4.29,0,0,1,1-3,3.48,3.48,0,0,1,2.71-1.16,3.2,3.2,0,0,1,2.57,1.13,4.47,4.47,0,0,1,1,3Zm-5.65-1h4.07a2.28,2.28,0,0,0-.58-1.48,1.81,1.81,0,0,0-1.37-.52,2,2,0,0,0-1.41.52A2.58,2.58,0,0,0,41.71,86.78Z"/><path class="cls-1" d="M48.35,84.83l3-3v1.67h2.55V85H51.36v4c0,.92.38,1.38,1.15,1.38a3.59,3.59,0,0,0,1.82-.57v1.5a4.12,4.12,0,0,1-2,.52,2.64,2.64,0,0,1-1.83-.65,1.55,1.55,0,0,1-.38-.43,2.36,2.36,0,0,1-.25-.63,7,7,0,0,1-.1-1.49V85H48.35Z"/><path class="cls-1" d="M56.7,80.15a1,1,0,0,1,.68.27.89.89,0,0,1,.28.67.91.91,0,0,1-.28.67,1,1,0,0,1-.68.28.89.89,0,0,1-.65-.29.92.92,0,0,1,0-1.32A.88.88,0,0,1,56.7,80.15Zm-.79,3.4h1.6v8.09h-1.6Z"/><path class="cls-1" d="M61.82,83.55v1a3.2,3.2,0,0,1,2.43-1.19,2.73,2.73,0,0,1,1.41.39,2.62,2.62,0,0,1,1,1.07A5.26,5.26,0,0,1,67,87v4.63h-1.6V87A3.14,3.14,0,0,0,65,85.26a1.48,1.48,0,0,0-1.27-.53,2.3,2.3,0,0,0-1.92,1.13v5.78H60.18V83.55Z"/><path class="cls-1" d="M69.2,86.34a2.44,2.44,0,0,1,1-2,4,4,0,0,1,2.57-.75h3.34V84.8H74.42a3.09,3.09,0,0,1,.66.88,2.13,2.13,0,0,1,.18.9,2.46,2.46,0,0,1-.36,1.25,2.64,2.64,0,0,1-.92.93,5.63,5.63,0,0,1-1.86.52c-.61.09-.91.3-.91.62a.55.55,0,0,0,.34.47,5.62,5.62,0,0,0,1.23.37,14,14,0,0,1,1.91.51,2.47,2.47,0,0,1,.77.53A2,2,0,0,1,76,93.24a2.09,2.09,0,0,1-1,1.83,4.8,4.8,0,0,1-2.73.69,4.92,4.92,0,0,1-2.77-.69,2.12,2.12,0,0,1-1-1.85c0-1.1.68-1.8,2-2.12-.54-.35-.81-.69-.81-1a.94.94,0,0,1,.35-.7A2.15,2.15,0,0,1,71,88.9,2.65,2.65,0,0,1,69.2,86.34ZM71.83,92a2.37,2.37,0,0,0-1.33.35,1,1,0,0,0-.51.88c0,.83.75,1.24,2.25,1.24a3.54,3.54,0,0,0,1.65-.31,1,1,0,0,0,.58-.88c0-.38-.24-.68-.73-.92A4.4,4.4,0,0,0,71.83,92Zm.38-7.07a1.5,1.5,0,0,0-1.11.44,1.38,1.38,0,0,0-.46,1.05,1.36,1.36,0,0,0,.45,1,1.63,1.63,0,0,0,1.13.4,1.59,1.59,0,0,0,1.13-.41,1.35,1.35,0,0,0,.46-1,1.39,1.39,0,0,0-.46-1.06A1.64,1.64,0,0,0,72.21,84.94Z"/><path class="cls-1" d="M90.88,91.64,89.45,90c-.12.12-.34.3-.63.54l0,0a6,6,0,0,1-1.55.89,4.72,4.72,0,0,1-1.72.37A3.06,3.06,0,0,1,83.36,91a2.69,2.69,0,0,1-.89-2,2.92,2.92,0,0,1,.44-1.56A5.4,5.4,0,0,1,84.33,86l0,0a10.52,10.52,0,0,1,1-.66A4.28,4.28,0,0,1,84,82.42a2.63,2.63,0,0,1,.85-2,3.51,3.51,0,0,1,4.41,0,2.47,2.47,0,0,1,.86,2c0,1.08-.72,2.12-2.15,3.14l-.12.09,1.73,2a8.69,8.69,0,0,0,1.32-2h1.75a11.14,11.14,0,0,1-2,3.22l2.5,2.88ZM88,89.09l.39-.36-2-2.3-.78.55c-.91.61-1.37,1.24-1.37,1.87a1.12,1.12,0,0,0,.45.89,1.68,1.68,0,0,0,1.08.37,2.83,2.83,0,0,0,1.11-.28A4.06,4.06,0,0,0,88,89.09Zm-1.15-4.73.67-.48a1.86,1.86,0,0,0,.94-1.53,1.17,1.17,0,0,0-.39-.9,1.4,1.4,0,0,0-1-.36,1.42,1.42,0,0,0-1,.33,1.08,1.08,0,0,0-.37.84,2.26,2.26,0,0,0,.29,1A4,4,0,0,0,86.82,84.36Z"/><path class="cls-1" d="M100.25,91.64V79.34h3.9a4,4,0,0,1,2.8,1,3.26,3.26,0,0,1,1,2.55,3.41,3.41,0,0,1-.54,1.9,3.1,3.1,0,0,1-1.47,1.2,7.44,7.44,0,0,1-2.67.37H102v5.33Zm3.59-10.74H102v3.85H104a2.43,2.43,0,0,0,1.65-.51,1.85,1.85,0,0,0,.58-1.45Q106.18,80.9,103.84,80.9Z"/><path class="cls-1" d="M111.42,83.55V85.4l.08-.14c.78-1.24,1.55-1.87,2.33-1.87a2.84,2.84,0,0,1,1.88.92l-.84,1.4a2.36,2.36,0,0,0-1.55-.79,1.68,1.68,0,0,0-1.34.74,2.82,2.82,0,0,0-.56,1.75v4.23h-1.61V83.55Z"/><path class="cls-1" d="M120.65,83.53a4.21,4.21,0,0,1,3.06,1.19,4,4,0,0,1,1.22,3,3.82,3.82,0,0,1-1.23,2.9,4.41,4.41,0,0,1-3.12,1.16,4.21,4.21,0,0,1-3-1.18,4.14,4.14,0,0,1,0-5.89A4.32,4.32,0,0,1,120.65,83.53ZM120.56,85a2.54,2.54,0,0,0-1.89.76,2.63,2.63,0,0,0-.74,1.92,2.51,2.51,0,0,0,.76,1.9,2.66,2.66,0,0,0,1.94.73,2.62,2.62,0,0,0,1.93-.74,2.57,2.57,0,0,0,.75-1.9,2.54,2.54,0,0,0-.78-1.91A2.76,2.76,0,0,0,120.56,85Z"/><path class="cls-1" d="M127,95.76V83.55h2.8a4.86,4.86,0,0,1,3.35,1.07,3.83,3.83,0,0,1,1.2,3,4.15,4.15,0,0,1-1.13,3,3.81,3.81,0,0,1-2.87,1.17,5,5,0,0,1-1.71-.35v4.33ZM129.77,85h-1.13v5a3.34,3.34,0,0,0,1.54.38,2.36,2.36,0,0,0,1.84-.79,2.89,2.89,0,0,0,.71-2,2.79,2.79,0,0,0-.34-1.4,2,2,0,0,0-.92-.88A4.19,4.19,0,0,0,129.77,85Z"/><path class="cls-1" d="M143.39,87.73h-5.68a2.67,2.67,0,0,0,.77,1.85,2.56,2.56,0,0,0,1.85.68,4.78,4.78,0,0,0,2.92-1v1.56a5.3,5.3,0,0,1-1.46.71,6.12,6.12,0,0,1-1.7.21,3.88,3.88,0,0,1-2.16-.55,4,4,0,0,1-1.33-1.49,4.6,4.6,0,0,1-.49-2.17,4.28,4.28,0,0,1,1-3,3.5,3.5,0,0,1,2.72-1.16,3.18,3.18,0,0,1,2.56,1.13,4.47,4.47,0,0,1,1,3Zm-5.65-1h4.07a2.22,2.22,0,0,0-.57-1.48,1.82,1.82,0,0,0-1.37-.52,1.93,1.93,0,0,0-1.41.52A2.53,2.53,0,0,0,137.74,86.78Z"/><path class="cls-1" d="M147.23,83.55V85.4l.09-.14c.77-1.24,1.55-1.87,2.32-1.87a2.84,2.84,0,0,1,1.89.92l-.84,1.4a2.36,2.36,0,0,0-1.55-.79,1.68,1.68,0,0,0-1.34.74,2.76,2.76,0,0,0-.57,1.75v4.23h-1.6V83.55Z"/><path class="cls-1" d="M152.27,84.83l3-3v1.67h2.55V85h-2.55v4c0,.92.38,1.38,1.15,1.38a3.59,3.59,0,0,0,1.82-.57v1.5a4.13,4.13,0,0,1-2,.52,2.63,2.63,0,0,1-1.82-.65,1.55,1.55,0,0,1-.38-.43,2.07,2.07,0,0,1-.25-.63,7,7,0,0,1-.1-1.49V85h-1.41Z"/><path class="cls-1" d="M164.76,83.55h1.79l-5.73,12.21H159l2.74-5.86-3.12-6.35h1.82l2.19,4.57Z"/><path class="cls-1" d="M183.46,79.36h1.64V91.64h-1.77V82.08l-3.77,4.75h-.33l-3.82-4.75v9.56h-1.75V79.36h1.66l4.08,5Z"/><path class="cls-1" d="M193,86.78v3.43c0,.28.09.41.28.41a1.89,1.89,0,0,0,.91-.43v1a6.42,6.42,0,0,1-.88.48,2,2,0,0,1-.69.13c-.68,0-1.09-.27-1.21-.81a3.46,3.46,0,0,1-2.17.79,2,2,0,0,1-1.41-.56,1.91,1.91,0,0,1-.56-1.4,2,2,0,0,1,.55-1.37,3.73,3.73,0,0,1,1.56-1l2.05-.7v-.44A1.29,1.29,0,0,0,190,84.89a3.53,3.53,0,0,0-2.55,1.35V84.49a3.32,3.32,0,0,1,2.68-1.1,3.09,3.09,0,0,1,2.1.69,2.2,2.2,0,0,1,.74,1.31A10.35,10.35,0,0,1,193,86.78ZM191.43,90v-2.4l-1.07.41a3.79,3.79,0,0,0-1.16.65,1.18,1.18,0,0,0,0,1.64,1.15,1.15,0,0,0,.83.32A2.05,2.05,0,0,0,191.43,90Z"/><path class="cls-1" d="M197.6,83.55v1A3.2,3.2,0,0,1,200,83.39a2.7,2.7,0,0,1,1.41.39,2.62,2.62,0,0,1,1,1.07,5.26,5.26,0,0,1,.34,2.16v4.63h-1.6V87a3.14,3.14,0,0,0-.38-1.77,1.46,1.46,0,0,0-1.27-.53,2.32,2.32,0,0,0-1.92,1.13v5.78H196V83.55Z"/><path class="cls-1" d="M210.47,86.78v3.43c0,.28.1.41.29.41a1.91,1.91,0,0,0,.9-.43v1a5.88,5.88,0,0,1-.87.48,2,2,0,0,1-.69.13c-.69,0-1.09-.27-1.22-.81a3.46,3.46,0,0,1-2.17.79,1.91,1.91,0,0,1-1.4-.56,1.88,1.88,0,0,1-.57-1.4,2,2,0,0,1,.55-1.37,3.73,3.73,0,0,1,1.56-1l2.05-.7v-.44a1.29,1.29,0,0,0-1.46-1.45,3.53,3.53,0,0,0-2.55,1.35V84.49a3.33,3.33,0,0,1,2.68-1.1,3.06,3.06,0,0,1,2.1.69,2,2,0,0,1,.48.58,2.25,2.25,0,0,1,.27.73A10.92,10.92,0,0,1,210.47,86.78ZM208.9,90v-2.4l-1.07.41a3.92,3.92,0,0,0-1.16.65,1.14,1.14,0,0,0-.34.83,1.07,1.07,0,0,0,.33.81,1.13,1.13,0,0,0,.83.32A2,2,0,0,0,208.9,90Z"/><path class="cls-1" d="M213.06,86.34a2.46,2.46,0,0,1,.94-2,4,4,0,0,1,2.58-.75h3.33V84.8h-1.63a3.09,3.09,0,0,1,.66.88,2.13,2.13,0,0,1,.18.9,2.46,2.46,0,0,1-.36,1.25,2.64,2.64,0,0,1-.92.93,5.63,5.63,0,0,1-1.86.52c-.61.09-.91.3-.91.62a.53.53,0,0,0,.34.47,5.44,5.44,0,0,0,1.23.37,14.43,14.43,0,0,1,1.91.51,2.47,2.47,0,0,1,.77.53,2,2,0,0,1,.58,1.46,2.09,2.09,0,0,1-1,1.83,4.8,4.8,0,0,1-2.73.69,4.92,4.92,0,0,1-2.77-.69,2.12,2.12,0,0,1-1-1.85c0-1.1.67-1.8,2-2.12-.54-.35-.81-.69-.81-1a.94.94,0,0,1,.35-.7,2.15,2.15,0,0,1,.93-.47A2.65,2.65,0,0,1,213.06,86.34ZM215.69,92a2.37,2.37,0,0,0-1.33.35,1,1,0,0,0-.51.88c0,.83.75,1.24,2.25,1.24a3.54,3.54,0,0,0,1.65-.31,1,1,0,0,0,.58-.88c0-.38-.24-.68-.74-.92A4.32,4.32,0,0,0,215.69,92Zm.38-7.07a1.5,1.5,0,0,0-1.11.44,1.38,1.38,0,0,0-.46,1.05,1.36,1.36,0,0,0,.45,1,1.63,1.63,0,0,0,1.13.4,1.59,1.59,0,0,0,1.13-.41,1.45,1.45,0,0,0,0-2.1A1.64,1.64,0,0,0,216.07,84.94Z"/><path class="cls-1" d="M228.44,87.73h-5.69a2.63,2.63,0,0,0,.78,1.85,2.56,2.56,0,0,0,1.85.68,4.78,4.78,0,0,0,2.92-1v1.56a5.3,5.3,0,0,1-1.46.71,6.17,6.17,0,0,1-1.7.21,3.92,3.92,0,0,1-2.17-.55,4.06,4.06,0,0,1-1.32-1.49,4.6,4.6,0,0,1-.5-2.17,4.29,4.29,0,0,1,1-3,3.5,3.5,0,0,1,2.72-1.16,3.2,3.2,0,0,1,2.56,1.13,4.47,4.47,0,0,1,1,3Zm-5.65-1h4.07a2.22,2.22,0,0,0-.57-1.48,1.82,1.82,0,0,0-1.37-.52,2,2,0,0,0-1.42.52A2.58,2.58,0,0,0,222.79,86.78Z"/><path class="cls-1" d="M237.19,85.76v5.88h-1.6v-4.5a3.53,3.53,0,0,0-.36-1.88,1.42,1.42,0,0,0-1.26-.53,1.82,1.82,0,0,0-.92.23,3.9,3.9,0,0,0-1,.8v5.88h-1.6V83.55h1.6v1.06a3.49,3.49,0,0,1,2.39-1.22,2.63,2.63,0,0,1,2.38,1.46,3.64,3.64,0,0,1,2.68-1.48,2.48,2.48,0,0,1,1.94.87,3.85,3.85,0,0,1,.76,2.62v4.78h-1.6V86.85a2.53,2.53,0,0,0-.41-1.55,1.41,1.41,0,0,0-1.19-.54A2.5,2.5,0,0,0,237.19,85.76Z"/><path class="cls-1" d="M251.73,87.73h-5.68a2.67,2.67,0,0,0,.77,1.85,2.56,2.56,0,0,0,1.85.68,4.78,4.78,0,0,0,2.92-1v1.56a5.3,5.3,0,0,1-1.46.71,6.12,6.12,0,0,1-1.7.21,3.88,3.88,0,0,1-2.16-.55,4,4,0,0,1-1.33-1.49,4.6,4.6,0,0,1-.49-2.17,4.28,4.28,0,0,1,1-3,3.5,3.5,0,0,1,2.72-1.16,3.18,3.18,0,0,1,2.56,1.13,4.47,4.47,0,0,1,1,3Zm-5.65-1h4.07a2.22,2.22,0,0,0-.57-1.48,1.82,1.82,0,0,0-1.37-.52,1.93,1.93,0,0,0-1.41.52A2.53,2.53,0,0,0,246.08,86.78Z"/><path class="cls-1" d="M255.46,83.55v1a3.22,3.22,0,0,1,2.43-1.19,2.67,2.67,0,0,1,1.41.39,2.62,2.62,0,0,1,1,1.07,5.26,5.26,0,0,1,.34,2.16v4.63H259V87a3.14,3.14,0,0,0-.38-1.77,1.45,1.45,0,0,0-1.27-.53,2.32,2.32,0,0,0-1.92,1.13v5.78h-1.63V83.55Z"/><path class="cls-1" d="M262.12,84.83l3-3v1.67h2.56V85h-2.56v4c0,.92.38,1.38,1.15,1.38a3.59,3.59,0,0,0,1.82-.57v1.5a4.12,4.12,0,0,1-2,.52,2.64,2.64,0,0,1-1.83-.65,1.73,1.73,0,0,1-.38-.43,2.36,2.36,0,0,1-.25-.63,7,7,0,0,1-.1-1.49V85h-1.41Z"/></svg>