<svg id="Layer_1" data-name="Layer 1" xmlns="http://www.w3.org/2000/svg" viewBox="0 0 290.42 167.25"><defs><style>.cls-1{fill:#fff;}.cls-2{isolation:isolate;}</style></defs><title>Logo Bawah_white</title><g id="Group_1083" data-name="Group 1083"><path id="Logo_FJI_OK_08082019" data-name="Logo FJI OK 08082019" class="cls-1" d="M201.26,0V8.54h-2.63V0h-1.55V8.54h-6.34V0h-1.56V8.54h-1.44V0h-1.55V8.54h-.94V20.72h-2.84v1.56h0v6.28h-4.72V25.88h-1.55v2.68h-2.31V25.88h-1.55v2.68H169.7v7.2H169v.48h0V52.46h-2.2V48.64h-1.55v3.82h-2.42V48.64h-1.45v83.12h-2.95v-3.92h-1.56v3.92h-5.65v-3.92h-1.55v3.92h-9.13v-3.92H139v3.92h-5.64v-3.92h-1.5v3.92h-3V48.59h-1.56V52.4h-2.41V48.59h-1.56V52.4h-2.2V36.19h0V35.7h-.7V28.51h-2.52V25.83h-1.55v2.68h-2.31V25.83h-1.55v2.68h-4.74V20.67h-2.85V10h0V8.54H104V0h-1.56V8.54H101V0H99.47V8.54H93.13V0H91.57V8.54H88.94V0H87.38V144.59H203V0Zm-2.63,22.23h2.63v6.28h-2.63Zm-1.5,6.28h-6.34V22.23h6.34ZM201.26,10V20.67h-2.63V10Zm-4.13,0V20.67h-6.34V10Zm-10.26,0h2.31V20.67h-2.31ZM184,22.23h5.21v6.28H184Zm1.29,7.84v2h-7.61v-2Zm-9.13,7.19v6.66h-2.31V37.26Zm-2.36-1.55v-2.1h2.31v2.1Zm0,9.72h2.31v7h-2.31Zm0,8.54h2.31v5.85h-2.31Zm0,7.41h2.31V68h-2.31Zm0,8.21h2.31v6.07h-2.31Zm0,7.57h2.31V83h-2.31Zm0,7.36h2.31v6.17h-2.31Zm0,7.67h2.31v6.22h-2.31Zm0,7.79h2.31v6.07h-2.31Zm0,7.57h2.31v6.17h-2.31Zm3.87,0h7.64v6.17h-7.63Zm0-1.5V100h7.64V106Zm0-7.63V92.21h7.64v6.21Zm0-7.78V84.46h7.64v6.17Zm0-7.68V77.15h7.64V83Zm0-7.3V69.6h7.64v6.07Zm0-7.63V61.37h7.64V68Zm0-8.21V54h7.64v5.85Zm0-7.41v-7h7.64v7Zm0-8.54V37.26h7.64v6.66h-7.63Zm-3.85,71.4h2.31v6h-2.31Zm3.86,0h7.63v6h-7.63Zm9.18,0h2.31v6h-2.31Zm0-1.55v-6.18h2.31v6.18Zm0-7.68V100h2.31V106Zm0-7.62V92.2h2.31v6.22Zm0-7.79V84.46h2.31v6.17Zm0-7.68v-5.8h2.31V83Zm0-7.3V69.6h2.31v6.07Zm0-7.62V61.37h2.31V68Zm0-8.22V54h2.31v5.85Zm0-7.41v-7h2.31v7Zm0-8.54v-6.6h2.31v6.66h-2.31Zm0-8.16V33.61h2.31V35.7Zm-1.55,0h-7.63V33.61h7.63Zm-9.13-5.64v2h-2.31v-2Zm-3.86,0v2h-1v-2Zm-1,3.55h1V35.7h-1ZM169.05,54v2.73h-2.2V54Zm-3.76,0v2.73h-2.41V54Zm-2.36,4.24h2.42v73.5h-2.42Zm2.36,80.64h-2.41v-5.59h2.42Zm-3.92-5.59v5.59h-3v-5.59Zm-4.51,0v5.59h-5.64v-5.59Zm-11,0h3.82v5.59h-9.13v-5.59Zm-6.87,0v5.59h-5.64v-5.59Zm-7.14,0v5.59h-3v-5.59ZM127.33,54V56.7h-2.42V54Zm-3.92,0V56.7h-2.2V54Zm-5.48-18.25v-2.1h1v2.1Zm-14.55-2.1v2.1h-2.3v-2.1Zm13,80.11h-2.3v-6.18h2.3Zm-3.86-52.35V68h-7.63V61.37Zm-7.63-1.55V54h7.63v5.85Zm7.63,9.78v6.07h-7.63V69.6Zm0,7.57V83h-7.63V77.15Zm0,7.35V90.7h-7.63V84.51Zm0,7.68v6.22h-7.63V92.2Zm0,7.79v6.07h-7.63V100Zm0,7.57v6.16h-7.63v-6.18Zm3.86-1.5h-2.3V100h2.3Zm0-7.63h-2.3V92.22h2.3Zm0-7.79h-2.3V84.46h2.3Zm0-7.67h-2.3V77.15h2.3Zm0-7.3h-2.3V69.6h2.3Zm0-7.63h-2.3V61.37h2.3Zm0-8.21h-2.3V54h2.3Zm0-7.41h-2.3v-7h2.3Zm-3.86,0h-7.63v-7h7.63Zm-7.63-8.54V37.26h7.63v6.66h-7.63Zm0-8.16v-2.1h7.63v2.1Zm-1.5,1.55v6.66h-2.31V37.26Zm0,8.16v7h-2.31v-7Zm0,8.54v5.85h-2.31V54Zm0,7.41V68h-2.31V61.37Zm0,8.21v6.07h-2.31V69.6Zm0,7.58V83h-2.31V77.15Zm0,7.35v6.17h-2.31V84.51Zm0,7.68v6.21h-2.31V92.2Zm0,7.78v6.07h-2.31V100Zm0,7.58v6.16h-2.31v-6.18Zm0,7.73v6h-2.31v-6Zm1.5,0h7.63v6h-7.63Zm9.19,0h2.3v6h-2.3Zm2.3-71.41h-2.3V37.26h2.3Zm-2.3-8.16v-2.1h2.3v2.1ZM119,30.08v2h-1v-2Zm-2.57,0v2h-2.31v-2Zm-3.87,2h-7.63v-2h7.63Zm-6.28-3.6H101V22.23h5.21ZM89,22.24h2.57v6.28H88.94V22.23Zm4.13,0h6.34v6.28H93.13Zm10.25-12.19V20.68h-2.3V10Zm-3.91,0V20.68H93.13V10Zm-7.9,0V20.68H88.94V10ZM89,143v-113h2.57V143Zm4.13,0v-113h10.2v2H99.46v3.6H95.7v1.55h0V143Zm4.14,0V37.26h2.2v6.66h0v1.55h0v7h0V54h0v5.85h0v1.55h0v6.66h0v1.56h0v6h0v1.55h0V83h0v1.55h0v6.19h0v1.55h0v6.21h0v1.56h0v6.06h0v1.56h0v6.17h0v1.56h0v5.95h0v1.56h0v20.32H97.26Zm3.76,0v-20.3h2.36V143Zm3.86,0v-20.3h7.63V143Zm9.19,0v-20.3h2.3V143Zm3.86,0V37.26h1.72V143Zm3.22,0V58.21h2.2V143Zm3.76,0V58.21h2.42V131.7h-1.4v1.56h1.4v5.59h-1.4v1.55h1.4v2.69h-2.42Zm3.92,0v-2.68h2.95V143Zm4.51,0v-2.68H139V143Zm12.51,0h-5.32v-2.68h9.13V143Zm5.37,0v-2.68h5.64V143Zm7.2,0v-2.68h2.95V143Zm4.51,0v-2.68h2.41V143Zm3.91,0V58.21h2.21V143Zm3.76,0V37.26h1.72V143Zm3.23,0v-20.3h2.3V143Zm3.86,0v-20.3h7.62V143Zm9.18,0v-20.3h2.31V143Zm3.87,0v-20.3h0v-1.56h0v-6h0v-1.55h0V107.5h0V106h0V99.87h0V98.31h0V92.1h0V90.55h0v-6.2h0V82.8h0V77h0V75.65h0V69.6h0V68h0V61.37h0V59.82h0V54h0V52.41h0v-7h0V43.87h0V37.26H193V143Zm3.76,0V37.26h0V35.71h-3.76v-3.6h-3.88v-2h10.19V143Zm4.13,0v-113h2.63V143Z"/></g><g class="cls-2"><path class="cls-1" d="M4,165.07a4,4,0,0,0-.19.87c0,.3.19.37,1.1.37h.34l-.1.74H0l.1-.74h0c1,0,1.11-.09,1.26-.66l.15-.58,1.59-5.94a3.5,3.5,0,0,0,.19-.87c0-.3-.19-.37-1.09-.37H2.06l.09-.74H6.47a5.23,5.23,0,0,1,3.08.62,2.33,2.33,0,0,1,1,2,2.72,2.72,0,0,1-1.69,2.58,7.61,7.61,0,0,1-3.16.46H4.59Zm1.48-3a2.74,2.74,0,0,0,1.74-.48,3.09,3.09,0,0,0,.89-2.24,1.27,1.27,0,0,0-1.27-1.44H6.58c-.58,0-.72.11-.88.73l-.92,3.43Z"/><path class="cls-1" d="M20.92,161,20.2,161c0-.31,0-.65,0-.82,0-1.44-.58-2.25-1.62-2.25-.39,0-.42,0-.59.62l-1.75,6.56a3.42,3.42,0,0,0-.19.87c0,.3.19.37,1.09.37h.35l-.1.74H12l.1-.74h.37c.57,0,.9-.06,1-.2s.12-.1.37-1l1.78-6.64a1.25,1.25,0,0,0,0-.33c0-.14-.13-.21-.38-.21-1.16,0-2,.89-3,3.14l-.68-.22,1-3.66h8.87Z"/><path class="cls-1" d="M22.76,166.06a1.19,1.19,0,1,1-1.19-1.19A1.19,1.19,0,0,1,22.76,166.06Z"/><path class="cls-1" d="M38.3,160.51h-.71a4.07,4.07,0,0,0-.29-1.74,1.9,1.9,0,0,0-1.88-.88h-.49c-.56,0-.71.13-.86.66l-.81,3h.28a2.14,2.14,0,0,0,2.28-1.67l.73.1-1.24,4.59-.72-.11a5.93,5.93,0,0,0,.06-.84c0-.89-.42-1.33-1.28-1.33h-.3l-.74,2.78a4.44,4.44,0,0,0-.2.87c0,.3.2.37,1.09.37h.37l-.11.74H28.34l.09-.74h.06c.94,0,1.11-.09,1.26-.66l.15-.58,1.6-5.94a4.23,4.23,0,0,0,.18-.87c0-.3-.19-.37-1.08-.37h-.26l.11-.74h8.4Z"/><path class="cls-1" d="M38.4,167.05l.09-.74h.1c.57,0,.9-.06,1-.2s.12-.1.37-1l1.59-5.94a3.75,3.75,0,0,0,.19-.87c0-.3-.19-.37-1.08-.37h-.3l.11-.74h5.11l-.1.74h-.09c-.58,0-.91.06-1,.2s-.12.09-.37,1l-1.58,5.94a3.66,3.66,0,0,0-.2.87c0,.3.2.37,1.09.37h.3l-.11.74Z"/><path class="cls-1" d="M48.87,165.07a5.42,5.42,0,0,0-.18.87c0,.3.19.37,1.08.37h.36l-.11.74H44.89l.1-.74h0c.58,0,.91-.06,1-.2s.13-.1.37-1L48,159.13a4.41,4.41,0,0,0,.2-.87c0-.3-.2-.37-1.09-.37h-.26l.1-.74h4.75a7.11,7.11,0,0,1,2.91.44,2,2,0,0,1,1.09,1.85c0,1.56-1.34,2.48-3.93,2.69a2.53,2.53,0,0,1,1.37.75,2.24,2.24,0,0,1,.54,1.69V165c0,.91,0,.91.09,1a.3.3,0,0,0,.25.15c.25,0,.55-.29.74-.73a5.21,5.21,0,0,0,.23-.58l.59.28c-.47,1.41-1.23,2.07-2.4,2.07a1.87,1.87,0,0,1-2-1.94,9.55,9.55,0,0,1,.1-1.16,6.2,6.2,0,0,0,.07-.79c0-.75-.45-1.11-1.4-1.11h-.41Zm1.42-3.56c1.23,0,1.59-.07,2-.42a2.33,2.33,0,0,0,.89-1.85c0-.87-.52-1.35-1.48-1.35H51.4c-.49,0-.63.1-.74.52l-.84,3.1Z"/><path class="cls-1" d="M65.3,160.85l-.72-.12a3.85,3.85,0,0,0-.34-1.69A2.44,2.44,0,0,0,62,157.69c-1.18,0-2,.59-2,1.48a1.27,1.27,0,0,0,.44,1,3,3,0,0,0,1.09.54,12.28,12.28,0,0,1,2.38,1,2.52,2.52,0,0,1,1.23,2.3c0,1.93-1.63,3.27-4,3.27a4.13,4.13,0,0,1-3-1.09l-.79.89h-.6l.68-3.88.71.11v.2a2.8,2.8,0,0,0,2.94,3c1.28,0,2.15-.63,2.15-1.55s-.5-1.19-2.35-1.82a4.46,4.46,0,0,1-2-1,2.5,2.5,0,0,1-.77-1.87A3.41,3.41,0,0,1,61.81,157a3.88,3.88,0,0,1,2.75,1l.72-.74h.62Z"/><path class="cls-1" d="M76.18,161l-.73-.07c0-.31,0-.65,0-.82,0-1.44-.57-2.25-1.62-2.25-.39,0-.42,0-.58.62l-1.76,6.56a4,4,0,0,0-.19.87c0,.3.19.37,1.1.37h.34l-.1.74H67.24l.1-.74h.37c.57,0,.9-.06,1-.2s.12-.1.37-1l1.78-6.64a1.36,1.36,0,0,0,.06-.33c0-.14-.14-.21-.39-.21-1.16,0-2,.89-2.94,3.14l-.69-.22,1-3.66h8.87Z"/><path class="cls-1" d="M85.65,157.15h5.17l-.09.74h-.06a1.68,1.68,0,0,0-1,.2c-.11.11-.11.11-.36,1l-1.12,4.16a8.33,8.33,0,0,1-.71,2.21,3.39,3.39,0,0,1-3.35,1.75c-2.07,0-3.22-.9-3.22-2.52a2,2,0,0,1,1.83-2.18,1.33,1.33,0,0,1,1.46,1.33A1.23,1.23,0,0,1,83,165.16a1.13,1.13,0,0,1-.6-.18c-.21-.11-.25-.13-.32-.13s-.25.13-.25.35a1.41,1.41,0,0,0,1.53,1.27,2,2,0,0,0,1.64-1,5.74,5.74,0,0,0,.71-2l1.17-4.35a4.92,4.92,0,0,0,.19-.87c0-.3-.19-.37-1.08-.37h-.41Z"/><path class="cls-1" d="M98.27,165.48c.13.65.39.83,1.23.83h.19l-.09.74H94.47l.1-.74h.22a1.89,1.89,0,0,0,.9-.11.36.36,0,0,0,.23-.32,2.31,2.31,0,0,0,0-.44L95.59,164H92.42l-.63,1.11a1.21,1.21,0,0,0-.2.59c0,.4.35.58,1.11.58h.18l-.11.74H88.85l.1-.74H89a2.49,2.49,0,0,0,1.82-1.41L95.62,157h.85ZM94.79,160l-1.94,3.3h2.57Z"/><path class="cls-1" d="M108.28,158.81c.29-.27.41-.44.41-.57s-.2-.35-.56-.35h-.48l.1-.74h4.1l-.1.74a3.3,3.3,0,0,0-2.36,1.11l-2.22,2.06,2,4.22c.44,1,.54,1,1.48,1h.21l-.11.74h-5.13l.1-.74h.42c.64,0,.83-.07.83-.3s0-.11-.15-.43l-1.4-2.92-1.15,1.06-.36,1.35a3.75,3.75,0,0,0-.19.87c0,.3.19.37,1.08.37h.15l-.11.74H99.88l.1-.74h0a1.77,1.77,0,0,0,1.06-.2c.11-.1.11-.1.37-1.05l1.58-5.93a4.57,4.57,0,0,0,.19-.87c0-.3-.19-.37-1.08-.37h-.27l.11-.74h5.14l-.09.74h-.17c-.57,0-.9.06-1,.2s-.12.11-.37,1l-.84,3.08Z"/><path class="cls-1" d="M119.9,165.48c.14.65.4.83,1.24.83h.19l-.1.74h-5.12l.09-.74h.22a1.92,1.92,0,0,0,.91-.11.38.38,0,0,0,.23-.32,2.31,2.31,0,0,0,0-.44l-.28-1.41h-3.18l-.63,1.11a1.3,1.3,0,0,0-.19.59c0,.4.34.58,1.11.58h.18l-.11.74h-3.92l.1-.74h.08a2.49,2.49,0,0,0,1.82-1.41l4.77-7.94h.85ZM116.42,160l-1.93,3.3h2.56Z"/><path class="cls-1" d="M125.5,165.07a5.42,5.42,0,0,0-.18.87c0,.3.19.37,1.08.37h.36l-.11.74h-5.13l.1-.74h0c.58,0,.91-.06,1-.2s.13-.1.37-1l1.59-5.94a4.41,4.41,0,0,0,.2-.87c0-.3-.2-.37-1.09-.37h-.26l.1-.74h4.75a7.11,7.11,0,0,1,2.91.44,2,2,0,0,1,1.09,1.85c0,1.56-1.34,2.48-3.93,2.69a2.53,2.53,0,0,1,1.37.75,2.24,2.24,0,0,1,.54,1.69V165c0,.91,0,.91.09,1a.3.3,0,0,0,.25.15c.25,0,.55-.29.74-.73a5.21,5.21,0,0,0,.23-.58l.59.28c-.46,1.41-1.23,2.07-2.4,2.07a1.87,1.87,0,0,1-2-1.94,9.55,9.55,0,0,1,.1-1.16,6.2,6.2,0,0,0,.07-.79c0-.75-.45-1.11-1.4-1.11h-.41Zm1.42-3.56c1.23,0,1.59-.07,2-.42a2.33,2.33,0,0,0,.89-1.85c0-.87-.52-1.35-1.48-1.35H128c-.49,0-.63.1-.74.52l-.83,3.1Z"/><path class="cls-1" d="M143,161l-.73-.07c0-.31.05-.65.05-.82,0-1.44-.58-2.25-1.62-2.25-.4,0-.43,0-.59.62l-1.75,6.56a3.76,3.76,0,0,0-.2.87c0,.3.2.37,1.1.37h.34l-.09.74h-5.44l.09-.74h.37c.58,0,.91-.06,1-.2s.13-.1.37-1l1.79-6.64a1.25,1.25,0,0,0,0-.33c0-.14-.14-.21-.38-.21-1.17,0-2,.89-2.95,3.14l-.68-.22,1-3.66h8.86Z"/><path class="cls-1" d="M151.08,165.48c.14.65.4.83,1.23.83h.19l-.09.74h-5.13l.1-.74h.22a1.89,1.89,0,0,0,.9-.11.37.37,0,0,0,.24-.32,2.56,2.56,0,0,0-.06-.44l-.27-1.41h-3.18l-.63,1.11a1.19,1.19,0,0,0-.19.59c0,.4.34.58,1.11.58h.17l-.11.74h-3.91l.09-.74h.08a2.48,2.48,0,0,0,1.83-1.41l4.76-7.94h.85ZM147.6,160l-1.93,3.3h2.56Z"/><path class="cls-1" d="M157,167.05l.1-.74h.09c.58,0,.91-.06,1-.2s.13-.1.37-1l1.59-5.94a3.75,3.75,0,0,0,.19-.87c0-.3-.19-.37-1.08-.37H159l.11-.74h5.11l-.09.74h-.1c-.58,0-.9.06-1,.2s-.12.09-.37,1l-1.59,5.94a3.83,3.83,0,0,0-.19.87c0,.3.19.37,1.08.37h.3l-.11.74Z"/><path class="cls-1" d="M172.57,164.1l1.06-4a5.28,5.28,0,0,0,.31-1.48c0-.51-.41-.76-1.24-.76l.1-.74h3.79l-.09.74a1.62,1.62,0,0,0-1.11.37c-.39.37-.41.41-.84,1.87l-1.9,7.11h-1.1l-4.05-7.76-1.24,4.59a5.81,5.81,0,0,0-.29,1.48c0,.51.4.76,1.2.76h.15l-.11.74h-3.89l.09-.74a1.78,1.78,0,0,0,1.11-.37c.39-.36.41-.44.82-1.87l1.55-5.74a.78.78,0,0,0-.81-.44h-.76l.09-.74h3.48Z"/><path class="cls-1" d="M186,161l-.72-.07c0-.31,0-.65,0-.82,0-1.44-.58-2.25-1.62-2.25-.4,0-.42,0-.59.62l-1.75,6.56a3.42,3.42,0,0,0-.19.87c0,.3.19.37,1.09.37h.34l-.09.74h-5.44l.09-.74h.37c.58,0,.91-.06,1-.2s.12-.1.37-1l1.78-6.64a1.25,1.25,0,0,0,.05-.33c0-.14-.13-.21-.38-.21-1.17,0-2,.89-2.95,3.14l-.68-.22,1-3.66h8.87Z"/><path class="cls-1" d="M195.92,160.51h-.72a4,4,0,0,0-.28-1.74,1.91,1.91,0,0,0-1.88-.88h-.52c-.56,0-.71.13-.86.66l-.81,3h.28a2.14,2.14,0,0,0,2.28-1.67l.72.1-1.23,4.59-.72-.1a6.15,6.15,0,0,0,.06-.85c0-.89-.42-1.33-1.28-1.33h-.31l-.86,3.24a1.9,1.9,0,0,0-.08.43c0,.25.22.35.74.35h.49a3.7,3.7,0,0,0,2.78-1.2,5.25,5.25,0,0,0,1.21-1.61l.71.15-.9,3.4h-8.81l.09-.74h.06c.94,0,1.11-.09,1.26-.66l.15-.58,1.6-5.94a4.23,4.23,0,0,0,.18-.87c0-.3-.19-.37-1.08-.37h-.26l.11-.74h8.42Z"/><path class="cls-1" d="M200.47,165.07a5.42,5.42,0,0,0-.18.87c0,.3.19.37,1.08.37h.36l-.11.74h-5.13l.1-.74h0c.58,0,.91-.06,1-.2s.13-.1.37-1l1.59-5.94a4.41,4.41,0,0,0,.2-.87c0-.3-.2-.37-1.09-.37h-.26l.1-.74h4.75a7.11,7.11,0,0,1,2.91.44,2,2,0,0,1,1.09,1.85c0,1.56-1.34,2.48-3.93,2.69a2.53,2.53,0,0,1,1.37.75,2.24,2.24,0,0,1,.54,1.69V165c0,.91,0,.91.09,1a.3.3,0,0,0,.25.15c.25,0,.55-.29.74-.73a5.21,5.21,0,0,0,.23-.58l.59.28c-.46,1.41-1.23,2.07-2.4,2.07a1.87,1.87,0,0,1-2-1.94c0-.29,0-.72.1-1.16a6.2,6.2,0,0,0,.07-.79c0-.75-.45-1.11-1.4-1.11h-.41Zm1.42-3.56c1.23,0,1.59-.07,2-.42a2.33,2.33,0,0,0,.89-1.85c0-.87-.52-1.35-1.48-1.35H203c-.49,0-.63.1-.74.52l-.83,3.1Z"/><path class="cls-1" d="M216.84,164.1l1.07-4a5,5,0,0,0,.3-1.48c0-.51-.41-.76-1.23-.76l.1-.74h3.79l-.1.74a1.61,1.61,0,0,0-1.1.37c-.39.37-.42.41-.84,1.87l-1.91,7.11h-1.09l-4.06-7.76-1.23,4.59a5.33,5.33,0,0,0-.29,1.48c0,.51.4.76,1.19.76h.15l-.11.74h-3.89l.1-.74a1.82,1.82,0,0,0,1.11-.37c.38-.36.41-.44.82-1.87l1.55-5.74a.79.79,0,0,0-.81-.44h-.77l.1-.74h3.48Z"/><path class="cls-1" d="M228.39,165.48c.14.65.4.83,1.24.83h.19l-.1.74H224.6l.09-.74h.22a2,2,0,0,0,.91-.11.36.36,0,0,0,.23-.32,2.31,2.31,0,0,0-.05-.44l-.28-1.41h-3.18l-.63,1.11a1.3,1.3,0,0,0-.19.59c0,.4.34.58,1.11.58H223l-.11.74H219l.1-.74h.08A2.49,2.49,0,0,0,221,164.9l4.77-7.94h.85ZM224.91,160l-1.93,3.3h2.56Z"/><path class="cls-1" d="M240.25,161l-.73-.07c0-.31,0-.65,0-.82,0-1.44-.57-2.25-1.61-2.25-.4,0-.43,0-.59.62l-1.76,6.56a4,4,0,0,0-.19.87c0,.3.19.37,1.1.37h.34l-.1.74h-5.44l.1-.74h.37c.57,0,.9-.06,1-.2s.12-.1.37-1l1.78-6.64a1.36,1.36,0,0,0,.06-.33c0-.14-.14-.21-.39-.21-1.16,0-2,.89-2.94,3.14l-.69-.22,1-3.66h8.86Z"/><path class="cls-1" d="M240.15,167.05l.1-.74h.09c.58,0,.91-.06,1-.2s.12-.1.36-1l1.59-5.94a4,4,0,0,0,.2-.87c0-.3-.2-.37-1.09-.37h-.3l.11-.74h5.11l-.09.74h-.1c-.57,0-.9.06-1,.2s-.12.09-.37,1l-1.59,5.94a3.83,3.83,0,0,0-.19.87c0,.3.19.37,1.08.37h.3l-.11.74Z"/><path class="cls-1" d="M257,158.2a3.85,3.85,0,0,1,1.14,2.8,6.31,6.31,0,0,1-6.23,6.25,3.91,3.91,0,0,1-4.2-4.12,6.24,6.24,0,0,1,1.92-4.44,6,6,0,0,1,4.3-1.74A4,4,0,0,1,257,158.2Zm-5.67,1.61a12,12,0,0,0-1.16,4.59c0,1.3.67,2.11,1.74,2.11s1.85-.7,2.61-2.15a10.32,10.32,0,0,0,1.1-4.44,2.59,2.59,0,0,0-.37-1.52,1.68,1.68,0,0,0-1.36-.71C252.85,157.69,252,158.37,251.32,159.81Z"/><path class="cls-1" d="M267.5,164.1l1.07-4a5,5,0,0,0,.3-1.48c0-.51-.41-.76-1.23-.76l.1-.74h3.79l-.09.74a1.62,1.62,0,0,0-1.11.37c-.39.37-.41.41-.84,1.87l-1.9,7.11h-1.1l-4.06-7.76-1.23,4.59a5.81,5.81,0,0,0-.29,1.48c0,.51.4.76,1.19.76h.15l-.1.74h-3.9l.1-.74a1.78,1.78,0,0,0,1.11-.37c.38-.36.41-.44.82-1.87l1.55-5.74a.78.78,0,0,0-.81-.44h-.77l.1-.74h3.48Z"/><path class="cls-1" d="M279.06,165.48c.13.65.39.83,1.23.83h.19l-.1.74h-5.12l.1-.74h.22a1.89,1.89,0,0,0,.9-.11.36.36,0,0,0,.23-.32,2.31,2.31,0,0,0,0-.44l-.28-1.41h-3.17l-.64,1.11a1.3,1.3,0,0,0-.19.59c0,.4.35.58,1.11.58h.18l-.11.74h-3.92l.1-.74h.08a2.49,2.49,0,0,0,1.82-1.41l4.77-7.94h.85ZM275.58,160l-1.94,3.3h2.57Z"/><path class="cls-1" d="M290.42,163.55l-.94,3.5h-8.81l.1-.74h.05a1.7,1.7,0,0,0,1.06-.2c.11-.1.11-.1.36-1l1.6-5.94a5.11,5.11,0,0,0,.18-.87c0-.3-.19-.37-1.09-.37h-.26l.11-.74H288l-.11.74h-.25c-.57,0-.9.06-1,.2s-.12.11-.37,1l-1.59,5.94a4,4,0,0,0-.19.88c0,.27.18.36.73.36h.49a3.7,3.7,0,0,0,2.78-1.2,4.84,4.84,0,0,0,1.23-1.71Z"/></g></svg>