<svg xmlns="http://www.w3.org/2000/svg" viewBox="0 0 45.214 44.695">
  <defs>
    <style>
      .cls-1 {
        fill: #fff;
      }
    </style>
  </defs>
  <g id="icon_management" data-name="icon management" transform="translate(-0.618 -3.7)">
    <g id="Layer_2" transform="translate(0.618 3.7)">
      <g id="Group_1082" data-name="Group 1082" transform="translate(0 0)">
        <path id="Path_592" data-name="Path 592" class="cls-1" d="M31.157,111.468a15.512,15.512,0,0,0-2.2-6.758,3.238,3.238,0,0,0-1.665-1.355L21.1,101.247l-.31-2.285a14.619,14.619,0,0,0,1.036-2.179,2.125,2.125,0,0,0,.912-.957,5.272,5.272,0,0,0,.372-1.063c.027-.1.062-.221.08-.283a2.379,2.379,0,0,0,.133-2.223,1.673,1.673,0,0,0-.337-.443,17.1,17.1,0,0,0,.089-2.409A4.8,4.8,0,0,0,21.52,86a7.62,7.62,0,0,0-2.852-1.612,14.137,14.137,0,0,0-3.782-.691H14.78a7.226,7.226,0,0,0-2.764.788,5.507,5.507,0,0,0-2,1.754,5.614,5.614,0,0,0-.921,3.206,18.963,18.963,0,0,0,.142,2.321,1.856,1.856,0,0,0-.381.487,2.379,2.379,0,0,0,.133,2.223c.018.062.053.186.08.283a6.4,6.4,0,0,0,.372,1.063,2,2,0,0,0,.992.992,15.743,15.743,0,0,0,.9,1.975L11,101.247l-6.191,2.108a3.186,3.186,0,0,0-1.665,1.355,15.63,15.63,0,0,0-2.2,6.758c-.416,2.958-.434,4.686-.053,5.757a2.948,2.948,0,0,0,2.223,1.842,59.329,59.329,0,0,0,11.993,2.214l-.009.027h1.9l-.009-.027a59.329,59.329,0,0,0,11.993-2.214,2.962,2.962,0,0,0,2.223-1.842C31.591,116.154,31.574,114.427,31.157,111.468ZM20.44,106.127l-2.214,6.315-1.1-7.795,1.169,1.674,1.763-2.941Zm-8.751,0,.372-2.746,1.763,2.941,1.169-1.674-1.1,7.795Zm2.214-2.214-1.541-2.578.115-.895a5.4,5.4,0,0,0,2.622,1.772Zm5.757-3.384.1.806-1.541,2.578-1.178-1.683A5.378,5.378,0,0,0,19.66,100.529ZM11.166,95.64h-.044c-.62,0-.753-1.373-.957-1.754-.452-.833-.115-1.24.266-1.275.044,0,.089-.009.142-.009a.505.505,0,0,1,.115.009,19.533,19.533,0,0,1-.266-3.162C10.422,85.232,14.86,85,14.86,85s6.758.186,6.918,4.446a17.577,17.577,0,0,1-.195,3.162h.053a.763.763,0,0,1,.142.009c.381.035.717.443.266,1.275-.213.381-.337,1.754-.957,1.754h-.044a.2.2,0,0,1-.151-.106,13.871,13.871,0,0,1-1.435,3.118h-.009v.009c-.921,1.417-2.064,2.338-3.339,2.365-2.09-.035-3.756-2.507-4.73-5.571A.3.3,0,0,1,11.166,95.64ZM2.158,116.792c-.3-.841-.257-2.471.115-5.137.85-6.014,2.648-6.927,2.87-7.015h.009l5.678-1.931-.487,3.57,4.8,13.7a57.568,57.568,0,0,1-11.594-2.152C2.725,117.553,2.362,117.385,2.158,116.792Zm12.649-1.754.053.009,1.2-8.556,1.2,8.556.053-.009-1.258,3.6Zm15.164,1.754c-.213.593-.567.762-1.391,1.027a57.57,57.57,0,0,1-11.594,2.152l4.8-13.7L21.3,102.7l5.642,1.922.053.009c.018,0,1.966.735,2.861,7.015C30.236,114.312,30.272,115.95,29.971,116.792Z" transform="translate(-0.618 -76.614)"/>
        <path id="Path_593" data-name="Path 593" class="cls-1" d="M256.3,31.468a15.512,15.512,0,0,0-2.2-6.758,3.238,3.238,0,0,0-1.665-1.355l-6.191-2.108-.31-2.285a14.62,14.62,0,0,0,1.036-2.179,2.125,2.125,0,0,0,.912-.957,5.272,5.272,0,0,0,.372-1.063c.027-.1.062-.221.08-.283a2.379,2.379,0,0,0,.133-2.223,1.674,1.674,0,0,0-.337-.443,17.1,17.1,0,0,0,.089-2.409A4.8,4.8,0,0,0,246.666,6a7.62,7.62,0,0,0-2.852-1.612,14.137,14.137,0,0,0-3.782-.691h-.106a7.226,7.226,0,0,0-2.764.788,5.507,5.507,0,0,0-2,1.754,5.614,5.614,0,0,0-.921,3.206,18.967,18.967,0,0,0,.142,2.321,1.856,1.856,0,0,0-.381.487,2.379,2.379,0,0,0,.133,2.223c.018.062.053.186.08.283a6.4,6.4,0,0,0,.372,1.063,2,2,0,0,0,.992.992,15.743,15.743,0,0,0,.9,1.975l-.337,2.454-3.49,1.187a.8.8,0,0,1-.1.709c-.23.3-.443.629-.655.939l4.048-1.382-.487,3.57,1.612,4.606a.862.862,0,0,1,.859.248,9.379,9.379,0,0,0,.948.93l-2.046-5.917.372-2.746,1.763,2.941,1.169-1.674-1.063,7.555a5.163,5.163,0,0,1,.824.93,3.2,3.2,0,0,1,.292.576l1.019-7.228,1.2,8.556.053-.009-.992,2.834a6.333,6.333,0,0,1,.2.7,5.8,5.8,0,0,1-.071,2.755h.54l-.009-.027a59.33,59.33,0,0,0,11.993-2.214,2.962,2.962,0,0,0,2.223-1.842C256.737,36.154,256.719,34.436,256.3,31.468Zm-17.254-7.555-1.541-2.578.115-.895a5.4,5.4,0,0,0,2.622,1.772Zm-2.533-8.441a.259.259,0,0,1-.195.177h-.044c-.62,0-.753-1.373-.957-1.754-.452-.833-.115-1.24.266-1.275.044,0,.089-.009.142-.009a.505.505,0,0,1,.115.009,19.533,19.533,0,0,1-.266-3.162c0-4.216,4.438-4.446,4.438-4.446s6.758.186,6.918,4.446a17.576,17.576,0,0,1-.195,3.162h.053a.762.762,0,0,1,.142.009c.381.035.717.443.266,1.275-.213.381-.337,1.754-.957,1.754H246.2a.2.2,0,0,1-.151-.106,13.87,13.87,0,0,1-1.435,3.118H244.6v.009c-.921,1.417-2.064,2.338-3.339,2.365C239.145,21,237.48,18.527,236.515,15.472Zm8.291,5.067.1.806-1.541,2.578-1.178-1.683A5.441,5.441,0,0,0,244.805,20.538Zm-2.524,4.119,1.169,1.674,1.763-2.941.372,2.746-2.214,6.315Zm12.835,12.135c-.213.593-.567.762-1.391,1.027a57.569,57.569,0,0,1-11.594,2.152l4.8-13.7-.487-3.57,5.642,1.922.053.009c.018,0,1.966.735,2.861,7.015C255.381,34.32,255.417,35.95,255.116,36.792Z" transform="translate(-211.414 -3.7)"/>
      </g>
    </g>
  </g>
</svg>
