<svg xmlns="http://www.w3.org/2000/svg" viewBox="0 0 42.853 43.311">
  <defs>
    <style>
      .cls-1 {
        fill: #fff;
      }
    </style>
  </defs>
  <g id="icon_vision" data-name="icon vision" transform="translate(-3.2 -1)">
    <g id="Group_274" data-name="Group 274" transform="translate(3.2 20.799)">
      <g id="Group_272" data-name="Group 272" transform="translate(0)">
        <path id="Path_397" data-name="Path 397" class="cls-1" d="M24.626,257.4c-6.094,0-11.552-3-15.07-5.5a38.887,38.887,0,0,1-6.2-5.484.619.619,0,0,1,0-.814,38.889,38.889,0,0,1,6.2-5.484c3.509-2.526,8.976-5.518,15.07-5.518s11.552,3,15.07,5.5a38.888,38.888,0,0,1,6.2,5.484.619.619,0,0,1,0,.814,38.885,38.885,0,0,1-6.2,5.484C36.179,254.4,30.72,257.4,24.626,257.4ZM4.683,245.991a38.52,38.52,0,0,0,5.636,4.9c3.356,2.4,8.56,5.255,14.307,5.255,5.772,0,10.976-2.865,14.332-5.272a39.107,39.107,0,0,0,5.611-4.882,38.52,38.52,0,0,0-5.636-4.9c-3.356-2.407-8.56-5.263-14.307-5.263s-10.951,2.856-14.307,5.255A39.438,39.438,0,0,0,4.683,245.991Z" transform="translate(-3.2 -234.6)"/>
      </g>
      <g id="Group_273" data-name="Group 273" transform="translate(15.019 4.984)">
        <path id="Path_398" data-name="Path 398" class="cls-1" d="M186.808,306.215a6.408,6.408,0,1,1,6.408-6.408A6.419,6.419,0,0,1,186.808,306.215Zm0-11.569a5.162,5.162,0,1,0,5.162,5.162A5.165,5.165,0,0,0,186.808,294.646Z" transform="translate(-180.4 -293.4)"/>
      </g>
    </g>
    <g id="Group_275" data-name="Group 275" transform="translate(6.446 1)">
      <path id="Path_399" data-name="Path 399" class="cls-1" d="M42.509,263.572a1.261,1.261,0,0,1,.263-.169v-4.526h3.306v1.915a8.777,8.777,0,0,1,1.271-.89v-2.1H41.5v6.925A6.231,6.231,0,0,1,42.509,263.572Z" transform="translate(-41.5 -236.035)"/>
      <path id="Path_400" data-name="Path 400" class="cls-1" d="M46.17,404.365c-.034-.025-.059-.051-.093-.076v5.052H42.771v-7.577A8.422,8.422,0,0,1,41.5,401v9.408h5.848v-5.2C46.95,404.941,46.551,404.661,46.17,404.365Z" transform="translate(-41.5 -367.097)"/>
      <path id="Path_401" data-name="Path 401" class="cls-1" d="M132.771,193.076h3.305v3.882a11.337,11.337,0,0,1,1.271-.271V192H131.5v6.8c.424-.186.848-.373,1.271-.551Z" transform="translate(-123.872 -175.812)"/>
      <path id="Path_402" data-name="Path 402" class="cls-1" d="M136.077,465.034v1.5h-3.305v-2.348c-.424-.22-.856-.449-1.271-.687v4.111h5.848v-2.2C136.924,465.28,136.509,465.153,136.077,465.034Z" transform="translate(-123.872 -424.3)"/>
      <path id="Path_403" data-name="Path 403" class="cls-1" d="M222.771,136.008v-8.832h3.306v8.484a1.036,1.036,0,0,1,.28.017,10.1,10.1,0,0,1,.992.271V126.1H221.5v10.044c.356-.042.712-.076,1.076-.136Z" transform="translate(-206.244 -115.497)"/>
      <path id="Path_404" data-name="Path 404" class="cls-1" d="M227.2,489.659c-.161.068-.322.127-.475.195-.076.034-.322.136-.254.11-.068.025-.127.051-.195.076a.578.578,0,0,1-.195.042v.339h-3.305v-.475a.587.587,0,0,1-.3.034,9.374,9.374,0,0,1-.975-.178v1.7h5.848v-1.9A1.135,1.135,0,0,0,227.2,489.659Z" transform="translate(-206.244 -448.188)"/>
      <path id="Path_405" data-name="Path 405" class="cls-1" d="M317.084,457.507a.835.835,0,0,1-.915.415v2.755h-3.306v-1.424a1.3,1.3,0,0,1-.161-.068.118.118,0,0,1-.034-.025h-.051a.364.364,0,0,1-.042-.009h-.051a.862.862,0,0,1-.373.076.749.749,0,0,1-.246-.034c-.093.017-.195.042-.305.068v2.492h5.848V457.1A1.373,1.373,0,0,0,317.084,457.507Z" transform="translate(-288.707 -418.443)"/>
      <path id="Path_406" data-name="Path 406" class="cls-1" d="M312.771,61.368h3.305V78.023a1.021,1.021,0,0,1,.754.068c.169.085.348.178.517.263V60.3H311.5V76.446c.432.2.856.424,1.271.653Z" transform="translate(-288.616 -55.274)"/>
      <path id="Path_407" data-name="Path 407" class="cls-1" d="M402.771,2.076h3.306V28.453a1.055,1.055,0,0,1,.6.254,5.626,5.626,0,0,1,.67.678V1H401.5V25.113a10.378,10.378,0,0,1,1.271,1.009Z" transform="translate(-370.988 -1)"/>
      <path id="Path_408" data-name="Path 408" class="cls-1" d="M406.952,394.864l-.136.161c-.008.008-.034.042-.059.068s-.1.136-.093.127a1.723,1.723,0,0,1-.11.153,1,1,0,0,1-.576.415v7.594h-3.306v-5.136a7.867,7.867,0,0,1-1.271.661v5.552h5.848V394.5C407.155,394.627,407.053,394.746,406.952,394.864Z" transform="translate(-370.896 -361.148)"/>
    </g>
  </g>
</svg>
