<svg xmlns="http://www.w3.org/2000/svg" viewBox="0 0 64.161 78.152">
  <defs>
    <style>
      .cls-1 {
        fill: #1689c3;
      }
    </style>
  </defs>
  <path id="icon_worker" data-name="icon worker" class="cls-1" d="M110.21,58.691c-2.068-14.647-6.971-16.577-7.936-16.822l-13.1-4.458-.735-5.454a30.524,30.524,0,0,0,2.038-4.382,3.8,3.8,0,0,0,1.869-1.884,11.242,11.242,0,0,0,.751-2.145c.061-.23.153-.536.2-.659a4.614,4.614,0,0,0,.291-4.275,3.189,3.189,0,0,0-.781-.965,35.477,35.477,0,0,0,.2-5.209,9.525,9.525,0,0,0-3.125-6.818,15.909,15.909,0,0,0-5.807-3.294A29.636,29.636,0,0,0,76.274.9H76.09a14.591,14.591,0,0,0-5.607,1.609,10.922,10.922,0,0,0-4.029,3.539A11.348,11.348,0,0,0,64.6,12.529a40.685,40.685,0,0,0,.322,5.041,3.207,3.207,0,0,0-.873,1.042,4.614,4.614,0,0,0,.291,4.275c.046.123.138.429.2.659a12.409,12.409,0,0,0,.751,2.145,3.7,3.7,0,0,0,2.038,1.946A31.85,31.85,0,0,0,69.211,31.8l-.751,5.592-13.1,4.458c-.965.245-5.868,2.176-7.936,16.822-.873,6.159-.9,9.744-.123,11.966.9,2.543,2.819,3.171,4.52,3.723a123.623,123.623,0,0,0,25.372,4.642l-.015.046h3.34l-.015-.046a124.857,124.857,0,0,0,25.372-4.642c1.7-.552,3.616-1.18,4.52-3.723C111.114,68.435,111.083,64.85,110.21,58.691ZM88.194,47.506,83.245,61.632,80.7,43.508l2.788,3.983,3.846-6.419Zm-1.41-10.035-3.447,5.745-2.988-4.275a11.007,11.007,0,0,0,6.1-4.075h0ZM69.41,47.506l.873-6.435,3.846,6.419,2.788-3.983L74.359,61.632Zm4.857-4.275L70.82,37.486l.337-2.681a10.906,10.906,0,0,0,6.1,4.152ZM68.475,25.505h-.092c-1.3,0-1.563-2.88-2.007-3.677-.95-1.747-.245-2.6.552-2.666a1.854,1.854,0,0,1,.291-.015,1.318,1.318,0,0,1,.245.015,41.384,41.384,0,0,1-.567-6.619c0-8.84,9.3-9.33,9.3-9.33s14.172.383,14.494,9.315a36.159,36.159,0,0,1-.414,6.619H90.4a1.854,1.854,0,0,1,.291.015c.8.077,1.5.935.552,2.666-.444.812-.7,3.677-2.007,3.677h-.092a.455.455,0,0,1-.322-.214C86.753,31.634,83.153,36.72,78.8,36.8c-4.382-.077-7.875-5.255-9.913-11.675C68.8,25.337,68.659,25.49,68.475,25.505ZM49.447,69.875c-.643-1.793-.567-5.255.23-10.863,1.839-12.992,5.807-14.754,6.19-14.892h.015l12.2-4.152L67.02,47.736,77.162,76.708A120.767,120.767,0,0,1,52.48,72.173C50.7,71.591,49.922,71.223,49.447,69.875Zm26.475-3.769.138.015L78.8,46.648l2.742,19.473.138-.015L78.8,74.333Zm32.235,3.769c-.475,1.333-1.256,1.7-3.049,2.3a120.573,120.573,0,0,1-24.682,4.535L90.568,47.736l-1.057-7.768,12.058,4.106.031.031.107.015c.337.123,4.336,1.808,6.19,14.892C108.708,64.635,108.785,68.082,108.157,69.875Z" transform="translate(-46.741 -0.9)"/>
</svg>
