<?xml version="1.0" encoding="utf-8"?>
<!-- Generator: Adobe Illustrator 21.1.0, SVG Export Plug-In . SVG Version: 6.00 Build 0)  -->
<svg version="1.1" id="Layer_1" xmlns="http://www.w3.org/2000/svg" xmlns:xlink="http://www.w3.org/1999/xlink" x="0px" y="0px"
	 viewBox="0 0 87.2 64.8" style="enable-background:new 0 0 87.2 64.8;" xml:space="preserve">
<style type="text/css">
	.st0{fill:#FFFFFF;}
</style>
<g id="Group_1023" transform="translate(-516 -989.302)">
	<path id="Path_541" class="st0" d="M561.4,989.3v64.8h19v-50.4L561.4,989.3z"/>
	<path id="Path_542" class="st0" d="M553.9,995v59h3.9v-62L553.9,995z"/>
	<path id="Path_543" class="st0" d="M546.3,1054.1h3.9v-56.2l-3.9,2.9V1054.1z"/>
	<path id="Path_544" class="st0" d="M538.7,1054.1h3.9v-50.5l-3.9,2.9V1054.1z"/>
	<path id="Path_545" class="st0" d="M584.2,1018.3v35.7h19v-21.3L584.2,1018.3z"/>
	<path id="Path_546" class="st0" d="M531.1,1024v30.1h3.9v-33L531.1,1024z"/>
	<path id="Path_547" class="st0" d="M523.6,1054.1h3.9v-27.3l-3.9,2.9V1054.1z"/>
	<path id="Path_548" class="st0" d="M516,1054.1h3.9v-21.6l-3.9,2.9V1054.1z"/>
</g>
</svg>
