<svg xmlns="http://www.w3.org/2000/svg" viewBox="0 0 60 54.747">
  <defs>
    <style>
      .cls-1 {
        fill: #1689c3;
      }
    </style>
  </defs>
  <g id="icon_retail" data-name="icon retail" transform="translate(-1.2 -22.2)">
    <path id="Path_550" data-name="Path 550" class="cls-1" d="M250.7,199.9a1.279,1.279,0,1,0,0,2.546,1.273,1.273,0,1,0,0-2.546Z" transform="translate(-212.246 -151.599)"/>
    <path id="Path_551" data-name="Path 551" class="cls-1" d="M3.55,44.756v31a1.179,1.179,0,0,0,1.175,1.193H57.676a1.179,1.179,0,0,0,1.175-1.193v-31a5.918,5.918,0,0,0,2.35-4.7V25.765A3.541,3.541,0,0,0,57.69,22.2H4.71A3.541,3.541,0,0,0,1.2,25.765V40.042A5.97,5.97,0,0,0,3.55,44.756ZM55.21,46.008a5.423,5.423,0,0,0,1.291-.147v7.278H44.318V49.574a1.179,1.179,0,0,0-1.175-1.193H19.126a1.179,1.179,0,0,0-1.175,1.193v3.565H5.885V45.861a6.3,6.3,0,0,0,1.291.147,5.993,5.993,0,0,0,4.8-2.431,5.956,5.956,0,0,0,9.6,0,5.956,5.956,0,0,0,9.6,0,5.956,5.956,0,0,0,9.6,0,5.956,5.956,0,0,0,9.6,0A6.111,6.111,0,0,0,55.21,46.008ZM5.885,55.526H17.951v11.9H5.885ZM20.3,50.767h9.717V74.575H20.3Zm12.067,0h9.6V74.575h-9.6Zm11.951,4.759H56.5v11.9H44.318Zm4.917-15.47a3.626,3.626,0,0,1-7.252,0V36.491h7.266v3.565Zm-9.6,0a3.626,3.626,0,0,1-7.252,0V36.491h7.266v3.565ZM32.368,34.1V24.587h7.266V34.1Zm-2.35,0H22.752V24.587h7.266Zm0,2.372v3.565a3.626,3.626,0,0,1-7.252,0V36.476h7.252Zm-9.6,3.58a3.626,3.626,0,0,1-7.252,0V36.491h7.266v3.565Zm-9.616,0a3.626,3.626,0,0,1-7.252,0V36.491h7.266v3.565ZM5.885,69.8H17.951v4.759H5.885Zm38.434,4.759V69.8H56.5v4.759ZM55.21,43.622a3.641,3.641,0,0,1-3.626-3.565V36.491H58.85v3.565A3.663,3.663,0,0,1,55.21,43.622Zm2.466-19.035A1.179,1.179,0,0,1,58.85,25.78V34.1H51.584V24.587ZM49.235,34.1H41.969V24.587h7.266ZM20.417,24.587V34.1H13.151V24.587Zm-15.707,0H10.8V34.1H3.55V25.765A1.173,1.173,0,0,1,4.71,24.587Z" transform="translate(0)"/>
  </g>
</svg>
