<?xml version="1.0" encoding="utf-8"?>
<!-- Generator: Adobe Illustrator 22.1.0, SVG Export Plug-In . SVG Version: 6.00 Build 0)  -->
<svg version="1.1" id="Layer_1" xmlns="http://www.w3.org/2000/svg" xmlns:xlink="http://www.w3.org/1999/xlink" x="0px" y="0px"
	 viewBox="0 0 247.5 51.9" style="enable-background:new 0 0 247.5 51.9;" xml:space="preserve">
<style type="text/css">
	.st0{fill:#E4002B;}
	.st1{fill:#696B6B;}
	.st2{fill:none;stroke:#696B6B;stroke-width:0.7372;stroke-linecap:round;stroke-linejoin:round;}
</style>
<polygon class="st0" points="36.4,0 36.4,51.9 51.7,51.9 51.7,11.5 "/>
<polygon class="st0" points="30.4,4.6 30.4,51.9 33.5,51.9 33.5,2.2 "/>
<polygon class="st0" points="24.3,51.9 27.4,51.9 27.4,6.8 24.3,9.2 "/>
<polygon class="st0" points="18.2,51.9 21.3,51.9 21.3,11.4 18.2,13.8 "/>
<polygon class="st0" points="54.7,23.3 54.7,51.9 69.9,51.9 69.9,34.8 "/>
<polygon class="st0" points="12.1,27.8 12.1,51.9 15.3,51.9 15.3,25.4 "/>
<polygon class="st0" points="6.1,51.9 9.2,51.9 9.2,30 6.1,32.4 "/>
<polygon class="st0" points="0,51.9 3.1,51.9 3.1,34.6 0,37 "/>
<g>
	<path class="st1" d="M109.4,28.9c-4.6,0-7.4-2.6-7.4-7.6v-9.8h3.8v9.7c0,2.8,1.4,4.2,3.7,4.2c2.3,0,3.7-1.4,3.7-4.1v-9.8h3.8v9.7
		C116.9,26.4,114,28.9,109.4,28.9"/>
	<path class="st1" d="M128.2,28.9c-2.6,0-5.2-0.9-7.3-2.7l2.2-2.7c1.5,1.3,3.2,2.1,5.1,2.1c1.5,0,2.5-0.6,2.5-1.6v0
		c0-1-0.6-1.4-3.4-2.2c-3.4-0.9-5.7-1.9-5.7-5.3v0c0-3.1,2.5-5.2,6-5.2c2.5,0,4.6,0.8,6.4,2.2l-2,2.8c-1.5-1.1-3-1.7-4.4-1.7
		c-1.4,0-2.2,0.7-2.2,1.5v0c0,1.1,0.7,1.6,3.7,2.3c3.5,0.9,5.4,2.2,5.4,5.1v0C134.5,27,131.9,28.9,128.2,28.9"/>
</g>
<polygon class="st1" points="150.3,28.6 150.3,21.8 143.4,21.8 143.4,28.6 139.6,28.6 139.6,11.5 143.4,11.5 143.4,18.3 150.3,18.3 
	150.3,11.5 154.1,11.5 154.1,28.6 "/>
<polygon class="st1" points="215.6,28.6 207.5,17.9 207.5,28.6 203.8,28.6 203.8,11.5 207.3,11.5 215.3,22.4 215.3,11.5 219,11.5 
	219,28.6 "/>
<polygon class="st1" points="142,51.9 136.7,44.6 134.7,46.7 134.7,51.9 130.9,51.9 130.9,34.8 134.7,34.8 134.7,42.3 141.6,34.8 
	146.2,34.8 139.2,42.1 146.5,51.9 "/>
<polygon class="st1" points="150.7,51.9 150.7,34.8 163.5,34.8 163.5,38.2 154.5,38.2 154.5,41.6 162.4,41.6 162.4,45 154.5,45 
	154.5,48.6 163.6,48.6 163.6,51.9 "/>
<rect x="187.1" y="34.8" class="st1" width="3.8" height="17.1"/>
<polygon class="st1" points="196.4,51.9 196.4,34.8 209.2,34.8 209.2,38.1 200.1,38.1 200.1,41.6 208.1,41.6 208.1,45 200.1,45 
	200.1,48.6 209.3,48.6 209.3,51.9 "/>
<polygon class="st1" points="214.9,51.9 214.9,34.8 218.7,34.8 218.7,48.5 227.2,48.5 227.2,51.9 "/>
<g>
	<path class="st1" d="M243.6,43.4c0-3-2.1-5.2-5.2-5.2h-2.9v10.3h2.9C241.5,48.5,243.6,46.5,243.6,43.4L243.6,43.4z M238.4,51.9
		h-6.7V34.8h6.7c5.4,0,9.1,3.7,9.1,8.5v0C247.5,48.2,243.8,51.9,238.4,51.9"/>
	<path class="st1" d="M90.8,25.4c-3.1,0.1-5.2-2.4-5.3-5.3l0,0c-0.1-2.9,2-5.4,5-5.4c1.7,0,3.2,0.7,4.2,1.9l2.4-2.9
		c-1.6-1.6-3.9-2.6-6.6-2.5c-5.3,0.1-9,4.1-9,9l0,0c0.1,4.9,3.9,8.7,9.2,8.6c2.8,0,5.1-1.3,6.7-3.1L95,23.3
		C94.1,24.6,92.6,25.4,90.8,25.4"/>
</g>
<polygon class="st1" points="173.2,11.5 177.2,11.5 177.2,28.6 173.6,28.6 173.6,17.5 168.8,24.8 168.7,24.8 163.8,17.5 163.8,28.6 
	160.2,28.6 160.2,11.5 164.3,11.5 168.7,18.7 "/>
<path class="st1" d="M188.2,21.5l2.3-5.5l2.3,5.5H188.2z M188.7,11.5l-7.3,17.1h3.8l1.6-3.8h7.2l1.6,3.8h3.9l-7.3-17.1H188.7z"/>
<path class="st1" d="M115.3,44.8l2.3-5.5l2.3,5.5H115.3z M115.9,34.8l-7.3,17.1h3.8l1.6-3.8h7.2l1.6,3.8h3.9l-7.3-17.1H115.9z"/>
<polygon class="st1" points="172.7,38.2 172.7,41.9 180.7,41.9 180.7,45.3 172.7,45.3 172.7,51.9 168.9,51.9 168.9,34.8 182,34.8 
	182,38.2 "/>
<polygon class="st1" points="104.5,34.8 100.6,46.7 96.6,34.8 93,34.8 89,46.7 85.1,34.8 81,34.8 87.2,51.9 90.9,51.9 94.8,40.2 
	98.7,51.9 102.4,51.9 108.6,34.8 "/>
<g>
	<path class="st1" d="M236.7,17.2c-0.5-0.4-1-1-1.1-1.6c-0.1-0.6,0.3-1.3,1.1-1.4c0.9-0.1,1.3,0.6,1.3,1.3
		C238,16.2,237.2,16.9,236.7,17.2 M238.8,24.3c-0.8,1-1.8,1.6-2.7,1.6c-1.2,0-2.3-1-2.4-2.3c0-0.8,0.6-1.9,2.3-2.7L238.8,24.3z
		 M243,24.4l2-2.2l-2.4-2.5l-1.8,2.1l-2.1-2.5c1.4-0.8,2.3-2.4,2.2-3.9c-0.1-2.3-2-4.1-4.4-4.1c-1.2,0-2.2,0.4-3,1.3
		c-0.8,0.8-1.2,1.9-1.1,3c0,1.3,0.9,2.4,1.5,3.1c-2,0.8-3.5,3-3.4,5c0.1,2.9,2.6,5.3,5.6,5.3c1.7,0,3.6-0.9,4.7-2.2l1.5,1.9h4.4
		L243,24.4z"/>
</g>
<path class="st2" d="M36.4,12.6L36.4,12.6"/>
<path class="st2" d="M69.3,12.6L69.3,12.6"/>
</svg>
