<svg xmlns="http://www.w3.org/2000/svg" viewBox="0 0 37.2 46.5"><title>logo_trans</title><path d="M36.7,0V2.7h-.8V0h-.5V2.7h-2V0h-.5V2.7h-.5V0h-.5V2.7h-.3V6.6h-.9v.5h0v2H29.2V8.3h-.5v.9H28V8.3h-.5v.9h-.8v2.3h-.2v.2h0v5.2h-.7V15.7h-.5v1.2h-.8V15.7H24V42.5H23V41.2h-.5v1.3H20.7V41.2H20v1.3H17.1V41.2h-.5v1.3H14.8V41.2h-.5v1.3h-1V15.6h-.5v1.2H12V15.6h-.5v1.2h-.7V11.6h0v-.2h-.2V9.2H9.8V8.3H9.3v.9H8.6V8.3H8.1v.9H6.6V6.7H5.7V3.2h0V2.7H5.4V0H4.9V2.7H4.4V0H3.9V2.7h-2V0H1.3V2.7H.5V0H0V46.5H37.2V0Zm-.9,7.2h.8v2h-.8Zm-.5,2h-2v-2h2Zm1.4-6V6.6h-.8V3.2Zm-1.4,0V6.6h-2V3.2ZM32,3.2h.7V6.6H32Zm-.9,4h1.7v2H31.1Zm.4,2.5v.7H29.1V9.7ZM28.6,12v2.1h-.7V12Zm-.8-.5v-.7h.7v.7Zm0,3.1h.7v2.2h-.7Zm0,2.8h.7v1.9h-.7Zm0,2.4h.7v2.1h-.7Zm0,2.6h.7v2h-.7Zm0,2.4h.7v1.9h-.7Zm0,2.4h.7v2h-.7Zm0,2.5h.7v2h-.7Zm0,2.5h.7v2h-.7Zm0,2.4h.7v2h-.7Zm1.3,0h2.5v2H29.1Zm0-.5v-2h2.5v2Zm0-2.4v-2h2.5v2Zm0-2.5v-2h2.5v2Zm0-2.5V24.8h2.5v1.9Zm0-2.3v-2h2.5v2Zm0-2.5V19.8h2.5v2.1Zm0-2.6V17.4h2.5v1.9Zm0-2.4V14.7h2.5v2.2Zm0-2.8V12h2.5v2.1Zm-1.3,23h.7V39h-.7Zm1.3,0h2.5V39H29.1Zm2.9,0h.7V39H32Zm0-.5v-2h.7v2Zm0-2.5v-2h.7v2Zm0-2.4v-2h.7v2Zm0-2.5v-2h.7v2Zm0-2.5V24.8h.7v1.9Zm0-2.4V22.4h.7v2Zm0-2.4V19.8h.7v2.1Zm0-2.7V17.3h.7v1.9Zm0-2.3V14.7h.7v2.2Zm0-2.8V12h.7v2.1Zm0-2.6v-.7h.7v.7Zm-.5,0H29v-.7h2.5ZM28.6,9.7v.7h-.7V9.7Zm-1.3,0v.7H27V9.7ZM27,10.8h.3v.7H27Zm-.7,6.6v.9h-.7v-.9Zm-1.2,0v.9h-.8v-.9Zm-.8,1.3h.8V42.4h-.8Zm.8,26h-.8V42.9h.8Zm-1.3-1.8v1.8h-1V42.9Zm-1.4,0v1.8H20.6V42.9Zm-3.6,0H20v1.8H17.1V42.9Zm-2.2,0v1.8H14.8V42.9Zm-2.3,0v1.8h-1V42.9ZM12.9,17.4v.9h-.8v-.9Zm-1.3,0v.9h-.7v-.9ZM9.8,11.5v-.7h.3v.7Zm-4.7-.7v.7H4.4v-.7ZM9.3,36.6H8.6v-2h.7ZM8.1,19.8v2.1H5.6V19.8Zm-2.5-.5V17.4H8.1v1.9Zm2.5,3.1v2H5.6v-2Zm0,2.4v1.9H5.6V24.8Zm0,2.4v2H5.6v-2Zm0,2.5v2H5.6v-2Zm0,2.5v2H5.6v-2Zm0,2.4v2H5.6v-2Zm1.2-.5H8.6v-2h.7Zm0-2.4H8.6v-2h.7Zm0-2.5H8.6v-2h.7Zm0-2.5H8.6V24.8h.7Zm0-2.3H8.6v-2h.7Zm0-2.5H8.6V19.8h.7Zm0-2.6H8.6V17.4h.7Zm0-2.4H8.6V14.6h.7Zm-1.2,0H5.6V14.6H8.1ZM5.6,14.1V12H8.1v2.1Zm0-2.6v-.7H8.1v.7Zm-.5.5v2.1H4.4V12Zm0,2.6v2.2H4.4V14.6Zm0,2.8v1.9H4.4V17.4Zm0,2.4v2.1H4.4V19.8Zm0,2.6v2H4.4v-2Zm0,2.4v1.9H4.4V24.8Zm0,2.4v2H4.4v-2Zm0,2.5v2H4.4v-2Zm0,2.5v2H4.4v-2Zm0,2.4v2H4.4v-2Zm0,2.5V39H4.4V37.1Zm.5,0H8.1V39H5.6Zm3,0h.7V39H8.6Zm.7-23H8.6V12h.7Zm-.7-2.6v-.7h.7v.7Zm1.6-1.8v.7H9.8V9.7Zm-.9,0v.7H8.6V9.7Zm-1.2.6H5.6V9.7H8.1Zm-2-1.1H4.4v-2H6.1ZM.5,7.2h.8v2H.5v-2Zm1.4,0h2v2h-2Zm3.3-4V6.6H4.4V3.2Zm-1.3,0V6.6h-2V3.2Zm-2.6,0V6.6H.5V3.2ZM.5,46V9.7h.8V46Zm1.4,0V9.7H5.2v.7H3.9v1.2H2.7V12h0V46Zm1.3,0V12h.7v2.1h0v.5h0v2.2h0v.5h0v1.9h0v.5h0v2.1h0v.5h0v1.9h0v.5h0v1.9h0v.5h0v2h0v.5h0v2h0v.5h0v2h0v.5h0v2h0v.5h0V39h0v.5h0V46Zm1.2,0V39.5h.8V46Zm1.2,0V39.5H8.1V46Zm3,0V39.5h.7V46Zm1.2,0V12h.6V46Zm1.1,0V18.7h.7V46Zm1.2,0V18.7h.8V42.4h-.4v.5h.4v1.8h-.4v.5h.4v.9Zm1.2,0v-.9h1V46Zm1.5,0v-.9h1.8V46Zm4,0H17.1v-.9H20V46Zm1.7,0v-.9h1.8V46Zm2.4,0v-.9h1V46Zm1.4,0v-.9h.8V46Zm1.3,0V18.7h.7V46Zm1.2,0V12h.6V46Zm1,0V39.5h.7V46Zm1.3,0V39.5h2.5V46ZM32,46V39.5h.7V46Zm1.3,0V39.5h0V39h0V37.1h0v-.5h0v-2h0v-.5h0v-2h0v-.5h0v-2h0v-.5h0v-2h0v-.5h0V24.7h0v-.4h0V22.4h0v-.5h0V19.8h0v-.5h0V17.4h0v-.5h0V14.7h0v-.5h0V12H34V46Zm1.2,0V12h0v-.5H33.3V10.3H32V9.7h3.3V46Zm1.3,0V9.7h.8V46Z" style="fill:#fff"/></svg>