<?xml version="1.0" encoding="utf-8"?>
<!-- Generator: Adobe Illustrator 21.1.0, SVG Export Plug-In . SVG Version: 6.00 Build 0)  -->
<svg version="1.1" id="Layer_1" xmlns="http://www.w3.org/2000/svg" xmlns:xlink="http://www.w3.org/1999/xlink" x="0px" y="0px"
	 viewBox="0 0 253.9 136.2" style="enable-background:new 0 0 253.9 136.2;" xml:space="preserve">
<style type="text/css">
	.st0{fill:#FFFFFF;}
	.st1{enable-background:new    ;}
</style>
<g>
	<g id="Group_1019" transform="translate(-101 -98)">
		<path id="Path_497" class="st0" d="M208.8,165.2h38.3L228,146L208.8,165.2z"/>
		<path id="Path_498" class="st0" d="M184.9,141.3h38.3L204,122.1L184.9,141.3z"/>
		<path id="Path_499" class="st0" d="M232.7,141.3H271l-19.1-19.2L232.7,141.3z"/>
		<path id="Path_500" class="st0" d="M184.9,189.1h38.3L204,170L184.9,189.1z"/>
		<path id="Path_501" class="st0" d="M232.7,189.1H271L251.9,170L232.7,189.1z"/>
		<path id="Path_502" class="st0" d="M208.8,117.2h38.3L228,98L208.8,117.2z"/>
		<path id="Path_503" class="st0" d="M208.8,213.2h38.3L228,194.1L208.8,213.2z"/>
		<path id="Path_504" class="st0" d="M256.7,165.2H295L275.8,146L256.7,165.2z"/>
		<path id="Path_505" class="st0" d="M161,165.2h38.3L180.1,146L161,165.2z"/>
	</g>
	<g class="st1">
		<path class="st0" d="M3.5,134.3c-0.1,0.5-0.2,0.6-0.2,0.8c0,0.3,0.2,0.3,1,0.3h0.3L4.5,136H0l0.1-0.6h0c0.8,0,1-0.1,1.1-0.6
			l0.1-0.5l1.4-5.2c0.1-0.5,0.2-0.6,0.2-0.8c0-0.3-0.2-0.3-1-0.3H1.8l0.1-0.6h3.8c1.4,0,2.2,0.2,2.7,0.5c0.6,0.4,0.9,1,0.9,1.7
			c0,1-0.5,1.8-1.5,2.3c-0.6,0.3-1.5,0.4-2.8,0.4H4L3.5,134.3z M4.8,131.6c0.7,0,1.2-0.1,1.5-0.4c0.5-0.4,0.8-1.2,0.8-2
			S6.6,128,6,128H5.8c-0.5,0-0.6,0.1-0.8,0.6l-0.8,3H4.8z"/>
		<path class="st0" d="M18.3,130.7l-0.6-0.1c0-0.3,0-0.6,0-0.7c0-1.3-0.5-2-1.4-2c-0.3,0-0.4,0-0.5,0.5l-1.5,5.7
			c-0.1,0.5-0.2,0.6-0.2,0.8c0,0.3,0.2,0.3,1,0.3h0.3l-0.1,0.6h-4.8l0.1-0.6h0.3c0.5,0,0.8,0,0.9-0.2c0.1-0.1,0.1-0.1,0.3-0.9
			l1.6-5.8c0-0.1,0-0.2,0-0.3c0-0.1-0.1-0.2-0.3-0.2c-1,0-1.8,0.8-2.6,2.7l-0.6-0.2l0.9-3.2h7.8L18.3,130.7z"/>
		<path class="st0" d="M19.9,135.1c0,0.6-0.5,1-1.1,1c-0.6,0-1-0.5-1-1c0-0.6,0.5-1,1-1S19.9,134.6,19.9,135.1z"/>
		<path class="st0" d="M33.5,130.3h-0.6c0-0.8-0.1-1.2-0.3-1.5c-0.2-0.5-0.8-0.8-1.6-0.8h-0.4c-0.5,0-0.6,0.1-0.8,0.6l-0.7,2.6h0.3
			c1,0,1.6-0.4,2-1.5l0.6,0.1l-1.1,4l-0.6-0.1c0-0.3,0.1-0.5,0.1-0.7c0-0.8-0.4-1.2-1.1-1.2h-0.3l-0.6,2.4c-0.1,0.4-0.2,0.6-0.2,0.8
			c0,0.3,0.2,0.3,0.9,0.3h0.3l-0.1,0.6h-4.5l0.1-0.6h0c0.8,0,1-0.1,1.1-0.6l0.1-0.5l1.4-5.2c0.1-0.4,0.2-0.6,0.2-0.8
			c0-0.3-0.2-0.3-0.9-0.3h-0.2l0.1-0.6H34L33.5,130.3z"/>
		<path class="st0" d="M33.6,136l0.1-0.6h0.1c0.5,0,0.8,0,0.9-0.2c0.1-0.1,0.1-0.1,0.3-0.9l1.4-5.2c0.1-0.4,0.2-0.6,0.2-0.8
			c0-0.3-0.2-0.3-0.9-0.3h-0.3l0.1-0.6h4.5l-0.1,0.6h-0.1c-0.5,0-0.8,0-0.9,0.2c-0.1,0.1-0.1,0.1-0.3,0.9l-1.4,5.2
			c-0.2,0.7-0.2,0.7-0.2,0.8c0,0.3,0.2,0.3,0.9,0.3h0.3L38,136H33.6z"/>
		<path class="st0" d="M42.7,134.3c-0.1,0.4-0.2,0.6-0.2,0.8c0,0.3,0.2,0.3,0.9,0.3h0.3l-0.1,0.6h-4.5l0.1-0.6h0
			c0.5,0,0.8,0,0.9-0.2c0.1-0.1,0.1-0.1,0.3-0.9l1.4-5.2c0.1-0.5,0.2-0.6,0.2-0.8c0-0.3-0.2-0.3-0.9-0.3H41l0.1-0.6h4.2
			c1.2,0,2,0.1,2.5,0.4s1,0.9,1,1.6c0,1.4-1.2,2.2-3.4,2.4c0.6,0.2,0.9,0.3,1.2,0.7c0.3,0.4,0.5,0.8,0.5,1.5v0.4
			c0,0.8,0,0.8,0.1,0.9c0.1,0.1,0.1,0.1,0.2,0.1c0.2,0,0.5-0.3,0.6-0.6c0.1-0.1,0.1-0.2,0.2-0.5l0.5,0.3c-0.4,1.2-1.1,1.8-2.1,1.8
			c-1,0-1.7-0.7-1.7-1.7c0-0.3,0-0.6,0.1-1c0-0.3,0.1-0.5,0.1-0.7c0-0.7-0.4-1-1.2-1h-0.4L42.7,134.3z M44,131.2
			c1.1,0,1.4-0.1,1.8-0.4c0.5-0.3,0.8-1,0.8-1.6c0-0.8-0.5-1.2-1.3-1.2h-0.3c-0.4,0-0.6,0.1-0.6,0.5l-0.7,2.7H44z"/>
		<path class="st0" d="M57.1,130.6l-0.6-0.1c0-0.7-0.1-1.1-0.3-1.5c-0.4-0.8-1.1-1.2-2-1.2c-1,0-1.7,0.5-1.7,1.3
			c0,0.3,0.1,0.6,0.4,0.9c0.2,0.2,0.5,0.3,1,0.5c0.9,0.3,1.6,0.6,2.1,0.9c0.7,0.4,1.1,1.1,1.1,2c0,1.7-1.4,2.9-3.5,2.9
			c-1.1,0-1.8-0.3-2.6-1l-0.7,0.8h-0.5l0.6-3.4l0.6,0.1v0.2c0,1.6,1,2.7,2.6,2.7c1.1,0,1.9-0.6,1.9-1.4c0-0.7-0.4-1-2.1-1.6
			c-1-0.3-1.4-0.5-1.7-0.9c-0.4-0.4-0.7-1-0.7-1.6c0-1.7,1.4-2.9,3.2-2.9c0.9,0,1.7,0.3,2.4,0.9l0.6-0.6h0.5L57.1,130.6z"/>
		<path class="st0" d="M66.6,130.7l-0.6-0.1c0-0.3,0-0.6,0-0.7c0-1.3-0.5-2-1.4-2c-0.3,0-0.4,0-0.5,0.5l-1.5,5.7
			c-0.1,0.5-0.2,0.6-0.2,0.8c0,0.3,0.2,0.3,1,0.3h0.3l-0.1,0.6h-4.8l0.1-0.6h0.3c0.5,0,0.8,0,0.9-0.2c0.1-0.1,0.1-0.1,0.3-0.9
			l1.6-5.8c0-0.1,0-0.2,0-0.3c0-0.1-0.1-0.2-0.3-0.2c-1,0-1.8,0.8-2.6,2.7l-0.6-0.2l0.9-3.2h7.8L66.6,130.7z"/>
		<path class="st0" d="M74.9,127.3h4.5l-0.1,0.6h0c-0.5,0-0.8,0-0.9,0.2c-0.1,0.1-0.1,0.1-0.3,0.9l-1,3.6c-0.4,1.6-0.4,1.6-0.6,1.9
			c-0.6,1.1-1.5,1.5-2.9,1.5c-1.8,0-2.8-0.8-2.8-2.2c0-1.1,0.7-1.9,1.6-1.9c0.8,0,1.3,0.5,1.3,1.2c0,0.6-0.5,1.1-1,1.1
			c-0.2,0-0.3,0-0.5-0.2c-0.2-0.1-0.2-0.1-0.3-0.1c-0.1,0-0.2,0.1-0.2,0.3c0,0.6,0.6,1.1,1.3,1.1c0.6,0,1.1-0.3,1.4-0.9
			c0.3-0.4,0.3-0.5,0.6-1.8l1-3.8c0.1-0.4,0.2-0.6,0.2-0.8c0-0.3-0.2-0.3-0.9-0.3h-0.4L74.9,127.3z"/>
		<path class="st0" d="M85.9,134.6c0.1,0.6,0.3,0.7,1.1,0.7h0.2l-0.1,0.6h-4.5l0.1-0.6h0.2c0.5,0,0.6,0,0.8-0.1
			c0.1,0,0.2-0.2,0.2-0.3c0-0.1,0-0.2,0-0.4l-0.2-1.2h-2.8l-0.6,1c-0.1,0.2-0.2,0.4-0.2,0.5c0,0.3,0.3,0.5,1,0.5h0.2l-0.1,0.6h-3.4
			l0.1-0.6h0.1c0.5,0,1.1-0.5,1.6-1.2l4.2-6.9h0.7L85.9,134.6z M82.9,129.8l-1.7,2.9h2.2L82.9,129.8z"/>
		<path class="st0" d="M94.7,128.8c0.3-0.2,0.4-0.4,0.4-0.5c0-0.2-0.2-0.3-0.5-0.3h-0.4l0.1-0.6h3.6l-0.1,0.6c-0.8,0-1.4,0.3-2.1,1
			l-1.9,1.8l1.7,3.7c0.4,0.8,0.5,0.9,1.3,0.9h0.2l-0.1,0.6h-4.5l0.1-0.6h0.4c0.6,0,0.7-0.1,0.7-0.3c0-0.1,0-0.1-0.1-0.4l-1.2-2.6
			l-1,0.9l-0.3,1.2c-0.1,0.4-0.2,0.6-0.2,0.8c0,0.3,0.2,0.3,0.9,0.3h0.1l-0.1,0.6h-4.3l0.1-0.6h0c0.5,0,0.8-0.1,0.9-0.2
			c0.1-0.1,0.1-0.1,0.3-0.9l1.4-5.2c0.1-0.4,0.2-0.6,0.2-0.8c0-0.3-0.2-0.3-0.9-0.3h-0.2l0.1-0.6h4.5l-0.1,0.6h-0.1
			c-0.5,0-0.8,0-0.9,0.2c-0.1,0.1-0.1,0.1-0.3,0.9l-0.7,2.7L94.7,128.8z"/>
		<path class="st0" d="M104.8,134.6c0.1,0.6,0.3,0.7,1.1,0.7h0.2L106,136h-4.5l0.1-0.6h0.2c0.5,0,0.6,0,0.8-0.1
			c0.1,0,0.2-0.2,0.2-0.3c0-0.1,0-0.2,0-0.4l-0.2-1.2h-2.8l-0.6,1c-0.1,0.2-0.2,0.4-0.2,0.5c0,0.3,0.3,0.5,1,0.5h0.2L100,136h-3.4
			l0.1-0.6h0.1c0.5,0,1.1-0.5,1.6-1.2l4.2-6.9h0.7L104.8,134.6z M101.8,129.8l-1.7,2.9h2.2L101.8,129.8z"/>
		<path class="st0" d="M109.7,134.3c-0.1,0.4-0.2,0.6-0.2,0.8c0,0.3,0.2,0.3,0.9,0.3h0.3l-0.1,0.6h-4.5l0.1-0.6h0
			c0.5,0,0.8,0,0.9-0.2c0.1-0.1,0.1-0.1,0.3-0.9l1.4-5.2c0.1-0.5,0.2-0.6,0.2-0.8c0-0.3-0.2-0.3-0.9-0.3H108l0.1-0.6h4.2
			c1.2,0,2,0.1,2.5,0.4s1,0.9,1,1.6c0,1.4-1.2,2.2-3.4,2.4c0.6,0.2,0.9,0.3,1.2,0.7c0.3,0.4,0.5,0.8,0.5,1.5v0.4
			c0,0.8,0,0.8,0.1,0.9c0.1,0.1,0.1,0.1,0.2,0.1c0.2,0,0.5-0.3,0.6-0.6c0.1-0.1,0.1-0.2,0.2-0.5l0.5,0.3c-0.4,1.2-1.1,1.8-2.1,1.8
			c-1,0-1.7-0.7-1.7-1.7c0-0.3,0-0.6,0.1-1c0-0.3,0.1-0.5,0.1-0.7c0-0.7-0.4-1-1.2-1h-0.4L109.7,134.3z M111,131.2
			c1.1,0,1.4-0.1,1.8-0.4c0.5-0.3,0.8-1,0.8-1.6c0-0.8-0.5-1.2-1.3-1.2h-0.3c-0.4,0-0.6,0.1-0.6,0.5l-0.7,2.7H111z"/>
		<path class="st0" d="M125,130.7l-0.6-0.1c0-0.3,0-0.6,0-0.7c0-1.3-0.5-2-1.4-2c-0.3,0-0.4,0-0.5,0.5l-1.5,5.7
			c-0.1,0.5-0.2,0.6-0.2,0.8c0,0.3,0.2,0.3,1,0.3h0.3L122,136h-4.8l0.1-0.6h0.3c0.5,0,0.8,0,0.9-0.2c0.1-0.1,0.1-0.1,0.3-0.9
			l1.6-5.8c0-0.1,0-0.2,0-0.3c0-0.1-0.1-0.2-0.3-0.2c-1,0-1.8,0.8-2.6,2.7l-0.6-0.2l0.9-3.2h7.8L125,130.7z"/>
		<path class="st0" d="M132.1,134.6c0.1,0.6,0.3,0.7,1.1,0.7h0.2l-0.1,0.6h-4.5l0.1-0.6h0.2c0.5,0,0.6,0,0.8-0.1
			c0.1,0,0.2-0.2,0.2-0.3c0-0.1,0-0.2,0-0.4l-0.2-1.2H127l-0.6,1c-0.1,0.2-0.2,0.4-0.2,0.5c0,0.3,0.3,0.5,1,0.5h0.2l-0.1,0.6h-3.4
			l0.1-0.6h0.1c0.5,0,1.1-0.5,1.6-1.2l4.2-6.9h0.7L132.1,134.6z M129.1,129.8l-1.7,2.9h2.2L129.1,129.8z"/>
		<path class="st0" d="M137.3,136l0.1-0.6h0.1c0.5,0,0.8,0,0.9-0.2c0.1-0.1,0.1-0.1,0.3-0.9l1.4-5.2c0.1-0.4,0.2-0.6,0.2-0.8
			c0-0.3-0.2-0.3-0.9-0.3h-0.3l0.1-0.6h4.5l-0.1,0.6h-0.1c-0.5,0-0.8,0-0.9,0.2c-0.1,0.1-0.1,0.1-0.3,0.9l-1.4,5.2
			c-0.2,0.7-0.2,0.7-0.2,0.8c0,0.3,0.2,0.3,0.9,0.3h0.3l-0.1,0.6H137.3z"/>
		<path class="st0" d="M150.9,133.4l0.9-3.5c0.3-1,0.3-1,0.3-1.3c0-0.4-0.4-0.7-1.1-0.7l0.1-0.6h3.3l-0.1,0.6c-0.4,0-0.7,0.1-1,0.3
			c-0.3,0.3-0.4,0.4-0.7,1.6l-1.7,6.2h-1l-3.5-6.8l-1.1,4c-0.2,1-0.3,1-0.3,1.3c0,0.4,0.3,0.7,1,0.7h0.1l-0.1,0.6h-3.4l0.1-0.6
			c0.4,0,0.7-0.1,1-0.3c0.3-0.3,0.4-0.4,0.7-1.6l1.4-5c-0.1-0.3-0.3-0.4-0.7-0.4h-0.7l0.1-0.6h3L150.9,133.4z"/>
		<path class="st0" d="M162.7,130.7l-0.6-0.1c0-0.3,0-0.6,0-0.7c0-1.3-0.5-2-1.4-2c-0.3,0-0.4,0-0.5,0.5l-1.5,5.7
			c-0.1,0.5-0.2,0.6-0.2,0.8c0,0.3,0.2,0.3,1,0.3h0.3l-0.1,0.6h-4.8l0.1-0.6h0.3c0.5,0,0.8,0,0.9-0.2c0.1-0.1,0.1-0.1,0.3-0.9
			l1.6-5.8c0-0.1,0-0.2,0-0.3c0-0.1-0.1-0.2-0.3-0.2c-1,0-1.8,0.8-2.6,2.7l-0.6-0.2l0.9-3.2h7.8L162.7,130.7z"/>
		<path class="st0" d="M171.3,130.3h-0.6c0-0.8-0.1-1.2-0.3-1.5c-0.2-0.5-0.8-0.8-1.6-0.8h-0.5c-0.5,0-0.6,0.1-0.8,0.6l-0.7,2.6h0.3
			c1,0,1.6-0.4,2-1.5l0.6,0.1l-1.1,4l-0.6-0.1c0-0.4,0.1-0.5,0.1-0.7c0-0.8-0.4-1.2-1.1-1.2h-0.3l-0.8,2.8c0,0.2-0.1,0.3-0.1,0.4
			c0,0.2,0.2,0.3,0.6,0.3h0.4c1,0,1.7-0.3,2.4-1c0.5-0.4,0.8-0.9,1.1-1.4l0.6,0.1l-0.8,3h-7.7l0.1-0.6h0c0.8,0,1-0.1,1.1-0.6
			l0.1-0.5l1.4-5.2c0.1-0.4,0.2-0.6,0.2-0.8c0-0.3-0.2-0.3-0.9-0.3h-0.2l0.1-0.6h7.4L171.3,130.3z"/>
		<path class="st0" d="M175.3,134.3c-0.1,0.4-0.2,0.6-0.2,0.8c0,0.3,0.2,0.3,0.9,0.3h0.3l-0.1,0.6h-4.5l0.1-0.6h0
			c0.5,0,0.8,0,0.9-0.2c0.1-0.1,0.1-0.1,0.3-0.9l1.4-5.2c0.1-0.5,0.2-0.6,0.2-0.8c0-0.3-0.2-0.3-0.9-0.3h-0.2l0.1-0.6h4.2
			c1.2,0,2,0.1,2.5,0.4c0.6,0.3,1,0.9,1,1.6c0,1.4-1.2,2.2-3.4,2.4c0.6,0.2,0.9,0.3,1.2,0.7c0.3,0.4,0.5,0.8,0.5,1.5v0.4
			c0,0.8,0,0.8,0.1,0.9c0.1,0.1,0.1,0.1,0.2,0.1c0.2,0,0.5-0.3,0.6-0.6c0.1-0.1,0.1-0.2,0.2-0.5l0.5,0.3c-0.4,1.2-1.1,1.8-2.1,1.8
			c-1,0-1.7-0.7-1.7-1.7c0-0.3,0-0.6,0.1-1c0-0.3,0.1-0.5,0.1-0.7c0-0.7-0.4-1-1.2-1h-0.4L175.3,134.3z M176.5,131.2
			c1.1,0,1.4-0.1,1.8-0.4c0.5-0.3,0.8-1,0.8-1.6c0-0.8-0.5-1.2-1.3-1.2h-0.3c-0.4,0-0.6,0.1-0.6,0.5l-0.7,2.7H176.5z"/>
		<path class="st0" d="M189.6,133.4l0.9-3.5c0.3-1,0.3-1,0.3-1.3c0-0.4-0.4-0.7-1.1-0.7l0.1-0.6h3.3L193,128c-0.4,0-0.7,0.1-1,0.3
			c-0.3,0.3-0.4,0.4-0.7,1.6l-1.7,6.2h-1l-3.5-6.8l-1.1,4c-0.2,1-0.3,1-0.3,1.3c0,0.4,0.3,0.7,1,0.7h0.1l-0.1,0.6h-3.4l0.1-0.6
			c0.4,0,0.7-0.1,1-0.3c0.3-0.3,0.4-0.4,0.7-1.6l1.4-5c-0.1-0.3-0.3-0.4-0.7-0.4h-0.7l0.1-0.6h3L189.6,133.4z"/>
		<path class="st0" d="M199.7,134.6c0.1,0.6,0.3,0.7,1.1,0.7h0.2l-0.1,0.6h-4.5l0.1-0.6h0.2c0.5,0,0.6,0,0.8-0.1
			c0.1,0,0.2-0.2,0.2-0.3c0-0.1,0-0.2,0-0.4l-0.2-1.2h-2.8l-0.6,1c-0.1,0.2-0.2,0.4-0.2,0.5c0,0.3,0.3,0.5,1,0.5h0.2l-0.1,0.6h-3.4
			l0.1-0.6h0.1c0.5,0,1.1-0.5,1.6-1.2l4.2-6.9h0.7L199.7,134.6z M196.7,129.8l-1.7,2.9h2.2L196.7,129.8z"/>
		<path class="st0" d="M210.1,130.7l-0.6-0.1c0-0.3,0-0.6,0-0.7c0-1.3-0.5-2-1.4-2c-0.3,0-0.4,0-0.5,0.5l-1.5,5.7
			c-0.1,0.5-0.2,0.6-0.2,0.8c0,0.3,0.2,0.3,1,0.3h0.3L207,136h-4.8l0.1-0.6h0.3c0.5,0,0.8,0,0.9-0.2c0.1-0.1,0.1-0.1,0.3-0.9
			l1.6-5.8c0-0.1,0-0.2,0-0.3c0-0.1-0.1-0.2-0.3-0.2c-1,0-1.8,0.8-2.6,2.7l-0.6-0.2l0.9-3.2h7.8L210.1,130.7z"/>
		<path class="st0" d="M210,136l0.1-0.6h0.1c0.5,0,0.8,0,0.9-0.2c0.1-0.1,0.1-0.1,0.3-0.9l1.4-5.2c0.1-0.4,0.2-0.6,0.2-0.8
			c0-0.3-0.2-0.3-0.9-0.3h-0.3l0.1-0.6h4.5l-0.1,0.6h-0.1c-0.5,0-0.8,0-0.9,0.2c-0.1,0.1-0.1,0.1-0.3,0.9l-1.4,5.2
			c-0.2,0.7-0.2,0.7-0.2,0.8c0,0.3,0.2,0.3,0.9,0.3h0.3l-0.1,0.6H210z"/>
		<path class="st0" d="M224.7,128.3c0.7,0.7,1,1.5,1,2.5c0,3-2.5,5.5-5.5,5.5c-2.2,0-3.7-1.4-3.7-3.6c0-1.4,0.6-2.9,1.7-3.9
			c1.1-1,2.3-1.5,3.8-1.5C223.1,127.2,224,127.5,224.7,128.3z M219.8,129.7c-0.6,1.2-1,2.9-1,4c0,1.1,0.6,1.8,1.5,1.8
			c0.9,0,1.6-0.6,2.3-1.9c0.6-1.1,1-2.6,1-3.9c0-0.6-0.1-1-0.3-1.3c-0.2-0.4-0.7-0.6-1.2-0.6C221.1,127.8,220.4,128.4,219.8,129.7z"
			/>
		<path class="st0" d="M233.9,133.4l0.9-3.5c0.3-1,0.3-1,0.3-1.3c0-0.4-0.4-0.7-1.1-0.7l0.1-0.6h3.3l-0.1,0.6c-0.4,0-0.7,0.1-1,0.3
			c-0.3,0.3-0.4,0.4-0.7,1.6l-1.7,6.2h-1l-3.5-6.8l-1.1,4c-0.2,1-0.3,1-0.3,1.3c0,0.4,0.3,0.7,1,0.7h0.1l-0.1,0.6h-3.4l0.1-0.6
			c0.4,0,0.7-0.1,1-0.3c0.3-0.3,0.4-0.4,0.7-1.6l1.4-5c-0.1-0.3-0.3-0.4-0.7-0.4h-0.7l0.1-0.6h3L233.9,133.4z"/>
		<path class="st0" d="M244,134.6c0.1,0.6,0.3,0.7,1.1,0.7h0.2l-0.1,0.6h-4.5l0.1-0.6h0.2c0.5,0,0.6,0,0.8-0.1
			c0.1,0,0.2-0.2,0.2-0.3c0-0.1,0-0.2,0-0.4l-0.2-1.2h-2.8l-0.6,1c-0.1,0.2-0.2,0.4-0.2,0.5c0,0.3,0.3,0.5,1,0.5h0.2l-0.1,0.6h-3.4
			l0.1-0.6h0.1c0.5,0,1.1-0.5,1.6-1.2l4.2-6.9h0.7L244,134.6z M241,129.8l-1.7,2.9h2.2L241,129.8z"/>
		<path class="st0" d="M253.9,132.9l-0.8,3.1h-7.7l0.1-0.6h0c0.5,0,0.8,0,0.9-0.2c0.1-0.1,0.1-0.1,0.3-0.9l1.4-5.2
			c0.1-0.4,0.2-0.6,0.2-0.8c0-0.3-0.2-0.3-0.9-0.3h-0.2l0.1-0.6h4.6l-0.1,0.6h-0.2c-0.5,0-0.8,0-0.9,0.2c-0.1,0.1-0.1,0.1-0.3,0.9
			l-1.4,5.2c-0.1,0.4-0.2,0.7-0.2,0.8c0,0.2,0.2,0.3,0.6,0.3h0.4c1,0,1.7-0.3,2.4-1c0.5-0.5,0.8-0.9,1.1-1.5L253.9,132.9z"/>
	</g>
</g>
</svg>
