<?xml version="1.0" encoding="utf-8"?>
<!-- Generator: Adobe Illustrator 21.1.0, SVG Export Plug-In . SVG Version: 6.00 Build 0)  -->
<svg version="1.1" id="Layer_1" xmlns="http://www.w3.org/2000/svg" xmlns:xlink="http://www.w3.org/1999/xlink" x="0px" y="0px"
	 viewBox="0 0 376.8 46.5" style="enable-background:new 0 0 376.8 46.5;" xml:space="preserve">
<style type="text/css">
	.st0{fill:#FFFFFF;}
	.st1{enable-background:new    ;}
</style>
<g>
	<path id="Logo_FJI_OK_08082019" class="st0" d="M36.7,0v2.7h-0.8V0h-0.5v2.7h-2V0h-0.5v2.7h-0.5V0h-0.5v2.7h-0.3v3.9h-0.9v0.5l0,0
		v2h-1.5V8.3h-0.5v0.9h-0.7V8.3h-0.5v0.9h-0.8v2.3h-0.2v0.2l0,0v5.2h-0.7v-1.2h-0.5v1.2h-0.8v-1.2h-0.5v26.8h-1v-1.3h-0.5v1.3h-1.8
		v-1.3H20v1.3h-2.9v-1.3h-0.5v1.3h-1.8v-1.3h-0.5v1.3h-1V15.6h-0.5v1.2h-0.8v-1.2h-0.5v1.2h-0.7v-5.2l0,0v-0.2h-0.2V9.2H9.8V8.3H9.3
		v0.9H8.6V8.3H8.1v0.9H6.6V6.7H5.7V3.2l0,0V2.7H5.4V0H4.9v2.7H4.4V0H3.9v2.7h-2V0H1.3v2.7H0.5V0H0v46.5h37.2V0H36.7z M35.8,7.2h0.8
		v2h-0.8V7.2z M35.3,9.2h-2v-2h2L35.3,9.2z M36.7,3.2v3.4h-0.8V3.2L36.7,3.2z M35.3,3.2v3.4h-2V3.2L35.3,3.2z M32,3.2h0.7v3.4H32
		V3.2z M31.1,7.2h1.7v2h-1.7V7.2z M31.5,9.7v0.7h-2.4V9.7H31.5z M28.6,12v2.1h-0.7V12H28.6z M27.8,11.5v-0.7h0.7v0.7H27.8z
		 M27.8,14.6h0.7v2.2h-0.7V14.6z M27.8,17.4h0.7v1.9h-0.7V17.4z M27.8,19.8h0.7v2.1h-0.7V19.8z M27.8,22.4h0.7v2h-0.7V22.4z
		 M27.8,24.8h0.7v1.9h-0.7V24.8z M27.8,27.2h0.7v2h-0.7V27.2z M27.8,29.7h0.7v2h-0.7V29.7z M27.8,32.2h0.7v2h-0.7V32.2z M27.8,34.6
		h0.7v2h-0.7V34.6z M29.1,34.6h2.5v2h-2.5L29.1,34.6z M29.1,34.1v-2h2.5v2L29.1,34.1z M29.1,31.7v-2h2.5v2H29.1z M29.1,29.2v-2h2.5
		v2L29.1,29.2z M29.1,26.7v-1.9h2.5v1.9L29.1,26.7z M29.1,24.4v-2h2.5v2L29.1,24.4z M29.1,21.9v-2.1h2.5v2.1L29.1,21.9z M29.1,19.3
		v-1.9h2.5v1.9L29.1,19.3z M29.1,16.9v-2.2h2.5v2.2L29.1,16.9z M29.1,14.1V12h2.5v2.1L29.1,14.1L29.1,14.1z M27.8,37.1h0.7V39h-0.7
		V37.1z M29.1,37.1h2.5V39h-2.5V37.1z M32,37.1h0.7V39H32V37.1z M32,36.6v-2h0.7v2H32z M32,34.1v-2h0.7v2H32z M32,31.7v-2h0.7v2H32z
		 M32,29.2v-2h0.7v2L32,29.2z M32,26.7v-1.9h0.7v1.9L32,26.7z M32,24.3v-1.9h0.7v2L32,24.3z M32,21.9v-2.1h0.7v2.1L32,21.9z
		 M32,19.2v-1.9h0.7v1.9L32,19.2z M32,16.9v-2.2h0.7v2.2L32,16.9z M32,14.1V12h0.7v2.1L32,14.1L32,14.1z M32,11.5v-0.7h0.7v0.7H32z
		 M31.5,11.5h-2.5v-0.7h2.5L31.5,11.5z M28.6,9.7v0.7h-0.7V9.7H28.6z M27.3,9.7v0.7H27V9.7H27.3z M27,10.8h0.3v0.7H27V10.8z
		 M26.3,17.4v0.9h-0.7v-0.9H26.3z M25.1,17.4v0.9h-0.8v-0.9H25.1z M24.3,18.7h0.8v23.7h-0.8V18.7z M25.1,44.7h-0.8v-1.8h0.8
		L25.1,44.7z M23.8,42.9v1.8h-1v-1.8H23.8z M22.4,42.9v1.8h-1.8v-1.8H22.4z M18.8,42.9H20v1.8h-2.9v-1.8H18.8z M16.6,42.9v1.8h-1.8
		v-1.8H16.6z M14.3,42.9v1.8h-1v-1.8H14.3z M12.9,17.4v0.9h-0.8v-0.9H12.9z M11.6,17.4v0.9h-0.7v-0.9H11.6z M9.8,11.5v-0.7h0.3v0.7
		H9.8z M5.1,10.8v0.7H4.4v-0.7H5.1z M9.3,36.6H8.6v-2h0.7V36.6z M8.1,19.8v2.1H5.6v-2.1H8.1z M5.6,19.3v-1.9h2.5v1.9L5.6,19.3z
		 M8.1,22.4v2H5.6v-2H8.1z M8.1,24.8v1.9H5.6v-1.9L8.1,24.8z M8.1,27.2v2H5.6v-2L8.1,27.2z M8.1,29.7v2H5.6v-2H8.1z M8.1,32.2v2H5.6
		v-2L8.1,32.2z M8.1,34.6v2H5.6v-2L8.1,34.6z M9.3,34.1H8.6v-2h0.7V34.1z M9.3,31.7H8.6v-2h0.7V31.7z M9.3,29.2H8.6v-2h0.7V29.2z
		 M9.3,26.7H8.6v-1.9h0.7V26.7z M9.3,24.4H8.6v-2h0.7V24.4z M9.3,21.9H8.6v-2.1h0.7V21.9z M9.3,19.3H8.6v-1.9h0.7V19.3z M9.3,16.9
		H8.6v-2.3h0.7V16.9z M8.1,16.9H5.6v-2.3h2.5V16.9z M5.6,14.1V12h2.5v2.1L5.6,14.1L5.6,14.1z M5.6,11.5v-0.7h2.5v0.7H5.6z M5.1,12
		v2.1H4.4V12L5.1,12z M5.1,14.6v2.2H4.4v-2.2L5.1,14.6z M5.1,17.4v1.9H4.4v-1.9L5.1,17.4z M5.1,19.8v2.1H4.4v-2.1L5.1,19.8z
		 M5.1,22.4v2H4.4v-2L5.1,22.4z M5.1,24.8v1.9H4.4v-1.9L5.1,24.8z M5.1,27.2v2H4.4v-2L5.1,27.2z M5.1,29.7v2H4.4v-2H5.1z M5.1,32.2
		v2H4.4v-2L5.1,32.2z M5.1,34.6v2H4.4v-2L5.1,34.6z M5.1,37.1V39H4.4v-1.9L5.1,37.1z M5.6,37.1h2.5V39H5.6V37.1z M8.6,37.1h0.7V39
		H8.6V37.1z M9.3,14.1H8.6V12h0.7V14.1z M8.6,11.5v-0.7h0.7v0.7H8.6z M10.2,9.7v0.7H9.8V9.7H10.2z M9.3,9.7v0.7H8.6V9.7H9.3z
		 M8.1,10.3H5.6V9.7h2.5L8.1,10.3z M6.1,9.2H4.4v-2h1.7L6.1,9.2z M0.5,7.2h0.8v2H0.5L0.5,7.2L0.5,7.2z M1.9,7.2h2v2h-2L1.9,7.2z
		 M5.2,3.2v3.4H4.4V3.2L5.2,3.2z M3.9,3.2v3.4h-2V3.2L3.9,3.2z M1.3,3.2v3.4H0.5V3.2L1.3,3.2z M0.5,46V9.7h0.8V46L0.5,46z M1.9,46
		V9.7h3.3v0.7H3.9v1.2H2.7V12l0,0v34L1.9,46z M3.2,46V12h0.7v2.1l0,0v0.5l0,0v2.2l0,0v0.5l0,0v1.9l0,0v0.5l0,0v2.1l0,0v0.5l0,0v1.9
		l0,0v0.5l0,0v1.9l0,0v0.5l0,0v2l0,0v0.5l0,0v2l0,0v0.5l0,0v2l0,0v0.5l0,0v2l0,0v0.5l0,0v1.9l0,0v0.5l0,0v6.5L3.2,46L3.2,46z
		 M4.4,46v-6.5h0.8V46L4.4,46z M5.6,46v-6.5h2.5V46L5.6,46z M8.6,46v-6.5h0.7V46L8.6,46z M9.8,46V12h0.6v34L9.8,46z M10.9,46V18.7
		h0.7V46H10.9z M12.1,46V18.7h0.8v23.7h-0.4v0.5h0.4v1.8h-0.4v0.5h0.4v0.9L12.1,46L12.1,46z M13.3,46v-0.9h1V46H13.3z M14.8,46v-0.9
		h1.8V46H14.8z M18.8,46h-1.7v-0.9H20V46H18.8z M20.5,46v-0.9h1.8V46H20.5z M22.9,46v-0.9h1V46H22.9z M24.3,46v-0.9h0.8V46H24.3z
		 M25.6,46V18.7h0.7V46H25.6z M26.8,46V12h0.6v34L26.8,46z M27.8,46v-6.5h0.7V46L27.8,46z M29.1,46v-6.5h2.5V46L29.1,46z M32,46
		v-6.5h0.7V46L32,46z M33.3,46v-6.5l0,0V39l0,0v-1.9l0,0v-0.5l0,0v-2l0,0v-0.5l0,0v-2l0,0v-0.5l0,0v-2l0,0v-0.5l0,0v-2l0,0v-0.5l0,0
		v-1.9l0,0v-0.4l0,0v-1.9l0,0v-0.5l0,0v-2.1l0,0v-0.5l0,0v-1.9l0,0v-0.5l0,0v-2.2l0,0v-0.5l0,0V12H34v34L33.3,46z M34.5,46V12l0,0
		v-0.5h-1.2v-1.2H32V9.7h3.3V46L34.5,46z M35.8,46V9.7h0.8V46L35.8,46z"/>
	<g class="st1">
		<path class="st0" d="M66.4,28l0.1-0.7h0.1c0.5,0,0.9-0.1,1-0.2c0.1-0.1,0.1-0.1,0.4-1l1.5-5.6c0.1-0.4,0.2-0.7,0.2-0.8
			c0-0.3-0.2-0.4-1-0.4h-0.3l0.1-0.7h4.8l-0.1,0.7h-0.1c-0.5,0-0.9,0.1-1,0.2c-0.1,0.1-0.1,0.1-0.4,1l-1.5,5.6
			C70,26.8,70,26.8,70,26.9c0,0.3,0.2,0.4,1,0.4h0.3L71.3,28H66.4z"/>
		<path class="st0" d="M81.1,25.2l1-3.8c0.3-1,0.3-1.1,0.3-1.4c0-0.5-0.4-0.7-1.2-0.7l0.1-0.7H85l-0.1,0.7c-0.4,0-0.8,0.1-1.1,0.4
			C83.4,20,83.4,20,83,21.4l-1.8,6.7h-1l-3.8-7.4l-1.2,4.4c-0.3,1-0.3,1.1-0.3,1.4c0,0.5,0.4,0.7,1.1,0.7h0.1L76,28h-3.7l0.1-0.7
			c0.4,0,0.8-0.1,1.1-0.4c0.4-0.3,0.4-0.4,0.8-1.8l1.5-5.4c-0.2-0.3-0.4-0.4-0.8-0.4h-0.7l0.1-0.7h3.3L81.1,25.2z"/>
		<path class="st0" d="M84,27.3L84,27.3c0.6,0,0.9-0.1,1.1-0.2c0.1-0.1,0.1-0.1,0.4-1l1.5-5.6c0.1-0.4,0.2-0.7,0.2-0.8
			c0-0.3-0.2-0.4-1-0.4h-0.2l0.1-0.7h4.7c1.4,0,2.2,0.2,3,0.7c0.9,0.6,1.4,1.6,1.4,3c0,1.7-0.7,3.3-2,4.4c-1.1,0.9-2.4,1.3-4.7,1.3
			h-4.3L84,27.3z M88.6,27.3c1.1,0,2-0.5,2.7-1.4c0.7-1.1,1.2-2.9,1.2-4.4c0-1.4-0.7-2.2-1.9-2.2h-0.3c-0.6,0-0.8,0.2-1,0.8
			l-1.7,6.2c-0.1,0.5-0.1,0.5-0.1,0.6c0,0.3,0.2,0.4,0.7,0.4H88.6z"/>
		<path class="st0" d="M105.1,19.6c0.7,0.7,1.1,1.6,1.1,2.7c0,3.2-2.7,5.9-5.9,5.9c-2.4,0-4-1.5-4-3.9c0-1.6,0.7-3.1,1.8-4.2
			c1.2-1.1,2.5-1.7,4.1-1.7C103.3,18.4,104.3,18.8,105.1,19.6z M99.7,21.1c-0.6,1.3-1.1,3.1-1.1,4.4c0,1.2,0.6,2,1.7,2
			c0.9,0,1.8-0.7,2.5-2c0.6-1.2,1-2.8,1-4.2c0-0.6-0.1-1.1-0.4-1.4c-0.3-0.4-0.8-0.7-1.3-0.7C101.1,19.1,100.4,19.7,99.7,21.1z"/>
		<path class="st0" d="M115,25.2l1-3.8c0.3-1,0.3-1.1,0.3-1.4c0-0.5-0.4-0.7-1.2-0.7l0.1-0.7h3.6l-0.1,0.7c-0.4,0-0.8,0.1-1.1,0.4
			c-0.4,0.4-0.4,0.4-0.8,1.8l-1.8,6.7h-1l-3.8-7.4l-1.2,4.4c-0.3,1-0.3,1.1-0.3,1.4c0,0.5,0.4,0.7,1.1,0.7h0.1L110,28h-3.7l0.1-0.7
			c0.4,0,0.8-0.1,1.1-0.4c0.4-0.3,0.4-0.4,0.8-1.8l1.5-5.4c-0.2-0.3-0.4-0.4-0.8-0.4h-0.7l0.1-0.7h3.3L115,25.2z"/>
		<path class="st0" d="M127.4,21.8h-0.7c0-0.8-0.1-1.3-0.3-1.7c-0.3-0.5-0.9-0.8-1.8-0.8h-0.5c-0.5,0-0.7,0.1-0.8,0.6l-0.8,2.8h0.3
			c1.1,0,1.7-0.4,2.2-1.6l0.7,0.1l-1.2,4.4l-0.7-0.1c0.1-0.4,0.1-0.6,0.1-0.8c0-0.8-0.4-1.3-1.2-1.3h-0.3l-0.8,3.1
			c-0.1,0.2-0.1,0.3-0.1,0.4c0,0.2,0.2,0.3,0.7,0.3h0.5c1,0,1.8-0.3,2.6-1.1c0.5-0.5,0.8-0.9,1.1-1.5l0.7,0.1l-0.9,3.2h-8.4l0.1-0.7
			h0.1c0.9,0,1.1-0.1,1.2-0.6l0.1-0.5l1.5-5.6c0.1-0.5,0.2-0.7,0.2-0.8c0-0.3-0.2-0.4-1-0.4h-0.2l0.1-0.7h8L127.4,21.8z"/>
		<path class="st0" d="M136.6,22.1l-0.7-0.1c0-0.7-0.1-1.2-0.3-1.6c-0.4-0.8-1.2-1.3-2.1-1.3c-1.1,0-1.9,0.6-1.9,1.4
			c0,0.4,0.1,0.7,0.4,0.9c0.2,0.2,0.5,0.3,1,0.5c1,0.3,1.8,0.7,2.2,0.9c0.8,0.4,1.2,1.2,1.2,2.2c0,1.8-1.5,3.1-3.8,3.1
			c-1.2,0-2-0.3-2.8-1l-0.8,0.8h-0.6l0.6-3.7l0.7,0.1v0.2c0,1.7,1.1,2.9,2.8,2.9c1.2,0,2-0.6,2-1.5c0-0.8-0.5-1.1-2.2-1.7
			c-1.1-0.4-1.5-0.6-1.9-1c-0.5-0.5-0.7-1.1-0.7-1.8c0-1.8,1.5-3.1,3.5-3.1c1,0,1.8,0.3,2.6,1l0.7-0.7h0.6L136.6,22.1z"/>
		<path class="st0" d="M137.3,28l0.1-0.7h0.1c0.5,0,0.9-0.1,1-0.2c0.1-0.1,0.1-0.1,0.4-1l1.5-5.6c0.1-0.4,0.2-0.7,0.2-0.8
			c0-0.3-0.2-0.4-1-0.4h-0.3l0.1-0.7h4.8l-0.1,0.7h-0.1c-0.5,0-0.9,0.1-1,0.2c-0.1,0.1-0.1,0.1-0.4,1l-1.5,5.6
			c-0.2,0.7-0.2,0.7-0.2,0.8c0,0.3,0.2,0.4,1,0.4h0.3l-0.1,0.7H137.3z"/>
		<path class="st0" d="M151.9,26.5c0.1,0.6,0.4,0.8,1.2,0.8h0.2l-0.1,0.7h-4.9l0.1-0.7h0.2c0.5,0,0.7,0,0.9-0.1
			c0.1-0.1,0.2-0.2,0.2-0.3c0-0.1,0-0.2-0.1-0.4l-0.3-1.3h-3l-0.6,1.1c-0.1,0.2-0.2,0.4-0.2,0.6c0,0.4,0.3,0.5,1.1,0.5h0.2l-0.1,0.7
			H143l0.1-0.7h0.1c0.6,0,1.2-0.5,1.7-1.3l4.5-7.5h0.8L151.9,26.5z M148.6,21.3l-1.8,3.1h2.4L148.6,21.3z"/>
		<path class="st0" d="M166.2,22.1l-0.7-0.1c0-0.7-0.1-1.2-0.3-1.6c-0.4-0.8-1.2-1.3-2.1-1.3c-1.1,0-1.9,0.6-1.9,1.4
			c0,0.4,0.1,0.7,0.4,0.9c0.2,0.2,0.5,0.3,1,0.5c1,0.3,1.8,0.7,2.2,0.9c0.8,0.4,1.2,1.2,1.2,2.2c0,1.8-1.5,3.1-3.8,3.1
			c-1.2,0-2-0.3-2.8-1l-0.8,0.8h-0.6l0.6-3.7l0.7,0.1v0.2c0,1.7,1.1,2.9,2.8,2.9c1.2,0,2-0.6,2-1.5c0-0.8-0.5-1.1-2.2-1.7
			c-1.1-0.4-1.5-0.6-1.9-1c-0.5-0.5-0.7-1.1-0.7-1.8c0-1.8,1.5-3.1,3.5-3.1c1,0,1.8,0.3,2.6,1l0.7-0.7h0.6L166.2,22.1z"/>
		<path class="st0" d="M176.5,22.3l-0.7-0.1c0-0.3,0-0.6,0-0.8c0-1.4-0.5-2.1-1.5-2.1c-0.4,0-0.4,0-0.6,0.6l-1.7,6.2
			c-0.2,0.6-0.2,0.7-0.2,0.8c0,0.3,0.2,0.4,1,0.4h0.3l-0.1,0.7H168l0.1-0.7h0.4c0.5,0,0.9-0.1,1-0.2c0.1-0.1,0.1-0.1,0.4-1l1.7-6.3
			c0-0.1,0.1-0.2,0.1-0.3c0-0.1-0.1-0.2-0.4-0.2c-1.1,0-1.9,0.8-2.8,3l-0.7-0.2l0.9-3.5h8.4L176.5,22.3z"/>
		<path class="st0" d="M186.3,19.6c0.7,0.7,1.1,1.6,1.1,2.7c0,3.2-2.7,5.9-5.9,5.9c-2.4,0-4-1.5-4-3.9c0-1.6,0.7-3.1,1.8-4.2
			c1.2-1.1,2.5-1.7,4.1-1.7C184.6,18.4,185.5,18.8,186.3,19.6z M180.9,21.1c-0.6,1.3-1.1,3.1-1.1,4.4c0,1.2,0.6,2,1.7,2
			c0.9,0,1.8-0.7,2.5-2c0.6-1.2,1-2.8,1-4.2c0-0.6-0.1-1.1-0.4-1.4c-0.3-0.4-0.8-0.7-1.3-0.7C182.4,19.1,181.6,19.7,180.9,21.1z"/>
		<path class="st0" d="M197.3,22.4l-0.6-0.1c-0.1-2.2-0.8-3.3-2.1-3.3c-0.9,0-1.6,0.5-2.2,1.4c-0.8,1.3-1.2,3-1.2,4.4
			c0,1.5,0.9,2.5,2.2,2.5c1.2,0,2.4-0.9,2.8-2.1h0.8c-0.2,0.7-0.6,1.3-1.1,1.8c-0.7,0.7-1.7,1.1-2.9,1.1c-1.2,0-2.5-0.4-3.2-1.1
			c-0.7-0.7-1.1-1.7-1.1-2.9c0-3.1,2.6-5.8,5.7-5.8c1,0,1.8,0.3,2.4,1.1l0.7-0.7h0.6L197.3,22.4z"/>
		<path class="st0" d="M205.7,20.1c0.3-0.3,0.4-0.4,0.4-0.5c0-0.2-0.2-0.3-0.5-0.3h-0.5l0.1-0.7h3.9l-0.1,0.7
			c-0.9,0.1-1.5,0.3-2.2,1.1l-2.1,1.9l1.9,4c0.4,0.9,0.5,1,1.4,1h0.2L208,28h-4.9l0.1-0.7h0.4c0.6,0,0.8-0.1,0.8-0.3
			c0-0.1,0-0.1-0.1-0.4l-1.3-2.8l-1.1,1l-0.3,1.3c-0.1,0.4-0.2,0.7-0.2,0.8c0,0.3,0.2,0.4,1,0.4h0.1l-0.1,0.7h-4.7l0.1-0.7h0.1
			c0.5,0,0.9-0.1,1-0.2c0.1-0.1,0.1-0.1,0.4-1l1.5-5.6c0.1-0.5,0.2-0.7,0.2-0.8c0-0.3-0.2-0.4-1-0.4h-0.2l0.1-0.7h4.9l-0.1,0.7h-0.2
			c-0.5,0-0.9,0.1-1,0.2c-0.1,0.1-0.1,0.1-0.4,1l-0.8,2.9L205.7,20.1z"/>
		<path class="st0" d="M221.9,21.8h-0.7c0-0.8-0.1-1.3-0.3-1.7c-0.3-0.5-0.9-0.8-1.8-0.8h-0.5c-0.5,0-0.7,0.1-0.8,0.6l-0.8,2.8h0.3
			c1.1,0,1.7-0.4,2.2-1.6l0.7,0.1l-1.2,4.4l-0.7-0.1c0.1-0.4,0.1-0.6,0.1-0.8c0-0.8-0.4-1.3-1.2-1.3h-0.3l-0.8,3.1
			c-0.1,0.2-0.1,0.3-0.1,0.4c0,0.2,0.2,0.3,0.7,0.3h0.5c1,0,1.8-0.3,2.6-1.1c0.5-0.5,0.8-0.9,1.1-1.5l0.7,0.1l-0.9,3.2h-8.4l0.1-0.7
			h0.1c0.9,0,1.1-0.1,1.2-0.6l0.1-0.5l1.5-5.6c0.1-0.5,0.2-0.7,0.2-0.8c0-0.3-0.2-0.4-1-0.4h-0.2l0.1-0.7h8L221.9,21.8z"/>
		<path class="st0" d="M230.5,26.5c0.3,0.6,0.5,0.7,1.3,0.7h0.3L232,28h-5l0.1-0.7h0.5c0.5,0,0.7-0.1,0.7-0.3c0-0.1,0-0.2-0.1-0.4
			l-0.9-2.2l-1.8,1.7c-0.3,0.3-0.4,0.5-0.4,0.7c0,0.4,0.3,0.5,0.9,0.5h0.3l-0.1,0.7H222l0.1-0.7c0.6,0,1.2-0.2,1.9-1l2.8-2.8
			l-1.6-3.6c-0.2-0.5-0.4-0.6-1-0.6h-0.5l0.1-0.7h4.9l-0.1,0.7h-0.4c-0.5,0-0.7,0.1-0.7,0.3c0,0.1,0,0.2,0.1,0.4l0.9,2l1.6-1.6
			c0.2-0.2,0.3-0.4,0.3-0.6c0-0.3-0.3-0.4-0.8-0.4h-0.2l0.1-0.7h4l-0.1,0.7c-0.9,0.1-1.2,0.2-2.2,1.2l-2.3,2.2L230.5,26.5z"/>
		<path class="st0" d="M241.6,22.4l-0.6-0.1c-0.1-2.2-0.8-3.3-2.1-3.3c-0.9,0-1.6,0.5-2.2,1.4c-0.8,1.3-1.2,3-1.2,4.4
			c0,1.5,0.9,2.5,2.2,2.5c1.2,0,2.4-0.9,2.8-2.1h0.8c-0.2,0.7-0.6,1.3-1.1,1.8c-0.7,0.7-1.7,1.1-2.9,1.1c-1.2,0-2.5-0.4-3.2-1.1
			c-0.7-0.7-1.1-1.7-1.1-2.9c0-3.1,2.6-5.8,5.7-5.8c1,0,1.8,0.3,2.4,1.1l0.7-0.7h0.6L241.6,22.4z"/>
		<path class="st0" d="M246.5,23.5l-0.7,2.5c-0.1,0.4-0.2,0.7-0.2,0.8c0,0.3,0.2,0.4,1,0.4h0.1l-0.1,0.7H242l0.1-0.7h0.1
			c0.9,0,1.1-0.1,1.2-0.6c0-0.2,0.1-0.4,0.1-0.5l1.5-5.6c0.1-0.4,0.2-0.7,0.2-0.8c0-0.3-0.2-0.4-1-0.4h-0.2l0.1-0.7h4.9l-0.1,0.7
			h-0.2c-0.5,0-0.9,0.1-1,0.2c-0.1,0.1-0.1,0.1-0.4,1l-0.6,2.3h3.3l0.6-2.3c0.1-0.5,0.2-0.7,0.2-0.8c0-0.3-0.2-0.4-1-0.4h-0.1
			l0.1-0.7h4.7l-0.1,0.7h-0.1c-0.5,0-0.9,0.1-1,0.2c-0.1,0.1-0.1,0.1-0.3,1l-1.5,5.6c-0.1,0.4-0.2,0.7-0.2,0.8c0,0.3,0.2,0.4,1,0.4
			h0.3l-0.1,0.7h-4.9l0.1-0.7h0.2c0.5,0,0.9-0.1,1-0.2c0.1-0.1,0.1-0.1,0.4-1l0.7-2.5H246.5z"/>
		<path class="st0" d="M262.2,26.5c0.1,0.6,0.4,0.8,1.2,0.8h0.2l-0.1,0.7h-4.9l0.1-0.7h0.2c0.5,0,0.7,0,0.9-0.1
			c0.1-0.1,0.2-0.2,0.2-0.3c0-0.1,0-0.2-0.1-0.4l-0.3-1.3h-3l-0.6,1.1c-0.1,0.2-0.2,0.4-0.2,0.6c0,0.4,0.3,0.5,1.1,0.5h0.2L257,28
			h-3.7l0.1-0.7h0.1c0.6,0,1.2-0.5,1.7-1.3l4.5-7.5h0.8L262.2,26.5z M258.9,21.3l-1.8,3.1h2.4L258.9,21.3z"/>
		<path class="st0" d="M272.3,25.2l1-3.8c0.3-1,0.3-1.1,0.3-1.4c0-0.5-0.4-0.7-1.2-0.7l0.1-0.7h3.6l-0.1,0.7c-0.4,0-0.8,0.1-1.1,0.4
			c-0.4,0.4-0.4,0.4-0.8,1.8l-1.8,6.7h-1l-3.8-7.4l-1.2,4.4c-0.3,1-0.3,1.1-0.3,1.4c0,0.5,0.4,0.7,1.1,0.7h0.1l-0.1,0.7h-3.7
			l0.1-0.7c0.4,0,0.8-0.1,1.1-0.4c0.4-0.3,0.4-0.4,0.8-1.8l1.5-5.4c-0.2-0.3-0.4-0.4-0.8-0.4h-0.7l0.1-0.7h3.3L272.3,25.2z"/>
		<path class="st0" d="M284.8,22.3l-0.7-0.1c0-0.7-0.1-1.2-0.3-1.8c-0.3-0.9-1-1.4-1.9-1.4c-1,0-1.9,0.7-2.6,2c-0.6,1.1-1,2.7-1,3.9
			c0,0.6,0.1,1.2,0.3,1.6c0.3,0.5,0.9,0.9,1.5,0.9c0.8,0,1.5-0.6,1.8-1.5c0.1-0.4,0.3-1.2,0.3-1.3c0-0.3-0.2-0.4-1-0.4H281l0.1-0.7
			h4.8l-0.1,0.7h-0.1c-0.9,0-1.1,0.1-1.2,0.6c-0.1,0.2-0.1,0.4-0.2,0.5l-0.7,2.7H283l-0.2-1.2c-0.7,0.8-1.6,1.2-2.8,1.2
			c-0.9,0-1.8-0.3-2.6-0.8c-0.9-0.6-1.5-1.8-1.5-3.1c0-3.2,2.7-5.9,5.9-5.9c1.1,0,1.7,0.3,2.4,1l0.8-0.8h0.6L284.8,22.3z"/>
		<path class="st0" d="M295.4,21.8h-0.7c0-0.8-0.1-1.3-0.3-1.7c-0.3-0.5-0.9-0.8-1.8-0.8h-0.5c-0.5,0-0.7,0.1-0.8,0.6l-0.8,2.8h0.3
			c1.1,0,1.7-0.4,2.2-1.6l0.7,0.1l-1.2,4.4l-0.7-0.1c0.1-0.4,0.1-0.6,0.1-0.8c0-0.8-0.4-1.3-1.2-1.3h-0.3l-0.8,3.1
			c-0.1,0.2-0.1,0.3-0.1,0.4c0,0.2,0.2,0.3,0.7,0.3h0.5c1,0,1.8-0.3,2.6-1.1c0.5-0.5,0.8-0.9,1.1-1.5l0.7,0.1l-0.9,3.2h-8.4l0.1-0.7
			h0.1c0.9,0,1.1-0.1,1.2-0.6l0.1-0.5l1.5-5.6c0.1-0.5,0.2-0.7,0.2-0.8c0-0.3-0.2-0.4-1-0.4h-0.2l0.1-0.7h8L295.4,21.8z"/>
		<path class="st0" d="M306.5,18.6c1.1,0,1.9,0.2,2.4,0.5c0.6,0.4,1,1,1,1.8c0,1.3-1.1,2.2-3,2.4c1.7,0.3,2.5,1,2.5,2.2
			c0,0.9-0.5,1.7-1.4,2.1c-0.7,0.3-1.7,0.5-2.7,0.5H300l0.1-0.7h0.1c0.5,0,0.9-0.1,1-0.2c0.1-0.1,0.1-0.1,0.3-1l1.5-5.6
			c0.1-0.4,0.2-0.7,0.2-0.8c0-0.3-0.2-0.4-1-0.4h-0.2l0.1-0.7H306.5z M303.7,26.4c-0.1,0.3-0.1,0.4-0.1,0.5c0,0.3,0.2,0.4,0.7,0.4
			h0.4c0.7,0,1.2-0.2,1.6-0.5c0.5-0.4,0.7-1.1,0.7-1.8c0-0.6-0.2-0.9-0.5-1.2c-0.3-0.2-0.6-0.3-1.4-0.3h-0.7L303.7,26.4z M305,22.8
			c0.9,0,1.3-0.1,1.7-0.3c0.6-0.4,0.9-1.1,0.9-1.9c0-0.8-0.5-1.3-1.3-1.3h-0.2c-0.5,0-0.6,0.1-0.8,0.8l-0.7,2.7H305z"/>
		<path class="st0" d="M312.2,18.6h4.9l-0.1,0.7h-0.2c-0.5,0-0.9,0.1-1,0.2c-0.1,0.1-0.1,0.1-0.4,1l-1.1,4c-0.1,0.5-0.2,0.8-0.2,1.1
			c0,1.1,0.7,1.8,2,1.8c0.7,0,1.3-0.2,1.8-0.8c0.4-0.4,0.7-0.9,0.9-1.9l0.9-3.3c0.3-1,0.3-1.1,0.3-1.4c0-0.5-0.4-0.7-1.2-0.7
			l0.1-0.7h3.6l-0.1,0.7c-0.3,0-0.8,0.1-1,0.4c-0.4,0.3-0.4,0.4-0.8,1.8l-1,3.6c-0.6,2.2-1.8,3.1-4,3.1c-0.9,0-1.7-0.2-2.2-0.4
			c-0.8-0.5-1.5-1.4-1.5-2.3c0-0.4,0.1-0.8,0.2-1.4l1-3.6c0.2-0.6,0.2-0.7,0.2-0.8c0-0.3-0.2-0.4-1-0.4h-0.2L312.2,18.6z"/>
		<path class="st0" d="M321.6,28l0.1-0.7h0.1c0.5,0,0.9-0.1,1-0.2c0.1-0.1,0.1-0.1,0.4-1l1.5-5.6c0.1-0.4,0.2-0.7,0.2-0.8
			c0-0.3-0.2-0.4-1-0.4h-0.3l0.1-0.7h4.8l-0.1,0.7h-0.1c-0.5,0-0.9,0.1-1,0.2c-0.1,0.1-0.1,0.1-0.4,1l-1.5,5.6
			c-0.2,0.7-0.2,0.7-0.2,0.8c0,0.3,0.2,0.4,1,0.4h0.3l-0.1,0.7H321.6z"/>
		<path class="st0" d="M337,24.6l-0.9,3.3h-8.4l0.1-0.7h0.1c0.5,0,0.9-0.1,1-0.2c0.1-0.1,0.1-0.1,0.3-1l1.5-5.6
			c0.1-0.5,0.2-0.7,0.2-0.8c0-0.3-0.2-0.4-1-0.4h-0.2l0.1-0.7h5l-0.1,0.7h-0.2c-0.5,0-0.9,0.1-1,0.2c-0.1,0.1-0.1,0.1-0.4,1
			l-1.5,5.6c-0.1,0.5-0.2,0.7-0.2,0.8c0,0.3,0.2,0.3,0.7,0.3h0.5c1,0,1.8-0.3,2.6-1.1c0.5-0.5,0.9-1,1.2-1.6L337,24.6z"/>
		<path class="st0" d="M337.3,27.3L337.3,27.3c0.6,0,0.9-0.1,1.1-0.2c0.1-0.1,0.1-0.1,0.4-1l1.5-5.6c0.1-0.4,0.2-0.7,0.2-0.8
			c0-0.3-0.2-0.4-1-0.4h-0.2l0.1-0.7h4.7c1.4,0,2.2,0.2,3,0.7c0.9,0.6,1.4,1.6,1.4,3c0,1.7-0.7,3.3-2,4.4c-1.1,0.9-2.4,1.3-4.7,1.3
			h-4.3L337.3,27.3z M341.8,27.3c1.1,0,2-0.5,2.7-1.4c0.7-1.1,1.2-2.9,1.2-4.4c0-1.4-0.7-2.2-1.9-2.2h-0.3c-0.6,0-0.8,0.2-1,0.8
			l-1.7,6.2c-0.1,0.5-0.1,0.5-0.1,0.6c0,0.3,0.2,0.4,0.7,0.4H341.8z"/>
		<path class="st0" d="M348.5,28l0.1-0.7h0.1c0.5,0,0.9-0.1,1-0.2c0.1-0.1,0.1-0.1,0.4-1l1.5-5.6c0.1-0.4,0.2-0.7,0.2-0.8
			c0-0.3-0.2-0.4-1-0.4h-0.3l0.1-0.7h4.8l-0.1,0.7h-0.1c-0.5,0-0.9,0.1-1,0.2c-0.1,0.1-0.1,0.1-0.4,1l-1.5,5.6
			c-0.2,0.7-0.2,0.7-0.2,0.8c0,0.3,0.2,0.4,1,0.4h0.3l-0.1,0.7H348.5z"/>
		<path class="st0" d="M363.2,25.2l1-3.8c0.3-1,0.3-1.1,0.3-1.4c0-0.5-0.4-0.7-1.2-0.7l0.1-0.7h3.6l-0.1,0.7c-0.4,0-0.8,0.1-1.1,0.4
			c-0.4,0.4-0.4,0.4-0.8,1.8l-1.8,6.7h-1l-3.8-7.4l-1.2,4.4c-0.3,1-0.3,1.1-0.3,1.4c0,0.5,0.4,0.7,1.1,0.7h0.1l-0.1,0.7h-3.7
			l0.1-0.7c0.4,0,0.8-0.1,1.1-0.4c0.4-0.3,0.4-0.4,0.8-1.8l1.5-5.4c-0.2-0.3-0.4-0.4-0.8-0.4h-0.7l0.1-0.7h3.3L363.2,25.2z"/>
		<path class="st0" d="M375.7,22.3l-0.7-0.1c0-0.7-0.1-1.2-0.3-1.8c-0.3-0.9-1-1.4-1.9-1.4c-1,0-1.9,0.7-2.6,2c-0.6,1.1-1,2.7-1,3.9
			c0,0.6,0.1,1.2,0.3,1.6c0.3,0.5,0.9,0.9,1.5,0.9c0.8,0,1.5-0.6,1.8-1.5c0.1-0.4,0.3-1.2,0.3-1.3c0-0.3-0.2-0.4-1-0.4h-0.4l0.1-0.7
			h4.8l-0.1,0.7h-0.1c-0.9,0-1.1,0.1-1.2,0.6c-0.1,0.2-0.1,0.4-0.2,0.5l-0.7,2.7h-0.6l-0.2-1.2c-0.7,0.8-1.6,1.2-2.8,1.2
			c-0.9,0-1.8-0.3-2.6-0.8c-0.9-0.6-1.5-1.8-1.5-3.1c0-3.2,2.7-5.9,5.9-5.9c1.1,0,1.7,0.3,2.4,1l0.8-0.8h0.6L375.7,22.3z"/>
	</g>
</g>
</svg>
