<svg xmlns="http://www.w3.org/2000/svg" viewBox="0 0 38.821 40.788">
  <defs>
    <style>
      .cls-1 {
        fill: #fff;
      }
    </style>
  </defs>
  <g id="icon_building_spec" data-name="icon building spec" transform="translate(-13.2 -0.894)">
    <g id="Group_263" data-name="Group 263" transform="translate(13.2 0.894)">
      <g id="Group_257" data-name="Group 257" transform="translate(0 0)">
        <g id="Group_254" data-name="Group 254">
          <g id="Group_245" data-name="Group 245">
            <path id="Path_377" data-name="Path 377" class="cls-1" d="M13.824,41.683a.628.628,0,0,1-.624-.624l.008-33.521a.617.617,0,0,1,.36-.56L26.831.951a.612.612,0,0,1,.871.56V24.966a.616.616,0,1,1-1.231,0V2.47L14.447,7.93V40.443h8.634a.616.616,0,1,1,0,1.231Z" transform="translate(-13.2 -0.894)"/>
          </g>
          <g id="Group_253" data-name="Group 253" transform="translate(2.19 8.339)">
            <g id="Group_246" data-name="Group 246">
              <path id="Path_378" data-name="Path 378" class="cls-1" d="M44.653,109.869H41.216a.616.616,0,0,1-.616-.616v-3.438a.616.616,0,0,1,.616-.616h3.438a.616.616,0,0,1,.616.616v3.438A.616.616,0,0,1,44.653,109.869Zm-2.822-1.231h2.2v-2.2h-2.2Z" transform="translate(-40.6 -105.2)"/>
            </g>
            <g id="Group_247" data-name="Group 247" transform="translate(5.3)">
              <path id="Path_379" data-name="Path 379" class="cls-1" d="M110.953,109.869h-3.438a.616.616,0,0,1-.616-.616v-3.438a.616.616,0,0,1,.616-.616h3.438a.616.616,0,0,1,.616.616v3.438A.611.611,0,0,1,110.953,109.869Zm-2.814-1.231h2.2v-2.2h-2.2Z" transform="translate(-106.9 -105.2)"/>
            </g>
            <g id="Group_248" data-name="Group 248" transform="translate(0 5.172)">
              <path id="Path_380" data-name="Path 380" class="cls-1" d="M44.653,174.569H41.216a.616.616,0,0,1-.616-.616v-3.438a.616.616,0,0,1,.616-.616h3.438a.616.616,0,0,1,.616.616v3.438A.616.616,0,0,1,44.653,174.569Zm-2.822-1.231h2.2v-2.2h-2.2Z" transform="translate(-40.6 -169.9)"/>
            </g>
            <g id="Group_249" data-name="Group 249" transform="translate(5.3 5.172)">
              <path id="Path_381" data-name="Path 381" class="cls-1" d="M110.953,174.569h-3.438a.616.616,0,0,1-.616-.616v-3.438a.616.616,0,0,1,.616-.616h3.438a.616.616,0,0,1,.616.616v3.438A.611.611,0,0,1,110.953,174.569Zm-2.814-1.231h2.2v-2.2h-2.2Z" transform="translate(-106.9 -169.9)"/>
            </g>
            <g id="Group_250" data-name="Group 250" transform="translate(0 10.361)">
              <path id="Path_382" data-name="Path 382" class="cls-1" d="M44.653,239.469H41.216a.616.616,0,0,1-.616-.616v-3.438a.616.616,0,0,1,.616-.616h3.438a.616.616,0,0,1,.616.616v3.438A.616.616,0,0,1,44.653,239.469Zm-2.822-1.231h2.2v-2.2h-2.2Z" transform="translate(-40.6 -234.8)"/>
            </g>
            <g id="Group_251" data-name="Group 251" transform="translate(5.3 10.361)">
              <path id="Path_383" data-name="Path 383" class="cls-1" d="M110.953,239.469h-3.438a.616.616,0,0,1-.616-.616v-3.438a.616.616,0,0,1,.616-.616h3.438a.616.616,0,0,1,.616.616v3.438A.611.611,0,0,1,110.953,239.469Zm-2.814-1.231h2.2v-2.2h-2.2Z" transform="translate(-106.9 -234.8)"/>
            </g>
            <g id="Group_252" data-name="Group 252" transform="translate(0 15.549)">
              <path id="Path_384" data-name="Path 384" class="cls-1" d="M44.653,304.369H41.216a.616.616,0,0,1-.616-.616v-3.438a.616.616,0,0,1,.616-.616h3.438a.616.616,0,0,1,.616.616v3.438A.621.621,0,0,1,44.653,304.369Zm-2.822-1.231h2.2v-2.2h-2.2Z" transform="translate(-40.6 -299.7)"/>
            </g>
          </g>
        </g>
        <g id="Group_256" data-name="Group 256" transform="translate(20.162)">
          <g id="Group_255" data-name="Group 255">
            <path id="Path_385" data-name="Path 385" class="cls-1" d="M266.271.951a.612.612,0,0,0-.871.56v5.6a.97.97,0,0,1,.256.088,4.691,4.691,0,0,0,.975.336V2.47l4.525,2.063c0-.008.008-.016.008-.024a4.4,4.4,0,0,0,.16-.64.772.772,0,0,1,.32-.472Z" transform="translate(-265.4 -0.894)"/>
            <path id="Path_386" data-name="Path 386" class="cls-1" d="M326.073,362.208c-.3,0-.6.048-.9.056a.845.845,0,0,1-.32-.064v10.673h-8.634a.616.616,0,1,0,0,1.231h9.25a.628.628,0,0,0,.624-.624V362.208Z" transform="translate(-311.587 -333.315)"/>
          </g>
        </g>
      </g>
      <g id="Group_258" data-name="Group 258" transform="translate(7.459 23.888)">
        <path id="Path_387" data-name="Path 387" class="cls-1" d="M125.087,304.289a.482.482,0,0,0-.064-.064v11.152H107.731V300.931h9.29a.837.837,0,0,1-.392-.712.894.894,0,0,1,.184-.52h-9.7a.616.616,0,0,0-.616.616v15.669a.616.616,0,0,0,.616.616h18.515a.614.614,0,0,0,.616-.608V304.3A.8.8,0,0,1,125.087,304.289Z" transform="translate(-106.5 -299.7)"/>
      </g>
      <g id="Group_262" data-name="Group 262" transform="translate(10.185 26.087)">
        <g id="Group_259" data-name="Group 259" transform="translate(0.008)">
          <path id="Path_388" data-name="Path 388" class="cls-1" d="M148.607,327.392a1.54,1.54,0,0,1,.008-.192h-7.3a.616.616,0,0,0,0,1.231h7.107a.817.817,0,0,1-.112-.4A.779.779,0,0,1,148.607,327.392Z" transform="translate(-140.7 -327.2)"/>
        </g>
        <g id="Group_260" data-name="Group 260" transform="translate(0 2.23)">
          <path id="Path_389" data-name="Path 389" class="cls-1" d="M154.279,356.331H141.216a.616.616,0,0,1,0-1.231h13.055a.616.616,0,0,1,.616.616A.609.609,0,0,1,154.279,356.331Z" transform="translate(-140.6 -355.1)"/>
        </g>
        <g id="Group_261" data-name="Group 261" transform="translate(4.397 5.612)">
          <path id="Path_390" data-name="Path 390" class="cls-1" d="M200.493,406.49h-4.277a.616.616,0,0,1-.616-.616v-7.859a.616.616,0,0,1,.616-.616h4.277a.616.616,0,0,1,.616.616v7.859A.616.616,0,0,1,200.493,406.49Zm-3.661-1.231h3.038v-6.627h-3.038Z" transform="translate(-195.6 -397.4)"/>
        </g>
      </g>
    </g>
    <g id="Group_270" data-name="Group 270" transform="translate(30.348 2.406)">
      <g id="Group_264" data-name="Group 264" transform="translate(0 4.349)">
        <path id="Path_391" data-name="Path 391" class="cls-1" d="M247.263,74.2h-3.654a5.79,5.79,0,0,1,.72.871.73.73,0,0,1,.112.328h2.822a.911.911,0,0,1,.911.911V95.753a.911.911,0,0,1-.911.911H229.811a.911.911,0,0,1-.911-.911V76.311a.911.911,0,0,1,.911-.911h2.9a.866.866,0,0,1,.248-.656c.192-.184.408-.344.584-.544h-3.733a2.114,2.114,0,0,0-2.111,2.111V95.753a2.114,2.114,0,0,0,2.111,2.111h17.452a2.114,2.114,0,0,0,2.111-2.111V76.311A2.114,2.114,0,0,0,247.263,74.2Z" transform="translate(-227.7 -74.2)"/>
      </g>
      <g id="Group_265" data-name="Group 265" transform="translate(7.179 11.856)">
        <path id="Path_392" data-name="Path 392" class="cls-1" d="M327.669,169.3H318.1a.6.6,0,1,1,0-1.2h9.569a.6.6,0,1,1,0,1.2Z" transform="translate(-317.5 -168.1)"/>
      </g>
      <circle id="Ellipse_14" data-name="Ellipse 14" class="cls-1" cx="0.544" cy="0.544" r="0.544" transform="translate(4.349 11.912)"/>
      <circle id="Ellipse_15" data-name="Ellipse 15" class="cls-1" cx="0.775" cy="0.775" r="0.775" transform="translate(10.121 2.63)"/>
      <g id="Group_266" data-name="Group 266" transform="translate(7.179 15.022)">
        <path id="Path_393" data-name="Path 393" class="cls-1" d="M327.669,208.9H318.1a.6.6,0,1,1,0-1.2h9.569a.6.6,0,1,1,0,1.2Z" transform="translate(-317.5 -207.7)"/>
      </g>
      <circle id="Ellipse_16" data-name="Ellipse 16" class="cls-1" cx="0.544" cy="0.544" r="0.544" transform="translate(4.349 15.078)"/>
      <g id="Group_267" data-name="Group 267" transform="translate(7.179 18.18)">
        <path id="Path_394" data-name="Path 394" class="cls-1" d="M327.669,248.4H318.1a.6.6,0,1,1,0-1.2h9.569a.6.6,0,1,1,0,1.2Z" transform="translate(-317.5 -247.2)"/>
      </g>
      <circle id="Ellipse_17" data-name="Ellipse 17" class="cls-1" cx="0.544" cy="0.544" r="0.544" transform="translate(4.349 18.235)"/>
      <g id="Group_268" data-name="Group 268" transform="translate(7.179 21.337)">
        <path id="Path_395" data-name="Path 395" class="cls-1" d="M327.669,287.9H318.1a.6.6,0,1,1,0-1.2h9.569a.6.6,0,1,1,0,1.2Z" transform="translate(-317.5 -286.7)"/>
      </g>
      <circle id="Ellipse_18" data-name="Ellipse 18" class="cls-1" cx="0.544" cy="0.544" r="0.544" transform="translate(4.349 21.393)"/>
      <g id="Group_269" data-name="Group 269" transform="translate(4.356)">
        <path id="Path_396" data-name="Path 396" class="cls-1" d="M295.256,28.434H282.185V26.268a2.812,2.812,0,0,1,1.119-2.358,4.06,4.06,0,0,1,1.247-.552c.48-.144.68-.216.879-.568.088-.16.176-.36.272-.568.432-.959,1.079-2.4,3-2.422h.048c1.927.024,2.566,1.463,3,2.422.1.208.184.408.272.576.2.352.4.424.871.568a4.06,4.06,0,0,1,1.247.552,2.812,2.812,0,0,1,1.119,2.358Zm-11.872-1.2h10.673V26.2a1.6,1.6,0,0,0-.6-1.311,3.163,3.163,0,0,0-.9-.392,2.3,2.3,0,0,1-1.575-1.127,7.3,7.3,0,0,1-.32-.664c-.472-1.055-.839-1.7-1.927-1.711-1.079.008-1.455.656-1.927,1.719-.1.232-.208.456-.32.664a2.293,2.293,0,0,1-1.575,1.127,3.07,3.07,0,0,0-.9.392,1.569,1.569,0,0,0-.6,1.311v1.023Z" transform="translate(-282.183 -19.8)"/>
      </g>
    </g>
  </g>
</svg>
