<svg id="Tunnel" xmlns="http://www.w3.org/2000/svg" viewBox="0 0 54.284 65.589">
  <defs>
    <style>
      .cls-1 {
        fill: #1689c3;
      }
    </style>
  </defs>
  <g id="Group_123" data-name="Group 123" transform="translate(0 0)">
    <path id="Path_278" data-name="Path 278" class="cls-1" d="M64.537,4.385A24.647,24.647,0,0,1,89.2,29.047V65.125H39.685V29.047A24.647,24.647,0,0,1,64.347,4.385h.191m0-2.385h-.191A27.035,27.035,0,0,0,37.3,29.047V67.51H91.584V29.047A27.035,27.035,0,0,0,64.537,2Z" transform="translate(-37.3 -2)"/>
  </g>
  <g id="Group_124" data-name="Group 124" transform="translate(15.869 15.344)">
    <path id="Path_279" data-name="Path 279" class="cls-1" d="M148.373,100.885a8.9,8.9,0,0,1,8.888,8.888v13.547H139.485V109.773a8.893,8.893,0,0,1,8.888-8.888m0-2.385h0A11.275,11.275,0,0,0,137.1,109.773v15.932h22.531V109.758A11.248,11.248,0,0,0,148.373,98.5Z" transform="translate(-137.1 -98.5)"/>
  </g>
  <g id="Group_127" data-name="Group 127" transform="translate(0.094 40.958)">
    <g id="Group_125" data-name="Group 125" transform="translate(0)">
      <path id="Path_280" data-name="Path 280" class="cls-1" d="M39.071,284.224a1.176,1.176,0,0,1-.97-1.844L53.477,260.1a1.178,1.178,0,1,1,1.94,1.336L40.041,283.715A1.172,1.172,0,0,1,39.071,284.224Z" transform="translate(-37.893 -259.593)"/>
    </g>
    <g id="Group_126" data-name="Group 126" transform="translate(36.38)">
      <path id="Path_281" data-name="Path 281" class="cls-1" d="M283.231,284.224a1.193,1.193,0,0,1-.97-.509L266.9,261.439a1.178,1.178,0,0,1,1.94-1.336L284.2,282.4a1.177,1.177,0,0,1-.3,1.638A1.293,1.293,0,0,1,283.231,284.224Z" transform="translate(-266.693 -259.593)"/>
    </g>
  </g>
  <g id="Group_131" data-name="Group 131" transform="translate(26.347 42.152)">
    <g id="Group_128" data-name="Group 128">
      <rect id="Rectangle_86" data-name="Rectangle 86" class="cls-1" width="1.59" height="1.431"/>
    </g>
    <g id="Group_129" data-name="Group 129" transform="translate(0 4.071)">
      <path id="Path_282" data-name="Path 282" class="cls-1" d="M204.59,305.977H203v-2.655h1.59Zm0-5.311H203v-2.655h1.59Zm0-5.311H203V292.7h1.59Z" transform="translate(-203 -292.7)"/>
    </g>
    <g id="Group_130" data-name="Group 130" transform="translate(0 20.003)">
      <rect id="Rectangle_87" data-name="Rectangle 87" class="cls-1" width="1.59" height="1.431"/>
    </g>
  </g>
</svg>
