<svg xmlns="http://www.w3.org/2000/svg" viewBox="0 0 49.231 64">
  <defs>
    <style>
      .cls-1 {
        fill: #1689c3;
      }
    </style>
  </defs>
  <g id="icon_public_transport" data-name="icon public transport" transform="translate(-48)">
    <g id="Group_1038" data-name="Group 1038" transform="translate(48)">
      <g id="Group_1037" data-name="Group 1037" transform="translate(0)">
        <path id="Path_558" data-name="Path 558" class="cls-1" d="M91.077,0H54.154A6.172,6.172,0,0,0,48,6.154V50.462a5.806,5.806,0,0,0,2.523,4.615,2.665,2.665,0,0,0-.062.308v4.308A4.281,4.281,0,0,0,54.769,64H56a4.281,4.281,0,0,0,4.308-4.308V56.615H84.923v3.077A4.281,4.281,0,0,0,89.231,64h1.231a4.281,4.281,0,0,0,4.308-4.308V55.385a6.147,6.147,0,0,0,2.462-4.923V6.154A6.172,6.172,0,0,0,91.077,0ZM57.846,59.692A1.813,1.813,0,0,1,56,61.538H54.769a1.813,1.813,0,0,1-1.846-1.846V56.308a6.445,6.445,0,0,0,1.846.308h3.077Zm34.462,0a1.813,1.813,0,0,1-1.846,1.846H89.231a1.813,1.813,0,0,1-1.846-1.846V56.615h3.692a7.576,7.576,0,0,0,1.231-.123Zm2.462-9.231a3.7,3.7,0,0,1-3.692,3.692H54.769c-1.969,0-4.308-1.662-4.308-3.692V39.385H94.769Zm0-13.538H50.462V12.308H94.769Zm0-27.077H50.462V6.154a3.7,3.7,0,0,1,3.692-3.692H91.077a3.7,3.7,0,0,1,3.692,3.692Z" transform="translate(-48)"/>
        <path id="Path_559" data-name="Path 559" class="cls-1" d="M141.878,32h-8.561a1.317,1.317,0,0,0,0,2.634h8.561a1.317,1.317,0,0,0,0-2.634Z" transform="translate(-119.321 -26.732)"/>
        <path id="Path_560" data-name="Path 560" class="cls-1" d="M223.293,32h-1.976a1.317,1.317,0,0,0,0,2.634h1.976a1.317,1.317,0,1,0,0-2.634Z" transform="translate(-193.716 -26.732)"/>
        <path id="Path_561" data-name="Path 561" class="cls-1" d="M87.951,283.9A3.951,3.951,0,1,0,84,279.951,3.963,3.963,0,0,0,87.951,283.9Zm0-5.268a1.317,1.317,0,1,1-1.317,1.317A1.321,1.321,0,0,1,87.951,278.634Z" transform="translate(-78.073 -233.927)"/>
        <path id="Path_562" data-name="Path 562" class="cls-1" d="M287.951,283.9A3.951,3.951,0,1,0,284,279.951,3.963,3.963,0,0,0,287.951,283.9Zm0-5.268a1.317,1.317,0,1,1-1.317,1.317A1.321,1.321,0,0,1,287.951,278.634Z" transform="translate(-248.598 -233.927)"/>
      </g>
    </g>
  </g>
</svg>
