<svg id="Security" xmlns="http://www.w3.org/2000/svg" viewBox="0 0 59.624 68">
  <defs>
    <style>
      .cls-1 {
        fill: #1689c3;
      }
    </style>
  </defs>
  <path id="Path_270" data-name="Path 270" class="cls-1" d="M58.1,5.77,85.42,19.917a69.532,69.532,0,0,1-7.745,29.771,47.08,47.08,0,0,1-8.906,12.19A27.047,27.047,0,0,1,58.12,68.429a28.3,28.3,0,0,1-10.631-6.684,48.283,48.283,0,0,1-8.923-12.174,69.082,69.082,0,0,1-7.779-29.655L58.1,5.77M58.1,3h0L28.3,18.424C28.3,39.82,39.943,65.577,58.1,71h.017c18.294-5.092,29.8-31.18,29.8-52.576L58.1,3Z" transform="translate(-28.3 -3)"/>
  <g id="Group_105" data-name="Group 105" transform="translate(12.361 23.48)">
    <path id="Path_271" data-name="Path 271" class="cls-1" d="M114.665,165.815c-.649,0-1.165-.366-2.879-2.38-.9-1.049-2.08-2.513-3.512-4.344-2.43-3.112-4.793-6.258-4.827-6.291a1.237,1.237,0,0,1,1.981-1.481c3.562,4.743,7.623,9.919,9.22,11.617,1.182-1.049,3.928-3.379,10.519-8.854,5.409-4.494,10.851-8.971,10.9-9a1.241,1.241,0,1,1,1.581,1.914c-8.322,6.857-20.971,17.326-21.936,18.324a1.254,1.254,0,0,1-.982.483A.126.126,0,0,1,114.665,165.815Zm1.1-.583Zm-.566-1.748Z" transform="translate(-103.197 -144.793)"/>
  </g>
</svg>
