<svg xmlns="http://www.w3.org/2000/svg" viewBox="0 0 65 56.11">
  <defs>
    <style>
      .cls-1 {
        fill: #1689c3;
      }
    </style>
  </defs>
  <g id="icon_parking2" data-name="icon parking2" transform="translate(-8.8 -36)">
    <g id="Group_1071" data-name="Group 1071" transform="translate(8.8 36)">
      <g id="Group_1060" data-name="Group 1060" transform="translate(0 16.36)">
        <path id="Path_587" data-name="Path 587" class="cls-1" d="M55.417,176.034H51.992a3.77,3.77,0,0,1-3.768-3.768v-1.974H21.017v1.974a3.77,3.77,0,0,1-3.768,3.768H13.824a3.77,3.77,0,0,1-3.768-3.768V159.739a21.367,21.367,0,0,1,1.191-6.378,3.778,3.778,0,0,1-2.447-3.54v-1.468a3.171,3.171,0,0,1,3.181-3.295,4.011,4.011,0,0,1,.962.13l1.484.408,2.2-5.35a6.8,6.8,0,0,1,5.888-3.947H46.74a6.757,6.757,0,0,1,5.888,3.947l2.2,5.366,1.517-.424a4.011,4.011,0,0,1,.962-.13,3.179,3.179,0,0,1,2.3.962,3.38,3.38,0,0,1,.9,2.332v1.468a3.752,3.752,0,0,1-2.479,3.54,20.765,20.765,0,0,1,1.191,6.361V172.25A3.811,3.811,0,0,1,55.417,176.034Zm-36.7-8.058h31.79v4.274a1.472,1.472,0,0,0,1.468,1.468H55.4a1.472,1.472,0,0,0,1.468-1.468V159.723a18.651,18.651,0,0,0-1.142-5.823l-1.077-2.61H56.69a1.472,1.472,0,0,0,1.468-1.468v-1.468a1.1,1.1,0,0,0-.261-.75.959.959,0,0,0-.979-.2l-3.474.962-2.969-7.242a4.53,4.53,0,0,0-3.768-2.528H22.5a4.53,4.53,0,0,0-3.768,2.528l-2.969,7.242-3.442-.946a1.334,1.334,0,0,0-.343-.049.882.882,0,0,0-.881.995v1.468a1.472,1.472,0,0,0,1.468,1.468h1.99l-1.077,2.61a18.743,18.743,0,0,0-1.142,5.823v12.527a1.472,1.472,0,0,0,1.468,1.468h3.425a1.472,1.472,0,0,0,1.468-1.468v-4.29Zm33.226-2.691H44.505a2.2,2.2,0,0,1-2.2-2.2v-3.572a2.2,2.2,0,0,1,2.2-2.2h7.438a2.2,2.2,0,0,1,2.2,2.2v3.572A2.2,2.2,0,0,1,51.943,165.285Zm-7.34-2.3h7.242v-3.376H44.6Zm-19.932,2.3H17.233a2.2,2.2,0,0,1-2.2-2.2v-3.572a2.214,2.214,0,0,1,2.2-2.2h7.438a2.2,2.2,0,0,1,2.2,2.2v3.572A2.224,2.224,0,0,1,24.671,165.285Zm-7.34-2.3h7.242v-3.376H17.331ZM50.8,154.112H18.554a2.537,2.537,0,0,1-2.235-1.093,2.325,2.325,0,0,1-.1-2.267h0l3.866-8.547a4.485,4.485,0,0,1,3.9-2.414H45.353a4.485,4.485,0,0,1,3.9,2.414l3.866,8.547a2.322,2.322,0,0,1-.1,2.267A2.527,2.527,0,0,1,50.8,154.112Zm-32.508-2.333a.838.838,0,0,0,.261.033H50.785a.838.838,0,0,0,.261-.033.276.276,0,0,0-.033-.082l-3.849-8.547a2.222,2.222,0,0,0-1.811-1.06H24a2.262,2.262,0,0,0-1.811,1.06L18.326,151.7A.275.275,0,0,0,18.293,151.779Z" transform="translate(-8.8 -136.3)"/>
      </g>
      <g id="Group_1070" data-name="Group 1070" transform="translate(48.346 0)">
        <g id="Group_1067" data-name="Group 1067" transform="translate(5.285 3.931)">
          <g id="Group_1063" data-name="Group 1063">
            <g id="Group_1062" data-name="Group 1062">
              <g id="Group_1061" data-name="Group 1061">
                <path id="Path_588" data-name="Path 588" class="cls-1" d="M340.8,60.1h-2.561a.57.57,0,0,0-.636.522h0v8.319c0,.343.408.522.832.522s.832-.179.832-.522V65.972H340.7c1.7,0,3-.8,3-2.9v-.082A2.606,2.606,0,0,0,340.8,60.1Zm1.24,3.083c0,.995-.522,1.468-1.338,1.468h-1.435v-3.1H340.7c.832,0,1.338.473,1.338,1.468v.163Z" transform="translate(-337.6 -60.1)"/>
              </g>
            </g>
          </g>
          <g id="Group_1066" data-name="Group 1066" transform="translate(2.528 14.093)">
            <g id="Group_1065" data-name="Group 1065">
              <g id="Group_1064" data-name="Group 1064">
                <path id="Path_589" data-name="Path 589" class="cls-1" d="M353.1,146.5h.913" transform="translate(-353.1 -146.5)"/>
              </g>
            </g>
          </g>
        </g>
        <g id="Group_1068" data-name="Group 1068">
          <path id="Path_590" data-name="Path 590" class="cls-1" d="M318.722,52.637h-10.39a3.133,3.133,0,0,1-3.132-3.132V39.132A3.133,3.133,0,0,1,308.332,36h10.39a3.133,3.133,0,0,1,3.132,3.132v10.39A3.129,3.129,0,0,1,318.722,52.637Zm-10.39-15.006a1.5,1.5,0,0,0-1.5,1.5v10.39a1.5,1.5,0,0,0,1.5,1.5h10.39a1.5,1.5,0,0,0,1.5-1.5V39.132a1.5,1.5,0,0,0-1.5-1.5Z" transform="translate(-305.2 -36)"/>
        </g>
        <g id="Group_1069" data-name="Group 1069" transform="translate(7.112 15.055)">
          <path id="Path_591" data-name="Path 591" class="cls-1" d="M350.023,169.355a1.232,1.232,0,0,1-1.223-1.223V129.523a1.223,1.223,0,0,1,2.447,0v38.592A1.236,1.236,0,0,1,350.023,169.355Z" transform="translate(-348.8 -128.3)"/>
        </g>
      </g>
    </g>
  </g>
</svg>
