<svg xmlns="http://www.w3.org/2000/svg" viewBox="0 0 63.814 65.202">
  <defs>
    <style>
      .cls-1 {
        fill: #1689c3;
      }
    </style>
  </defs>
  <path id="icon_exhibition" data-name="icon exhibition" class="cls-1" d="M64.909,60.369H63.2V36.163a3.977,3.977,0,1,0-7.953,0v3.992c-.268,2.541-2.272,4.908-5.9,6.8A24.827,24.827,0,0,1,46.226,48.3V35.989h6.659a1.063,1.063,0,0,0,1.01-1.12V27.026a1.054,1.054,0,0,0-1.01-1.12H39.219V24.9a10.513,10.513,0,0,0,4.418-8.868,11.014,11.014,0,0,0-4.545-8.774V5.834h.537A1.074,1.074,0,0,0,40.7,4.761V2.173A1.074,1.074,0,0,0,39.63,1.1H28.189a1.074,1.074,0,0,0-1.073,1.073V4.729A1.074,1.074,0,0,0,28.189,5.8h.537v1.42a10.553,10.553,0,0,0-4.245,8.663,10.8,10.8,0,0,0,4.434,8.726l.032,1.278H15.329a1.063,1.063,0,0,0-1.01,1.12v7.843a1.054,1.054,0,0,0,1.01,1.12h6.659V48.282a28.4,28.4,0,0,1-3.109-1.341c-3.3-1.688-5.239-3.819-5.775-6.091V36.178a4.04,4.04,0,0,0-8.079,0V60.637H3.32A1.066,1.066,0,0,0,2.2,61.663v3.566A1.115,1.115,0,0,0,3.32,66.3H14.634a1.037,1.037,0,0,0,1.026-1.041v-3.6a1,1,0,0,0-.947-1.026H13.1V45.268a16.664,16.664,0,0,0,4.8,3.6,26.748,26.748,0,0,0,4.1,1.7V61.931a1.169,1.169,0,0,0,1.1,1.136H45.121a1.135,1.135,0,0,0,1.1-1.136V50.57a27.6,27.6,0,0,0,4.119-1.7,16.388,16.388,0,0,0,4.908-3.724V60.353H53.579a.978.978,0,0,0-1.026.947v3.645a1.038,1.038,0,0,0,.994,1.073H64.893a1.115,1.115,0,0,0,1.12-1.073V61.379A1.041,1.041,0,0,0,64.909,60.369ZM29.8,3.656h-.537v-.41h9.294v.41H38.02a1.074,1.074,0,0,0-1.073,1.073V7.806a1.04,1.04,0,0,0,.521.915A8.179,8.179,0,0,1,38.9,9.842H28.978a6.959,6.959,0,0,1,1.4-1.12,1.094,1.094,0,0,0,.521-.915V4.745A1.115,1.115,0,0,0,29.8,3.656Zm-2.32,8.363H40.466a8.614,8.614,0,0,1,1.01,3.992,10.109,10.109,0,0,1-.221,2.067H26.911a8.5,8.5,0,0,1-.284-2.178A9.291,9.291,0,0,1,27.479,12.02Zm.331,8.205h12.7a7.029,7.029,0,0,1-2.43,2.825,1.07,1.07,0,0,0-.994,1.073v1.61H31.109l-.032-1.72a1.067,1.067,0,0,0-.521-.9A7.776,7.776,0,0,1,27.811,20.225ZM9.064,34.316a1.876,1.876,0,0,1,1.878,1.846v2.793H7.171V36.178A1.9,1.9,0,0,1,9.064,34.316Zm4.45,29.824H4.362V62.783h9.152Zm-2.572-3.5H7.171V41.1h3.756l.016-.047Zm5.523-32.6H51.748v5.791H16.465Zm7.685,7.953H44.08V48.96a40.2,40.2,0,0,1-19.93,0ZM44.08,60.905H24.15V51.2a42.544,42.544,0,0,0,19.93,0ZM59.228,34.316a1.818,1.818,0,0,1,1.815,1.83v2.809H57.413V36.178a1.818,1.818,0,0,1,1.8-1.846ZM57.413,41.1h3.629V60.369H57.413Zm6.47,22.77H54.731V62.531h9.152Z" transform="translate(-2.2 -1.1)"/>
</svg>
