<?xml version="1.0" encoding="utf-8"?>
<!-- Generator: Adobe Illustrator 21.1.0, SVG Export Plug-In . SVG Version: 6.00 Build 0)  -->
<svg version="1.1" id="Bank" xmlns="http://www.w3.org/2000/svg" xmlns:xlink="http://www.w3.org/1999/xlink" x="0px" y="0px"
	 viewBox="0 0 57.4 57" style="enable-background:new 0 0 57.4 57;" xml:space="preserve">
<style type="text/css">
	.st0{fill:#83D0F5;}
	.st1{fill:#1689C3;}
</style>
<g>
	<rect x="48.6" y="26.4" class="st0" width="4" height="3.7"/>
	<g>
		<g>
			<g>
				<path class="st1" d="M44.2,14.5H9.2c-0.6,0-1-0.4-1-1V1.3c0-0.6,0.4-1,1-1h34.9c0.6,0,1,0.4,1,1v12.2
					C45.2,14,44.7,14.5,44.2,14.5z M10.2,12.5h32.9V2.3H10.2V12.5z"/>
			</g>
			<g>
				<path class="st1" d="M26.7,56.7H9.2c-0.6,0-1-0.4-1-1V16.6c0-0.6,0.4-1,1-1h17.5c0.6,0,1,0.4,1,1v39.1
					C27.7,56.3,27.3,56.7,26.7,56.7z M10.2,54.7h15.5V17.6H10.2V54.7z"/>
			</g>
			<g>
				<path class="st1" d="M44.2,56.7H26.7c-0.6,0-1-0.4-1-1V16.6c0-0.6,0.4-1,1-1h17.5c0.6,0,1,0.4,1,1v39.1
					C45.2,56.3,44.7,56.7,44.2,56.7z M27.7,54.7h15.5V17.6H27.7V54.7z"/>
			</g>
		</g>
		<g>
			<g>
				<path class="st1" d="M16,7.5c-0.2,0-0.4-0.1-0.5-0.2c-0.3-0.3-0.3-0.7,0-1l2.4-2.4c0.3-0.3,0.7-0.3,1,0l2.4,2.4
					c0.3,0.3,0.3,0.7,0,1c-0.3,0.3-0.7,0.3-1,0l-1.9-1.9l-1.9,1.9C16.3,7.5,16.1,7.5,16,7.5z"/>
			</g>
			<g>
				<path class="st1" d="M18.3,11.2c-0.4,0-0.7-0.3-0.7-0.7V5.1c0-0.4,0.3-0.7,0.7-0.7S19,4.7,19,5.1v5.3
					C19,10.8,18.7,11.2,18.3,11.2z"/>
			</g>
		</g>
		<g>
			<g>
				<path class="st1" d="M35,11.2c-0.2,0-0.4-0.1-0.5-0.2l-2.4-2.4c-0.3-0.3-0.3-0.7,0-1c0.3-0.3,0.7-0.3,1,0L35,9.4l1.9-1.9
					c0.3-0.3,0.7-0.3,1,0c0.3,0.3,0.3,0.7,0,1l-2.4,2.4C35.4,11.1,35.2,11.2,35,11.2z"/>
			</g>
			<g>
				<path class="st1" d="M35,10.5c-0.4,0-0.7-0.3-0.7-0.7V4.4c0-0.4,0.3-0.7,0.7-0.7s0.7,0.3,0.7,0.7v5.3
					C35.7,10.2,35.4,10.5,35,10.5z"/>
			</g>
		</g>
		<g>
			<path class="st1" d="M53.8,56.7H3.6c-0.6,0-1-0.4-1-1s0.4-1,1-1h50.2c0.6,0,1,0.4,1,1S54.3,56.7,53.8,56.7z"/>
		</g>
		<g>
			<path class="st1" d="M52.7,31.4h-4.2c-0.4,0-0.7-0.3-0.7-0.7v-4.2c0-0.4,0.3-0.7,0.7-0.7h4.2c0.4,0,0.7,0.3,0.7,0.7v4.2
				C53.4,31,53.1,31.4,52.7,31.4z M49.2,29.9H52v-2.8h-2.8V29.9z"/>
		</g>
		<g>
			<path class="st1" d="M52.7,35.6h-4.2c-0.4,0-0.7-0.3-0.7-0.7v-4.2c0-0.4,0.3-0.7,0.7-0.7h4.2c0.4,0,0.7,0.3,0.7,0.7v4.2
				C53.4,35.2,53.1,35.6,52.7,35.6z M49.2,34.1H52v-2.8h-2.8V34.1z"/>
		</g>
	</g>
</g>
</svg>
