<?xml version="1.0" encoding="utf-8"?>
<!-- Generator: Adobe Illustrator 23.0.0, SVG Export Plug-In . SVG Version: 6.00 Build 0)  -->
<svg version="1.1" id="Layer_1" xmlns="http://www.w3.org/2000/svg" xmlns:xlink="http://www.w3.org/1999/xlink" x="0px" y="0px"
	 viewBox="0 0 269.3 95.8" style="enable-background:new 0 0 269.3 95.8;" xml:space="preserve">
<style type="text/css">
	.st0{fill:#FFFFFF;}
</style>
<title>Cushman &amp;amp; Wakefield Marketing White</title>
<path class="st0" d="M119,63.5c-5,0-8.1-2.8-8.1-8.3V44.5h4.1v10.5c0,3,1.5,4.6,4,4.6s4-1.5,4-4.5V44.5h4.1V55
	C127.1,60.7,123.9,63.4,119,63.5"/>
<path class="st0" d="M139.5,63.4c-2.9,0-5.7-1.1-7.9-3l2.4-2.9c1.5,1.4,3.5,2.2,5.6,2.3c1.7,0,2.7-0.7,2.7-1.8v0
	c0-1-0.6-1.6-3.8-2.4c-3.7-1-6.2-2.1-6.2-5.8v0c0-3.4,2.7-5.6,6.5-5.6c2.5,0,5,0.8,6.9,2.4l-2.1,3.1c-1.4-1.1-3.1-1.7-4.8-1.8
	c-1.6,0-2.4,0.7-2.4,1.6v0c0,1.2,0.8,1.7,4,2.5c3.8,1,5.9,2.3,5.9,5.6v0C146.3,61.3,143.5,63.4,139.5,63.4"/>
<polygon class="st0" points="163.5,63.2 163.5,55.7 156,55.7 156,63.2 151.9,63.2 151.9,44.5 156,44.5 156,51.9 163.5,51.9 
	163.5,44.5 167.6,44.5 167.6,63.2 "/>
<polygon class="st0" points="234.5,63.2 225.8,51.5 225.8,63.2 221.7,63.2 221.7,44.5 225.5,44.5 234.2,56.4 234.2,44.5 238.3,44.5 
	238.3,63.2 "/>
<polygon class="st0" points="154.5,88.5 148.7,80.6 146.6,82.8 146.6,88.5 142.4,88.5 142.4,69.9 146.6,69.9 146.6,78 154.1,69.9 
	159.1,69.9 151.5,77.8 159.4,88.5 "/>
<polygon class="st0" points="164,88.5 164,69.9 177.9,69.9 177.9,73.5 168.1,73.5 168.1,77.3 176.7,77.3 176.7,80.9 168.1,80.9 
	168.1,84.8 178,84.8 178,88.5 "/>
<rect x="203.6" y="69.9" class="st0" width="4.1" height="18.6"/>
<polygon class="st0" points="213.7,88.5 213.7,69.9 227.6,69.9 227.6,73.5 217.8,73.5 217.8,77.3 226.4,77.3 226.4,80.9 217.8,80.9 
	217.8,84.8 227.7,84.8 227.7,88.5 "/>
<polygon class="st0" points="233.9,88.5 233.9,69.9 237.9,69.9 237.9,84.8 247.2,84.8 247.2,88.5 "/>
<path class="st0" d="M259.4,88.5h-7.3V69.9h7.3c5.9,0,9.9,4,9.9,9.3l0,0C269.3,84.4,265.3,88.4,259.4,88.5 M265,79.1
	c0.2-2.9-2.1-5.5-5.1-5.6c-0.2,0-0.4,0-0.6,0h-3.2v11.3h3.2c2.9,0.2,5.4-2.1,5.6-5c0-0.2,0-0.4,0-0.6L265,79.1z"/>
<path class="st0" d="M98.8,59.7c-3.1,0.1-5.7-2.4-5.7-5.5c0-0.1,0-0.2,0-0.3v0c-0.2-3.1,2.2-5.7,5.3-5.9c0.1,0,0.2,0,0.2,0
	c1.7-0.1,3.4,0.7,4.6,2l2.6-3.1c-1.9-1.8-4.5-2.8-7.2-2.7c-5.3-0.1-9.7,4.2-9.8,9.5c0,0.1,0,0.2,0,0.3v0.1c0.1,5.3,4.4,9.5,9.7,9.4
	c0.1,0,0.2,0,0.3,0c2.8,0,5.5-1.3,7.3-3.4l-2.8-2.7C102.2,58.8,100.6,59.7,98.8,59.7"/>
<polygon class="st0" points="188.4,44.5 192.8,44.5 192.8,63.2 188.9,63.2 188.9,51 183.6,59 183.5,59 178.2,51 178.2,63.2 
	174.3,63.2 174.3,44.5 178.7,44.5 183.6,52.4 "/>
<path class="st0" d="M205.3,44.5l-7.9,18.6h4.2l1.7-4.2h7.9l1.7,4.2h4.3l-7.9-18.6L205.3,44.5z M204.8,55.4l2.5-6l2.5,6H204.8z"/>
<path class="st0" d="M126.1,69.9l-7.9,18.6h4.2l1.7-4.2h7.9l1.7,4.2h4.3l-7.9-18.6L126.1,69.9z M125.5,80.7l2.5-6l2.5,6H125.5z"/>
<polygon class="st0" points="187.9,73.6 187.9,77.6 196.6,77.6 196.6,81.3 187.9,81.3 187.9,88.5 183.8,88.5 183.8,69.9 198,69.9 
	198,73.6 "/>
<polygon class="st0" points="113.8,69.9 109.4,82.8 105.1,69.9 101.2,69.9 96.8,82.8 92.5,69.9 88.2,69.9 94.9,88.5 98.9,88.5 
	103.1,75.7 107.3,88.5 111.4,88.5 118.1,69.9 "/>
<path class="st0" d="M264.4,58.6l2.1-2.4l-2.5-2.8l-1.9,2.2l-2.3-2.8c1.5-0.9,2.5-2.5,2.4-4.3c-0.1-2.5-2.3-4.5-4.8-4.4
	c-2.5,0-4.5,1.9-4.5,4.4c0,0.1,0,0.2,0,0.3c0.2,1.3,0.8,2.5,1.7,3.4c-2.2,0.9-3.7,3.1-3.7,5.5c0.2,3.2,2.9,5.8,6.1,5.8
	c1.9-0.1,3.8-0.9,5.1-2.4l1.7,2h4.8L264.4,58.6z M259.8,58.4c-0.7,1-1.7,1.6-2.9,1.7c-1.4,0-2.5-1.1-2.6-2.5c0-0.8,0.6-2.1,2.5-2.9
	L259.8,58.4z M257.5,50.7c-0.6-0.4-1-1-1.2-1.7c-0.1-0.7,0.4-1.4,1.1-1.5s1.4,0.4,1.5,1.1c0,0.1,0,0.2,0,0.3
	C259,49.7,258.1,50.4,257.5,50.7"/>
<polygon class="st0" points="39.7,32 39.7,88.5 56.3,88.5 56.3,44.6 "/>
<polygon class="st0" points="33,37 33,88.5 36.4,88.5 36.4,34.4 "/>
<polygon class="st0" points="26.4,88.5 29.8,88.5 29.8,39.4 26.4,42 "/>
<polygon class="st0" points="19.8,88.5 23.2,88.5 23.2,44.4 19.8,47 "/>
<polygon class="st0" points="59.5,57.3 59.5,88.5 76.1,88.5 76.1,69.9 "/>
<polygon class="st0" points="13.2,62.3 13.2,88.5 16.6,88.5 16.6,59.7 "/>
<polygon class="st0" points="6.6,88.5 10,88.5 10,64.7 6.6,67.3 "/>
<polygon class="st0" points="0,88.5 3.4,88.5 3.4,69.7 0,72.3 "/>
<path class="st0" d="M11.9,4.4h1.6v12.3h-1.8V7.1L8,11.8H7.7L3.9,7.1v9.6H2.1V4.4h1.7l4.1,5L11.9,4.4z"/>
<path class="st0" d="M21.5,11.8v3.4c0,0.3,0.1,0.4,0.3,0.4c0.3-0.1,0.6-0.2,0.9-0.4v1c-0.3,0.2-0.6,0.3-0.9,0.5
	c-0.2,0.1-0.5,0.1-0.7,0.1c-0.7,0-1.1-0.3-1.2-0.8c-0.6,0.5-1.4,0.8-2.2,0.8c-0.5,0-1-0.2-1.4-0.6c-0.4-0.4-0.6-0.9-0.6-1.4
	c0-0.5,0.2-1,0.5-1.4c0.4-0.5,1-0.8,1.6-1l2-0.7v-0.4c0.1-0.7-0.4-1.4-1.1-1.5c-0.1,0-0.2,0-0.4,0c-1,0.1-1.9,0.6-2.6,1.3V9.5
	c0.7-0.8,1.7-1.2,2.7-1.1c0.8,0,1.5,0.2,2.1,0.7c0.2,0.2,0.4,0.4,0.5,0.6c0.1,0.2,0.2,0.5,0.3,0.7C21.5,10.9,21.5,11.3,21.5,11.8z
	 M19.9,15v-2.4L18.8,13c-0.4,0.1-0.8,0.4-1.2,0.7c-0.2,0.2-0.3,0.5-0.3,0.8c0,0.3,0.1,0.6,0.3,0.8c0.2,0.2,0.5,0.3,0.8,0.3
	C19,15.6,19.5,15.4,19.9,15z"/>
<path class="st0" d="M26.2,8.6v1.8l0.1-0.1C27,9,27.8,8.4,28.6,8.4c0.7,0.1,1.4,0.4,1.9,0.9l-0.8,1.4c-0.4-0.5-1-0.7-1.5-0.8
	c-0.5,0-1,0.3-1.3,0.7c-0.4,0.5-0.6,1.1-0.6,1.8v4.2h-1.6V8.6H26.2z"/>
<path class="st0" d="M32,4.4h1.6v12.3H32V4.4z M37.3,8.6h1.9l-3.5,4l4.2,4.1h-2.2l-4-4.1L37.3,8.6z"/>
<path class="st0" d="M47.4,12.7h-5.7c0,0.7,0.3,1.4,0.8,1.8c0.5,0.5,1.2,0.7,1.8,0.7c1.1,0,2.1-0.4,2.9-1v1.6
	c-0.5,0.3-0.9,0.5-1.5,0.7c-0.6,0.1-1.1,0.2-1.7,0.2c-0.8,0-1.5-0.2-2.2-0.6c-0.6-0.4-1-0.9-1.3-1.5c-0.3-0.7-0.5-1.4-0.5-2.2
	c-0.1-1.1,0.3-2.2,1-3c0.7-0.8,1.7-1.2,2.7-1.2c1,0,1.9,0.4,2.6,1.1c0.7,0.8,1,1.9,1,3L47.4,12.7z M41.7,11.7h4.1
	c0-0.5-0.2-1.1-0.6-1.5c-0.4-0.4-0.9-0.5-1.4-0.5c-0.5,0-1,0.2-1.4,0.5C42,10.7,41.8,11.2,41.7,11.7L41.7,11.7z"/>
<path class="st0" d="M48.3,9.8l3-3v1.7h2.5V10h-2.5v4c0,0.9,0.4,1.4,1.2,1.4c0.6,0,1.3-0.2,1.8-0.6v1.5c-0.6,0.3-1.3,0.5-2,0.5
	c-0.7,0-1.3-0.2-1.8-0.7c-0.2-0.1-0.3-0.3-0.4-0.4c-0.1-0.2-0.2-0.4-0.3-0.6c-0.1-0.5-0.1-1-0.1-1.5V10h-1.4V9.8z"/>
<path class="st0" d="M56.7,5.2c0.3,0,0.5,0.1,0.7,0.3c0.2,0.2,0.3,0.4,0.3,0.7c0,0.3-0.1,0.5-0.3,0.7C57.2,6.9,57,7,56.7,7
	c-0.2,0-0.5-0.1-0.7-0.3c-0.4-0.4-0.4-0.9,0-1.3c0,0,0,0,0,0C56.2,5.2,56.5,5.1,56.7,5.2z M55.9,8.6h1.6v8.1h-1.6V8.6z"/>
<path class="st0" d="M61.8,8.6v1c0.6-0.7,1.5-1.2,2.4-1.2c0.5,0,1,0.1,1.4,0.4c0.4,0.3,0.8,0.6,1,1.1c0.3,0.7,0.4,1.4,0.3,2.2v4.6
	h-1.6V12c0-0.6-0.1-1.2-0.4-1.7c-0.3-0.4-0.8-0.6-1.3-0.5c-0.8,0-1.5,0.4-1.9,1.1v5.8h-1.6V8.6H61.8z"/>
<path class="st0" d="M69.2,11.3c0-0.8,0.4-1.5,1-2c0.7-0.5,1.7-0.8,2.6-0.8h3.3v1.2h-1.7c0.3,0.3,0.5,0.5,0.7,0.9
	c0.1,0.3,0.2,0.6,0.2,0.9c0,0.4-0.1,0.9-0.4,1.3c-0.2,0.4-0.5,0.7-0.9,0.9c-0.6,0.3-1.2,0.5-1.9,0.5c-0.6,0.1-0.9,0.3-0.9,0.6
	c0,0.2,0.1,0.4,0.3,0.5c0.4,0.2,0.8,0.3,1.2,0.4c0.6,0.1,1.3,0.3,1.9,0.5c0.3,0.1,0.5,0.3,0.8,0.5c0.4,0.4,0.6,0.9,0.5,1.5
	c0,0.7-0.4,1.4-1,1.8c-0.8,0.5-1.8,0.7-2.7,0.7c-1,0-1.9-0.2-2.8-0.7c-0.6-0.4-1-1.1-1-1.8c0-1.1,0.7-1.8,2-2.1
	c-0.5-0.3-0.8-0.7-0.8-1c0-0.3,0.1-0.5,0.3-0.7c0.3-0.2,0.6-0.4,1-0.5C69.9,13.5,69.2,12.5,69.2,11.3z M71.8,17
	c-0.5,0-0.9,0.1-1.3,0.3c-0.3,0.2-0.5,0.5-0.5,0.9c0,0.8,0.8,1.2,2.3,1.2c0.6,0,1.1-0.1,1.7-0.3c0.3-0.2,0.6-0.5,0.6-0.9
	c0-0.4-0.2-0.7-0.7-0.9C73.1,17.1,72.5,17,71.8,17z M72.2,9.9c-0.4,0-0.8,0.1-1.1,0.4c-0.3,0.3-0.5,0.6-0.5,1.1c0,0.4,0.2,0.7,0.4,1
	c0.3,0.3,0.7,0.4,1.1,0.4c0.4,0,0.8-0.1,1.1-0.4c0.3-0.3,0.5-0.6,0.5-1c0-0.4-0.2-0.8-0.5-1.1C73,10.1,72.6,9.9,72.2,9.9L72.2,9.9z"
	/>
<path class="st0" d="M90.9,16.6L89.4,15c-0.1,0.1-0.3,0.3-0.6,0.5l0,0c-0.5,0.4-1,0.7-1.6,0.9c-0.5,0.2-1.1,0.4-1.7,0.4
	c-0.8,0-1.6-0.3-2.2-0.8c-0.6-0.5-0.9-1.2-0.9-2c0-0.6,0.1-1.1,0.4-1.6c0.4-0.6,0.9-1.1,1.4-1.4l0,0c0.3-0.2,0.7-0.5,1-0.7
	C84.5,9.6,84,8.5,84,7.4c0-0.8,0.3-1.5,0.8-2c1.3-1,3.1-1,4.4,0c0.6,0.5,0.9,1.2,0.9,2c0,1.1-0.7,2.1-2.2,3.1l-0.1,0.1l1.7,2
	c0.5-0.6,1-1.3,1.3-2h1.8c-0.5,1.2-1.2,2.3-2,3.2l2.5,2.9L90.9,16.6z M88,14.1l0.4-0.4l-2-2.3L85.6,12c-0.9,0.6-1.4,1.2-1.4,1.9
	c0,0.4,0.2,0.7,0.4,0.9c0.3,0.2,0.7,0.4,1.1,0.4c0.4,0,0.8-0.1,1.1-0.3C87.3,14.6,87.7,14.4,88,14.1z M86.8,9.4l0.7-0.5
	c0.6-0.3,0.9-0.9,0.9-1.5c0-0.3-0.1-0.7-0.4-0.9c-0.3-0.2-0.6-0.4-1-0.4c-0.4,0-0.7,0.1-1,0.3c-0.2,0.2-0.4,0.5-0.4,0.8
	c0,0.4,0.1,0.7,0.3,1C86.2,8.7,86.5,9,86.8,9.4L86.8,9.4z"/>
<path class="st0" d="M100.3,16.6V4.3h3.9c1,0,2,0.3,2.8,1c0.7,0.7,1.1,1.6,1,2.6c0,0.7-0.2,1.3-0.5,1.9c-0.4,0.5-0.9,1-1.5,1.2
	c-0.9,0.3-1.8,0.4-2.7,0.4H102v5.3L100.3,16.6z M103.8,5.9H102v3.8h2c0.6,0,1.2-0.1,1.7-0.5c0.4-0.4,0.6-0.9,0.6-1.4
	C106.2,6.5,105.4,5.9,103.8,5.9z"/>
<path class="st0" d="M111.4,8.6v1.8l0.1-0.1c0.8-1.2,1.6-1.9,2.3-1.9c0.7,0.1,1.4,0.4,1.9,0.9l-0.8,1.4c-0.4-0.5-1-0.7-1.6-0.8
	c-0.5,0-1,0.3-1.3,0.7c-0.4,0.5-0.6,1.1-0.6,1.8v4.2h-1.6V8.6H111.4z"/>
<path class="st0" d="M120.7,8.5c1.1,0,2.2,0.4,3.1,1.2c0.8,0.8,1.3,1.9,1.2,3c0,1.1-0.4,2.2-1.2,2.9c-0.8,0.8-2,1.2-3.1,1.2
	c-1.1,0-2.2-0.4-3-1.2c-1.6-1.6-1.6-4.2,0-5.9c0,0,0,0,0,0C118.4,8.9,119.5,8.5,120.7,8.5z M120.6,10c-0.7,0-1.4,0.3-1.9,0.8
	c-0.5,0.5-0.8,1.2-0.7,1.9c0,0.7,0.2,1.4,0.8,1.9c0.5,0.5,1.2,0.8,1.9,0.7c0.7,0,1.4-0.2,1.9-0.7c0.5-0.5,0.8-1.2,0.8-1.9
	c0-0.7-0.3-1.4-0.8-1.9C122,10.3,121.3,10,120.6,10z"/>
<path class="st0" d="M127,20.8V8.6h2.8c1.2-0.1,2.4,0.3,3.4,1.1c0.8,0.8,1.3,1.9,1.2,3c0,1.1-0.4,2.2-1.1,3
	c-0.7,0.8-1.8,1.2-2.9,1.2c-0.6,0-1.2-0.1-1.7-0.3v4.3L127,20.8z M129.8,10h-1.1v5c0.5,0.2,1,0.4,1.5,0.4c0.7,0,1.4-0.3,1.8-0.8
	c0.5-0.6,0.7-1.3,0.7-2c0-0.5-0.1-1-0.3-1.4c-0.2-0.4-0.5-0.7-0.9-0.9C130.9,10.1,130.4,10,129.8,10z"/>
<path class="st0" d="M143.4,12.7h-5.7c0,0.7,0.3,1.4,0.8,1.8c0.5,0.5,1.2,0.7,1.9,0.7c1.1,0,2.1-0.4,2.9-1v1.6
	c-0.4,0.3-0.9,0.5-1.5,0.7c-0.6,0.1-1.1,0.2-1.7,0.2c-0.8,0-1.5-0.2-2.2-0.6c-0.6-0.4-1-0.9-1.3-1.5c-0.3-0.7-0.5-1.4-0.5-2.2
	c-0.1-1.1,0.3-2.2,1-3c0.7-0.8,1.7-1.2,2.7-1.2c1,0,1.9,0.4,2.6,1.1c0.7,0.8,1,1.9,1,3V12.7z M137.7,11.7h4.1c0-0.5-0.2-1.1-0.6-1.5
	c-0.4-0.4-0.9-0.5-1.4-0.5c-0.5,0-1,0.2-1.4,0.5C138.1,10.7,137.8,11.2,137.7,11.7L137.7,11.7z"/>
<path class="st0" d="M147.2,8.6v1.8l0.1-0.1c0.8-1.2,1.6-1.9,2.3-1.9c0.7,0.1,1.4,0.4,1.9,0.9l-0.8,1.4c-0.4-0.5-1-0.7-1.6-0.8
	c-0.5,0-1,0.3-1.3,0.7c-0.4,0.5-0.6,1.1-0.6,1.8v4.2h-1.6V8.6H147.2z"/>
<path class="st0" d="M152.3,9.8l3-3v1.7h2.6V10h-2.6v4c0,0.9,0.4,1.4,1.1,1.4c0.6,0,1.3-0.2,1.8-0.6v1.5c-0.6,0.3-1.3,0.5-2,0.5
	c-0.7,0-1.3-0.2-1.8-0.7c-0.2-0.1-0.3-0.3-0.4-0.4c-0.1-0.2-0.2-0.4-0.3-0.6c-0.1-0.5-0.1-1-0.1-1.5V10h-1.4L152.3,9.8z"/>
<path class="st0" d="M164.8,8.6h1.8l-5.7,12.2H159l2.7-5.9l-3.1-6.3h1.8l2.2,4.6L164.8,8.6z"/>
<path class="st0" d="M183.5,4.4h1.6v12.3h-1.8V7.1l-3.8,4.8h-0.3l-3.8-4.8v9.6h-1.8V4.4h1.7l4.1,5L183.5,4.4z"/>
<path class="st0" d="M193,11.8v3.4c0,0.3,0.1,0.4,0.3,0.4c0.3-0.1,0.7-0.2,0.9-0.4v1c-0.3,0.2-0.6,0.3-0.9,0.5
	c-0.2,0.1-0.5,0.1-0.7,0.1c-0.7,0-1.1-0.3-1.2-0.8c-0.6,0.5-1.4,0.8-2.2,0.8c-0.5,0-1-0.2-1.4-0.6c-0.4-0.4-0.6-0.9-0.6-1.4
	c0-0.5,0.2-1,0.6-1.4c0.4-0.5,1-0.8,1.6-1l2.1-0.7v-0.4c0.1-0.7-0.4-1.3-1.1-1.4c-0.1,0-0.2,0-0.3,0c-1,0.1-1.9,0.6-2.6,1.3V9.5
	c0.7-0.8,1.7-1.2,2.7-1.1c0.8,0,1.5,0.2,2.1,0.7c0.4,0.3,0.7,0.8,0.7,1.3C193,10.9,193,11.3,193,11.8z M191.4,15v-2.4l-1.1,0.4
	c-0.4,0.1-0.8,0.4-1.2,0.7c-0.4,0.5-0.4,1.2,0,1.6c0.2,0.2,0.5,0.3,0.8,0.3C190.6,15.6,191.1,15.4,191.4,15z"/>
<path class="st0" d="M197.6,8.6v1c0.6-0.7,1.5-1.1,2.4-1.2c0.5,0,1,0.1,1.4,0.4c0.4,0.3,0.8,0.6,1,1.1c0.3,0.7,0.4,1.4,0.3,2.2v4.6
	h-1.6V12c0-0.6-0.1-1.2-0.4-1.8c-0.3-0.4-0.8-0.6-1.3-0.5c-0.8,0-1.5,0.5-1.9,1.1v5.8H196V8.6H197.6z"/>
<path class="st0" d="M210.5,11.8v3.4c0,0.3,0.1,0.4,0.3,0.4c0.3-0.1,0.6-0.2,0.9-0.4v1c-0.3,0.2-0.6,0.3-0.9,0.5
	c-0.2,0.1-0.5,0.1-0.7,0.1c-0.7,0-1.1-0.3-1.2-0.8c-0.6,0.5-1.4,0.8-2.2,0.8c-0.5,0-1-0.2-1.4-0.6c-0.4-0.4-0.6-0.9-0.6-1.4
	c0-0.5,0.2-1,0.6-1.4c0.4-0.5,1-0.8,1.6-1l2.1-0.7v-0.4c0.1-0.7-0.4-1.4-1.1-1.5c-0.1,0-0.2,0-0.4,0c-1,0.1-1.9,0.6-2.6,1.3V9.5
	c0.7-0.8,1.7-1.2,2.7-1.1c0.8,0,1.5,0.2,2.1,0.7c0.2,0.2,0.4,0.4,0.5,0.6c0.1,0.2,0.2,0.5,0.3,0.7C210.5,10.9,210.5,11.3,210.5,11.8
	z M208.9,15v-2.4l-1.1,0.4c-0.4,0.1-0.8,0.4-1.2,0.7c-0.2,0.2-0.3,0.5-0.3,0.8c0,0.3,0.1,0.6,0.3,0.8c0.2,0.2,0.5,0.3,0.8,0.3
	C208,15.6,208.5,15.4,208.9,15z"/>
<path class="st0" d="M213.1,11.3c0-0.8,0.3-1.5,0.9-2c0.7-0.5,1.7-0.8,2.6-0.8h3.3v1.2h-1.6c0.3,0.3,0.5,0.5,0.7,0.9
	c0.1,0.3,0.2,0.6,0.2,0.9c0,0.4-0.1,0.9-0.4,1.3c-0.2,0.4-0.5,0.7-0.9,0.9c-0.6,0.3-1.2,0.5-1.9,0.5c-0.6,0.1-0.9,0.3-0.9,0.6
	c0,0.2,0.1,0.4,0.3,0.5c0.4,0.2,0.8,0.3,1.2,0.4c0.6,0.1,1.3,0.3,1.9,0.5c0.3,0.1,0.5,0.3,0.8,0.5c0.4,0.4,0.6,0.9,0.6,1.5
	c0,0.7-0.4,1.4-1,1.8c-0.8,0.5-1.8,0.7-2.7,0.7c-1,0-1.9-0.2-2.8-0.7c-0.6-0.4-1-1.1-1-1.8c0-1.1,0.7-1.8,2-2.1
	c-0.5-0.3-0.8-0.7-0.8-1c0-0.3,0.1-0.5,0.4-0.7c0.3-0.2,0.6-0.4,0.9-0.5C213.8,13.6,213,12.5,213.1,11.3z M215.7,17
	c-0.5,0-0.9,0.1-1.3,0.3c-0.3,0.2-0.5,0.5-0.5,0.9c0,0.8,0.8,1.2,2.3,1.2c0.6,0,1.1-0.1,1.6-0.3c0.3-0.2,0.6-0.5,0.6-0.9
	c0-0.4-0.2-0.7-0.7-0.9C217,17.1,216.3,17,215.7,17z M216.1,9.9c-0.4,0-0.8,0.1-1.1,0.4c-0.3,0.3-0.5,0.6-0.5,1.1
	c0,0.4,0.2,0.7,0.4,1c0.3,0.3,0.7,0.4,1.1,0.4c0.4,0,0.8-0.1,1.1-0.4c0.6-0.6,0.6-1.5,0.1-2.1c0,0,0,0-0.1,0
	C216.9,10,216.5,9.9,216.1,9.9L216.1,9.9z"/>
<path class="st0" d="M228.4,12.7h-5.7c0,0.7,0.3,1.4,0.8,1.8c0.5,0.5,1.2,0.7,1.9,0.7c1.1,0,2.1-0.4,2.9-1v1.6
	c-0.4,0.3-0.9,0.5-1.5,0.7c-0.6,0.1-1.1,0.2-1.7,0.2c-0.8,0-1.5-0.2-2.2-0.6c-0.6-0.4-1-0.9-1.3-1.5c-0.3-0.7-0.5-1.4-0.5-2.2
	c-0.1-1.1,0.3-2.2,1-3c0.7-0.8,1.7-1.2,2.7-1.2c1,0,1.9,0.4,2.6,1.1c0.7,0.8,1,1.9,1,3L228.4,12.7z M222.8,11.7h4.1
	c0-0.5-0.2-1.1-0.6-1.5c-0.4-0.4-0.9-0.5-1.4-0.5c-0.5,0-1,0.2-1.4,0.5C223.1,10.7,222.8,11.2,222.8,11.7L222.8,11.7z"/>
<path class="st0" d="M237.2,10.8v5.9h-1.6v-4.5c0.1-0.6-0.1-1.3-0.4-1.9c-0.3-0.4-0.8-0.6-1.3-0.5c-0.3,0-0.6,0.1-0.9,0.2
	c-0.4,0.2-0.7,0.5-1,0.8v5.9h-1.6V8.6h1.6v1.1c0.6-0.7,1.5-1.1,2.4-1.2c1,0,1.9,0.6,2.4,1.5c0.6-0.9,1.6-1.4,2.7-1.5
	c0.7,0,1.5,0.3,1.9,0.9c0.6,0.8,0.8,1.7,0.8,2.6v4.8h-1.6v-4.8c0-0.5-0.1-1.1-0.4-1.6c-0.3-0.4-0.7-0.6-1.2-0.5
	C238.3,9.8,237.6,10.2,237.2,10.8z"/>
<path class="st0" d="M251.7,12.7h-5.7c0,0.7,0.3,1.4,0.8,1.8c0.5,0.5,1.2,0.7,1.9,0.7c1.1,0,2.1-0.4,2.9-1v1.6
	c-0.4,0.3-0.9,0.5-1.5,0.7c-0.6,0.1-1.1,0.2-1.7,0.2c-0.8,0-1.5-0.2-2.2-0.6c-0.6-0.4-1-0.9-1.3-1.5c-0.3-0.7-0.5-1.4-0.5-2.2
	c-0.1-1.1,0.3-2.2,1-3c0.7-0.8,1.7-1.2,2.7-1.2c1,0,1.9,0.4,2.6,1.1c0.7,0.8,1,1.9,1,3V12.7z M246.1,11.7h4.1c0-0.5-0.2-1.1-0.6-1.5
	c-0.4-0.4-0.9-0.5-1.4-0.5c-0.5,0-1,0.2-1.4,0.5C246.4,10.7,246.1,11.2,246.1,11.7L246.1,11.7z"/>
<path class="st0" d="M255.5,8.6v1c0.6-0.7,1.5-1.2,2.4-1.2c0.5,0,1,0.1,1.4,0.4c0.4,0.3,0.8,0.6,1,1.1c0.3,0.7,0.4,1.4,0.3,2.2v4.6
	H259V12c0-0.6-0.1-1.2-0.4-1.8c-0.3-0.4-0.8-0.6-1.3-0.5c-0.8,0-1.5,0.5-1.9,1.1v5.8h-1.6V8.6H255.5z"/>
<path class="st0" d="M262.1,9.8l3-3v1.7h2.6V10h-2.6v4c0,0.9,0.4,1.4,1.1,1.4c0.6,0,1.3-0.2,1.8-0.6v1.5c-0.6,0.3-1.3,0.5-2,0.5
	c-0.7,0-1.3-0.2-1.8-0.7c-0.1-0.1-0.3-0.3-0.4-0.4c-0.1-0.2-0.2-0.4-0.3-0.6c-0.1-0.5-0.1-1-0.1-1.5V10h-1.4V9.8z"/>
</svg>
