<svg xmlns="http://www.w3.org/2000/svg" viewBox="0 0 75.092 78.122">
  <defs>
    <style>
      .cls-1 {
        fill: #1689c3;
      }
    </style>
  </defs>
  <g id="icons8-place_marker" transform="translate(-2332 -6278)">
    <path id="Path_78" data-name="Path 78" class="cls-1" d="M2343.635,6352.7a27.7,27.7,0,0,1-8.164-3.814c-2.042-1.521-3.471-3.434-3.471-5.671a6.462,6.462,0,0,1,1.956-4.4,16.3,16.3,0,0,1,4.742-3.227,54.512,54.512,0,0,1,15.448-4.252,1.584,1.584,0,0,1,.49,3.129,52.509,52.509,0,0,0-14.569,3.959,13.828,13.828,0,0,0-3.862,2.59,3.163,3.163,0,0,0-1.077,2.2c0,.9.6,1.932,2.2,3.13a25.209,25.209,0,0,0,7.234,3.372c6.295,1.986,15.18,3.277,24.982,3.277s18.687-1.291,24.98-3.277a25.242,25.242,0,0,0,7.236-3.372c1.6-1.2,2.2-2.231,2.2-3.13a3.16,3.16,0,0,0-1.075-2.2,13.88,13.88,0,0,0-3.862-2.59,52.526,52.526,0,0,0-14.569-3.959,1.584,1.584,0,0,1,.49-3.129,54.526,54.526,0,0,1,15.448,4.252,16.322,16.322,0,0,1,4.742,3.227,6.481,6.481,0,0,1,1.956,4.4c0,2.237-1.431,4.149-3.471,5.671a27.741,27.741,0,0,1-8.164,3.814c-6.729,2.126-15.84,3.422-25.91,3.422S2350.364,6354.826,2343.635,6352.7Zm24.737-6.65a154.193,154.193,0,0,1-10.265-15.789,105.5,105.5,0,0,1-7.11-14.9,45.535,45.535,0,0,1-3.254-15.561,21.8,21.8,0,1,1,43.607,0,45,45,0,0,1-3.257,15.389,107.437,107.437,0,0,1-7.107,14.921,159.573,159.573,0,0,1-10.254,15.92l-.013.016a1.449,1.449,0,0,1-2.348,0Zm-12.179-59.6a18.748,18.748,0,0,0-5.518,13.354,43.078,43.078,0,0,0,3.1,14.534,101.055,101.055,0,0,0,6.874,14.5,136.818,136.818,0,0,0,8.9,13.835,142.626,142.626,0,0,0,8.9-13.981,103.875,103.875,0,0,0,6.874-14.542c2.056-5.536,3.1-10.364,3.1-14.351a18.885,18.885,0,0,0-32.224-13.354Zm5.65,22.627a10.9,10.9,0,1,1,7.708,3.193A10.822,10.822,0,0,1,2361.843,6309.077Zm-.161-7.707a7.87,7.87,0,1,0,7.869-7.871A7.879,7.879,0,0,0,2361.681,6301.37Z"/>
  </g>
</svg>
