<svg xmlns="http://www.w3.org/2000/svg" viewBox="0 0 64.659 76.082">
  <defs>
    <style>
      .cls-1 {
        fill: #1689c3;
      }
    </style>
  </defs>
  <g id="icon_building" data-name="icon building" transform="translate(-39.2 -1.794)">
    <g id="Group_231" data-name="Group 231" transform="translate(39.2 1.794)">
      <g id="Group_220" data-name="Group 220">
        <g id="Group_211" data-name="Group 211">
          <path id="Path_351" data-name="Path 351" class="cls-1" d="M40.363,77.876A1.171,1.171,0,0,1,39.2,76.713l.015-62.526a1.152,1.152,0,0,1,.671-1.044L64.625,1.9a1.141,1.141,0,0,1,1.625,1.044V46.7a1.148,1.148,0,0,1-2.3,0V4.733L41.526,14.918V75.565H57.631a1.148,1.148,0,0,1,0,2.3Z" transform="translate(-39.2 -1.794)"/>
        </g>
        <g id="Group_219" data-name="Group 219" transform="translate(4.086 15.554)">
          <g id="Group_212" data-name="Group 212">
            <path id="Path_352" data-name="Path 352" class="cls-1" d="M74.16,114.809H67.748A1.149,1.149,0,0,1,66.6,113.66v-6.412a1.149,1.149,0,0,1,1.148-1.148H74.16a1.149,1.149,0,0,1,1.148,1.148v6.412A1.149,1.149,0,0,1,74.16,114.809Zm-5.264-2.3H73v-4.1H68.9Z" transform="translate(-66.6 -106.1)"/>
          </g>
          <g id="Group_213" data-name="Group 213" transform="translate(9.887)">
            <path id="Path_353" data-name="Path 353" class="cls-1" d="M140.46,114.809h-6.412a1.149,1.149,0,0,1-1.148-1.148v-6.412a1.149,1.149,0,0,1,1.148-1.148h6.412a1.149,1.149,0,0,1,1.148,1.148v6.412A1.139,1.139,0,0,1,140.46,114.809Zm-5.249-2.3h4.1v-4.1h-4.1Z" transform="translate(-132.9 -106.1)"/>
          </g>
          <g id="Group_214" data-name="Group 214" transform="translate(0 9.648)">
            <path id="Path_354" data-name="Path 354" class="cls-1" d="M74.16,179.509H67.748A1.149,1.149,0,0,1,66.6,178.36v-6.412a1.149,1.149,0,0,1,1.148-1.148H74.16a1.149,1.149,0,0,1,1.148,1.148v6.412A1.149,1.149,0,0,1,74.16,179.509Zm-5.264-2.3H73v-4.1H68.9Z" transform="translate(-66.6 -170.8)"/>
          </g>
          <g id="Group_215" data-name="Group 215" transform="translate(9.887 9.648)">
            <path id="Path_355" data-name="Path 355" class="cls-1" d="M140.46,179.509h-6.412a1.149,1.149,0,0,1-1.148-1.148v-6.412a1.149,1.149,0,0,1,1.148-1.148h6.412a1.149,1.149,0,0,1,1.148,1.148v6.412A1.139,1.139,0,0,1,140.46,179.509Zm-5.249-2.3h4.1v-4.1h-4.1Z" transform="translate(-132.9 -170.8)"/>
          </g>
          <g id="Group_216" data-name="Group 216" transform="translate(0 19.326)">
            <path id="Path_356" data-name="Path 356" class="cls-1" d="M74.16,244.409H67.748A1.149,1.149,0,0,1,66.6,243.26v-6.412a1.149,1.149,0,0,1,1.148-1.148H74.16a1.149,1.149,0,0,1,1.148,1.148v6.412A1.149,1.149,0,0,1,74.16,244.409Zm-5.264-2.3H73v-4.1H68.9Z" transform="translate(-66.6 -235.7)"/>
          </g>
          <g id="Group_217" data-name="Group 217" transform="translate(9.887 19.326)">
            <path id="Path_357" data-name="Path 357" class="cls-1" d="M140.46,244.409h-6.412a1.149,1.149,0,0,1-1.148-1.148v-6.412a1.149,1.149,0,0,1,1.148-1.148h6.412a1.149,1.149,0,0,1,1.148,1.148v6.412A1.139,1.139,0,0,1,140.46,244.409Zm-5.249-2.3h4.1v-4.1h-4.1Z" transform="translate(-132.9 -235.7)"/>
          </g>
          <g id="Group_218" data-name="Group 218" transform="translate(0 29.004)">
            <path id="Path_358" data-name="Path 358" class="cls-1" d="M74.16,309.309H67.748A1.149,1.149,0,0,1,66.6,308.16v-6.412a1.149,1.149,0,0,1,1.148-1.148H74.16a1.149,1.149,0,0,1,1.148,1.148v6.412A1.158,1.158,0,0,1,74.16,309.309Zm-5.264-2.3H73v-4.1H68.9Z" transform="translate(-66.6 -300.6)"/>
          </g>
        </g>
      </g>
      <g id="Group_230" data-name="Group 230" transform="translate(37.608)">
        <g id="Group_221" data-name="Group 221">
          <path id="Path_359" data-name="Path 359" class="cls-1" d="M317.287,77.876a1.171,1.171,0,0,0,1.163-1.163V14.172a1.152,1.152,0,0,0-.671-1.044L293.025,1.9A1.141,1.141,0,0,0,291.4,2.943V46.7a1.148,1.148,0,1,0,2.3,0V4.733l22.428,10.2V75.58H300.019a1.148,1.148,0,0,0,0,2.3Z" transform="translate(-291.4 -1.794)"/>
        </g>
        <g id="Group_229" data-name="Group 229" transform="translate(4.369 15.554)">
          <g id="Group_222" data-name="Group 222" transform="translate(9.887)">
            <path id="Path_360" data-name="Path 360" class="cls-1" d="M387,113.66v-6.412a1.149,1.149,0,0,1,1.148-1.148h6.412a1.149,1.149,0,0,1,1.148,1.148v6.412a1.149,1.149,0,0,1-1.148,1.148h-6.412A1.149,1.149,0,0,1,387,113.66Zm6.412-5.249h-4.1v4.1h4.1Z" transform="translate(-387 -106.1)"/>
          </g>
          <g id="Group_223" data-name="Group 223">
            <path id="Path_361" data-name="Path 361" class="cls-1" d="M320.7,113.66v-6.412a1.149,1.149,0,0,1,1.148-1.148h6.412a1.149,1.149,0,0,1,1.148,1.148v6.412a1.149,1.149,0,0,1-1.148,1.148h-6.412A1.139,1.139,0,0,1,320.7,113.66Zm6.4-5.249H323v4.1h4.1Z" transform="translate(-320.7 -106.1)"/>
          </g>
          <g id="Group_224" data-name="Group 224" transform="translate(9.887 9.648)">
            <path id="Path_362" data-name="Path 362" class="cls-1" d="M387,178.36v-6.412a1.149,1.149,0,0,1,1.148-1.148h6.412a1.149,1.149,0,0,1,1.148,1.148v6.412a1.149,1.149,0,0,1-1.148,1.148h-6.412A1.149,1.149,0,0,1,387,178.36Zm6.412-5.249h-4.1v4.1h4.1Z" transform="translate(-387 -170.8)"/>
          </g>
          <g id="Group_225" data-name="Group 225" transform="translate(0 9.648)">
            <path id="Path_363" data-name="Path 363" class="cls-1" d="M320.7,178.36v-6.412a1.149,1.149,0,0,1,1.148-1.148h6.412a1.149,1.149,0,0,1,1.148,1.148v6.412a1.149,1.149,0,0,1-1.148,1.148h-6.412A1.139,1.139,0,0,1,320.7,178.36Zm6.4-5.249H323v4.1h4.1Z" transform="translate(-320.7 -170.8)"/>
          </g>
          <g id="Group_226" data-name="Group 226" transform="translate(9.887 19.326)">
            <path id="Path_364" data-name="Path 364" class="cls-1" d="M387,243.26v-6.412a1.149,1.149,0,0,1,1.148-1.148h6.412a1.149,1.149,0,0,1,1.148,1.148v6.412a1.149,1.149,0,0,1-1.148,1.148h-6.412A1.149,1.149,0,0,1,387,243.26Zm6.412-5.249h-4.1v4.1h4.1Z" transform="translate(-387 -235.7)"/>
          </g>
          <g id="Group_227" data-name="Group 227" transform="translate(0 19.326)">
            <path id="Path_365" data-name="Path 365" class="cls-1" d="M320.7,243.26v-6.412a1.149,1.149,0,0,1,1.148-1.148h6.412a1.149,1.149,0,0,1,1.148,1.148v6.412a1.149,1.149,0,0,1-1.148,1.148h-6.412A1.139,1.139,0,0,1,320.7,243.26Zm6.4-5.249H323v4.1h4.1Z" transform="translate(-320.7 -235.7)"/>
          </g>
          <g id="Group_228" data-name="Group 228" transform="translate(9.887 29.004)">
            <path id="Path_366" data-name="Path 366" class="cls-1" d="M387,308.16v-6.412a1.149,1.149,0,0,1,1.148-1.148h6.412a1.149,1.149,0,0,1,1.148,1.148v6.412a1.149,1.149,0,0,1-1.148,1.148h-6.412A1.158,1.158,0,0,1,387,308.16Zm6.412-5.264h-4.1V307h4.1Z" transform="translate(-387 -300.6)"/>
          </g>
        </g>
      </g>
    </g>
    <g id="Group_232" data-name="Group 232" transform="translate(53.113 46.352)">
      <path id="Path_367" data-name="Path 367" class="cls-1" d="M168.185,332.124H133.648a1.149,1.149,0,0,1-1.148-1.148V301.748a1.149,1.149,0,0,1,1.148-1.148h34.536a1.149,1.149,0,0,1,1.148,1.148v29.243A1.146,1.146,0,0,1,168.185,332.124ZM134.8,329.843h32.255V302.9H134.8Z" transform="translate(-132.5 -300.6)"/>
    </g>
    <g id="Group_236" data-name="Group 236" transform="translate(58.198 50.453)">
      <g id="Group_233" data-name="Group 233">
        <path id="Path_368" data-name="Path 368" class="cls-1" d="M192.115,330.4H167.748a1.148,1.148,0,1,1,0-2.3H192.1a1.148,1.148,0,0,1,.015,2.3Z" transform="translate(-166.6 -328.1)"/>
      </g>
      <g id="Group_234" data-name="Group 234" transform="translate(0 4.16)">
        <path id="Path_369" data-name="Path 369" class="cls-1" d="M192.115,358.3H167.748a1.148,1.148,0,1,1,0-2.3H192.1a1.149,1.149,0,0,1,1.148,1.148A1.136,1.136,0,0,1,192.115,358.3Z" transform="translate(-166.6 -356)"/>
      </g>
      <g id="Group_235" data-name="Group 235" transform="translate(8.202 10.468)">
        <path id="Path_370" data-name="Path 370" class="cls-1" d="M230.726,415.255h-7.978a1.149,1.149,0,0,1-1.148-1.148V399.448a1.149,1.149,0,0,1,1.148-1.148h7.978a1.149,1.149,0,0,1,1.148,1.148v14.659A1.149,1.149,0,0,1,230.726,415.255Zm-6.83-2.3h5.667V400.6H223.9Z" transform="translate(-221.6 -398.3)"/>
      </g>
    </g>
  </g>
</svg>
